<?xml version="1.0" encoding="utf-8"?>
<!-- Generator: Adobe Illustrator 16.0.0, SVG Export Plug-In . SVG Version: 6.00 Build 0)  -->
<!DOCTYPE svg PUBLIC "-//W3C//DTD SVG 1.1//EN" "http://www.w3.org/Graphics/SVG/1.1/DTD/svg11.dtd">
<svg version="1.1" id="Layer_1" xmlns="http://www.w3.org/2000/svg" xmlns:xlink="http://www.w3.org/1999/xlink" x="0px" y="0px"
	 width="28.998px" height="28.977px" viewBox="0 0 28.998 28.977" enable-background="new 0 0 28.998 28.977" xml:space="preserve">
<g>
	<path fill="#FFFFFF" d="M14.498,16.198l12.438,12.436c0.457,0.457,1.252,0.457,1.709,0c0.471-0.472,0.471-1.237,0-1.709
		L16.207,14.488L28.644,2.052c0.229-0.229,0.354-0.533,0.354-0.855s-0.125-0.625-0.354-0.853c-0.457-0.458-1.252-0.458-1.709,0
		L14.498,12.779L2.062,0.343c-0.457-0.457-1.252-0.457-1.709,0c-0.471,0.471-0.471,1.238,0,1.709l12.436,12.437L0.353,26.925
		c-0.471,0.472-0.471,1.237,0,1.709c0.457,0.457,1.252,0.457,1.709,0L14.498,16.198z"/>
</g>
</svg>
