<?xml version="1.0" encoding="utf-8"?>
<!-- Generator: Adobe Illustrator 16.0.0, SVG Export Plug-In . SVG Version: 6.00 Build 0)  -->
<!DOCTYPE svg PUBLIC "-//W3C//DTD SVG 1.1//EN" "http://www.w3.org/Graphics/SVG/1.1/DTD/svg11.dtd">
<svg version="1.1" id="Layer_1" xmlns="http://www.w3.org/2000/svg" xmlns:xlink="http://www.w3.org/1999/xlink" x="0px" y="0px"
	 width="10.694px" height="13.269px" viewBox="0 0 10.694 13.269" enable-background="new 0 0 10.694 13.269" xml:space="preserve">
<g>
	<path fill="#D27037" d="M10.694,13.269H0l0.428-9.998h9.696L10.694,13.269z M0.433,12.853h9.821L9.729,3.686H0.826L0.433,12.853z
		 M10.245,12.845H0.442l0.392-9.15h8.889L10.245,12.845z M0.876,12.429h8.929L9.33,4.111H1.231L0.876,12.429z"/>
	<path fill="#D27037" d="M7.925,5.905h-0.84V1.467c0-0.346-0.281-0.627-0.627-0.627H4.233c-0.346,0-0.627,0.281-0.627,0.627v4.372
		H2.768V1.467C2.768,0.657,3.425,0,4.233,0h2.225c0.809,0,1.467,0.657,1.467,1.467V5.905z M7.501,5.489h0.008V1.467
		c0-0.58-0.472-1.051-1.051-1.051H4.233c-0.58,0-1.051,0.471-1.051,1.051L3.19,5.424V1.467c0-0.576,0.468-1.043,1.043-1.043h2.225
		c0.574,0,1.043,0.467,1.043,1.043V5.489z"/>
</g>
</svg>
