<?xml version="1.0" encoding="utf-8"?>
<!-- Generator: Adobe Illustrator 16.0.0, SVG Export Plug-In . SVG Version: 6.00 Build 0)  -->
<!DOCTYPE svg PUBLIC "-//W3C//DTD SVG 1.1//EN" "http://www.w3.org/Graphics/SVG/1.1/DTD/svg11.dtd">
<svg version="1.1" id="Layer_1" xmlns="http://www.w3.org/2000/svg" xmlns:xlink="http://www.w3.org/1999/xlink" x="0px" y="0px"
	 width="276.414px" height="118.866px" viewBox="0 0 276.414 118.866" enable-background="new 0 0 276.414 118.866"
	 xml:space="preserve">
<g>
	<defs>
		<path id="SVGID_1_" d="M123.824,116.172c0,1.277,0.789,2.68,2.653,2.68c0.76,0,1.374-0.245,2.013-0.816
			c0.042-0.042-0.054-0.135-0.096-0.109c-0.422,0.341-0.912,0.447-1.388,0.447c-1.616,0-2.284-1.211-2.284-2.61
			c0-1.292,0.583-2.176,1.619-2.176c0.544,0,0.761,0.217,0.966,0.543c0.121,0.245,0.313,0.451,0.597,0.451
			c0.301,0,0.477-0.206,0.477-0.437c0-0.49-0.828-0.831-1.592-0.831C125.401,113.313,123.824,114.347,123.824,116.172
			 M172.534,113.587c0.653,0,1.073,0.419,1.073,1.168l-2.529,0.057C171.281,114.034,171.785,113.587,172.534,113.587
			 M170.07,116.239c0,1.331,0.87,2.612,2.561,2.612c0.691,0,1.332-0.23,1.984-0.791c0.039-0.054-0.054-0.16-0.096-0.135
			c-0.434,0.313-0.938,0.447-1.402,0.447c-1.359,0-2.147-1.115-2.147-2.663c0-0.26,0.028-0.493,0.066-0.71l3.349-0.025
			c0.135,0,0.163-0.109,0.163-0.315c0-0.827-0.558-1.346-1.552-1.346C171.338,113.313,170.07,114.595,170.07,116.239
			 M182.342,116.172c0,1.277,0.788,2.68,2.651,2.68c0.761,0,1.374-0.245,2.014-0.816c0.042-0.042-0.054-0.135-0.097-0.109
			c-0.422,0.341-0.908,0.447-1.388,0.447c-1.616,0-2.283-1.211-2.283-2.61c0-1.292,0.583-2.176,1.619-2.176
			c0.543,0,0.76,0.217,0.966,0.543c0.121,0.245,0.313,0.451,0.598,0.451c0.301,0,0.475-0.206,0.475-0.437
			c0-0.49-0.827-0.831-1.59-0.831C183.918,113.313,182.342,114.347,182.342,116.172 M207.859,113.327l-1.769,0.817
			c-0.057,0.042,0,0.191,0.082,0.163c0.256-0.136,0.462-0.191,0.61-0.191c0.342,0,0.448,0.287,0.448,0.926v2.543
			c0,0.777-0.161,0.94-0.87,0.94c-0.04,0-0.04,0.16,0,0.16c0.34,0,0.777-0.025,1.253-0.025s0.912,0.025,1.239,0.025
			c0.053,0,0.053-0.16,0-0.16c-0.721,0-0.859-0.163-0.859-0.94v-2.557c0-0.87,0.028-1.456,0.028-1.604c0-0.054-0.068-0.11-0.11-0.11
			L207.859,113.327z M137.043,115.571c0-1.331,0.572-2.052,1.539-2.052c1.267,0,2.164,1.21,2.164,2.922
			c0,1.523-0.613,2.165-1.564,2.165C137.916,118.606,137.043,117.247,137.043,115.571 M136.135,115.995
			c0,1.536,1.033,2.871,2.651,2.871c1.553,0,2.884-1.076,2.884-2.805c0-1.413-0.978-2.802-2.639-2.802
			C137.712,113.26,136.135,114.116,136.135,115.995 M217.557,115.571c0-1.331,0.571-2.052,1.537-2.052
			c1.264,0,2.162,1.21,2.162,2.922c0,1.523-0.611,2.165-1.563,2.165C218.427,118.606,217.557,117.247,217.557,115.571
			 M216.646,115.995c0,1.536,1.033,2.871,2.652,2.871c1.549,0,2.883-1.076,2.883-2.805c0-1.413-0.979-2.802-2.639-2.802
			C218.224,113.26,216.646,114.116,216.646,115.995 M231.704,114.429c0-0.721-0.259-1.115-0.396-1.115c-0.026,0-0.054,0-0.079,0.014
			l-1.579,0.749c-0.082,0.04-0.015,0.175,0.067,0.149c0.313-0.124,0.558-0.205,0.734-0.205c0.355,0,0.477,0.272,0.477,0.873v2.691
			c0,0.777-0.135,0.94-0.842,0.94c-0.057,0-0.057,0.16,0,0.16c0.312,0,0.76-0.025,1.235-0.025c0.462,0,0.912,0.025,1.226,0.025
			c0.056,0,0.056-0.16,0-0.16c-0.707,0-0.843-0.163-0.843-0.94v-2.926c0.477-0.529,1.073-0.842,1.634-0.842
			c0.855,0,1.25,0.49,1.25,1.565v2.202c0,0.777-0.136,0.94-0.846,0.94c-0.053,0-0.053,0.16,0,0.16c0.316,0,0.764-0.025,1.239-0.025
			c0.462,0,0.913,0.025,1.226,0.025c0.053,0,0.053-0.16,0-0.16c-0.711,0-0.846-0.163-0.846-0.94v-2.667
			c0-1.086-0.57-1.658-1.576-1.658C233.064,113.26,232.396,113.626,231.704,114.429 M196.078,112.579
			c-0.067,0.61-0.543,1.019-1.277,1.036c-0.068,0-0.068,0.174,0,0.174c0.61,0,0.691,0.085,0.691,0.749v3.199
			c0,0.855,0.643,1.114,1.308,1.114c0.585,0,1.075-0.205,1.743-0.721c0.066-0.056-0.028-0.177-0.097-0.138
			c-0.245,0.205-0.61,0.38-1.09,0.38c-0.678,0-1.072-0.352-1.072-1.101v-3.388c0.64,0.015,1.21,0.054,1.835,0.217
			c0.068,0.015,0.15-0.188,0.15-0.323c0-0.181-0.054-0.33-0.096-0.33c-0.68,0.071-1.265,0.124-1.89,0.139v-1.008
			c0-0.027-0.052-0.041-0.103-0.041C196.13,112.538,196.078,112.552,196.078,112.579 M206.907,111.151
			c0,0.369,0.218,0.571,0.598,0.571c0.368,0,0.57-0.202,0.57-0.571s-0.202-0.571-0.57-0.571
			C207.125,110.58,206.907,110.782,206.907,111.151 M150.973,108.84l-1.74,0.827c-0.066,0.028,0,0.191,0.068,0.149
			c0.272-0.121,0.478-0.188,0.628-0.188c0.323,0,0.433,0.284,0.433,0.924v7.033c0,0.777-0.148,0.94-0.855,0.94
			c-0.057,0-0.057,0.16,0,0.16c0.326,0,0.774-0.025,1.25-0.025c0.489,0,0.94,0.025,1.253,0.025c0.054,0,0.054-0.16,0-0.16
			c-0.72,0-0.845-0.191-0.845-0.94v-8.652c0-0.054-0.082-0.107-0.121-0.107C151.015,108.825,151,108.825,150.973,108.84
			 M161.286,108.84l-1.743,0.827c-0.067,0.028,0,0.191,0.067,0.149c0.274-0.121,0.477-0.188,0.628-0.188
			c0.324,0,0.435,0.284,0.435,0.924v7.033c0,0.777-0.149,0.94-0.856,0.94c-0.056,0-0.056,0.16,0,0.16
			c0.327,0,0.774-0.025,1.25-0.025c0.49,0,0.941,0.025,1.253,0.025c0.054,0,0.054-0.16,0-0.16c-0.721,0-0.845-0.191-0.845-0.94
			v-8.652c0-0.054-0.081-0.107-0.121-0.107C161.325,108.825,161.312,108.825,161.286,108.84 M173.666,44.582
			c0,1.098,0.822,2.196,1.921,2.196c2.331,0,4.116-2.74,4.116-4.393c0-1.095-0.138-2.193-1.51-2.193
			C175.862,40.192,173.666,42.112,173.666,44.582 M164.885,94.379c0-8.645,20.168-31.278,22.911-31.278
			c1.098,0,1.784,1.509,1.784,3.156c0,2.469-1.512,6.172-3.844,10.149c-2.193,3.019-4.113,5.764-5.622,8.233
			c-4.938,6.444-10.563,11.933-13.444,11.933C165.571,96.572,164.885,95.474,164.885,94.379 M197.948,94.379
			c0-8.645,20.162-31.278,22.907-31.278c1.098,0,1.783,1.509,1.783,3.156c0,2.469-1.509,6.172-3.841,10.149
			c-2.193,3.019-4.113,5.764-5.625,8.233c-4.937,6.444-10.563,11.933-13.442,11.933C198.633,96.572,197.948,95.474,197.948,94.379
			 M274.218,31.824c0.825,0,1.374,0.96,1.374,2.059c0,6.31-15.23,21.398-28.811,31.275
			C257.896,48.695,271.337,31.824,274.218,31.824 M245.135,60.22c-4.998,6.667-9.77,13.258-13.157,18.94l-0.011-0.008
			c-4.663,7.132-12.758,17.42-16.049,17.42c-1.099,0-1.51-1.233-1.51-2.332c0-1.098,0.688-2.331,1.371-3.567l16.188-27.983h-2.471
			l-7.818,9.877c1.099-2.47,1.786-4.666,1.786-6.31c0-1.51-0.688-3.979-2.608-3.979c-4.425,0-17.112,8.725-23.174,18.702
			c-4.746,6.937-11.807,15.592-14.825,15.592c-1.098,0-1.509-1.233-1.509-2.332c0-1.098,0.687-2.469,1.371-3.567l37.314-58.299
			h-2.472l-28.944,40.192c1.099-2.47,1.785-4.666,1.785-6.31c0-1.51-0.687-3.979-2.606-3.979c-4.476,0-17.397,8.92-23.375,19.036
			c-4.869,7.138-11.938,15.258-15.171,15.258c-0.55,0-1.371-0.412-1.371-1.51c0.135-4.113,17.558-32.098,17.558-32.098h-1.92
			c0,0-10.208,10.931-15.793,19.909c-5.093,6.909-11.325,13.698-14.112,13.698c-0.822,0-1.782-0.96-1.782-2.059
			c0-5.623,10.699-12.619,10.699-22.085c0-3.703-1.098-6.034-1.509-8.915c1.371-1.646,5.35-6.174,5.35-7.684
			c0-0.549-0.272-1.095-0.96-1.095c-3.292,0-5.35,3.153-5.35,6.307c0,0.825,0,1.647,0.135,2.334
			c-1.232,1.51-6.31,8.503-11.932,15.776l0.684,0.546c5.076-6.583,9.604-13.03,11.386-15.224c0.55,2.604,1.099,4.389,1.099,4.662
			c0,9.055-12.484,12.347-12.484,21.813c0,4.936,2.607,6.448,4.665,6.448c3.017,0,7.9-5.311,11.709-10.114
			c-0.723,1.615-1.146,3.057-1.146,4.215c0,3.016,1.098,5.899,5.076,5.899c3.473,0,9.248-6.751,13.158-11.914
			c-0.693,1.877-1.088,3.762-1.088,5.601c0,3.706,2.331,6.313,5.35,6.313c2.606,0,7.27-3.979,11.659-9.193
			c-0.549,1.236-0.822,2.469-0.822,3.294c0,4.252,2.332,5.899,5.35,5.899c3.147,0,8.711-6.661,12.596-11.869
			c-0.684,1.862-1.071,3.73-1.071,5.556c0,3.706,2.332,6.313,5.35,6.313c2.607,0,7.27-3.979,11.659-9.193
			c-0.549,1.236-0.822,2.469-0.822,3.294c0,4.252,2.332,5.899,5.351,5.899c3.228,0,8.998-7.01,12.893-12.271
			c-1.135,2.533-1.783,4.741-1.783,6.507c0,2.745,0.96,5.764,5.764,5.764c5.35,0,12.344-12.074,17.559-17.699l-0.688-0.546
			c-4.801,5.211-12.07,17.42-16.871,17.42c-0.963,0-1.51-0.549-1.51-2.604c0-3.844,6.448-15.092,14.265-26.889
			c12.761-8.919,30.868-25.65,30.868-33.196c0-1.371-0.55-2.881-2.196-2.881C269.278,31.002,256.386,45.269,245.135,60.22
			 M21.672,95.612l0.138-0.139c0.687-0.684,3.568-1.371,5.626-1.371c8.641,0,14.54,1.647,21.672,2.607
			c-4.663,1.371-9.875,2.059-15.772,2.059C27.436,98.769,21.672,97.808,21.672,95.612 M83.952,90.673
			c0-8.367,11.249-16.598,22.087-16.598c2.192,0,2.879,0.273,3.29,0.549C108.78,86.146,97.257,96.572,90.4,96.572
			C86.423,96.572,83.952,95.75,83.952,90.673 M85.735,24.417c0.276,1.509,0.411,3.018,0.411,4.527
			c0,26.613-25.377,55.008-47.601,55.008c-7.407,0-12.896-6.036-12.896-13.168c0-2.884,0.411-5.761,1.098-8.506
			c13.58-1.645,23.871-10.562,29.493-22.224l-0.821-0.273c-5.487,11.387-15.229,19.89-28.398,21.675
			C33.335,40.466,59.81,25.104,85.735,24.417 M0.822,41.84c0-21.95,27.162-41.018,53.635-41.018c14.681,0,28.26,9.189,31.141,22.772
			c-26.199,0.684-53.223,16.187-59.398,37.861c-1.371,0.135-2.742,0.272-4.113,0.272C10.835,61.729,0.822,54.87,0.822,41.84
			 M0,41.84c0,13.579,10.288,20.711,22.086,20.711c1.233,0,2.604,0,3.838-0.135c-0.685,2.742-1.096,5.484-1.096,8.368
			c0,7.681,5.761,13.99,13.718,13.99c22.772,0,48.423-24.966,48.423-55.83c0-1.51-0.135-3.019-0.411-4.527h0.825
			c9.328,0,18.38,2.469,23.595,7.818c-10.565,6.721-20.166,17.423-28.534,31.141C74.212,77.094,67.767,90.535,51.03,96.023
			c-7.818-0.961-13.994-2.743-23.595-2.743c-1.647,0-5.35,0.55-6.313,1.645c-0.272,0.276-0.272,0.549-0.272,0.688
			c0,3.156,7.135,3.979,12.485,3.979c6.721,0,12.618-1.099,17.831-2.743c2.606,0.273,5.352,0.55,8.367,0.55
			c8.645,0,15.092-1.647,20.715-8.645l-0.55-0.549c-5.35,6.721-11.521,8.368-20.165,8.368c-2.331,0-4.524-0.139-6.583-0.273
			c15.5-5.764,26.748-18.107,34.567-31.141c7.684-12.896,13.307-25.515,24.144-32.374c2.47,2.881,3.979,6.583,3.979,11.11
			c0,8.645-4.527,14.678-12.619,17.285c-1.647-0.546-3.43-0.822-5.215-0.822c-0.822,0-4.662,0.276-4.662,1.233
			c0,0.96,1.233,1.236,3.567,1.236c2.055,0,4.252-0.138,6.31-0.688c5.211,1.924,6.448,5.761,6.448,11.524
			c-1.1-0.272-2.197-0.411-3.43-0.411c-11.113,0-22.91,8.23-22.91,17.42c0,6.037,3.429,6.725,7.271,6.725
			c11.934,0,20.301-9.056,23.595-20.169c2.742,2.745,5.074,6.586,5.074,11.801c0,10.834-10.426,17.558-19.479,20.162l0.272,0.825
			c9.329-2.607,20.031-9.604,20.031-20.987c0-5.626-2.059-9.604-5.626-12.623c0.549-8.778-5.076-12.481-10.015-14.678
			c8.232-2.331,16.052-8.641,16.052-17.42c0-5.487-2.47-9.741-6.311-12.896c4.525-2.331,9.602-3.705,15.639-3.705
			c5.761,0,11.797,3.294,11.797,8.782c0,1.506-1.374,3.427-2.196,3.976l0.549,0.549c2.196-1.92,2.47-3.564,2.47-4.524
			c0-6.313-6.585-9.604-12.619-9.604c-6.311,0-11.662,1.51-16.325,3.979c-6.721-5.076-17.009-7.27-25.926-7.27h-0.96
			C83.541,9.463,69.549,0,54.457,0C27.709,0,0,19.067,0,41.84"/>
	</defs>
	<clipPath id="SVGID_2_">
		<use xlink:href="#SVGID_1_"  overflow="visible"/>
	</clipPath>
	
		<radialGradient id="SVGID_3_" cx="-564.4092" cy="5622.2109" r="1.0003" gradientTransform="matrix(106.3799 0 0 -106.3799 60180.0742 598149.625)" gradientUnits="userSpaceOnUse">
		<stop  offset="0" style="stop-color:#C36A36"/>
		<stop  offset="0.236" style="stop-color:#BE6737"/>
		<stop  offset="0.5308" style="stop-color:#AD5F39"/>
		<stop  offset="0.8557" style="stop-color:#94523A"/>
		<stop  offset="1" style="stop-color:#874B3A"/>
	</radialGradient>
	<rect clip-path="url(#SVGID_2_)" fill="url(#SVGID_3_)" width="276.413" height="118.866"/>
</g>
</svg>
