<?xml version="1.0" encoding="utf-8"?>
<!-- Generator: Adobe Illustrator 16.0.0, SVG Export Plug-In . SVG Version: 6.00 Build 0)  -->
<!DOCTYPE svg PUBLIC "-//W3C//DTD SVG 1.1//EN" "http://www.w3.org/Graphics/SVG/1.1/DTD/svg11.dtd">
<svg version="1.1" id="Layer_1" xmlns="http://www.w3.org/2000/svg" xmlns:xlink="http://www.w3.org/1999/xlink" x="0px" y="0px"
	 width="41.038px" height="29.5px" viewBox="0 0 41.038 29.5" enable-background="new 0 0 41.038 29.5" xml:space="preserve">
<g>
	<g>
		<g>
			<path fill="#979797" d="M5.519,0C5.021,0,4.615,0.406,4.615,0.904c0,0.498,0.405,0.903,0.903,0.903h30
				c0.499,0,0.904-0.405,0.904-0.903C36.423,0.406,36.018,0,35.519,0H5.519z"/>
		</g>
	</g>
	<g>
		<g>
			<path fill="#979797" d="M0.903,18.462C0.405,18.462,0,18.867,0,19.365s0.405,0.904,0.903,0.904h39.23
				c0.499,0,0.904-0.406,0.904-0.904s-0.405-0.903-0.904-0.903H0.903z"/>
		</g>
	</g>
	<g>
		<g>
			<path fill="#979797" d="M0.903,9.231C0.405,9.231,0,9.637,0,10.135s0.405,0.903,0.903,0.903h39.23
				c0.499,0,0.904-0.405,0.904-0.903s-0.405-0.903-0.904-0.903H0.903z"/>
		</g>
	</g>
	<g>
		<g>
			<path fill="#979797" d="M5.519,27.692c-0.498,0-0.903,0.405-0.903,0.904c0,0.498,0.405,0.903,0.903,0.903h30
				c0.499,0,0.904-0.405,0.904-0.903c0-0.499-0.405-0.904-0.904-0.904H5.519z"/>
		</g>
	</g>
</g>
</svg>
