<?xml version="1.0" encoding="utf-8"?>
<!-- Generator: Adobe Illustrator 21.0.0, SVG Export Plug-In . SVG Version: 6.00 Build 0)  -->
<svg version="1.1" id="Layer_1" xmlns="http://www.w3.org/2000/svg" xmlns:xlink="http://www.w3.org/1999/xlink" x="0px" y="0px"
	 viewBox="0 0 170.5 118.3" style="enable-background:new 0 0 170.5 118.3;" xml:space="preserve">
<style type="text/css">
	.st0{fill:#9D7657;}
</style>
<g>
	<g>
		<g>
			<path class="st0" d="M16.6,19.2c0-0.1,0.1-0.1,0.2-0.1s0.2,0.1,0.2,0.2c-0.2,1.6-0.3,3.3-0.3,5c0,0.4-0.2,0.6-0.6,0.6H0.2
				c-0.1,0-0.1-0.1-0.1-0.2s0-0.2,0.1-0.2c1.4,0,2.3-0.2,2.7-0.5c0.4-0.3,0.6-1,0.6-2.1V4.2c0-1.1-0.2-1.8-0.6-2.1
				C2.4,1.7,1.6,1.6,0.2,1.6c-0.1,0-0.1-0.1-0.1-0.2c0-0.2,0-0.2,0.1-0.2h15.2c0.2,0,0.3,0.1,0.3,0.3l0.1,4.7c0,0.1-0.1,0.1-0.2,0.1
				c-0.1,0-0.2,0-0.2-0.1C15.4,4.8,15,3.8,14.2,3c-0.7-0.7-1.7-1.1-2.9-1.1H9c-1.3,0-2.1,0.2-2.5,0.5c-0.4,0.3-0.6,1-0.6,2v7.7h4.6
				c1.2,0,2.1-0.2,2.6-0.6c0.5-0.4,0.8-1.1,0.8-2c0-0.1,0.1-0.1,0.2-0.1c0.2,0,0.2,0,0.2,0.1c0,0.6,0,1.1,0,1.7c0,0.6,0,1,0,1.3
				c0,0.4,0,0.9,0,1.7c0,0.8,0,1.4,0,1.8c0,0.1-0.1,0.1-0.2,0.1C14,16,14,16,14,16c0-1.1-0.3-1.9-0.8-2.4s-1.4-0.7-2.7-0.7H5.9v8.7
				c0,1,0.2,1.7,0.5,2C6.8,23.9,7.6,24,8.9,24h3c1.2,0,2.2-0.4,3-1.3C15.8,21.9,16.3,20.7,16.6,19.2z"/>
			<path class="st0" d="M25.9,4.2v17.4c0,1,0.2,1.7,0.5,2c0.4,0.3,1.2,0.4,2.5,0.4h4.1c1.4,0,2.6-0.4,3.5-1.3
				c0.9-0.9,1.4-2.1,1.7-3.7c0,0,0-0.1,0.1-0.1c0.1,0,0.1,0,0.2,0c0.1,0,0.1,0.1,0.1,0.1c-0.2,2.1-0.3,3.8-0.3,5.2
				c0,0.4-0.2,0.6-0.6,0.6H20.3c-0.1,0-0.1-0.1-0.1-0.2s0-0.2,0.1-0.2c1.4,0,2.2-0.2,2.6-0.5c0.4-0.3,0.6-1,0.6-2.1V4.2
				c0-1.1-0.2-1.8-0.6-2.1c-0.4-0.3-1.3-0.5-2.6-0.5c-0.1,0-0.1-0.1-0.1-0.2c0-0.2,0-0.2,0.1-0.2c0.4,0,1.1,0,2,0.1
				c1,0,1.8,0.1,2.4,0.1c0.6,0,1.4,0,2.4-0.1c1,0,1.7-0.1,2-0.1c0.1,0,0.1,0.1,0.1,0.2c0,0.2,0,0.2-0.1,0.2c-1.3,0-2.2,0.2-2.6,0.5
				C26.1,2.4,25.9,3.1,25.9,4.2z"/>
			<path class="st0" d="M57.2,19.2c0-0.1,0.1-0.1,0.2-0.1c0.1,0,0.2,0.1,0.2,0.2c-0.2,1.6-0.3,3.3-0.3,5c0,0.4-0.2,0.6-0.6,0.6H40.8
				c-0.1,0-0.1-0.1-0.1-0.2s0-0.2,0.1-0.2c1.4,0,2.3-0.2,2.7-0.5c0.4-0.3,0.6-1,0.6-2.1V4.2c0-1.1-0.2-1.8-0.6-2.1
				c-0.4-0.3-1.3-0.5-2.7-0.5c-0.1,0-0.1-0.1-0.1-0.2c0-0.2,0-0.2,0.1-0.2H56c0.2,0,0.3,0.1,0.3,0.3l0.1,4.7c0,0.1-0.1,0.1-0.2,0.1
				c-0.1,0-0.2,0-0.2-0.1c-0.1-1.3-0.5-2.4-1.2-3.1c-0.7-0.7-1.7-1.1-2.9-1.1h-2.3c-1.3,0-2.1,0.2-2.5,0.5c-0.4,0.3-0.6,1-0.6,2v7.7
				h4.6c1.2,0,2.1-0.2,2.6-0.6c0.5-0.4,0.8-1.1,0.8-2c0-0.1,0.1-0.1,0.2-0.1s0.2,0,0.2,0.1c0,0.6,0,1.1,0,1.7c0,0.6,0,1,0,1.3
				c0,0.4,0,0.9,0,1.7c0,0.8,0,1.4,0,1.8c0,0.1-0.1,0.1-0.2,0.1c-0.2,0-0.2,0-0.2-0.1c0-1.1-0.3-1.9-0.8-2.4
				c-0.5-0.5-1.4-0.7-2.7-0.7h-4.5v8.7c0,1,0.2,1.7,0.5,2c0.4,0.3,1.2,0.5,2.4,0.5h3c1.2,0,2.2-0.4,3-1.3
				C56.3,21.9,56.9,20.7,57.2,19.2z"/>
			<path class="st0" d="M75,25.3c-4.2,0-7.5-1.2-9.9-3.6c-2.5-2.4-3.7-5.3-3.7-8.9c0-3.7,1.3-6.6,4-8.8c2.7-2.2,6.1-3.3,10.2-3.3
				c2.8,0,5.1,0.5,6.8,1.5c0.2,0.1,0.3,0.2,0.3,0.3c0,0.1,0.1,0.2,0.1,0.5l0.5,4.5c0,0.1-0.1,0.1-0.2,0.2s-0.2,0-0.2-0.1
				c-1.2-4.1-3.8-6.2-7.9-6.2c-3,0-5.6,1-7.6,3c-2,2-3,4.7-3,8c0,1.6,0.2,3.1,0.7,4.6c0.5,1.5,1.2,2.8,2.1,4
				c0.9,1.2,2.2,2.1,3.7,2.8c1.5,0.7,3.2,1.1,5.1,1.1c1.8,0,3.1-0.3,3.8-1c0.7-0.7,1.1-1.9,1.1-3.6c0-1.8-0.2-3-0.7-3.4
				S78.6,16,76.6,16c-0.1,0-0.2,0-0.2-0.2c0-0.1,0-0.2,0-0.3c0-0.1,0.1-0.2,0.2-0.2c2.8,0.2,5.7,0.2,8.5,0.1c0.1,0,0.2,0.1,0.2,0.3
				c0,0.2-0.1,0.3-0.2,0.3c-0.9,0-1.4,0.2-1.6,0.7c-0.2,0.5-0.3,1.7-0.3,3.8c0,1,0,1.8,0.1,2.4c0.1,0.6,0.1,0.9,0.1,0.9
				c0,0.2,0,0.3-0.1,0.3c-0.1,0.1-0.2,0.1-0.3,0.2C79.9,24.9,77.2,25.3,75,25.3z"/>
			<path class="st0" d="M113.1,24.3c0.1,0,0.2,0.1,0.2,0.2s-0.1,0.2-0.2,0.2c-0.5,0-1.2,0-2.2-0.1c-1,0-1.7-0.1-2.2-0.1
				c-0.6,0-1.2,0-2.1,0.1c-0.8,0.1-1.5,0.1-1.9,0.1c-0.1,0-0.2-0.1-0.2-0.2s0.1-0.2,0.2-0.2c1.4,0,2.2-0.2,2.5-0.6
				c0.3-0.4,0.2-1.1-0.3-2.2l-3.4-7.2h-9L92.1,20c-0.6,1.5-0.7,2.7-0.1,3.3s1.6,1,3.3,1c0.1,0,0.2,0.1,0.2,0.2s-0.1,0.2-0.2,0.2
				c-0.5,0-1.2,0-2.1-0.1c-0.9,0-1.7-0.1-2.4-0.1c-0.6,0-1.4,0-2.2,0.1c-0.8,0.1-1.5,0.1-2,0.1c-0.1,0-0.2-0.1-0.2-0.2
				s0.1-0.2,0.2-0.2c1,0,1.9-0.3,2.5-1c0.6-0.6,1.4-1.9,2.1-3.7l8-18.9c0-0.1,0.1-0.1,0.2-0.1s0.2,0,0.2,0.1l9,18.8
				c0.9,1.9,1.6,3.1,2.2,3.8C111.5,24,112.3,24.3,113.1,24.3z M94.8,13.6h8.4l-4.4-9.4L94.8,13.6z"/>
			<path class="st0" d="M139.9,1.1c0.1,0,0.1,0.1,0.1,0.2c0,0.2,0,0.2-0.1,0.2c-1.1,0-1.8,0.3-2.3,0.9c-0.5,0.6-0.7,1.5-0.7,2.8v20
				c0,0.1-0.1,0.1-0.2,0.1c-0.1,0-0.2,0-0.3,0L119,4.2c-0.1-0.1-0.2-0.2-0.3-0.4v16.8c0,1.3,0.2,2.3,0.7,2.8
				c0.5,0.6,1.2,0.9,2.3,0.9c0.1,0,0.1,0.1,0.1,0.2s0,0.2-0.1,0.2c-0.3,0-0.8,0-1.6,0c-0.7,0-1.3,0-1.8,0c-0.4,0-1,0-1.8,0
				c-0.8,0-1.3,0-1.7,0c-0.1,0-0.1-0.1-0.1-0.2s0-0.2,0.1-0.2c1.1,0,1.9-0.3,2.3-0.9c0.5-0.6,0.7-1.5,0.7-2.8V2.9
				c-1-0.9-2-1.4-3-1.4c-0.1,0-0.1-0.1-0.1-0.2c0-0.2,0-0.2,0.1-0.2c0.3,0,0.8,0,1.4,0c0.6,0,1,0,1.3,0c0.4,0,0.8,0,1.3,0
				c0.5,0,0.8,0,0.9,0c0.2,0,0.4,0.1,0.5,0.2c0.1,0.1,0.3,0.3,0.5,0.7c0.3,0.4,0.5,0.7,0.8,1.1L136,21V5.3c0-1.3-0.2-2.3-0.7-2.8
				c-0.4-0.6-1.2-0.9-2.2-0.9c-0.1,0-0.1-0.1-0.1-0.2c0-0.2,0-0.2,0.1-0.2c0.3,0,0.9,0,1.6,0.1c0.7,0,1.3,0.1,1.8,0.1
				c0.4,0,1,0,1.8-0.1C139.1,1.1,139.6,1.1,139.9,1.1z"/>
			<path class="st0" d="M147.9,1.8c-1.6,0-2.8,0.4-3.6,1.2c-0.8,0.8-1.4,2.2-1.7,4.1c0,0.1-0.1,0.1-0.2,0.1c-0.1,0-0.2,0-0.2-0.1
				c0.4-3,0.5-5.3,0.5-6.9c0-0.1,0.1-0.2,0.2-0.2s0.2,0.1,0.2,0.2c0,0.6,0.7,0.8,2,0.8c2.2,0.1,4.7,0.1,7.6,0.1c1.3,0,2.7,0,4.2-0.1
				c1.5,0,2.5-0.1,3.1-0.1c1.7,0,2.7-0.3,2.9-0.9c0-0.1,0.1-0.2,0.2-0.2s0.2,0.1,0.2,0.2c-0.2,2.3-0.3,4.6-0.3,7
				c0,0.1-0.1,0.1-0.2,0.1s-0.2,0-0.2-0.1c-0.1-2-0.5-3.4-1.2-4.2c-0.7-0.8-1.9-1.2-3.6-1.2c-1.6,0-2.6,0.1-3.1,0.4s-0.6,1-0.6,2.1
				v17.5c0,1.1,0.2,1.8,0.7,2.1c0.4,0.3,1.4,0.5,3,0.5c0.1,0,0.1,0.1,0.1,0.2s0,0.2-0.1,0.2c-0.4,0-1.1,0-2.2,0c-1.1,0-2,0-2.7,0
				c-0.7,0-1.5,0-2.7,0c-1.1,0-1.9,0-2.3,0c-0.1,0-0.1-0.1-0.1-0.2s0-0.2,0.1-0.2c1.6,0,2.6-0.2,3-0.5s0.7-1,0.7-2.1V4.2
				c0-1.1-0.2-1.8-0.6-2C150.6,1.9,149.6,1.8,147.9,1.8z"/>
			<path class="st0" d="M165.9,25.2c-0.5,0-0.9-0.2-1.2-0.5c-0.3-0.3-0.5-0.7-0.5-1.2c0-0.5,0.2-0.9,0.5-1.1
				c0.3-0.3,0.7-0.4,1.2-0.4c0.5,0,0.9,0.1,1.2,0.4c0.3,0.3,0.4,0.7,0.4,1.1c0,0.5-0.1,0.9-0.4,1.2
				C166.9,25.1,166.4,25.2,165.9,25.2z"/>
		</g>
	</g>
	<g>
		<g>
			<path class="st0" d="M24.5,70.8c0.1,0,0.1,0.1,0.1,0.2s0,0.2-0.1,0.2h-4.9c-0.6,0-1.8-1-3.6-3.1c-1.7-2.1-3.8-5-6.2-8.6
				c-0.7,0.2-1.4,0.2-2.1,0.2c-0.2,0-0.7,0-1.7-0.1v8.6c0,1.1,0.2,1.8,0.6,2.1c0.4,0.3,1.3,0.5,2.7,0.5c0.1,0,0.1,0.1,0.1,0.2
				s0,0.2-0.1,0.2c-0.4,0-1.1,0-2,0c-1,0-1.8,0-2.4,0c-0.6,0-1.4,0-2.4,0c-1,0-1.7,0-2.1,0c-0.1,0-0.1-0.1-0.1-0.2s0-0.2,0.1-0.2
				c1.4,0,2.3-0.2,2.7-0.5c0.4-0.3,0.6-1,0.6-2.1V50.7c0-1.1-0.2-1.8-0.6-2.1c-0.4-0.3-1.3-0.5-2.6-0.5c-0.1,0-0.1-0.1-0.1-0.2
				c0-0.2,0-0.2,0.1-0.2c0.4,0,1.1,0,2.1,0.1c1,0,1.8,0.1,2.4,0.1c0.5,0,1.4,0,2.7-0.1c1.3-0.1,2.1-0.1,2.6-0.1c2,0,3.5,0.5,4.6,1.4
				s1.6,2.1,1.6,3.6c0,1.4-0.4,2.6-1.2,3.7c-0.8,1.1-1.9,2-3.2,2.6c3.1,4.5,5.6,7.7,7.4,9.4C21.2,70,22.9,70.8,24.5,70.8z M6,58.7
				c0.6,0.1,1.4,0.2,2.2,0.2c2,0,3.4-0.4,4.2-1.3s1.3-2.2,1.3-4c0-2-0.4-3.4-1.3-4.2c-0.9-0.9-2.1-1.3-3.8-1.3c-1,0-1.7,0.2-2,0.5
				C6.1,48.9,6,49.7,6,50.7V58.7z"/>
			<path class="st0" d="M42.1,65.6c0-0.1,0.1-0.1,0.2-0.1c0.1,0,0.2,0.1,0.2,0.2c-0.2,1.6-0.3,3.3-0.3,5c0,0.4-0.2,0.6-0.6,0.6H25.7
				c-0.1,0-0.1-0.1-0.1-0.2s0-0.2,0.1-0.2c1.4,0,2.3-0.2,2.7-0.5c0.4-0.3,0.6-1,0.6-2.1V50.7c0-1.1-0.2-1.8-0.6-2.1
				c-0.4-0.3-1.3-0.5-2.7-0.5c-0.1,0-0.1-0.1-0.1-0.2c0-0.2,0-0.2,0.1-0.2H41c0.2,0,0.3,0.1,0.3,0.3l0.1,4.7c0,0.1-0.1,0.1-0.2,0.1
				c-0.1,0-0.2,0-0.2-0.1c-0.1-1.3-0.5-2.4-1.2-3.1c-0.7-0.7-1.7-1.1-2.9-1.1h-2.3c-1.3,0-2.1,0.2-2.5,0.5c-0.4,0.3-0.6,1-0.6,2v7.7
				h4.6c1.2,0,2.1-0.2,2.6-0.6c0.5-0.4,0.8-1.1,0.8-2c0-0.1,0.1-0.1,0.2-0.1s0.2,0,0.2,0.1c0,0.6,0,1.1,0,1.7c0,0.6,0,1,0,1.3
				c0,0.4,0,0.9,0,1.7c0,0.8,0,1.4,0,1.8c0,0.1-0.1,0.1-0.2,0.1c-0.2,0-0.2,0-0.2-0.1c0-1.1-0.3-1.9-0.8-2.4
				c-0.5-0.5-1.4-0.7-2.7-0.7h-4.5v8.7c0,1,0.2,1.7,0.5,2c0.4,0.3,1.2,0.5,2.4,0.5h3c1.2,0,2.2-0.4,3-1.3
				C41.3,68.4,41.8,67.2,42.1,65.6z"/>
			<path class="st0" d="M61.7,47.9l0.1,4.7c0,0.1-0.1,0.1-0.2,0.1c-0.1,0-0.2,0-0.2-0.1c-0.1-1.3-0.5-2.4-1.2-3.1
				c-0.7-0.7-1.7-1.1-2.9-1.1h-2.3c-1.2,0-2.1,0.2-2.5,0.5c-0.4,0.3-0.6,0.9-0.6,1.9V59h3.8c1.3,0,2.3-0.2,2.9-0.6
				c0.6-0.4,0.9-1.1,0.9-2c0,0,0.1-0.1,0.2-0.1c0.2,0,0.2,0,0.2,0.1c0,0.6,0,1.1,0,1.7c0,0.6,0,1,0,1.3c0,0.4,0,0.9,0,1.7
				c0,0.8,0,1.4,0,1.8c0,0.1-0.1,0.1-0.2,0.1c-0.2,0-0.2,0-0.2-0.1c0-1.1-0.3-1.9-0.9-2.4c-0.6-0.5-1.6-0.7-3-0.7h-3.7v8.3
				c0,1.2,0.3,1.9,0.8,2.3c0.5,0.3,1.8,0.5,3.8,0.5c0.1,0,0.1,0.1,0.1,0.2s0,0.2-0.1,0.2c-0.5,0-1.4,0-2.7,0c-1.3,0-2.3,0-3.2,0
				c-0.6,0-1.4,0-2.4,0c-1,0-1.7,0-2.1,0c-0.1,0-0.1-0.1-0.1-0.2s0-0.2,0.1-0.2c1.4,0,2.3-0.2,2.7-0.5c0.4-0.3,0.6-1,0.6-2.1V50.7
				c0-1.1-0.2-1.8-0.6-2.1c-0.4-0.3-1.3-0.5-2.7-0.5C46,48.1,46,48,46,47.8c0-0.2,0-0.2,0.1-0.2h15.2C61.6,47.6,61.7,47.7,61.7,47.9
				z"/>
			<path class="st0" d="M71.3,68.2c0,1.1,0.2,1.8,0.6,2.1c0.4,0.3,1.3,0.5,2.6,0.5c0.1,0,0.1,0.1,0.1,0.2s0,0.2-0.1,0.2
				c-0.4,0-1,0-2,0c-1,0-1.8,0-2.5,0c-0.6,0-1.4,0-2.4,0c-1,0-1.7,0-2,0c-0.1,0-0.1-0.1-0.1-0.2s0-0.2,0.1-0.2
				c1.4,0,2.3-0.2,2.7-0.5c0.4-0.3,0.6-1,0.6-2.1V50.7c0-1.1-0.2-1.8-0.6-2.1c-0.4-0.3-1.3-0.5-2.7-0.5c-0.1,0-0.1-0.1-0.1-0.2
				c0-0.2,0-0.2,0.1-0.2c0.4,0,1,0,2,0.1c1,0,1.8,0.1,2.4,0.1c0.7,0,1.5,0,2.5-0.1c1,0,1.7-0.1,2-0.1c0.1,0,0.1,0.1,0.1,0.2
				c0,0.2,0,0.2-0.1,0.2c-1.3,0-2.2,0.2-2.6,0.5c-0.4,0.4-0.6,1.1-0.6,2.2V68.2z"/>
			<path class="st0" d="M103,47.6c0.1,0,0.1,0.1,0.1,0.2c0,0.2,0,0.2-0.1,0.2c-1.1,0-1.8,0.3-2.3,0.9c-0.5,0.6-0.7,1.5-0.7,2.8v20
				c0,0.1-0.1,0.1-0.2,0.1c-0.1,0-0.2,0-0.3,0L82.1,50.7c-0.1-0.1-0.2-0.2-0.3-0.4v16.8c0,1.3,0.2,2.3,0.7,2.8
				c0.5,0.6,1.2,0.9,2.3,0.9c0.1,0,0.1,0.1,0.1,0.2s0,0.2-0.1,0.2c-0.3,0-0.8,0-1.6,0c-0.7,0-1.3,0-1.8,0c-0.4,0-1,0-1.8,0
				c-0.8,0-1.3,0-1.7,0c-0.1,0-0.1-0.1-0.1-0.2s0-0.2,0.1-0.2c1.1,0,1.9-0.3,2.3-0.9c0.5-0.6,0.7-1.5,0.7-2.8V49.4
				c-1-0.9-2-1.4-3-1.4c-0.1,0-0.1-0.1-0.1-0.2c0-0.2,0-0.2,0.1-0.2c0.3,0,0.8,0,1.4,0c0.6,0,1,0,1.3,0c0.4,0,0.8,0,1.3,0
				c0.5,0,0.8,0,0.9,0c0.2,0,0.4,0.1,0.5,0.2c0.1,0.1,0.3,0.3,0.5,0.7c0.3,0.4,0.5,0.7,0.8,1.1l14.6,17.9V51.8
				c0-1.3-0.2-2.3-0.7-2.8c-0.4-0.6-1.2-0.9-2.2-0.9c-0.1,0-0.1-0.1-0.1-0.2c0-0.2,0-0.2,0.1-0.2c0.3,0,0.9,0,1.6,0.1
				c0.7,0,1.3,0.1,1.8,0.1c0.4,0,1,0,1.8-0.1C102.2,47.6,102.7,47.6,103,47.6z"/>
			<path class="st0" d="M121.9,65.6c0-0.1,0.1-0.1,0.2-0.1c0.1,0,0.2,0.1,0.2,0.2c-0.2,1.6-0.3,3.3-0.3,5c0,0.4-0.2,0.6-0.6,0.6
				h-15.9c-0.1,0-0.1-0.1-0.1-0.2s0-0.2,0.1-0.2c1.4,0,2.3-0.2,2.7-0.5c0.4-0.3,0.6-1,0.6-2.1V50.7c0-1.1-0.2-1.8-0.6-2.1
				c-0.4-0.3-1.3-0.5-2.7-0.5c-0.1,0-0.1-0.1-0.1-0.2c0-0.2,0-0.2,0.1-0.2h15.2c0.2,0,0.3,0.1,0.3,0.3l0.1,4.7
				c0,0.1-0.1,0.1-0.2,0.1c-0.1,0-0.2,0-0.2-0.1c-0.1-1.3-0.5-2.4-1.2-3.1c-0.7-0.7-1.7-1.1-2.9-1.1h-2.3c-1.3,0-2.1,0.2-2.5,0.5
				c-0.4,0.3-0.6,1-0.6,2v7.7h4.6c1.2,0,2.1-0.2,2.6-0.6c0.5-0.4,0.8-1.1,0.8-2c0-0.1,0.1-0.1,0.2-0.1s0.2,0,0.2,0.1
				c0,0.6,0,1.1,0,1.7c0,0.6,0,1,0,1.3c0,0.4,0,0.9,0,1.7c0,0.8,0,1.4,0,1.8c0,0.1-0.1,0.1-0.2,0.1c-0.2,0-0.2,0-0.2-0.1
				c0-1.1-0.3-1.9-0.8-2.4c-0.5-0.5-1.4-0.7-2.7-0.7h-4.5v8.7c0,1,0.2,1.7,0.5,2c0.4,0.3,1.2,0.5,2.4,0.5h3c1.2,0,2.2-0.4,3-1.3
				C121.1,68.4,121.6,67.2,121.9,65.6z"/>
			<path class="st0" d="M135.8,71.5c-0.5,0-1.4,0-2.7-0.1s-2.3-0.1-3-0.1c-0.6,0-1.4,0-2.4,0c-1,0-1.7,0-2.1,0
				c-0.1,0-0.1-0.1-0.1-0.2s0-0.2,0.1-0.2c1.4,0,2.3-0.2,2.7-0.5c0.4-0.3,0.6-1,0.6-2.1V50.7c0-1.1-0.2-1.8-0.6-2.1
				c-0.4-0.3-1.3-0.5-2.6-0.5c-0.1,0-0.1-0.1-0.1-0.2c0-0.2,0-0.2,0.1-0.2c0.4,0,1.1,0,2.1,0.1c1,0,1.8,0.1,2.4,0.1
				c0.6,0,1.5,0,2.7-0.1c1.2-0.1,2-0.1,2.5-0.1c4,0,7.2,1.1,9.7,3.3c2.5,2.2,3.7,4.9,3.7,8.2c0,3.7-1.2,6.7-3.7,9
				S139.4,71.5,135.8,71.5z M135.4,70.9c3.1,0,5.6-1,7.5-2.9c1.9-1.9,2.8-4.6,2.8-8.1c0-3.4-0.9-6.2-2.8-8.4
				c-1.9-2.3-4.3-3.4-7.4-3.4c-1.6,0-2.7,0.2-3.3,0.5c-0.6,0.3-0.9,1-0.9,2.2v17.1c0,1.1,0.3,1.9,0.8,2.4
				C132.7,70.6,133.8,70.9,135.4,70.9z"/>
			<path class="st0" d="M152.9,71.7c-0.5,0-0.9-0.2-1.2-0.5c-0.3-0.3-0.5-0.7-0.5-1.2c0-0.5,0.2-0.9,0.5-1.1
				c0.3-0.3,0.7-0.4,1.2-0.4c0.5,0,0.9,0.1,1.2,0.4c0.3,0.3,0.4,0.7,0.4,1.1c0,0.5-0.1,0.9-0.4,1.2
				C153.9,71.6,153.4,71.7,152.9,71.7z"/>
		</g>
	</g>
	<g>
		<g>
			<path class="st0" d="M5.7,94.8c-1.6,0-2.8,0.4-3.6,1.2c-0.8,0.8-1.4,2.2-1.7,4.1c0,0.1-0.1,0.1-0.2,0.1c-0.1,0-0.2,0-0.2-0.1
				c0.4-3,0.5-5.3,0.5-6.9c0-0.1,0.1-0.2,0.2-0.2s0.2,0.1,0.2,0.2c0,0.6,0.7,0.8,2,0.8c2.2,0.1,4.7,0.1,7.6,0.1c1.3,0,2.7,0,4.2-0.1
				c1.5,0,2.5-0.1,3.1-0.1c1.7,0,2.7-0.3,2.9-0.9c0-0.1,0.1-0.2,0.2-0.2s0.2,0.1,0.2,0.2c-0.2,2.3-0.3,4.6-0.3,7
				c0,0.1-0.1,0.1-0.2,0.1s-0.2,0-0.2-0.1c-0.1-2-0.5-3.4-1.2-4.2s-1.9-1.2-3.6-1.2c-1.6,0-2.6,0.1-3.1,0.4s-0.6,1-0.6,2.1v17.5
				c0,1.1,0.2,1.8,0.7,2.1c0.4,0.3,1.4,0.5,3,0.5c0.1,0,0.1,0.1,0.1,0.2c0,0.2,0,0.2-0.1,0.2c-0.4,0-1.1,0-2.2,0c-1.1,0-2,0-2.7,0
				c-0.7,0-1.5,0-2.7,0c-1.1,0-1.9,0-2.3,0c-0.1,0-0.1-0.1-0.1-0.2c0-0.2,0-0.2,0.1-0.2c1.6,0,2.6-0.2,3-0.5s0.7-1,0.7-2.1V97.2
				c0-1.1-0.2-1.8-0.6-2S7.3,94.8,5.7,94.8z"/>
			<path class="st0" d="M30.1,114.7c0,1.1,0.2,1.8,0.6,2.1s1.3,0.5,2.6,0.5c0.1,0,0.1,0.1,0.1,0.2c0,0.2,0,0.2-0.1,0.2
				c-0.4,0-1,0-2,0c-1,0-1.8,0-2.5,0c-0.6,0-1.4,0-2.4,0c-1,0-1.7,0-2,0c-0.1,0-0.1-0.1-0.1-0.2c0-0.2,0-0.2,0.1-0.2
				c1.4,0,2.3-0.2,2.7-0.5s0.6-1,0.6-2.1V97.2c0-1.1-0.2-1.8-0.6-2.1c-0.4-0.3-1.3-0.5-2.7-0.5c-0.1,0-0.1-0.1-0.1-0.2
				c0-0.2,0-0.2,0.1-0.2c0.4,0,1,0,2,0.1c1,0,1.8,0.1,2.4,0.1c0.7,0,1.5,0,2.5-0.1c1,0,1.7-0.1,2-0.1c0.1,0,0.1,0.1,0.1,0.2
				c0,0.2,0,0.2-0.1,0.2c-1.3,0-2.2,0.2-2.6,0.5c-0.4,0.4-0.6,1.1-0.6,2.2V114.7z"/>
			<path class="st0" d="M66,117.3c0.1,0,0.1,0.1,0.1,0.2c0,0.2,0,0.2-0.1,0.2c-0.4,0-1,0-2,0c-1,0-1.8,0-2.4,0c-0.6,0-1.3,0-2.3,0
				c-0.9,0-1.5,0-1.9,0c-0.1,0-0.1-0.1-0.1-0.2c0-0.2,0-0.2,0.1-0.2c1.3,0,2.1-0.2,2.4-0.5c0.4-0.3,0.5-1,0.5-2.1l-0.7-17.3
				l-8.6,20.1c0,0.1-0.1,0.2-0.3,0.2c-0.2,0-0.3,0-0.3-0.2L41,97.7l-0.3,16c0,1.3,0.2,2.3,0.7,2.8c0.5,0.6,1.3,0.8,2.5,0.8
				c0.1,0,0.1,0.1,0.1,0.2c0,0.2,0,0.2-0.1,0.2c-0.4,0-0.9,0-1.7,0c-0.8,0-1.5,0-1.9,0s-1.1,0-1.9,0c-0.8,0-1.3,0-1.6,0
				c-0.1,0-0.1-0.1-0.1-0.2c0-0.2,0-0.2,0.1-0.2c1.1,0,1.8-0.3,2.3-0.9c0.5-0.6,0.7-1.5,0.7-2.8L40,96.1c-0.8-1-1.8-1.5-3.1-1.5
				c-0.1,0-0.1-0.1-0.1-0.2c0-0.2,0-0.2,0.1-0.2c0.3,0,0.7,0,1.3,0c0.6,0,1,0,1.2,0c0.3,0,0.7,0,1.1,0c0.4,0,0.7,0,0.8,0
				c0.3,0,0.6,0.1,0.8,0.4c0.2,0.2,0.5,0.8,0.9,1.6l8.5,17.8L59.8,95c0.3-0.6,0.7-0.9,1.1-0.9c0,0,0.2,0,0.6,0c0.3,0,0.7,0,0.9,0
				c0.5,0,1,0,1.7,0c0.6,0,1.1,0,1.4,0c0.1,0,0.1,0.1,0.1,0.2c0,0.2,0,0.2-0.1,0.2c-1.3,0-2.2,0.2-2.7,0.5c-0.5,0.4-0.8,1.1-0.8,2.1
				l0.8,17.6c0,1.1,0.3,1.8,0.6,2.1S64.6,117.3,66,117.3z"/>
			<path class="st0" d="M84.9,112.1c0-0.1,0.1-0.1,0.2-0.1s0.2,0.1,0.2,0.2c-0.2,1.6-0.3,3.3-0.3,5c0,0.4-0.2,0.6-0.6,0.6H68.5
				c-0.1,0-0.1-0.1-0.1-0.2c0-0.2,0-0.2,0.1-0.2c1.4,0,2.3-0.2,2.7-0.5c0.4-0.3,0.6-1,0.6-2.1V97.2c0-1.1-0.2-1.8-0.6-2.1
				c-0.4-0.3-1.3-0.5-2.7-0.5c-0.1,0-0.1-0.1-0.1-0.2c0-0.2,0-0.2,0.1-0.2h15.2c0.2,0,0.3,0.1,0.3,0.3l0.1,4.7
				c0,0.1-0.1,0.1-0.2,0.1c-0.1,0-0.2,0-0.2-0.1c-0.1-1.3-0.5-2.4-1.2-3.1c-0.7-0.7-1.7-1.1-2.9-1.1h-2.3c-1.3,0-2.1,0.2-2.5,0.5
				c-0.4,0.3-0.6,1-0.6,2v7.7h4.6c1.2,0,2.1-0.2,2.6-0.6s0.8-1.1,0.8-2c0-0.1,0.1-0.1,0.2-0.1c0.2,0,0.2,0,0.2,0.1
				c0,0.6,0,1.1,0,1.7c0,0.6,0,1.1,0,1.3c0,0.4,0,0.9,0,1.7s0,1.4,0,1.8c0,0.1-0.1,0.1-0.2,0.1c-0.2,0-0.2,0-0.2-0.1
				c0-1.1-0.3-1.9-0.8-2.4s-1.4-0.7-2.7-0.7h-4.5v8.7c0,1,0.2,1.7,0.5,2s1.2,0.5,2.4,0.5h3c1.2,0,2.2-0.4,3-1.3
				C84.1,114.9,84.6,113.7,84.9,112.1z"/>
			<path class="st0" d="M94.3,97.2v17.4c0,1,0.2,1.7,0.5,2c0.4,0.3,1.2,0.4,2.5,0.4h4.1c1.4,0,2.6-0.4,3.5-1.3
				c0.9-0.9,1.4-2.1,1.7-3.7c0-0.1,0-0.1,0.1-0.1c0.1,0,0.1,0,0.2,0c0.1,0,0.1,0.1,0.1,0.1c-0.2,2.1-0.3,3.8-0.3,5.2
				c0,0.4-0.2,0.6-0.6,0.6H88.6c-0.1,0-0.1-0.1-0.1-0.2c0-0.2,0-0.2,0.1-0.2c1.4,0,2.2-0.2,2.6-0.5c0.4-0.3,0.6-1,0.6-2.1V97.2
				c0-1.1-0.2-1.8-0.6-2.1c-0.4-0.3-1.3-0.5-2.6-0.5c-0.1,0-0.1-0.1-0.1-0.2c0-0.2,0-0.2,0.1-0.2c0.4,0,1.1,0,2,0.1
				c1,0,1.8,0.1,2.4,0.1c0.6,0,1.4,0,2.4-0.1c1,0,1.7-0.1,2-0.1c0.1,0,0.1,0.1,0.1,0.2c0,0.2,0,0.2-0.1,0.2c-1.3,0-2.2,0.2-2.6,0.5
				S94.3,96.1,94.3,97.2z"/>
			<path class="st0" d="M125.5,112.1c0-0.1,0.1-0.1,0.2-0.1c0.1,0,0.2,0.1,0.2,0.2c-0.2,1.6-0.3,3.3-0.3,5c0,0.4-0.2,0.6-0.6,0.6
				h-15.9c-0.1,0-0.1-0.1-0.1-0.2c0-0.2,0-0.2,0.1-0.2c1.4,0,2.3-0.2,2.7-0.5c0.4-0.3,0.6-1,0.6-2.1V97.2c0-1.1-0.2-1.8-0.6-2.1
				c-0.4-0.3-1.3-0.5-2.7-0.5c-0.1,0-0.1-0.1-0.1-0.2c0-0.2,0-0.2,0.1-0.2h15.2c0.2,0,0.3,0.1,0.3,0.3l0.1,4.7
				c0,0.1-0.1,0.1-0.2,0.1c-0.1,0-0.2,0-0.2-0.1c-0.1-1.3-0.5-2.4-1.2-3.1c-0.7-0.7-1.7-1.1-2.9-1.1h-2.3c-1.3,0-2.1,0.2-2.5,0.5
				c-0.4,0.3-0.6,1-0.6,2v7.7h4.6c1.2,0,2.1-0.2,2.6-0.6c0.5-0.4,0.8-1.1,0.8-2c0-0.1,0.1-0.1,0.2-0.1s0.2,0,0.2,0.1
				c0,0.6,0,1.1,0,1.7c0,0.6,0,1.1,0,1.3c0,0.4,0,0.9,0,1.7c0,0.8,0,1.4,0,1.8c0,0.1-0.1,0.1-0.2,0.1c-0.2,0-0.2,0-0.2-0.1
				c0-1.1-0.3-1.9-0.8-2.4c-0.5-0.5-1.4-0.7-2.7-0.7h-4.5v8.7c0,1,0.2,1.7,0.5,2c0.4,0.3,1.2,0.5,2.4,0.5h3c1.2,0,2.2-0.4,3-1.3
				C124.7,114.9,125.2,113.7,125.5,112.1z"/>
			<path class="st0" d="M133.3,98.5c0,0.8,0.1,1.4,0.4,2c0.3,0.6,0.7,1.2,1.3,1.7c0.6,0.5,1.1,1,1.6,1.2s1.1,0.7,2,1.3
				c0.9,0.5,1.4,0.9,1.7,1.1c0.3,0.2,0.8,0.5,1.4,1c0.7,0.5,1.1,1,1.4,1.4c0.3,0.4,0.5,0.9,0.8,1.5s0.4,1.3,0.4,2
				c0,1.9-0.7,3.4-2.1,4.6s-3.3,1.8-5.7,1.8c-1.9,0-3.7-0.4-5.3-1.3c-0.2-0.1-0.3-0.3-0.3-0.7l-0.5-5.2c0-0.1,0-0.2,0.2-0.2
				c0.1,0,0.2,0,0.2,0.1c0.4,1.8,1.2,3.4,2.3,4.7c1.1,1.3,2.6,2,4.4,2c1.3,0,2.3-0.3,3.2-1c0.9-0.7,1.3-1.8,1.3-3.3
				c0-0.9-0.1-1.7-0.4-2.4c-0.3-0.7-0.7-1.3-1.4-1.9c-0.6-0.6-1.2-1-1.6-1.4c-0.5-0.3-1.2-0.8-2.1-1.3c-0.9-0.6-1.6-1-2-1.3
				c-0.4-0.3-1-0.7-1.6-1.3c-0.6-0.6-1.1-1.2-1.3-1.9s-0.4-1.4-0.4-2.3c0-1.9,0.7-3.3,2.1-4.4c1.4-1,3.1-1.6,4.9-1.6
				c1.5,0,3,0.3,4.4,0.9c0.4,0.1,0.6,0.3,0.6,0.6l0.3,4.4c0,0.1,0,0.1-0.1,0.1c-0.1,0-0.1,0-0.2,0c-0.1,0-0.1-0.1-0.1-0.2
				c-0.2-1.3-0.7-2.5-1.6-3.7c-0.9-1.1-2.2-1.7-3.8-1.7c-1.4,0-2.5,0.4-3.2,1.2C133.7,96.3,133.3,97.3,133.3,98.5z"/>
			<path class="st0" d="M152,98.5c0,0.8,0.1,1.4,0.4,2c0.3,0.6,0.7,1.2,1.3,1.7s1.1,1,1.6,1.2c0.4,0.3,1.1,0.7,2,1.3
				c0.9,0.5,1.4,0.9,1.7,1.1c0.3,0.2,0.8,0.5,1.4,1c0.7,0.5,1.1,1,1.4,1.4c0.3,0.4,0.5,0.9,0.8,1.5c0.3,0.6,0.4,1.3,0.4,2
				c0,1.9-0.7,3.4-2.1,4.6c-1.4,1.2-3.3,1.8-5.7,1.8c-1.9,0-3.7-0.4-5.3-1.3c-0.2-0.1-0.3-0.3-0.3-0.7L149,111c0-0.1,0-0.2,0.2-0.2
				c0.1,0,0.2,0,0.2,0.1c0.4,1.8,1.2,3.4,2.3,4.7c1.1,1.3,2.6,2,4.4,2c1.3,0,2.3-0.3,3.2-1s1.3-1.8,1.3-3.3c0-0.9-0.1-1.7-0.4-2.4
				c-0.3-0.7-0.7-1.3-1.4-1.9s-1.2-1-1.6-1.4s-1.2-0.8-2.1-1.3c-0.9-0.6-1.6-1-2-1.3c-0.4-0.3-1-0.7-1.6-1.3s-1.1-1.2-1.3-1.9
				s-0.4-1.4-0.4-2.3c0-1.9,0.7-3.3,2.1-4.4c1.4-1,3.1-1.6,4.9-1.6c1.5,0,3,0.3,4.4,0.9c0.4,0.1,0.6,0.3,0.6,0.6l0.3,4.4
				c0,0.1,0,0.1-0.1,0.1c-0.1,0-0.1,0-0.2,0c-0.1,0-0.1-0.1-0.1-0.2c-0.2-1.3-0.7-2.5-1.6-3.7s-2.2-1.7-3.8-1.7
				c-1.4,0-2.5,0.4-3.2,1.2C152.3,96.3,152,97.3,152,98.5z"/>
			<path class="st0" d="M168.8,118.2c-0.5,0-0.9-0.2-1.2-0.5c-0.3-0.3-0.5-0.7-0.5-1.2c0-0.5,0.2-0.9,0.5-1.1
				c0.3-0.3,0.7-0.4,1.2-0.4c0.5,0,0.9,0.1,1.2,0.4c0.3,0.3,0.4,0.7,0.4,1.1c0,0.5-0.1,0.9-0.4,1.2
				C169.8,118.1,169.4,118.2,168.8,118.2z"/>
		</g>
	</g>
</g>
</svg>
