<?xml version="1.0" encoding="utf-8"?>
<!-- Generator: Adobe Illustrator 21.0.0, SVG Export Plug-In . SVG Version: 6.00 Build 0)  -->
<svg version="1.1" id="Layer_1" xmlns="http://www.w3.org/2000/svg" xmlns:xlink="http://www.w3.org/1999/xlink" x="0px" y="0px"
	 viewBox="0 0 14.7 16" style="enable-background:new 0 0 14.7 16;" xml:space="preserve">
<style type="text/css">
	.st0{fill:#8E9091;}
</style>
<path class="st0" d="M13.9,5.9l-8.6,8.6c-1.1,1.1-2.8,1.1-3.8,0c-1.1-1.1-1.1-2.8,0-3.8l1.1-1.1l7.5-7.5L11,1.2
	c0.7-0.7,1.9-0.7,2.6,0c0.7,0.7,0.7,1.9,0,2.6l-2.4,2.4l-6,6L5,12.3c-0.4,0.4-0.9,0.4-1.3,0c-0.4-0.4-0.4-0.9,0-1.3l6.2-6.2
	c0.1-0.1,0.1-0.3,0-0.5c-0.1-0.1-0.3-0.1-0.5,0l-6.2,6.2c-0.6,0.6-0.6,1.6,0,2.2c0.6,0.6,1.6,0.6,2.2,0L14,4.2c1-1,1-2.6,0-3.5
	c-1-1-2.5-1-3.5,0L1,10.2c-1.3,1.3-1.3,3.5,0,4.8c1.3,1.3,3.5,1.3,4.8,0l8.6-8.6c0.1-0.1,0.1-0.3,0-0.5C14.2,5.8,14,5.8,13.9,5.9
	L13.9,5.9z M13.9,5.9"/>
</svg>
