<?xml version="1.0" encoding="utf-8"?>
<!-- Generator: Adobe Illustrator 16.0.0, SVG Export Plug-In . SVG Version: 6.00 Build 0)  -->
<!DOCTYPE svg PUBLIC "-//W3C//DTD SVG 1.1//EN" "http://www.w3.org/Graphics/SVG/1.1/DTD/svg11.dtd">
<svg version="1.1" id="Layer_1" xmlns="http://www.w3.org/2000/svg" xmlns:xlink="http://www.w3.org/1999/xlink" x="0px" y="0px"
	 width="800px" height="300px" viewBox="0 0 800 300" enable-background="new 0 0 800 300" xml:space="preserve">
<g>
	<g>
		<path id="SVGID_1_" fill="#F9F9F9" d="M170.849,159.771c-2.683-4.552-4.023-9.016-4.023-13.4c0-15.1,8.326-29.898,24.99-44.388
			c16.67-14.492,33.74-21.739,51.212-21.739c7.076,0,12.925,1.911,17.562,5.723c4.632,3.82,6.949,8.646,6.949,14.49
			c0,13.887-9.146,27.464-27.436,40.736c-18.29,13.282-37.025,19.913-56.205,19.913
			C179.906,161.105,175.563,160.662,170.849,159.771 M236.119,17.408c9.824-5.201,20.702-7.799,32.634-7.799
			c8.686,0,16.384,1.221,23.079,3.652c6.698,2.443,10.044,5.243,10.044,8.408c0,4.139-3.81,6.208-11.441,6.208
			C275.736,27.875,257.632,24.391,236.119,17.408 M103.129,27.148C90.628,39.161,84.374,52.357,84.374,66.73
			c0,9.578,2.663,17.757,7.983,24.537c5.312,6.775,11.75,10.167,19.299,10.167c4.22,0,7.812-1.154,10.778-3.471
			c2.966-2.313,4.443-5.133,4.443-8.464c0-5.03-2.597-7.552-7.792-7.552c-2.686,0-4.977,0.818-6.877,2.442
			c-1.912,1.622-2.864,3.57-2.864,5.84c0,3.979,2.146,5.969,6.446,5.969c1.546-0.242,2.321,0,2.321,0.729
			c0,1.386-2.155,2.075-6.455,2.075c-6.255,0-11.612-2.721-16.076-8.161c-4.466-5.444-6.697-11.979-6.697-19.609
			c0-17.046,8.463-31.583,25.387-43.596C131.2,15.616,151.676,9.61,175.714,9.61c12.261,0,27.805,2.276,46.641,6.824
			c-13.153,7.142-19.727,16.034-19.727,26.667c0,8.285,4.505,14.331,13.521,18.148c-12.669,1.456-23.917,3.82-33.737,7.062
			c-16.241,5.278-29.23,13.05-38.968,23.319c-9.744,10.273-14.618,21.293-14.618,33.066c0,8.765,3.5,16.458,10.501,23.078
			c7.006,6.619,16.698,11.305,29.085,14.068c8.938,12.254,21.913,18.387,38.922,18.387c4.958,0,10.443-0.632,16.467-1.887
			c6.021-1.262,9.029-2.454,9.029-3.594c0-0.485-0.246-0.812-0.735-0.971l-1.46,0.238c-6.023,2.844-13.79,4.265-23.312,4.265
			c-15.375,0-26.968-5.237-34.776-15.714c3.825,0.492,7.926,0.729,12.317,0.729c21.782,0,41.375-6.347,58.773-19.052
			c17.396-12.708,26.091-26.975,26.091-42.811c0-7.387-2.641-13.27-7.921-17.661c-5.286-4.381-12.397-6.572-21.335-6.572
			c-19.43,0-37.309,6.744-53.652,20.219c-16.336,13.474-24.502,28.21-24.502,44.208c0,6.49,1.503,12.217,4.509,17.172
			c-16.567-4.144-24.845-13.887-24.845-29.23c0-23.142,15.198-41.979,45.601-56.507c11.943-5.687,22.433-9.174,31.456-10.473
			c6.661,1.625,12.841,2.435,18.53,2.435c4.475,0,6.712-0.649,6.712-1.953c0-2.028-4.22-3.044-12.672-3.044
			c-2.923,0-7.263,0.246-13.03,0.73c-3.974-2.189-5.966-6.164-5.966-11.935c0-11.93,6.903-21.834,20.708-29.713
			c29.548,7.306,48.264,10.962,56.138,10.962c9.987,0,14.979-2.721,14.979-8.162c0-4.22-3.897-7.81-11.693-10.775
			c-7.792-2.966-17.215-4.445-28.253-4.445c-14.853,0-27.882,2.722-39.083,8.16c-24.854-6.092-44.747-9.135-59.682-9.135
			C138.852,5.714,117.982,12.857,103.129,27.148"/>
	</g>
	<g>
		<defs>
			<path id="SVGID_2_" d="M170.849,159.771c-2.683-4.552-4.023-9.016-4.023-13.4c0-15.1,8.326-29.898,24.99-44.388
				c16.67-14.492,33.74-21.739,51.212-21.739c7.076,0,12.925,1.911,17.562,5.723c4.632,3.82,6.949,8.646,6.949,14.49
				c0,13.887-9.146,27.464-27.436,40.736c-18.29,13.282-37.025,19.913-56.205,19.913
				C179.906,161.105,175.563,160.662,170.849,159.771 M236.119,17.408c9.824-5.201,20.702-7.799,32.634-7.799
				c8.686,0,16.384,1.221,23.079,3.652c6.698,2.443,10.044,5.243,10.044,8.408c0,4.139-3.81,6.208-11.441,6.208
				C275.736,27.875,257.632,24.391,236.119,17.408 M103.129,27.148C90.628,39.161,84.374,52.357,84.374,66.73
				c0,9.578,2.663,17.757,7.983,24.537c5.312,6.775,11.75,10.167,19.299,10.167c4.22,0,7.812-1.154,10.778-3.471
				c2.966-2.313,4.443-5.133,4.443-8.464c0-5.03-2.597-7.552-7.792-7.552c-2.686,0-4.977,0.818-6.877,2.442
				c-1.912,1.622-2.864,3.57-2.864,5.84c0,3.979,2.146,5.969,6.446,5.969c1.546-0.242,2.321,0,2.321,0.729
				c0,1.386-2.155,2.075-6.455,2.075c-6.255,0-11.612-2.721-16.076-8.161c-4.466-5.444-6.697-11.979-6.697-19.609
				c0-17.046,8.463-31.583,25.387-43.596C131.2,15.616,151.676,9.61,175.714,9.61c12.261,0,27.805,2.276,46.641,6.824
				c-13.153,7.142-19.727,16.034-19.727,26.667c0,8.285,4.505,14.331,13.521,18.148c-12.669,1.456-23.917,3.82-33.737,7.062
				c-16.241,5.278-29.23,13.05-38.968,23.319c-9.744,10.273-14.618,21.293-14.618,33.066c0,8.765,3.5,16.458,10.501,23.078
				c7.006,6.619,16.698,11.305,29.085,14.068c8.938,12.254,21.913,18.387,38.922,18.387c4.958,0,10.443-0.632,16.467-1.887
				c6.021-1.262,9.029-2.454,9.029-3.594c0-0.485-0.246-0.812-0.735-0.971l-1.46,0.238c-6.023,2.844-13.79,4.265-23.312,4.265
				c-15.375,0-26.968-5.237-34.776-15.714c3.825,0.492,7.926,0.729,12.317,0.729c21.782,0,41.375-6.347,58.773-19.052
				c17.396-12.708,26.091-26.975,26.091-42.811c0-7.387-2.641-13.27-7.921-17.661c-5.286-4.381-12.397-6.572-21.335-6.572
				c-19.43,0-37.309,6.744-53.652,20.219c-16.336,13.474-24.502,28.21-24.502,44.208c0,6.49,1.503,12.217,4.509,17.172
				c-16.567-4.144-24.845-13.887-24.845-29.23c0-23.142,15.198-41.979,45.601-56.507c11.943-5.687,22.433-9.174,31.456-10.473
				c6.661,1.625,12.841,2.435,18.53,2.435c4.475,0,6.712-0.649,6.712-1.953c0-2.028-4.22-3.044-12.672-3.044
				c-2.923,0-7.263,0.246-13.03,0.73c-3.974-2.189-5.966-6.164-5.966-11.935c0-11.93,6.903-21.834,20.708-29.713
				c29.548,7.306,48.264,10.962,56.138,10.962c9.987,0,14.979-2.721,14.979-8.162c0-4.22-3.897-7.81-11.693-10.775
				c-7.792-2.966-17.215-4.445-28.253-4.445c-14.853,0-27.882,2.722-39.083,8.16c-24.854-6.092-44.747-9.135-59.682-9.135
				C138.852,5.714,117.982,12.857,103.129,27.148"/>
		</defs>
		<clipPath id="SVGID_4_">
			<use xlink:href="#SVGID_2_"  overflow="visible"/>
		</clipPath>
		<polygon clip-path="url(#SVGID_4_)" fill="#F9F9F9" points="84.408,3.148 306.473,5.737 304.404,182.791 82.345,180.206 		"/>
	</g>
</g>
<g>
	<g>
		<path id="SVGID_3_" fill="#F9F9F9" d="M344.51,124.329c4.294-7.14,6.449-13.028,6.449-17.655c0-4.144-1.097-7.593-3.287-10.352
			c-2.188-2.765-4.997-4.145-8.406-4.145c-7.144,0-18.021,10.722-32.64,32.15c4.792-8.361,7.189-14.894,7.189-19.604
			c0-3.41-0.938-6.352-2.807-8.831c-1.871-2.475-4.105-3.715-6.706-3.715c-3.989,0-9.644,4.576-16.962,13.736
			c-7.483,9.393-11.221,14.457-11.221,15.186c0,0.405,0.161,0.65,0.489,0.731c0.485,0,1.137-0.564,1.954-1.708
			c12.527-17.407,20.784-26.117,24.77-26.117c1.877,0,2.812,1.221,2.812,3.651c0,4.466-6.012,16.122-18.029,34.953l-17.412,27.4
			c2.352-0.326,5.111-0.486,8.277-0.486c2.928,0,5.323,0.16,7.184,0.486c9.998-18.35,20.053-33.935,30.208-46.76
			c10.143-12.83,17.45-19.245,21.921-19.245c3.006,0,4.509,1.826,4.509,5.477c0,4.059-5.646,15.103-16.927,33.127l-17.293,27.4
			c2.349-0.327,5.189-0.485,8.518-0.485c2.847,0,5.072,0.158,6.704,0.485c26.057-44.001,44.446-66.004,55.164-66.004
			c3.329,0,4.992,1.662,4.992,4.996c0,3-3.406,9.376-10.227,19.119c-5.358,7.71-8.33,12.055-8.89,13.028
			c-3.086,5.282-4.635,10.192-4.635,14.735c0,4.465,1.22,8.117,3.66,10.962c2.439,2.837,5.566,4.261,9.389,4.261
			c7.312,0,18.616-10.61,33.897-31.83l5.24-7.196c0.729-1.059,1.137-1.71,1.214-1.958c0-0.484-0.242-0.725-0.724-0.725
			c-0.411,0-0.812,0.4-1.223,1.218l-2.194,2.682l-3.783,5.246c-14.633,20.493-25.122,30.739-31.463,30.739
			c-3.334,0-5.003-1.663-5.003-4.994c0-3.084,1.992-7.55,5.973-13.396c6.896-10.31,10.389-15.505,10.472-15.587
			c3.975-6.739,5.967-12.623,5.967-17.657c0-4.312-1.197-7.963-3.595-10.965c-2.392-3.004-5.338-4.506-8.827-4.506
			C371.498,92.179,359.931,102.901,344.51,124.329"/>
	</g>
	<g>
		<defs>
			<path id="SVGID_6_" d="M344.51,124.329c4.294-7.14,6.449-13.028,6.449-17.655c0-4.144-1.097-7.593-3.287-10.352
				c-2.188-2.765-4.997-4.145-8.406-4.145c-7.144,0-18.021,10.722-32.64,32.15c4.792-8.361,7.189-14.894,7.189-19.604
				c0-3.41-0.938-6.352-2.807-8.831c-1.871-2.475-4.105-3.715-6.706-3.715c-3.989,0-9.644,4.576-16.962,13.736
				c-7.483,9.393-11.221,14.457-11.221,15.186c0,0.405,0.161,0.65,0.489,0.731c0.485,0,1.137-0.564,1.954-1.708
				c12.527-17.407,20.784-26.117,24.77-26.117c1.877,0,2.812,1.221,2.812,3.651c0,4.466-6.012,16.122-18.029,34.953l-17.412,27.4
				c2.352-0.326,5.111-0.486,8.277-0.486c2.928,0,5.323,0.16,7.184,0.486c9.998-18.35,20.053-33.935,30.208-46.76
				c10.143-12.83,17.45-19.245,21.921-19.245c3.006,0,4.509,1.826,4.509,5.477c0,4.059-5.646,15.103-16.927,33.127l-17.293,27.4
				c2.349-0.327,5.189-0.485,8.518-0.485c2.847,0,5.072,0.158,6.704,0.485c26.057-44.001,44.446-66.004,55.164-66.004
				c3.329,0,4.992,1.662,4.992,4.996c0,3-3.406,9.376-10.227,19.119c-5.358,7.71-8.33,12.055-8.89,13.028
				c-3.086,5.282-4.635,10.192-4.635,14.735c0,4.465,1.22,8.117,3.66,10.962c2.439,2.837,5.566,4.261,9.389,4.261
				c7.312,0,18.616-10.61,33.897-31.83l5.24-7.196c0.729-1.059,1.137-1.71,1.214-1.958c0-0.484-0.242-0.725-0.724-0.725
				c-0.411,0-0.812,0.4-1.223,1.218l-2.194,2.682l-3.783,5.246c-14.633,20.493-25.122,30.739-31.463,30.739
				c-3.334,0-5.003-1.663-5.003-4.994c0-3.084,1.992-7.55,5.973-13.396c6.896-10.31,10.389-15.505,10.472-15.587
				c3.975-6.739,5.967-12.623,5.967-17.657c0-4.312-1.197-7.963-3.595-10.965c-2.392-3.004-5.338-4.506-8.827-4.506
				C371.498,92.179,359.931,102.901,344.51,124.329"/>
		</defs>
		<clipPath id="SVGID_8_">
			<use xlink:href="#SVGID_6_"  overflow="visible"/>
		</clipPath>
		<polygon clip-path="url(#SVGID_8_)" fill="#F9F9F9" points="270.724,90.516 414.419,92.186 413.593,162.771 269.899,161.095 		"/>
	</g>
</g>
<g>
	<g>
		<path id="SVGID_5_" fill="#F9F9F9" d="M409.052,152.825c0-5.031,5.357-14.857,16.073-29.464
			c14.292-19.573,24.396-29.355,30.328-29.355c4.543,0,6.816,2.72,6.816,8.158c0,8.936-5.991,20.686-17.964,35.261
			c-11.976,14.572-21.615,21.858-28.922,21.858C411.164,159.283,409.052,157.132,409.052,152.825 M414.284,115.928
			c-7.792,12.502-11.692,21.798-11.692,27.884c0,5.115,1.326,9.28,3.961,12.489c2.638,3.199,6.067,4.805,10.285,4.805
			c9.016,0,19.325-4.422,30.94-13.274c15.587-11.851,23.381-23.903,23.381-36.167c0-5.604-1.443-10.252-4.323-13.941
			c-2.885-3.699-6.594-5.545-11.143-5.545c-3.818,0-7.836,1.995-12.06,5.971c-4.218,3.974-10.596,11.812-19.121,23.499
			l54.682-86.345c-2.999,0.487-5.473,0.732-7.423,0.732c-2.518,0-4.872-0.326-7.062-0.977L414.284,115.928z"/>
	</g>
</g>
<g>
	<g>
		<path id="SVGID_7_" fill="#F9F9F9" d="M534.854,35.303c-1.868,0-4.021-0.323-6.451-0.972
			c-10.069,17.942-22.453,39.133-37.146,63.575c-12.019,19.969-19.062,32.042-21.13,36.227c-2.072,4.183-3.106,8.505-3.106,12.968
			c0,4.062,1.116,7.415,3.353,10.052c2.23,2.634,5.097,3.952,8.599,3.952c7.313,0,18.652-10.609,34.018-31.829l5.236-7.196
			c0.816-0.812,1.226-1.463,1.226-1.958c0-0.404-0.168-0.646-0.49-0.725c-0.565,0-1.058,0.4-1.461,1.218
			c-18.213,25.778-30.735,38.667-37.568,38.667c-3.086,0-4.629-1.831-4.629-5.485c0-3.243,2.818-9.859,8.464-19.846
			c5.646-9.983,25.512-43.356,59.618-100.108C540.775,34.82,537.938,35.303,534.854,35.303"/>
	</g>
	<g>
		<defs>
			<path id="SVGID_10_" d="M534.854,35.303c-1.868,0-4.021-0.323-6.451-0.972c-10.069,17.942-22.453,39.133-37.146,63.575
				c-12.019,19.969-19.062,32.042-21.13,36.227c-2.072,4.183-3.106,8.505-3.106,12.968c0,4.062,1.116,7.415,3.353,10.052
				c2.23,2.634,5.097,3.952,8.599,3.952c7.313,0,18.652-10.609,34.018-31.829l5.236-7.196c0.816-0.812,1.226-1.463,1.226-1.958
				c0-0.404-0.168-0.646-0.49-0.725c-0.565,0-1.058,0.4-1.461,1.218c-18.213,25.778-30.735,38.667-37.568,38.667
				c-3.086,0-4.629-1.831-4.629-5.485c0-3.243,2.818-9.859,8.464-19.846c5.646-9.983,25.512-43.356,59.618-100.108
				C540.775,34.82,537.938,35.303,534.854,35.303"/>
		</defs>
		<clipPath id="SVGID_12_">
			<use xlink:href="#SVGID_10_"  overflow="visible"/>
		</clipPath>
		<polygon clip-path="url(#SVGID_12_)" fill="#F9F9F9" points="467.031,32.955 544.865,33.863 543.372,161.996 465.533,161.095 		
			"/>
	</g>
</g>
<g>
	<g>
		<path id="SVGID_9_" fill="#F9F9F9" d="M549.279,102.711c7.025-5.963,12.689-8.951,16.989-8.951c2.845,0,4.267,1.297,4.267,3.897
			c0,4.872-4.062,10.049-12.178,15.524c-8.121,5.482-18.023,9.73-29.717,12.734C535.379,116.417,542.262,108.683,549.279,102.711
			 M540.574,100.947c-20.377,11.124-30.565,23.998-30.565,38.605c0,6.17,1.931,11.309,5.791,15.405
			c3.858,4.097,8.633,6.147,14.316,6.147c12.03,0,26.453-10.375,43.276-31.128l5.234-6.566c1.469-1.862,2.2-2.915,2.2-3.16
			c0-0.404-0.163-0.652-0.492-0.73c-0.65,0-1.453,0.645-2.439,1.94c-18.609,25.054-34.334,37.577-47.175,37.577
			c-7.555,0-11.333-3.489-11.333-10.471c0-5.602,2.752-12.587,8.281-20.947c17.854-3.573,30.602-7.409,38.237-11.508
			c7.629-4.101,11.452-9.077,11.452-14.92c0-2.516-1.037-4.644-3.111-6.395c-2.071-1.745-4.563-2.619-7.489-2.619
			C560.018,92.179,551.294,95.102,540.574,100.947"/>
	</g>
	<g>
		<defs>
			<path id="SVGID_14_" d="M549.279,102.711c7.025-5.963,12.689-8.951,16.989-8.951c2.845,0,4.267,1.297,4.267,3.897
				c0,4.872-4.062,10.049-12.178,15.524c-8.121,5.482-18.023,9.73-29.717,12.734C535.379,116.417,542.262,108.683,549.279,102.711
				 M540.574,100.947c-20.377,11.124-30.565,23.998-30.565,38.605c0,6.17,1.931,11.309,5.791,15.405
				c3.858,4.097,8.633,6.147,14.316,6.147c12.03,0,26.453-10.375,43.276-31.128l5.234-6.566c1.469-1.862,2.2-2.915,2.2-3.16
				c0-0.404-0.163-0.652-0.492-0.73c-0.65,0-1.453,0.645-2.439,1.94c-18.609,25.054-34.334,37.577-47.175,37.577
				c-7.555,0-11.333-3.489-11.333-10.471c0-5.602,2.752-12.587,8.281-20.947c17.854-3.573,30.602-7.409,38.237-11.508
				c7.629-4.101,11.452-9.077,11.452-14.92c0-2.516-1.037-4.644-3.111-6.395c-2.071-1.745-4.563-2.619-7.489-2.619
				C560.018,92.179,551.294,95.102,540.574,100.947"/>
		</defs>
		<clipPath id="SVGID_16_">
			<use xlink:href="#SVGID_14_"  overflow="visible"/>
		</clipPath>
		<polygon clip-path="url(#SVGID_16_)" fill="#F9F9F9" points="510.014,91.358 581.622,92.186 580.812,161.936 509.202,161.095 		
			"/>
	</g>
</g>
<g>
	<g>
		<path id="SVGID_11_" fill="#F9F9F9" d="M647.133,124.329c4.307-7.14,6.455-13.028,6.455-17.655c0-4.144-1.088-7.593-3.28-10.352
			c-2.196-2.765-5.001-4.145-8.405-4.145c-7.145,0-18.03,10.722-32.638,32.15c4.789-8.361,7.184-14.894,7.184-19.604
			c0-3.41-0.939-6.352-2.809-8.831c-1.875-2.475-4.111-3.715-6.707-3.715c-3.979,0-9.638,4.576-16.958,13.736
			c-7.482,9.393-11.222,14.457-11.222,15.186c0,0.405,0.158,0.65,0.492,0.731c0.481,0,1.138-0.564,1.948-1.708
			c12.526-17.407,20.783-26.117,24.775-26.117c1.872,0,2.803,1.221,2.803,3.651c0,4.466-6.011,16.122-18.018,34.953l-17.425,27.4
			c2.354-0.326,5.117-0.486,8.287-0.486c2.919,0,5.315,0.16,7.186,0.486c9.986-18.35,20.048-33.935,30.203-46.76
			c10.152-12.83,17.452-19.245,21.918-19.245c3.003,0,4.509,1.826,4.509,5.477c0,4.059-5.641,15.103-16.933,33.127l-17.29,27.4
			c2.352-0.327,5.195-0.485,8.523-0.485c2.847,0,5.071,0.158,6.697,0.485c26.068-44.001,44.454-66.004,55.167-66.004
			c3.331,0,4.997,1.662,4.997,4.996c0,3-3.404,9.376-10.234,19.119c-5.354,7.71-8.322,12.055-8.884,13.028
			c-3.085,5.282-4.635,10.192-4.635,14.735c0,4.465,1.229,8.117,3.657,10.962c2.439,2.837,5.575,4.261,9.387,4.261
			c7.317,0,18.624-10.61,33.9-31.83l5.24-7.196c0.733-1.059,1.142-1.71,1.22-1.958c0-0.484-0.243-0.725-0.729-0.725
			c-0.406,0-0.812,0.4-1.22,1.218l-2.19,2.682l-3.786,5.246c-14.637,20.493-25.124,30.739-31.46,30.739
			c-3.334,0-5.003-1.663-5.003-4.994c0-3.084,1.989-7.55,5.969-13.396c6.896-10.31,10.393-15.505,10.476-15.587
			c3.976-6.739,5.963-12.623,5.963-17.657c0-4.312-1.203-7.963-3.594-10.965c-2.396-3.004-5.338-4.506-8.824-4.506
			C674.13,92.179,662.554,102.901,647.133,124.329"/>
	</g>
	<g>
		<defs>
			<path id="SVGID_18_" d="M647.133,124.329c4.307-7.14,6.455-13.028,6.455-17.655c0-4.144-1.088-7.593-3.28-10.352
				c-2.196-2.765-5.001-4.145-8.405-4.145c-7.145,0-18.03,10.722-32.638,32.15c4.789-8.361,7.184-14.894,7.184-19.604
				c0-3.41-0.939-6.352-2.809-8.831c-1.875-2.475-4.111-3.715-6.707-3.715c-3.979,0-9.638,4.576-16.958,13.736
				c-7.482,9.393-11.222,14.457-11.222,15.186c0,0.405,0.158,0.65,0.492,0.731c0.481,0,1.138-0.564,1.948-1.708
				c12.526-17.407,20.783-26.117,24.775-26.117c1.872,0,2.803,1.221,2.803,3.651c0,4.466-6.011,16.122-18.018,34.953l-17.425,27.4
				c2.354-0.326,5.117-0.486,8.287-0.486c2.919,0,5.315,0.16,7.186,0.486c9.986-18.35,20.048-33.935,30.203-46.76
				c10.152-12.83,17.452-19.245,21.918-19.245c3.003,0,4.509,1.826,4.509,5.477c0,4.059-5.641,15.103-16.933,33.127l-17.29,27.4
				c2.352-0.327,5.195-0.485,8.523-0.485c2.847,0,5.071,0.158,6.697,0.485c26.068-44.001,44.454-66.004,55.167-66.004
				c3.331,0,4.997,1.662,4.997,4.996c0,3-3.404,9.376-10.234,19.119c-5.354,7.71-8.322,12.055-8.884,13.028
				c-3.085,5.282-4.635,10.192-4.635,14.735c0,4.465,1.229,8.117,3.657,10.962c2.439,2.837,5.575,4.261,9.387,4.261
				c7.317,0,18.624-10.61,33.9-31.83l5.24-7.196c0.733-1.059,1.142-1.71,1.22-1.958c0-0.484-0.243-0.725-0.729-0.725
				c-0.406,0-0.812,0.4-1.22,1.218l-2.19,2.682l-3.786,5.246c-14.637,20.493-25.124,30.739-31.46,30.739
				c-3.334,0-5.003-1.663-5.003-4.994c0-3.084,1.989-7.55,5.969-13.396c6.896-10.31,10.393-15.505,10.476-15.587
				c3.976-6.739,5.963-12.623,5.963-17.657c0-4.312-1.203-7.963-3.594-10.965c-2.396-3.004-5.338-4.506-8.824-4.506
				C674.13,92.179,662.554,102.901,647.133,124.329"/>
		</defs>
		<clipPath id="SVGID_20_">
			<use xlink:href="#SVGID_18_"  overflow="visible"/>
		</clipPath>
		<polygon clip-path="url(#SVGID_20_)" fill="#F9F9F9" points="573.356,90.516 717.05,92.186 716.229,162.771 572.53,161.095 		"/>
	</g>
</g>
<g>
	<g>
		<path id="SVGID_13_" fill="#F9F9F9" d="M233.087,190.549c-7.109,1.108-12.509,7.107-12.509,14.68
			c0,9.135,7.104,15.601,15.001,15.601c2.22,0,4.712-0.644,6.926-1.66c1.983-0.966,3.743-2.354,4.983-4.103
			c1.2-1.717-1.617-3.418-2.677-1.85c-0.963,1.243-2.352,2.348-3.783,3.092c-1.754,0.871-3.649,1.332-5.355,1.332
			c-6.369,0-11.769-5.344-11.769-12.365c0-6.69,4.014-10.709,9.689-11.588c4.072-0.461,7.715,0.045,10.847,3.371
			c1.3,1.39,3.786-0.507,2.408-2.08c-3.017-3.164-6.746-4.623-10.995-4.623C234.957,190.354,234.036,190.418,233.087,190.549"/>
	</g>
</g>
<g>
	<g>
		<path id="SVGID_15_" fill="#F9F9F9" d="M263.967,205.275c0-6.277,3.643-10.758,9.232-11.635c1.289-0.18,2.628-0.18,4.011,0
			c5.687,0.926,9.61,5.682,9.61,11.635c0,7.75-5.126,12.365-11.364,12.365C268.953,217.641,263.967,212.848,263.967,205.275
			 M272.736,190.549c-7.34,1.149-12.226,7.338-12.226,14.584c0,9.787,6.646,15.695,14.946,15.695
			c7.853,0,14.776-6.089,14.776-15.695c0-7.561-5.495-13.476-12.598-14.584c-0.857-0.103-1.7-0.16-2.549-0.16
			C274.313,190.389,273.548,190.441,272.736,190.549"/>
	</g>
	<g>
		<defs>
			<path id="SVGID_22_" d="M263.967,205.275c0-6.277,3.643-10.758,9.232-11.635c1.289-0.18,2.628-0.18,4.011,0
				c5.687,0.926,9.61,5.682,9.61,11.635c0,7.75-5.126,12.365-11.364,12.365C268.953,217.641,263.967,212.848,263.967,205.275
				 M272.736,190.549c-7.34,1.149-12.226,7.338-12.226,14.584c0,9.787,6.646,15.695,14.946,15.695
				c7.853,0,14.776-6.089,14.776-15.695c0-7.561-5.495-13.476-12.598-14.584c-0.857-0.103-1.7-0.16-2.549-0.16
				C274.313,190.389,273.548,190.441,272.736,190.549"/>
		</defs>
		<clipPath id="SVGID_24_">
			<use xlink:href="#SVGID_22_"  overflow="visible"/>
		</clipPath>
		<polygon clip-path="url(#SVGID_24_)" fill="#F9F9F9" points="260.51,190.046 290.586,190.4 290.226,221.177 260.152,220.828 		"/>
	</g>
</g>
<g>
	<g>
		<path id="SVGID_17_" fill="#F9F9F9" d="M305.921,192.114v26.506c0,1.098,0.514,1.7,1.758,1.7h18.925c2.352,0,2.352-3.047,0-3.047
			h-17.265v-25.159c0-1.076-0.856-1.623-1.703-1.623C306.773,190.491,305.921,191.038,305.921,192.114"/>
	</g>
	<g>
		<defs>
			<path id="SVGID_26_" d="M305.921,192.114v26.506c0,1.098,0.514,1.7,1.758,1.7h18.925c2.352,0,2.352-3.047,0-3.047h-17.265
				v-25.159c0-1.076-0.856-1.623-1.703-1.623C306.773,190.491,305.921,191.038,305.921,192.114"/>
		</defs>
		<clipPath id="SVGID_28_">
			<use xlink:href="#SVGID_26_"  overflow="visible"/>
		</clipPath>
		<polygon clip-path="url(#SVGID_28_)" fill="#F9F9F9" points="305.921,190.225 329.304,190.491 328.952,220.592 305.579,220.316 		
			"/>
	</g>
</g>
<g>
	<g>
		<path id="SVGID_19_" fill="#F9F9F9" d="M341.738,192.114v26.506c0,1.098,0.509,1.7,1.755,1.7h18.921c2.361,0,2.361-3.047,0-3.047
			h-17.261v-25.159c0-1.076-0.847-1.623-1.706-1.623C342.599,190.491,341.738,191.038,341.738,192.114"/>
	</g>
	<g>
		<defs>
			<path id="SVGID_30_" d="M341.738,192.114v26.506c0,1.098,0.509,1.7,1.755,1.7h18.921c2.361,0,2.361-3.047,0-3.047h-17.261
				v-25.159c0-1.076-0.847-1.623-1.706-1.623C342.599,190.491,341.738,191.038,341.738,192.114"/>
		</defs>
		<clipPath id="SVGID_32_">
			<use xlink:href="#SVGID_30_"  overflow="visible"/>
		</clipPath>
		<polygon clip-path="url(#SVGID_32_)" fill="#F9F9F9" points="341.744,190.225 365.12,190.491 364.775,220.592 341.39,220.316 		
			"/>
	</g>
</g>
<g>
	<g>
		<path id="SVGID_21_" fill="#F9F9F9" d="M379.678,190.967c-1.288,0-2.123,0.924-2.123,1.977v25.352
			c0,1.104,0.834,2.026,2.123,2.026h19.439c2.211,0,1.935-3.048,0-3.048h-18.241v-10.017h17.358c1.939,0,1.851-2.948,0-2.948
			h-17.358V193.92h18.241c1.935,0,2.025-2.953,0.043-2.953H379.678z"/>
	</g>
	<g>
		<defs>
			<path id="SVGID_34_" d="M379.678,190.967c-1.288,0-2.123,0.924-2.123,1.977v25.352c0,1.104,0.834,2.026,2.123,2.026h19.439
				c2.211,0,1.935-3.048,0-3.048h-18.241v-10.017h17.358c1.939,0,1.851-2.948,0-2.948h-17.358V193.92h18.241
				c1.935,0,2.025-2.953,0.043-2.953H379.678z"/>
		</defs>
		<clipPath id="SVGID_36_">
			<use xlink:href="#SVGID_34_"  overflow="visible"/>
		</clipPath>
		<polygon clip-path="url(#SVGID_36_)" fill="#F9F9F9" points="377.559,190.691 401.665,190.97 401.322,220.604 377.212,220.316 		
			"/>
	</g>
</g>
<g>
	<g>
		<path id="SVGID_23_" fill="#F9F9F9" d="M427.086,190.549c-7.109,1.108-12.512,7.107-12.512,14.68c0,9.135,7.113,15.601,15,15.601
			c2.215,0,4.709-0.644,6.928-1.66c1.979-0.966,3.735-2.354,4.984-4.103c1.196-1.717-1.621-3.418-2.685-1.85
			c-0.966,1.243-2.352,2.348-3.782,3.092c-1.753,0.871-3.649,1.332-5.353,1.332c-6.369,0-11.772-5.344-11.772-12.365
			c0-6.69,4.016-10.709,9.695-11.588c4.062-0.461,7.707,0.045,10.848,3.371c1.297,1.39,3.776-0.507,2.396-2.08
			c-3.006-3.164-6.74-4.623-10.986-4.623C428.947,190.354,428.027,190.418,427.086,190.549"/>
	</g>
</g>
<g>
	<g>
		<path id="SVGID_25_" fill="#F9F9F9" d="M453.898,190.92c-2.173,0-2.173,3.182,0,3.182h10.246v25.066
			c0,1.152,0.877,1.704,1.661,1.704c0.788,0,1.755-0.552,1.755-1.704c0-8.303-0.048-16.752-0.048-25.066h10.292
			c2.265,0,2.265-3.182,0-3.182H453.898z"/>
	</g>
	<g>
		<defs>
			<path id="SVGID_38_" d="M477.732,221.043c2.172,0.025,2.209-3.154,0.038-3.18l-10.245-0.121l0.293-25.064
				c0.014-1.151-0.858-1.713-1.642-1.723c-0.788-0.01-1.762,0.531-1.775,1.684c-0.097,8.302-0.147,16.75-0.245,25.064l-10.291-0.12
				c-2.264-0.026-2.301,3.154-0.037,3.181L477.732,221.043z"/>
		</defs>
		<clipPath id="SVGID_40_">
			<use xlink:href="#SVGID_38_"  overflow="visible"/>
		</clipPath>
		
			<rect x="451.563" y="190.784" transform="matrix(0.9999 0.0117 -0.0117 0.9999 2.4434 -5.4418)" clip-path="url(#SVGID_40_)" fill="#F9F9F9" width="28.688" height="30.283"/>
	</g>
</g>
<g>
	<g>
		<path id="SVGID_27_" fill="#F9F9F9" d="M492.393,191.568v27.6c0,2.219,3.458,2.12,3.458,0v-27.6c0-1.135-0.874-1.717-1.74-1.717
			C493.248,189.854,492.393,190.418,492.393,191.568"/>
	</g>
	<g>
		<defs>
			<path id="SVGID_42_" d="M492.393,191.568v27.6c0,2.219,3.458,2.12,3.458,0v-27.6c0-1.135-0.874-1.717-1.74-1.717
				C493.248,189.854,492.393,190.418,492.393,191.568"/>
		</defs>
		<clipPath id="SVGID_44_">
			<use xlink:href="#SVGID_42_"  overflow="visible"/>
		</clipPath>
		<polygon clip-path="url(#SVGID_44_)" fill="#F9F9F9" points="492.393,189.816 496.219,189.854 495.851,221.42 492.024,221.38 		
			"/>
	</g>
</g>
<g>
	<g>
		<path id="SVGID_29_" fill="#F9F9F9" d="M513.763,205.275c0-6.277,3.648-10.758,9.229-11.635c1.295-0.18,2.632-0.18,4.013,0
			c5.683,0.926,9.605,5.682,9.605,11.635c0,7.75-5.127,12.365-11.355,12.365C518.746,217.641,513.763,212.848,513.763,205.275
			 M522.538,190.549c-7.346,1.149-12.235,7.338-12.235,14.584c0,9.787,6.645,15.695,14.952,15.695
			c7.851,0,14.769-6.089,14.769-15.695c0-7.561-5.489-13.476-12.596-14.584c-0.852-0.103-1.689-0.16-2.55-0.16
			C524.117,190.389,523.344,190.441,522.538,190.549"/>
	</g>
	<g>
		<defs>
			<path id="SVGID_46_" d="M513.763,205.275c0-6.277,3.648-10.758,9.229-11.635c1.295-0.18,2.632-0.18,4.013,0
				c5.683,0.926,9.605,5.682,9.605,11.635c0,7.75-5.127,12.365-11.355,12.365C518.746,217.641,513.763,212.848,513.763,205.275
				 M522.538,190.549c-7.346,1.149-12.235,7.338-12.235,14.584c0,9.787,6.645,15.695,14.952,15.695
				c7.851,0,14.769-6.089,14.769-15.695c0-7.561-5.489-13.476-12.596-14.584c-0.852-0.103-1.689-0.16-2.55-0.16
				C524.117,190.389,523.344,190.441,522.538,190.549"/>
		</defs>
		<clipPath id="SVGID_48_">
			<use xlink:href="#SVGID_46_"  overflow="visible"/>
		</clipPath>
		<polygon clip-path="url(#SVGID_48_)" fill="#F9F9F9" points="510.303,190.046 540.382,190.4 540.021,221.177 509.943,220.828 		
			"/>
	</g>
</g>
<g>
	<g>
		<path id="SVGID_31_" fill="#F9F9F9" d="M555.485,192.578v26.453c0,2.309,3.51,2.257,3.51,0v-16.292l-0.371-6.366l17.271,23.119
			c0.963,1.613,4.146,1.38,4.146-0.926v-26.494c0-2.032-3.502-1.936-3.502,0v16.342l0.465,6.966l-17.774-23.768
			c-0.486-0.709-1.209-1.063-1.897-1.063C556.36,190.549,555.485,191.234,555.485,192.578"/>
	</g>
	<g>
		<defs>
			<path id="SVGID_50_" d="M579.92,218.932l0.307-26.451c0.026-2.309-3.483-2.297-3.51-0.04l-0.189,16.29l0.298,6.369
				l-17.001-23.316c-0.943-1.624-4.129-1.428-4.156,0.877l-0.307,26.492c-0.023,2.031,3.479,1.976,3.501,0.041l0.19-16.341
				l-0.385-6.971l17.498,23.972c0.478,0.715,1.196,1.077,1.884,1.085C579.021,220.949,579.904,220.275,579.92,218.932"/>
		</defs>
		<clipPath id="SVGID_52_">
			<use xlink:href="#SVGID_50_"  overflow="visible"/>
		</clipPath>
		
			<rect x="555.335" y="189.886" transform="matrix(0.9999 0.0116 -0.0116 0.9999 2.4161 -6.5513)" clip-path="url(#SVGID_52_)" fill="#F9F9F9" width="24.916" height="31.58"/>
	</g>
</g>
<g>
	<g>
		<path id="SVGID_33_" fill="#F9F9F9" d="M150.458,264.3c-0.154,0.478-0.508,0.788-1.06,0.946c-0.545,0.156-1.385,0.234-2.511,0.234
			l-3.212,0.045c-2.074,0.062-4.04,0.096-5.894,0.096c-3.612,0-6.775-0.043-9.472-0.141c-1.701,0-2.552-0.344-2.552-1.035
			c0-0.156-0.089-0.238-0.28-0.238c-0.186,0-0.286,0.082-0.286,0.238c0,1.007-0.077,2.486-0.226,4.43
			c-0.166,1.949-0.309,3.362-0.426,4.243c0,0.062,0.08,0.1,0.254,0.114c0.171,0.02,0.274-0.021,0.309-0.114
			c0.477-2.392,1.231-4.103,2.291-5.164c1.041-1.049,2.543-1.576,4.495-1.576c1.289,0,2.208,0.06,2.76,0.19
			c0.548,0.117,0.925,0.382,1.131,0.771c0.203,0.397,0.303,1.049,0.303,1.957v21.827c0,0.94-0.111,1.646-0.325,2.097
			c-0.22,0.461-0.643,0.771-1.277,0.92c-0.623,0.158-1.601,0.237-2.923,0.237c-0.061,0-0.091,0.093-0.091,0.281
			s0.031,0.284,0.091,0.284c1.134,0,2.008-0.02,2.637-0.045l3.586-0.051l3.729,0.051c0.625,0.025,1.471,0.045,2.543,0.045
			c0.066,0,0.091-0.096,0.091-0.284s-0.025-0.281-0.091-0.281c-1.352,0-2.334-0.079-2.949-0.237
			c-0.614-0.149-1.017-0.451-1.223-0.898c-0.203-0.434-0.305-1.143-0.305-2.117v-21.73c0-0.941,0.103-1.621,0.305-2.024
			c0.206-0.414,0.583-0.683,1.126-0.801c0.557-0.132,1.457-0.19,2.711-0.19c2.078,0,3.612,0.518,4.598,1.555
			c0.991,1.041,1.551,2.764,1.674,5.187c0.034,0.062,0.137,0.095,0.312,0.095c0.168,0,0.254-0.031,0.254-0.095
			c0-1.163,0.045-2.697,0.143-4.595c0.095-1.9,0.192-3.312,0.281-4.225c0-0.122-0.078-0.185-0.229-0.185
			C150.59,264.115,150.493,264.178,150.458,264.3"/>
	</g>
</g>
<g>
	<g>
		<path id="SVGID_35_" fill="#F9F9F9" d="M192.984,265.525c-1.383,0.062-2.5,0.096-3.346,0.096c-1.04,0-2.246-0.032-3.632-0.096
			l-2.214-0.045c-0.091,0-0.146,0.098-0.146,0.285c0,0.188,0.054,0.28,0.146,0.28c1.194,0,2.069,0.093,2.634,0.279
			c0.572,0.194,0.955,0.515,1.163,0.967c0.207,0.456,0.303,1.159,0.303,2.103v9.707h-17.579v-9.707c0-0.942,0.097-1.646,0.3-2.103
			c0.206-0.452,0.591-0.772,1.157-0.967c0.565-0.188,1.443-0.279,2.64-0.279c0.063,0,0.094-0.093,0.094-0.28
			s-0.031-0.285-0.094-0.285l-2.312,0.045c-1.446,0.062-2.634,0.096-3.58,0.096c-0.852,0-1.938-0.032-3.257-0.096l-2.4-0.045
			c-0.065,0-0.097,0.098-0.097,0.285c0,0.188,0.032,0.28,0.097,0.28c1.157,0,2.017,0.085,2.569,0.257
			c0.551,0.178,0.928,0.483,1.131,0.92c0.197,0.439,0.306,1.131,0.306,2.074v21.827c0,0.94-0.109,1.646-0.306,2.097
			c-0.203,0.461-0.58,0.771-1.131,0.92c-0.552,0.158-1.423,0.237-2.62,0.237c-0.057,0-0.091,0.092-0.091,0.281
			c0,0.188,0.034,0.284,0.091,0.284c1.04,0,1.84-0.02,2.403-0.045l3.306-0.052l3.534,0.052c0.563,0.025,1.354,0.045,2.357,0.045
			c0.063,0,0.094-0.097,0.094-0.284c0-0.189-0.031-0.281-0.094-0.281c-1.229,0-2.115-0.079-2.666-0.237
			c-0.548-0.149-0.925-0.459-1.131-0.92c-0.203-0.451-0.3-1.156-0.3-2.097v-10.986h17.579v10.986c0,0.94-0.097,1.646-0.303,2.097
			c-0.208,0.461-0.583,0.771-1.131,0.92c-0.555,0.158-1.449,0.237-2.666,0.237c-0.091,0-0.146,0.092-0.146,0.281
			c0,0.188,0.054,0.284,0.146,0.284c0.943,0,1.68-0.02,2.214-0.045l3.632-0.052l3.346,0.052c0.566,0.025,1.349,0.045,2.357,0.045
			c0.094,0,0.143-0.097,0.143-0.284c0-0.189-0.049-0.281-0.143-0.281c-1.191,0-2.068-0.079-2.611-0.237
			c-0.555-0.149-0.932-0.459-1.137-0.92c-0.206-0.451-0.3-1.156-0.3-2.097v-21.827c0-0.943,0.094-1.635,0.3-2.074
			c0.206-0.437,0.582-0.742,1.137-0.92c0.543-0.172,1.42-0.257,2.611-0.257c0.094,0,0.143-0.093,0.143-0.28
			s-0.049-0.285-0.143-0.285L192.984,265.525z"/>
	</g>
	<g>
		<defs>
			<path id="SVGID_54_" d="M192.984,265.525c-1.383,0.062-2.5,0.096-3.346,0.096c-1.04,0-2.246-0.032-3.632-0.096l-2.214-0.045
				c-0.091,0-0.146,0.098-0.146,0.285c0,0.188,0.054,0.28,0.146,0.28c1.194,0,2.069,0.093,2.634,0.279
				c0.572,0.194,0.955,0.515,1.163,0.967c0.207,0.456,0.303,1.159,0.303,2.103v9.707h-17.579v-9.707c0-0.942,0.097-1.646,0.3-2.103
				c0.206-0.452,0.591-0.772,1.157-0.967c0.565-0.188,1.443-0.279,2.64-0.279c0.063,0,0.094-0.093,0.094-0.28
				s-0.031-0.285-0.094-0.285l-2.312,0.045c-1.446,0.062-2.634,0.096-3.58,0.096c-0.852,0-1.938-0.032-3.257-0.096l-2.4-0.045
				c-0.065,0-0.097,0.098-0.097,0.285c0,0.188,0.032,0.28,0.097,0.28c1.157,0,2.017,0.085,2.569,0.257
				c0.551,0.178,0.928,0.483,1.131,0.92c0.197,0.439,0.306,1.131,0.306,2.074v21.827c0,0.94-0.109,1.646-0.306,2.097
				c-0.203,0.461-0.58,0.771-1.131,0.92c-0.552,0.158-1.423,0.237-2.62,0.237c-0.057,0-0.091,0.092-0.091,0.281
				c0,0.188,0.034,0.284,0.091,0.284c1.04,0,1.84-0.02,2.403-0.045l3.306-0.052l3.534,0.052c0.563,0.025,1.354,0.045,2.357,0.045
				c0.063,0,0.094-0.097,0.094-0.284c0-0.189-0.031-0.281-0.094-0.281c-1.229,0-2.115-0.079-2.666-0.237
				c-0.548-0.149-0.925-0.459-1.131-0.92c-0.203-0.451-0.3-1.156-0.3-2.097v-10.986h17.579v10.986c0,0.94-0.097,1.646-0.303,2.097
				c-0.208,0.461-0.583,0.771-1.131,0.92c-0.555,0.158-1.449,0.237-2.666,0.237c-0.091,0-0.146,0.092-0.146,0.281
				c0,0.188,0.054,0.284,0.146,0.284c0.943,0,1.68-0.02,2.214-0.045l3.632-0.052l3.346,0.052c0.566,0.025,1.349,0.045,2.357,0.045
				c0.094,0,0.143-0.097,0.143-0.284c0-0.189-0.049-0.281-0.143-0.281c-1.191,0-2.068-0.079-2.611-0.237
				c-0.555-0.149-0.932-0.459-1.137-0.92c-0.206-0.451-0.3-1.156-0.3-2.097v-21.827c0-0.943,0.094-1.635,0.3-2.074
				c0.206-0.437,0.582-0.742,1.137-0.92c0.543-0.172,1.42-0.257,2.611-0.257c0.094,0,0.143-0.093,0.143-0.28
				s-0.049-0.285-0.143-0.285L192.984,265.525z"/>
		</defs>
		<clipPath id="SVGID_56_">
			<use xlink:href="#SVGID_54_"  overflow="visible"/>
		</clipPath>
		<polygon clip-path="url(#SVGID_56_)" fill="#F9F9F9" points="162.728,265.097 195.827,265.48 195.479,295.328 162.374,294.939 		
			"/>
	</g>
</g>
<g>
	<g>
		<path id="SVGID_37_" fill="#F9F9F9" d="M207.552,265.48c-0.061,0-0.095,0.098-0.095,0.285c0,0.188,0.035,0.28,0.095,0.28
			c1.162,0,2.008,0.085,2.546,0.257c0.534,0.178,0.896,0.483,1.085,0.92c0.188,0.439,0.283,1.131,0.283,2.074v21.827
			c0,0.94-0.094,1.646-0.283,2.097c-0.189,0.461-0.552,0.771-1.085,0.92c-0.538,0.158-1.384,0.237-2.546,0.237
			c-0.061,0-0.095,0.092-0.095,0.281c0,0.188,0.035,0.284,0.095,0.284h19.936c0.286,0,0.48-0.053,0.597-0.165
			c0.108-0.114,0.157-0.291,0.157-0.537c0-2.177,0.143-4.274,0.432-6.326c0-0.086-0.1-0.144-0.289-0.159
			c-0.186-0.018-0.282,0.022-0.282,0.12c-0.403,1.913-1.16,3.394-2.26,4.446c-1.098,1.057-2.479,1.582-4.143,1.582h-3.35
			c-0.974,0-1.7-0.079-2.166-0.258c-0.477-0.168-0.802-0.463-0.994-0.873c-0.188-0.406-0.286-1.023-0.286-1.836v-10.801h5.333
			c1.632,0,2.803,0.314,3.534,0.922c0.723,0.615,1.078,1.604,1.078,2.993c0,0.065,0.097,0.104,0.292,0.104
			c0.183,0,0.28-0.037,0.28-0.104l-0.052-2.362c-0.022-0.467-0.045-1.155-0.045-2.074l0.045-3.901c0-0.067-0.088-0.097-0.274-0.097
			c-0.192,0-0.289,0.027-0.289,0.097c0,1.188-0.357,2.054-1.063,2.589c-0.708,0.532-1.845,0.799-3.408,0.799h-5.43v-9.615
			c0-1.16,0.238-1.948,0.712-2.354c0.466-0.405,1.443-0.61,2.917-0.61h2.597c1.575,0,2.837,0.457,3.814,1.365
			c0.98,0.909,1.56,2.215,1.746,3.914c0,0.092,0.085,0.141,0.263,0.141c0.174,0,0.254-0.049,0.254-0.141l-0.091-5.894
			c0-0.286-0.146-0.427-0.426-0.427H207.552z"/>
	</g>
	<g>
		<defs>
			<path id="SVGID_58_" d="M207.552,265.48c-0.061,0-0.095,0.098-0.095,0.285c0,0.188,0.035,0.28,0.095,0.28
				c1.162,0,2.008,0.085,2.546,0.257c0.534,0.178,0.896,0.483,1.085,0.92c0.188,0.439,0.283,1.131,0.283,2.074v21.827
				c0,0.94-0.094,1.646-0.283,2.097c-0.189,0.461-0.552,0.771-1.085,0.92c-0.538,0.158-1.384,0.237-2.546,0.237
				c-0.061,0-0.095,0.092-0.095,0.281c0,0.188,0.035,0.284,0.095,0.284h19.936c0.286,0,0.48-0.053,0.597-0.165
				c0.108-0.114,0.157-0.291,0.157-0.537c0-2.177,0.143-4.274,0.432-6.326c0-0.086-0.1-0.144-0.289-0.159
				c-0.186-0.018-0.282,0.022-0.282,0.12c-0.403,1.913-1.16,3.394-2.26,4.446c-1.098,1.057-2.479,1.582-4.143,1.582h-3.35
				c-0.974,0-1.7-0.079-2.166-0.258c-0.477-0.168-0.802-0.463-0.994-0.873c-0.188-0.406-0.286-1.023-0.286-1.836v-10.801h5.333
				c1.632,0,2.803,0.314,3.534,0.922c0.723,0.615,1.078,1.604,1.078,2.993c0,0.065,0.097,0.104,0.292,0.104
				c0.183,0,0.28-0.037,0.28-0.104l-0.052-2.362c-0.022-0.467-0.045-1.155-0.045-2.074l0.045-3.901c0-0.067-0.088-0.097-0.274-0.097
				c-0.192,0-0.289,0.027-0.289,0.097c0,1.188-0.357,2.054-1.063,2.589c-0.708,0.532-1.845,0.799-3.408,0.799h-5.43v-9.615
				c0-1.16,0.238-1.948,0.712-2.354c0.466-0.405,1.443-0.61,2.917-0.61h2.597c1.575,0,2.837,0.457,3.814,1.365
				c0.98,0.909,1.56,2.215,1.746,3.914c0,0.092,0.085,0.141,0.263,0.141c0.174,0,0.254-0.049,0.254-0.141l-0.091-5.894
				c0-0.286-0.146-0.427-0.426-0.427H207.552z"/>
		</defs>
		<clipPath id="SVGID_60_">
			<use xlink:href="#SVGID_58_"  overflow="visible"/>
		</clipPath>
		<polygon clip-path="url(#SVGID_60_)" fill="#F9F9F9" points="207.457,265.229 229.019,265.48 228.667,295.191 207.114,294.939 		
			"/>
	</g>
</g>
<g>
	<g>
		<path id="SVGID_39_" fill="#F9F9F9" d="M269.542,265.525c-1.323,0.062-2.434,0.096-3.343,0.096c-0.852,0-1.937-0.032-3.258-0.096
			l-2.354-0.045c-0.069,0-0.098,0.098-0.098,0.285c0,0.188,0.029,0.28,0.098,0.28c1.157,0,2.006,0.085,2.543,0.257
			c0.538,0.178,0.897,0.483,1.086,0.92c0.188,0.439,0.28,1.131,0.28,2.074v21.827c0,0.94-0.091,1.646-0.28,2.097
			c-0.189,0.461-0.548,0.771-1.086,0.92c-0.537,0.158-1.386,0.237-2.543,0.237c-0.069,0-0.098,0.092-0.098,0.281
			c0,0.188,0.029,0.284,0.098,0.284h21.875c0.28,0,0.469-0.053,0.563-0.166c0.095-0.113,0.143-0.29,0.143-0.536
			c0-1.796,0.14-4.029,0.423-6.697c0-0.097-0.086-0.153-0.264-0.169c-0.168-0.014-0.26,0.025-0.26,0.117
			c-0.374,1.982-1.172,3.549-2.377,4.695c-1.209,1.146-2.758,1.717-4.644,1.717h-4.526c-1.066,0-1.843-0.069-2.334-0.215
			c-0.489-0.143-0.817-0.414-0.988-0.819c-0.172-0.411-0.26-1.052-0.26-1.933v-21.597c0-0.938,0.091-1.64,0.28-2.097
			c0.192-0.451,0.563-0.766,1.108-0.942c0.552-0.172,1.397-0.257,2.523-0.257c0.065,0,0.097-0.093,0.097-0.279
			c0-0.188-0.031-0.287-0.097-0.287L269.542,265.525z"/>
	</g>
	<g>
		<defs>
			<path id="SVGID_62_" d="M269.542,265.525c-1.323,0.062-2.434,0.096-3.343,0.096c-0.852,0-1.937-0.032-3.258-0.096l-2.354-0.045
				c-0.069,0-0.098,0.098-0.098,0.285c0,0.188,0.029,0.28,0.098,0.28c1.157,0,2.006,0.085,2.543,0.257
				c0.538,0.178,0.897,0.483,1.086,0.92c0.188,0.439,0.28,1.131,0.28,2.074v21.827c0,0.94-0.091,1.646-0.28,2.097
				c-0.189,0.461-0.548,0.771-1.086,0.92c-0.537,0.158-1.386,0.237-2.543,0.237c-0.069,0-0.098,0.092-0.098,0.281
				c0,0.188,0.029,0.284,0.098,0.284h21.875c0.28,0,0.469-0.053,0.563-0.166c0.095-0.113,0.143-0.29,0.143-0.536
				c0-1.796,0.14-4.029,0.423-6.697c0-0.097-0.086-0.153-0.264-0.169c-0.168-0.014-0.26,0.025-0.26,0.117
				c-0.374,1.982-1.172,3.549-2.377,4.695c-1.209,1.146-2.758,1.717-4.644,1.717h-4.526c-1.066,0-1.843-0.069-2.334-0.215
				c-0.489-0.143-0.817-0.414-0.988-0.819c-0.172-0.411-0.26-1.052-0.26-1.933v-21.597c0-0.938,0.091-1.64,0.28-2.097
				c0.192-0.451,0.563-0.766,1.108-0.942c0.552-0.172,1.397-0.257,2.523-0.257c0.065,0,0.097-0.093,0.097-0.279
				c0-0.188-0.031-0.287-0.097-0.287L269.542,265.525z"/>
		</defs>
		<clipPath id="SVGID_64_">
			<use xlink:href="#SVGID_62_"  overflow="visible"/>
		</clipPath>
		<polygon clip-path="url(#SVGID_64_)" fill="#F9F9F9" points="260.489,265.211 283.929,265.48 283.592,295.214 260.152,294.939 		
			"/>
	</g>
</g>
<g>
	<g>
		<path id="SVGID_41_" fill="#F9F9F9" d="M305.042,292.38c-1.917-1.405-3.412-3.309-4.48-5.735c-1.068-2.414-1.6-5.104-1.6-8.061
			c0-3.893,0.943-6.949,2.829-9.168c1.886-2.215,4.506-3.324,7.872-3.324c2.567,0,4.837,0.646,6.783,1.938
			c1.957,1.29,3.448,3.079,4.506,5.377c1.055,2.292,1.577,4.896,1.577,7.817c0,2.766-0.48,5.143-1.438,7.143
			c-0.958,1.995-2.269,3.51-3.911,4.55c-1.648,1.033-3.518,1.554-5.592,1.554C309.145,294.471,306.95,293.77,305.042,292.38
			 M303.745,266.709c-2.563,1.157-4.661,2.896-6.298,5.205c-1.629,2.314-2.446,5.088-2.446,8.32c0,2.765,0.612,5.322,1.857,7.664
			c1.24,2.338,3.006,4.195,5.28,5.562c2.281,1.371,4.884,2.046,7.805,2.046c2.948,0,5.694-0.686,8.223-2.07
			c2.535-1.382,4.552-3.271,6.058-5.655c1.516-2.388,2.27-5.013,2.27-7.875c0-2.572-0.605-5.013-1.82-7.304
			c-1.209-2.301-2.946-4.143-5.207-5.541c-2.263-1.396-4.889-2.101-7.877-2.101C308.922,264.96,306.31,265.543,303.745,266.709"/>
	</g>
	<g>
		<defs>
			<path id="SVGID_65_" d="M316.58,268.188c1.9,1.428,3.373,3.35,4.413,5.787c1.039,2.427,1.54,5.123,1.505,8.079
				c-0.045,3.892-1.023,6.938-2.936,9.134c-1.912,2.193-4.545,3.271-7.91,3.232c-2.567-0.03-4.829-0.703-6.76-2.018
				c-1.941-1.312-3.413-3.12-4.442-5.43c-1.028-2.304-1.52-4.914-1.485-7.834c0.032-2.766,0.54-5.137,1.52-7.126
				c0.981-1.983,2.31-3.483,3.964-4.503c1.661-1.014,3.536-1.514,5.61-1.489C312.502,266.049,314.688,266.777,316.58,268.188
				 M317.577,293.872c2.576-1.127,4.694-2.843,6.358-5.131c1.655-2.296,2.505-5.06,2.543-8.292c0.032-2.764-0.55-5.327-1.768-7.685
				c-1.212-2.352-2.956-4.229-5.214-5.622c-2.265-1.398-4.858-2.104-7.779-2.138c-2.949-0.034-5.703,0.62-8.247,1.975
				c-2.551,1.352-4.59,3.217-6.124,5.584c-1.543,2.37-2.328,4.985-2.361,7.848c-0.03,2.571,0.546,5.019,1.734,7.324
				c1.182,2.313,2.897,4.177,5.142,5.601c2.246,1.424,4.864,2.158,7.851,2.193C312.38,295.561,314.998,295.008,317.577,293.872"/>
		</defs>
		<clipPath id="SVGID_66_">
			<use xlink:href="#SVGID_65_"  overflow="visible"/>
		</clipPath>
		
			<rect x="294.817" y="264.809" transform="matrix(0.9999 0.0117 -0.0117 0.9999 3.3046 -3.621)" clip-path="url(#SVGID_66_)" fill="#F9F9F9" width="31.844" height="30.906"/>
	</g>
</g>
<g>
	<g>
		<path id="SVGID_43_" fill="#F9F9F9" d="M365.757,265.525c-0.882,0.062-1.62,0.096-2.214,0.096c-0.918,0-1.935-0.032-3.066-0.096
			l-2.07-0.045c-0.099,0-0.144,0.098-0.144,0.285c0,0.188,0.045,0.28,0.144,0.28c1.26,0,2.174,0.174,2.754,0.521
			c0.586,0.342,0.871,0.879,0.871,1.6c0,0.438-0.123,1.005-0.374,1.696l-8.063,20.362l-9.568-20.832
			c-0.283-0.627-0.42-1.164-0.42-1.604c0-1.166,0.972-1.742,2.92-1.742c0.098,0,0.141-0.093,0.141-0.28s-0.043-0.285-0.141-0.285
			c-0.817,0-1.475,0.017-1.978,0.045c-1.514,0.062-3.022,0.096-4.532,0.096c-0.595,0-1.332-0.032-2.208-0.096l-1.608-0.045
			c-0.096,0-0.137,0.098-0.137,0.285c0,0.188,0.041,0.28,0.137,0.28c0.917,0,1.656,0.257,2.24,0.776
			c0.582,0.518,1.153,1.375,1.717,2.57l11.747,25.506c0.091,0.125,0.263,0.188,0.514,0.188c0.312,0,0.489-0.062,0.517-0.188
			l9.807-24.799c1.103-2.703,2.752-4.055,4.945-4.055c0.101,0,0.149-0.093,0.149-0.279c0-0.188-0.049-0.287-0.149-0.287
			L365.757,265.525z"/>
	</g>
	<g>
		<defs>
			<path id="SVGID_67_" d="M365.757,265.525c-0.882,0.062-1.62,0.096-2.214,0.096c-0.918,0-1.935-0.032-3.066-0.096l-2.07-0.045
				c-0.099,0-0.144,0.098-0.144,0.285c0,0.188,0.045,0.28,0.144,0.28c1.26,0,2.174,0.174,2.754,0.521
				c0.586,0.342,0.871,0.879,0.871,1.6c0,0.438-0.123,1.005-0.374,1.696l-8.063,20.362l-9.568-20.832
				c-0.283-0.627-0.42-1.164-0.42-1.604c0-1.166,0.972-1.742,2.92-1.742c0.098,0,0.141-0.093,0.141-0.28s-0.043-0.285-0.141-0.285
				c-0.817,0-1.475,0.017-1.978,0.045c-1.514,0.062-3.022,0.096-4.532,0.096c-0.595,0-1.332-0.032-2.208-0.096l-1.608-0.045
				c-0.096,0-0.137,0.098-0.137,0.285c0,0.188,0.041,0.28,0.137,0.28c0.917,0,1.656,0.257,2.24,0.776
				c0.582,0.518,1.153,1.375,1.717,2.57l11.747,25.506c0.091,0.125,0.263,0.188,0.514,0.188c0.312,0,0.489-0.062,0.517-0.188
				l9.807-24.799c1.103-2.703,2.752-4.055,4.945-4.055c0.101,0,0.149-0.093,0.149-0.279c0-0.188-0.049-0.287-0.149-0.287
				L365.757,265.525z"/>
		</defs>
		<clipPath id="SVGID_68_">
			<use xlink:href="#SVGID_67_"  overflow="visible"/>
		</clipPath>
		<polygon clip-path="url(#SVGID_68_)" fill="#F9F9F9" points="336.061,265.109 368.181,265.48 367.832,295.454 335.709,295.082 		
			"/>
	</g>
</g>
<g>
	<g>
		<path id="SVGID_45_" fill="#F9F9F9" d="M378.064,265.48c-0.065,0-0.098,0.098-0.098,0.285c0,0.188,0.032,0.28,0.098,0.28
			c1.159,0,2.009,0.085,2.543,0.257c0.533,0.178,0.896,0.483,1.086,0.92c0.186,0.439,0.282,1.131,0.282,2.074v21.827
			c0,0.94-0.097,1.646-0.282,2.097c-0.189,0.461-0.553,0.771-1.086,0.92c-0.535,0.158-1.384,0.237-2.543,0.237
			c-0.065,0-0.098,0.092-0.098,0.281c0,0.188,0.032,0.284,0.098,0.284h19.938c0.283,0,0.474-0.053,0.588-0.165
			c0.106-0.114,0.169-0.291,0.169-0.537c0-2.177,0.135-4.274,0.42-6.326c0-0.086-0.091-0.144-0.285-0.159
			c-0.188-0.018-0.276,0.022-0.276,0.12c-0.409,1.913-1.167,3.394-2.265,4.446c-1.097,1.057-2.485,1.582-4.153,1.582h-3.34
			c-0.978,0-1.704-0.079-2.169-0.258c-0.473-0.168-0.803-0.463-0.991-0.873c-0.189-0.406-0.286-1.023-0.286-1.836v-10.801h5.326
			c1.637,0,2.817,0.314,3.541,0.922c0.72,0.615,1.085,1.604,1.085,2.993c0,0.065,0.092,0.104,0.28,0.104
			c0.186,0,0.288-0.037,0.288-0.104l-0.052-2.362c-0.031-0.467-0.051-1.155-0.051-2.074l0.051-3.901
			c0-0.067-0.097-0.097-0.283-0.097c-0.188,0-0.279,0.027-0.279,0.097c0,1.188-0.357,2.054-1.069,2.589
			c-0.7,0.532-1.843,0.799-3.412,0.799h-5.426v-9.615c0-1.16,0.24-1.948,0.708-2.354c0.475-0.405,1.443-0.61,2.926-0.61h2.589
			c1.574,0,2.852,0.457,3.82,1.365c0.974,0.909,1.557,2.215,1.746,3.914c0,0.092,0.083,0.141,0.259,0.141
			c0.169,0,0.26-0.049,0.26-0.141l-0.094-5.894c0-0.286-0.148-0.427-0.426-0.427H378.064z"/>
	</g>
</g>
<g>
	<g>
		<path id="SVGID_47_" fill="#F9F9F9" d="M431.52,265.48c-0.06,0-0.092,0.098-0.092,0.285c0,0.188,0.032,0.28,0.092,0.28
			c1.16,0,2.01,0.085,2.547,0.257c0.533,0.178,0.892,0.483,1.083,0.92c0.188,0.439,0.282,1.131,0.282,2.074v21.827
			c0,0.94-0.095,1.646-0.282,2.097c-0.191,0.461-0.55,0.771-1.083,0.92c-0.537,0.158-1.387,0.237-2.547,0.237
			c-0.06,0-0.092,0.092-0.092,0.281c0,0.188,0.032,0.284,0.092,0.284h19.938c0.282,0,0.479-0.053,0.595-0.165
			c0.108-0.114,0.162-0.291,0.162-0.537c0-2.177,0.146-4.274,0.426-6.326c0-0.086-0.096-0.144-0.278-0.159
			c-0.188-0.018-0.286,0.022-0.286,0.12c-0.411,1.913-1.166,3.394-2.258,4.446c-1.108,1.057-2.494,1.582-4.153,1.582h-3.347
			c-0.979,0-1.7-0.079-2.169-0.258c-0.472-0.168-0.804-0.463-0.991-0.873c-0.188-0.406-0.283-1.023-0.283-1.836v-10.801h5.323
			c1.638,0,2.814,0.314,3.54,0.922c0.724,0.615,1.081,1.604,1.081,2.993c0,0.065,0.097,0.104,0.284,0.104
			c0.189,0,0.283-0.037,0.283-0.104l-0.043-2.362c-0.034-0.467-0.051-1.155-0.051-2.074l0.051-3.901
			c0-0.067-0.098-0.097-0.285-0.097c-0.188,0-0.285,0.027-0.285,0.097c0,1.188-0.353,2.054-1.062,2.589
			c-0.708,0.532-1.845,0.799-3.417,0.799h-5.421v-9.615c0-1.16,0.234-1.948,0.708-2.354c0.473-0.405,1.447-0.61,2.921-0.61h2.598
			c1.562,0,2.844,0.457,3.814,1.365c0.972,0.909,1.554,2.215,1.743,3.914c0,0.092,0.086,0.141,0.26,0.141
			c0.171,0,0.261-0.049,0.261-0.141l-0.098-5.894c0-0.286-0.138-0.427-0.423-0.427H431.52z"/>
	</g>
	<g>
		<defs>
			<path id="SVGID_69_" d="M431.52,265.48c-0.06,0-0.092,0.098-0.092,0.285c0,0.188,0.032,0.28,0.092,0.28
				c1.16,0,2.01,0.085,2.547,0.257c0.533,0.178,0.892,0.483,1.083,0.92c0.188,0.439,0.282,1.131,0.282,2.074v21.827
				c0,0.94-0.095,1.646-0.282,2.097c-0.191,0.461-0.55,0.771-1.083,0.92c-0.537,0.158-1.387,0.237-2.547,0.237
				c-0.06,0-0.092,0.092-0.092,0.281c0,0.188,0.032,0.284,0.092,0.284h19.938c0.282,0,0.479-0.053,0.595-0.165
				c0.108-0.114,0.162-0.291,0.162-0.537c0-2.177,0.146-4.274,0.426-6.326c0-0.086-0.096-0.144-0.278-0.159
				c-0.188-0.018-0.286,0.022-0.286,0.12c-0.411,1.913-1.166,3.394-2.258,4.446c-1.108,1.057-2.494,1.582-4.153,1.582h-3.347
				c-0.979,0-1.7-0.079-2.169-0.258c-0.472-0.168-0.804-0.463-0.991-0.873c-0.188-0.406-0.283-1.023-0.283-1.836v-10.801h5.323
				c1.638,0,2.814,0.314,3.54,0.922c0.724,0.615,1.081,1.604,1.081,2.993c0,0.065,0.097,0.104,0.284,0.104
				c0.189,0,0.283-0.037,0.283-0.104l-0.043-2.362c-0.034-0.467-0.051-1.155-0.051-2.074l0.051-3.901
				c0-0.067-0.098-0.097-0.285-0.097c-0.188,0-0.285,0.027-0.285,0.097c0,1.188-0.353,2.054-1.062,2.589
				c-0.708,0.532-1.845,0.799-3.417,0.799h-5.421v-9.615c0-1.16,0.234-1.948,0.708-2.354c0.473-0.405,1.447-0.61,2.921-0.61h2.598
				c1.562,0,2.844,0.457,3.814,1.365c0.972,0.909,1.554,2.215,1.743,3.914c0,0.092,0.086,0.141,0.26,0.141
				c0.171,0,0.261-0.049,0.261-0.141l-0.098-5.894c0-0.286-0.138-0.427-0.423-0.427H431.52z"/>
		</defs>
		<clipPath id="SVGID_70_">
			<use xlink:href="#SVGID_69_"  overflow="visible"/>
		</clipPath>
		<polygon clip-path="url(#SVGID_70_)" fill="#F9F9F9" points="431.428,265.229 452.987,265.48 452.637,295.191 431.083,294.939 		
			"/>
	</g>
</g>
<g>
	<g>
		<path id="SVGID_49_" fill="#F9F9F9" d="M473.453,293.534c-0.68-0.569-1.018-1.543-1.018-2.925v-21.215
			c0-0.942,0.175-1.646,0.519-2.103c0.346-0.452,0.883-0.761,1.608-0.915c0.727-0.157,1.755-0.238,3.105-0.238
			c2.42,0,4.555,0.647,6.387,1.937c1.842,1.289,3.27,3.036,4.269,5.257c1.007,2.218,1.516,4.689,1.516,7.424
			c0,2.859-0.532,5.315-1.586,7.378c-1.049,2.062-2.515,3.611-4.38,4.663c-1.875,1.061-4.02,1.582-6.438,1.582
			C475.454,294.379,474.126,294.094,473.453,293.534 M474.23,265.48c-1.159,0.098-2.343,0.141-3.53,0.141
			c-0.794,0-1.881-0.032-3.258-0.096l-2.36-0.045c-0.061,0-0.092,0.098-0.092,0.285c0,0.188,0.031,0.28,0.092,0.28
			c1.166,0,2.012,0.085,2.549,0.257c0.534,0.178,0.896,0.483,1.083,0.92c0.191,0.439,0.286,1.131,0.286,2.074v21.827
			c0,0.94-0.105,1.646-0.307,2.097c-0.205,0.461-0.576,0.771-1.11,0.92c-0.537,0.158-1.381,0.237-2.543,0.237
			c-0.069,0-0.095,0.092-0.095,0.281c0,0.188,0.024,0.284,0.095,0.284c1.008,0,1.806-0.02,2.402-0.045l3.258-0.052
			c0.811,0,1.554,0.018,2.233,0.052c0.678,0.025,1.255,0.061,1.724,0.092c1.226,0.097,2.312,0.144,3.252,0.144
			c2.889,0,5.555-0.635,7.988-1.913c2.438-1.271,4.372-3.078,5.797-5.425c1.436-2.332,2.145-5.028,2.145-8.081
			c0-2.697-0.687-5.143-2.071-7.303c-1.39-2.178-3.332-3.881-5.844-5.145c-2.521-1.258-5.406-1.881-8.676-1.881
			C476.746,265.389,475.737,265.418,474.23,265.48"/>
	</g>
</g>
<g>
	<g>
		<path id="SVGID_51_" fill="#F9F9F9" d="M515.903,265.525c-1.384,0.062-2.528,0.096-3.44,0.096c-0.846,0-1.936-0.032-3.254-0.096
			l-2.404-0.045c-0.097,0-0.139,0.098-0.139,0.285c0,0.188,0.042,0.28,0.139,0.28c1.167,0,2.016,0.085,2.543,0.257
			c0.532,0.178,0.906,0.483,1.112,0.92c0.2,0.439,0.31,1.131,0.31,2.074v21.827c0,0.94-0.108,1.646-0.31,2.097
			c-0.206,0.461-0.58,0.771-1.112,0.92c-0.527,0.158-1.376,0.237-2.543,0.237c-0.097,0-0.139,0.092-0.139,0.281
			c0,0.188,0.042,0.284,0.139,0.284c1.006,0,1.812-0.02,2.404-0.045l3.254-0.052l3.393,0.052c0.564,0.025,1.33,0.045,2.313,0.045
			c0.055,0,0.091-0.097,0.091-0.284c0-0.189-0.036-0.281-0.091-0.281c-1.166,0-2.014-0.079-2.543-0.237
			c-0.541-0.149-0.909-0.451-1.092-0.898c-0.188-0.434-0.279-1.143-0.279-2.117v-21.73c0-0.941,0.091-1.646,0.279-2.102
			c0.183-0.452,0.554-0.771,1.111-0.967c0.552-0.188,1.392-0.279,2.522-0.279c0.055,0,0.091-0.093,0.091-0.279
			c0-0.188-0.036-0.287-0.091-0.287L515.903,265.525z"/>
	</g>
	<g>
		<defs>
			<path id="SVGID_71_" d="M515.903,265.525c-1.384,0.062-2.528,0.096-3.44,0.096c-0.846,0-1.936-0.032-3.254-0.096l-2.404-0.045
				c-0.097,0-0.139,0.098-0.139,0.285c0,0.188,0.042,0.28,0.139,0.28c1.167,0,2.016,0.085,2.543,0.257
				c0.532,0.178,0.906,0.483,1.112,0.92c0.2,0.439,0.31,1.131,0.31,2.074v21.827c0,0.94-0.108,1.646-0.31,2.097
				c-0.206,0.461-0.58,0.771-1.112,0.92c-0.527,0.158-1.376,0.237-2.543,0.237c-0.097,0-0.139,0.092-0.139,0.281
				c0,0.188,0.042,0.284,0.139,0.284c1.006,0,1.812-0.02,2.404-0.045l3.254-0.052l3.393,0.052c0.564,0.025,1.33,0.045,2.313,0.045
				c0.055,0,0.091-0.097,0.091-0.284c0-0.189-0.036-0.281-0.091-0.281c-1.166,0-2.014-0.079-2.543-0.237
				c-0.541-0.149-0.909-0.451-1.092-0.898c-0.188-0.434-0.279-1.143-0.279-2.117v-21.73c0-0.941,0.091-1.646,0.279-2.102
				c0.183-0.452,0.554-0.771,1.111-0.967c0.552-0.188,1.392-0.279,2.522-0.279c0.055,0,0.091-0.093,0.091-0.279
				c0-0.188-0.036-0.287-0.091-0.287L515.903,265.525z"/>
		</defs>
		<clipPath id="SVGID_72_">
			<use xlink:href="#SVGID_71_"  overflow="visible"/>
		</clipPath>
		<polygon clip-path="url(#SVGID_72_)" fill="#F9F9F9" points="506.666,265.341 518.598,265.48 518.26,295.082 506.319,294.939 		
			"/>
	</g>
</g>
<g>
	<g>
		<path id="SVGID_53_" fill="#F9F9F9" d="M556.586,264.3c-0.157,0.478-0.512,0.788-1.062,0.946c-0.55,0.156-1.388,0.234-2.519,0.234
			l-3.212,0.045c-2.068,0.062-4.038,0.096-5.889,0.096c-3.617,0-6.771-0.043-9.477-0.141c-1.696,0-2.546-0.344-2.546-1.035
			c0-0.156-0.094-0.238-0.282-0.238s-0.282,0.082-0.282,0.238c0,1.007-0.077,2.486-0.236,4.43c-0.158,1.949-0.301,3.362-0.429,4.243
			c0,0.062,0.091,0.1,0.265,0.114c0.175,0.02,0.275-0.021,0.312-0.114c0.467-2.392,1.231-4.103,2.276-5.164
			c1.055-1.049,2.558-1.576,4.507-1.576c1.291,0,2.209,0.06,2.752,0.19c0.558,0.117,0.936,0.382,1.131,0.771
			c0.212,0.397,0.312,1.049,0.312,1.957v21.827c0,0.94-0.106,1.646-0.329,2.097c-0.22,0.461-0.647,0.771-1.273,0.92
			c-0.628,0.158-1.604,0.237-2.919,0.237c-0.063,0-0.096,0.093-0.096,0.281s0.031,0.284,0.096,0.284c1.128,0,2.01-0.02,2.637-0.045
			l3.583-0.051l3.726,0.051c0.635,0.025,1.48,0.045,2.543,0.045c0.062,0,0.102-0.096,0.102-0.284s-0.038-0.281-0.102-0.281
			c-1.348,0-2.331-0.079-2.947-0.237c-0.612-0.149-1.021-0.451-1.224-0.898c-0.206-0.434-0.309-1.143-0.309-2.117v-21.73
			c0-0.941,0.103-1.621,0.309-2.024c0.203-0.414,0.579-0.683,1.131-0.801c0.55-0.132,1.457-0.19,2.705-0.19
			c2.084,0,3.615,0.518,4.604,1.555c0.995,1.041,1.543,2.764,1.676,5.187c0.027,0.062,0.127,0.095,0.301,0.095
			c0.176,0,0.267-0.031,0.267-0.095c0-1.163,0.043-2.697,0.139-4.595c0.093-1.9,0.188-3.312,0.279-4.225
			c0-0.122-0.078-0.185-0.229-0.185C556.712,264.115,556.618,264.178,556.586,264.3"/>
	</g>
	<g>
		<defs>
			<path id="SVGID_73_" d="M556.586,264.3c-0.157,0.478-0.512,0.788-1.062,0.946c-0.55,0.156-1.388,0.234-2.519,0.234l-3.212,0.045
				c-2.068,0.062-4.038,0.096-5.889,0.096c-3.617,0-6.771-0.043-9.477-0.141c-1.696,0-2.546-0.344-2.546-1.035
				c0-0.156-0.094-0.238-0.282-0.238s-0.282,0.082-0.282,0.238c0,1.007-0.077,2.486-0.236,4.43
				c-0.158,1.949-0.301,3.362-0.429,4.243c0,0.062,0.091,0.1,0.265,0.114c0.175,0.02,0.275-0.021,0.312-0.114
				c0.467-2.392,1.231-4.103,2.276-5.164c1.055-1.049,2.558-1.576,4.507-1.576c1.291,0,2.209,0.06,2.752,0.19
				c0.558,0.117,0.936,0.382,1.131,0.771c0.212,0.397,0.312,1.049,0.312,1.957v21.827c0,0.94-0.106,1.646-0.329,2.097
				c-0.22,0.461-0.647,0.771-1.273,0.92c-0.628,0.158-1.604,0.237-2.919,0.237c-0.063,0-0.096,0.093-0.096,0.281
				s0.031,0.284,0.096,0.284c1.128,0,2.01-0.02,2.637-0.045l3.583-0.051l3.726,0.051c0.635,0.025,1.48,0.045,2.543,0.045
				c0.062,0,0.102-0.096,0.102-0.284s-0.038-0.281-0.102-0.281c-1.348,0-2.331-0.079-2.947-0.237
				c-0.612-0.149-1.021-0.451-1.224-0.898c-0.206-0.434-0.309-1.143-0.309-2.117v-21.73c0-0.941,0.103-1.621,0.309-2.024
				c0.203-0.414,0.579-0.683,1.131-0.801c0.55-0.132,1.457-0.19,2.705-0.19c2.084,0,3.615,0.518,4.604,1.555
				c0.995,1.041,1.543,2.764,1.676,5.187c0.027,0.062,0.127,0.095,0.301,0.095c0.176,0,0.267-0.031,0.267-0.095
				c0-1.163,0.043-2.697,0.139-4.595c0.093-1.9,0.188-3.312,0.279-4.225c0-0.122-0.078-0.185-0.229-0.185
				C556.712,264.115,556.618,264.178,556.586,264.3"/>
		</defs>
		<clipPath id="SVGID_74_">
			<use xlink:href="#SVGID_73_"  overflow="visible"/>
		</clipPath>
		<polygon clip-path="url(#SVGID_74_)" fill="#F9F9F9" points="530.664,263.807 557.461,264.117 557.104,295.254 530.295,294.939 		
			"/>
	</g>
</g>
<g>
	<g>
		<path id="SVGID_55_" fill="#F9F9F9" d="M578.599,265.525c-1.38,0.062-2.527,0.096-3.439,0.096c-0.852,0-1.931-0.032-3.251-0.096
			l-2.406-0.045c-0.091,0-0.137,0.098-0.137,0.285c0,0.188,0.046,0.28,0.137,0.28c1.167,0,2.015,0.085,2.549,0.257
			c0.535,0.178,0.896,0.483,1.106,0.92c0.203,0.439,0.311,1.131,0.311,2.074v21.827c0,0.94-0.106,1.646-0.311,2.097
			c-0.21,0.461-0.571,0.771-1.106,0.92c-0.534,0.158-1.382,0.237-2.549,0.237c-0.091,0-0.137,0.092-0.137,0.281
			c0,0.188,0.046,0.284,0.137,0.284c1.007,0,1.812-0.02,2.406-0.045l3.251-0.052l3.395,0.052c0.566,0.025,1.338,0.045,2.311,0.045
			c0.062,0,0.095-0.097,0.095-0.284c0-0.189-0.031-0.281-0.095-0.281c-1.159,0-2.013-0.079-2.543-0.237
			c-0.54-0.149-0.897-0.451-1.089-0.898c-0.187-0.434-0.283-1.143-0.283-2.117v-21.73c0-0.941,0.098-1.646,0.283-2.102
			c0.19-0.452,0.562-0.771,1.11-0.967c0.547-0.188,1.391-0.279,2.521-0.279c0.062,0,0.095-0.093,0.095-0.279
			c0-0.188-0.031-0.287-0.095-0.287L578.599,265.525z"/>
	</g>
	<g>
		<defs>
			<path id="SVGID_75_" d="M571.564,294.863c1.38-0.047,2.528-0.066,3.44-0.057c0.851,0.011,1.93,0.055,3.249,0.135l2.405,0.073
				c0.092,0.001,0.139-0.097,0.141-0.284c0.002-0.188-0.043-0.281-0.134-0.282c-1.167-0.014-2.014-0.108-2.546-0.286
				c-0.532-0.184-0.89-0.494-1.095-0.934c-0.198-0.441-0.298-1.135-0.287-2.077l0.256-21.825c0.011-0.939,0.126-1.645,0.335-2.093
				c0.216-0.458,0.58-0.763,1.117-0.906c0.536-0.152,1.385-0.222,2.552-0.208c0.091,0.001,0.138-0.09,0.14-0.279
				c0.003-0.188-0.042-0.284-0.134-0.285c-1.007-0.012-1.812-0.002-2.406,0.017l-3.251,0.013l-3.394-0.091
				c-0.566-0.032-1.338-0.061-2.31-0.071c-0.063-0.001-0.097,0.094-0.099,0.282s0.028,0.281,0.092,0.282
				c1.159,0.014,2.011,0.103,2.54,0.268c0.538,0.155,0.892,0.462,1.078,0.911c0.182,0.436,0.27,1.146,0.259,2.12l-0.255,21.728
				c-0.011,0.942-0.117,1.645-0.308,2.099c-0.196,0.449-0.571,0.766-1.122,0.953c-0.549,0.182-1.393,0.264-2.523,0.25
				c-0.063-0.001-0.097,0.092-0.099,0.279s0.027,0.286,0.092,0.287L571.564,294.863z"/>
		</defs>
		<clipPath id="SVGID_76_">
			<use xlink:href="#SVGID_75_"  overflow="visible"/>
		</clipPath>
		
			<rect x="569.208" y="265.416" transform="matrix(0.9999 0.0117 -0.0117 0.9999 3.3172 -6.709)" clip-path="url(#SVGID_76_)" fill="#F9F9F9" width="11.938" height="29.603"/>
	</g>
</g>
<g>
	<g>
		<path id="SVGID_57_" fill="#F9F9F9" d="M603.921,292.38c-1.919-1.405-3.411-3.309-4.486-5.735
			c-1.062-2.414-1.599-5.104-1.599-8.061c0-3.893,0.941-6.949,2.828-9.168c1.885-2.215,4.506-3.324,7.875-3.324
			c2.574,0,4.837,0.646,6.789,1.938c1.948,1.29,3.445,3.079,4.497,5.377c1.058,2.292,1.579,4.896,1.579,7.817
			c0,2.766-0.479,5.143-1.438,7.143c-0.96,1.995-2.263,3.51-3.914,4.55c-1.648,1.033-3.509,1.554-5.583,1.554
			C608.013,294.471,605.827,293.77,603.921,292.38 M602.618,266.709c-2.559,1.157-4.658,2.896-6.291,5.205
			c-1.635,2.314-2.452,5.088-2.452,8.32c0,2.765,0.619,5.322,1.86,7.664c1.242,2.338,3.006,4.195,5.281,5.562
			c2.281,1.371,4.881,2.046,7.802,2.046c2.951,0,5.694-0.686,8.224-2.07c2.531-1.382,4.553-3.271,6.062-5.655
			c1.508-2.388,2.257-5.013,2.257-7.875c0-2.572-0.602-5.013-1.81-7.304c-1.21-2.301-2.946-4.143-5.215-5.541
			c-2.258-1.396-4.881-2.101-7.866-2.101C607.805,264.96,605.185,265.543,602.618,266.709"/>
	</g>
	<g>
		<defs>
			<path id="SVGID_77_" d="M615.467,268.202c1.902,1.428,3.372,3.349,4.418,5.787c1.034,2.427,1.539,5.123,1.505,8.079
				c-0.046,3.892-1.022,6.938-2.935,9.134c-1.911,2.192-4.545,3.271-7.913,3.231c-2.574-0.03-4.829-0.702-6.766-2.018
				c-1.933-1.312-3.409-3.119-4.434-5.429c-1.031-2.304-1.522-4.914-1.487-7.835c0.032-2.766,0.539-5.137,1.52-7.125
				c0.983-1.983,2.305-3.483,3.967-4.504c1.661-1.014,3.527-1.513,5.602-1.488C611.399,266.063,613.577,266.791,615.467,268.202
				 M616.469,293.886c2.572-1.127,4.692-2.842,6.352-5.131c1.662-2.296,2.512-5.059,2.55-8.291c0.032-2.764-0.558-5.328-1.771-7.685
				c-1.216-2.352-2.957-4.23-5.217-5.623c-2.265-1.397-4.856-2.103-7.776-2.137c-2.951-0.035-5.702,0.619-8.247,1.975
				c-2.547,1.352-4.591,3.217-6.128,5.584c-1.534,2.369-2.313,4.984-2.348,7.848c-0.03,2.571,0.543,5.018,1.724,7.324
				c1.183,2.313,2.897,4.176,5.149,5.6c2.241,1.424,4.856,2.158,7.841,2.193C611.263,295.574,613.889,295.021,616.469,293.886"/>
		</defs>
		<clipPath id="SVGID_78_">
			<use xlink:href="#SVGID_77_"  overflow="visible"/>
		</clipPath>
		
			<rect x="593.706" y="264.822" transform="matrix(0.9999 0.0117 -0.0117 0.9999 3.3167 -7.1045)" clip-path="url(#SVGID_78_)" fill="#F9F9F9" width="31.841" height="30.907"/>
	</g>
</g>
<g>
	<g>
		<path id="SVGID_59_" fill="#F9F9F9" d="M667.555,265.525c-1.001,0.062-1.803,0.096-2.399,0.096c-0.602,0-1.397-0.032-2.408-0.096
			l-1.832-0.045c-0.065,0-0.098,0.098-0.098,0.285c0,0.188,0.031,0.28,0.098,0.28c1.286,0,2.208,0.382,2.78,1.154
			c0.56,0.771,0.849,1.971,0.849,3.608v18.713l-17.818-21.592c-0.377-0.474-0.755-0.99-1.133-1.554
			c-0.257-0.378-0.437-0.623-0.543-0.729c-0.107-0.11-0.293-0.168-0.542-0.168c-0.411,0-0.742,0.017-0.994,0.045l-2.218,0.053
			c-0.688,0-1.22-0.021-1.603-0.053l-1.74-0.045c-0.098,0-0.146,0.098-0.146,0.285c0,0.188,0.049,0.28,0.146,0.28
			c1.318,0,2.621,0.627,3.915,1.885v21.729c0,1.646-0.307,2.829-0.924,3.583c-0.605,0.761-1.598,1.137-2.939,1.137
			c-0.071,0-0.104,0.092-0.104,0.281c0,0.188,0.032,0.283,0.104,0.283c0.874,0,1.549-0.019,2.023-0.045l2.5-0.051l2.407,0.051
			c0.435,0.026,1.034,0.045,1.789,0.045c0.092,0,0.14-0.096,0.14-0.283c0-0.189-0.048-0.281-0.14-0.281
			c-1.26,0-2.19-0.376-2.786-1.137c-0.597-0.754-0.889-1.938-0.889-3.583v-20.501l0.137,0.185l21.969,26.312
			c0.061,0.062,0.172,0.073,0.328,0.043c0.153-0.025,0.236-0.089,0.236-0.191v-24.694c0-1.64,0.307-2.839,0.92-3.609
			c0.614-0.772,1.562-1.154,2.854-1.154c0.097,0,0.141-0.093,0.141-0.279c0-0.188-0.044-0.287-0.141-0.287L667.555,265.525z"/>
	</g>
	<g>
		<defs>
			<path id="SVGID_79_" d="M667.555,265.525c-1.001,0.062-1.803,0.096-2.399,0.096c-0.602,0-1.397-0.032-2.408-0.096l-1.832-0.045
				c-0.065,0-0.098,0.098-0.098,0.285c0,0.188,0.031,0.28,0.098,0.28c1.286,0,2.208,0.382,2.78,1.154
				c0.56,0.771,0.849,1.971,0.849,3.608v18.713l-17.818-21.592c-0.377-0.474-0.755-0.99-1.133-1.554
				c-0.257-0.378-0.437-0.623-0.543-0.729c-0.107-0.11-0.293-0.168-0.542-0.168c-0.411,0-0.742,0.017-0.994,0.045l-2.218,0.053
				c-0.688,0-1.22-0.021-1.603-0.053l-1.74-0.045c-0.098,0-0.146,0.098-0.146,0.285c0,0.188,0.049,0.28,0.146,0.28
				c1.318,0,2.621,0.627,3.915,1.885v21.729c0,1.646-0.307,2.829-0.924,3.583c-0.605,0.761-1.598,1.137-2.939,1.137
				c-0.071,0-0.104,0.092-0.104,0.281c0,0.188,0.032,0.283,0.104,0.283c0.874,0,1.549-0.019,2.023-0.045l2.5-0.051l2.407,0.051
				c0.435,0.026,1.034,0.045,1.789,0.045c0.092,0,0.14-0.096,0.14-0.283c0-0.189-0.048-0.281-0.14-0.281
				c-1.26,0-2.19-0.376-2.786-1.137c-0.597-0.754-0.889-1.938-0.889-3.583v-20.501l0.137,0.185l21.969,26.312
				c0.061,0.062,0.172,0.073,0.328,0.043c0.153-0.025,0.236-0.089,0.236-0.191v-24.694c0-1.64,0.307-2.839,0.92-3.609
				c0.614-0.772,1.562-1.154,2.854-1.154c0.097,0,0.141-0.093,0.141-0.279c0-0.188-0.044-0.287-0.141-0.287L667.555,265.525z"/>
		</defs>
		<clipPath id="SVGID_80_">
			<use xlink:href="#SVGID_79_"  overflow="visible"/>
		</clipPath>
		<polygon clip-path="url(#SVGID_80_)" fill="#F9F9F9" points="637.812,265.109 669.983,265.48 669.624,296.1 637.455,295.723 		"/>
	</g>
</g>
<g>
	<g>
		<rect id="SVGID_61_" x="718.237" y="274.766" fill="#F9F9F9" width="26.325" height="2.275"/>
	</g>
	<g>
		<defs>
			
				<rect id="SVGID_81_" x="718.273" y="274.741" transform="matrix(0.9999 0.0119 -0.0119 0.9999 3.3372 -8.6906)" width="26.324" height="2.276"/>
		</defs>
		<clipPath id="SVGID_82_">
			<use xlink:href="#SVGID_81_"  overflow="visible"/>
		</clipPath>
		
			<rect x="718.259" y="274.587" transform="matrix(0.9999 0.0119 -0.0119 0.9999 3.3339 -8.6822)" clip-path="url(#SVGID_82_)" fill="#F9F9F9" width="26.35" height="2.586"/>
	</g>
</g>
<g>
	<g>
		<rect id="SVGID_63_" x="56.063" y="274.766" fill="#F9F9F9" width="26.319" height="2.275"/>
	</g>
	<g>
		<defs>
			<rect id="SVGID_83_" x="56.063" y="274.766" width="26.319" height="2.275"/>
		</defs>
		<clipPath id="SVGID_84_">
			<use xlink:href="#SVGID_83_"  overflow="visible"/>
		</clipPath>
		<polygon clip-path="url(#SVGID_84_)" fill="#F9F9F9" points="56.063,274.452 82.414,274.766 82.376,277.352 56.035,277.041 		"/>
	</g>
</g>
</svg>
