<?xml version="1.0" encoding="utf-8"?>
<!-- Generator: Adobe Illustrator 16.0.0, SVG Export Plug-In . SVG Version: 6.00 Build 0)  -->
<!DOCTYPE svg PUBLIC "-//W3C//DTD SVG 1.1//EN" "http://www.w3.org/Graphics/SVG/1.1/DTD/svg11.dtd">
<svg version="1.1" id="Layer_1" xmlns="http://www.w3.org/2000/svg" xmlns:xlink="http://www.w3.org/1999/xlink" x="0px" y="0px"
	 width="800px" height="300px" viewBox="0 0 800 300" enable-background="new 0 0 800 300" xml:space="preserve">
<g>
	<g>
		<g>
			<path id="SVGID_1_" fill="#F9F9F9" d="M170.849,196.33c-2.683-4.553-4.023-9.016-4.023-13.4c0-15.1,8.326-29.897,24.99-44.388
				c16.67-14.492,33.74-21.739,51.212-21.739c7.076,0,12.925,1.911,17.562,5.723c4.632,3.82,6.949,8.646,6.949,14.49
				c0,13.886-9.146,27.464-27.436,40.736c-18.29,13.281-37.025,19.912-56.205,19.912
				C179.906,197.664,175.563,197.221,170.849,196.33 M236.119,53.967c9.824-5.201,20.702-7.799,32.634-7.799
				c8.686,0,16.384,1.221,23.079,3.652c6.698,2.443,10.044,5.243,10.044,8.408c0,4.139-3.81,6.208-11.441,6.208
				C275.736,64.434,257.632,60.95,236.119,53.967 M103.129,63.707C90.628,75.72,84.374,88.916,84.374,103.289
				c0,9.578,2.663,17.757,7.983,24.537c5.312,6.775,11.75,10.167,19.299,10.167c4.22,0,7.812-1.154,10.778-3.471
				c2.966-2.313,4.443-5.133,4.443-8.464c0-5.03-2.597-7.552-7.792-7.552c-2.686,0-4.977,0.818-6.877,2.442
				c-1.912,1.622-2.864,3.57-2.864,5.84c0,3.979,2.146,5.969,6.446,5.969c1.546-0.242,2.321,0,2.321,0.729
				c0,1.386-2.155,2.075-6.455,2.075c-6.255,0-11.612-2.721-16.076-8.161c-4.466-5.444-6.697-11.979-6.697-19.609
				c0-17.046,8.463-31.583,25.387-43.596c16.93-12.02,37.406-18.026,61.444-18.026c12.261,0,27.805,2.276,46.641,6.824
				c-13.153,7.142-19.727,16.034-19.727,26.667c0,8.285,4.505,14.331,13.521,18.148c-12.669,1.456-23.917,3.82-33.737,7.062
				c-16.241,5.278-29.23,13.05-38.968,23.319c-9.744,10.273-14.618,21.293-14.618,33.067c0,8.764,3.5,16.457,10.501,23.077
				c7.006,6.618,16.698,11.306,29.085,14.067c8.938,12.254,21.913,18.387,38.922,18.387c4.958,0,10.443-0.631,16.467-1.887
				c6.021-1.262,9.029-2.453,9.029-3.594c0-0.484-0.246-0.812-0.735-0.971l-1.46,0.238c-6.023,2.844-13.79,4.266-23.312,4.266
				c-15.375,0-26.968-5.238-34.776-15.715c3.825,0.492,7.926,0.729,12.317,0.729c21.782,0,41.375-6.346,58.773-19.051
				c17.396-12.709,26.091-26.976,26.091-42.812c0-7.387-2.641-13.27-7.921-17.661c-5.286-4.381-12.397-6.572-21.335-6.572
				c-19.43,0-37.309,6.744-53.652,20.219c-16.336,13.474-24.502,28.21-24.502,44.208c0,6.49,1.503,12.217,4.509,17.172
				c-16.567-4.145-24.845-13.887-24.845-29.23c0-23.142,15.198-41.979,45.601-56.507c11.943-5.687,22.433-9.174,31.456-10.473
				c6.661,1.625,12.841,2.435,18.53,2.435c4.475,0,6.712-0.649,6.712-1.953c0-2.028-4.22-3.044-12.672-3.044
				c-2.923,0-7.263,0.246-13.03,0.73c-3.974-2.189-5.966-6.164-5.966-11.935c0-11.93,6.903-21.834,20.708-29.713
				c29.548,7.306,48.264,10.962,56.138,10.962c9.987,0,14.979-2.721,14.979-8.162c0-4.22-3.897-7.81-11.693-10.775
				c-7.792-2.966-17.215-4.445-28.253-4.445c-14.853,0-27.882,2.722-39.083,8.16c-24.854-6.092-44.747-9.135-59.682-9.135
				C138.852,42.273,117.982,49.416,103.129,63.707"/>
		</g>
		<g>
			<g>
				<defs>
					<path id="SVGID_2_" d="M170.849,196.33c-2.683-4.553-4.023-9.016-4.023-13.4c0-15.1,8.326-29.897,24.99-44.388
						c16.67-14.492,33.74-21.739,51.212-21.739c7.076,0,12.925,1.911,17.562,5.723c4.632,3.82,6.949,8.646,6.949,14.49
						c0,13.886-9.146,27.464-27.436,40.736c-18.29,13.281-37.025,19.912-56.205,19.912
						C179.906,197.664,175.563,197.221,170.849,196.33 M236.119,53.967c9.824-5.201,20.702-7.799,32.634-7.799
						c8.686,0,16.384,1.221,23.079,3.652c6.698,2.443,10.044,5.243,10.044,8.408c0,4.139-3.81,6.208-11.441,6.208
						C275.736,64.434,257.632,60.95,236.119,53.967 M103.129,63.707C90.628,75.72,84.374,88.916,84.374,103.289
						c0,9.578,2.663,17.757,7.983,24.537c5.312,6.775,11.75,10.167,19.299,10.167c4.22,0,7.812-1.154,10.778-3.471
						c2.966-2.313,4.443-5.133,4.443-8.464c0-5.03-2.597-7.552-7.792-7.552c-2.686,0-4.977,0.818-6.877,2.442
						c-1.912,1.622-2.864,3.57-2.864,5.84c0,3.979,2.146,5.969,6.446,5.969c1.546-0.242,2.321,0,2.321,0.729
						c0,1.386-2.155,2.075-6.455,2.075c-6.255,0-11.612-2.721-16.076-8.161c-4.466-5.444-6.697-11.979-6.697-19.609
						c0-17.046,8.463-31.583,25.387-43.596c16.93-12.02,37.406-18.026,61.444-18.026c12.261,0,27.805,2.276,46.641,6.824
						c-13.153,7.142-19.727,16.034-19.727,26.667c0,8.285,4.505,14.331,13.521,18.148c-12.669,1.456-23.917,3.82-33.737,7.062
						c-16.241,5.278-29.23,13.05-38.968,23.319c-9.744,10.273-14.618,21.293-14.618,33.067c0,8.764,3.5,16.457,10.501,23.077
						c7.006,6.618,16.698,11.306,29.085,14.067c8.938,12.254,21.913,18.387,38.922,18.387c4.958,0,10.443-0.631,16.467-1.887
						c6.021-1.262,9.029-2.453,9.029-3.594c0-0.484-0.246-0.812-0.735-0.971l-1.46,0.238c-6.023,2.844-13.79,4.266-23.312,4.266
						c-15.375,0-26.968-5.238-34.776-15.715c3.825,0.492,7.926,0.729,12.317,0.729c21.782,0,41.375-6.346,58.773-19.051
						c17.396-12.709,26.091-26.976,26.091-42.812c0-7.387-2.641-13.27-7.921-17.661c-5.286-4.381-12.397-6.572-21.335-6.572
						c-19.43,0-37.309,6.744-53.652,20.219c-16.336,13.474-24.502,28.21-24.502,44.208c0,6.49,1.503,12.217,4.509,17.172
						c-16.567-4.145-24.845-13.887-24.845-29.23c0-23.142,15.198-41.979,45.601-56.507c11.943-5.687,22.433-9.174,31.456-10.473
						c6.661,1.625,12.841,2.435,18.53,2.435c4.475,0,6.712-0.649,6.712-1.953c0-2.028-4.22-3.044-12.672-3.044
						c-2.923,0-7.263,0.246-13.03,0.73c-3.974-2.189-5.966-6.164-5.966-11.935c0-11.93,6.903-21.834,20.708-29.713
						c29.548,7.306,48.264,10.962,56.138,10.962c9.987,0,14.979-2.721,14.979-8.162c0-4.22-3.897-7.81-11.693-10.775
						c-7.792-2.966-17.215-4.445-28.253-4.445c-14.853,0-27.882,2.722-39.083,8.16c-24.854-6.092-44.747-9.135-59.682-9.135
						C138.852,42.273,117.982,49.416,103.129,63.707"/>
				</defs>
				<clipPath id="SVGID_4_">
					<use xlink:href="#SVGID_2_"  overflow="visible"/>
				</clipPath>
				<polygon clip-path="url(#SVGID_4_)" fill="#F9F9F9" points="84.408,39.707 306.473,42.296 304.404,219.35 82.345,216.766 				
					"/>
			</g>
		</g>
	</g>
	<g>
		<g>
			<path id="SVGID_3_" fill="#F9F9F9" d="M344.51,160.889c4.294-7.141,6.449-13.029,6.449-17.656c0-4.144-1.097-7.593-3.287-10.352
				c-2.188-2.765-4.997-4.146-8.406-4.146c-7.144,0-18.021,10.722-32.64,32.151c4.792-8.361,7.189-14.895,7.189-19.604
				c0-3.41-0.938-6.352-2.808-8.831c-1.871-2.475-4.104-3.715-6.706-3.715c-3.989,0-9.644,4.576-16.962,13.736
				c-7.483,9.393-11.221,14.458-11.221,15.186c0,0.404,0.161,0.65,0.489,0.73c0.485,0,1.137-0.563,1.954-1.707
				c12.527-17.408,20.784-26.118,24.77-26.118c1.877,0,2.812,1.221,2.812,3.651c0,4.466-6.013,16.122-18.029,34.953l-17.412,27.4
				c2.352-0.326,5.111-0.486,8.277-0.486c2.928,0,5.323,0.16,7.184,0.486c9.998-18.35,20.053-33.936,30.208-46.76
				c10.143-12.83,17.45-19.245,21.921-19.245c3.006,0,4.509,1.826,4.509,5.477c0,4.059-5.646,15.103-16.927,33.127l-17.293,27.399
				c2.349-0.326,5.189-0.484,8.518-0.484c2.848,0,5.072,0.158,6.704,0.484c26.058-44,44.446-66.003,55.164-66.003
				c3.329,0,4.992,1.662,4.992,4.996c0,3-3.406,9.376-10.227,19.119c-5.358,7.711-8.33,12.055-8.891,13.028
				c-3.086,5.282-4.635,10.192-4.635,14.735c0,4.465,1.22,8.117,3.66,10.961c2.438,2.838,5.565,4.262,9.389,4.262
				c7.312,0,18.616-10.609,33.897-31.83l5.24-7.195c0.729-1.06,1.137-1.711,1.214-1.959c0-0.484-0.242-0.725-0.725-0.725
				c-0.411,0-0.812,0.4-1.223,1.219l-2.194,2.682l-3.783,5.246c-14.633,20.492-25.121,30.738-31.463,30.738
				c-3.334,0-5.003-1.662-5.003-4.994c0-3.084,1.992-7.549,5.974-13.396c6.896-10.31,10.389-15.505,10.472-15.587
				c3.975-6.739,5.967-12.623,5.967-17.657c0-4.312-1.196-7.963-3.595-10.965c-2.393-3.004-5.338-4.506-8.827-4.506
				C371.498,128.738,359.931,139.46,344.51,160.889"/>
		</g>
		<g>
			<g>
				<defs>
					<path id="SVGID_6_" d="M344.51,160.889c4.294-7.141,6.449-13.029,6.449-17.656c0-4.144-1.097-7.593-3.287-10.352
						c-2.188-2.765-4.997-4.146-8.406-4.146c-7.144,0-18.021,10.722-32.64,32.151c4.792-8.361,7.189-14.895,7.189-19.604
						c0-3.41-0.938-6.352-2.808-8.831c-1.871-2.475-4.104-3.715-6.706-3.715c-3.989,0-9.644,4.576-16.962,13.736
						c-7.483,9.393-11.221,14.458-11.221,15.186c0,0.404,0.161,0.65,0.489,0.73c0.485,0,1.137-0.563,1.954-1.707
						c12.527-17.408,20.784-26.118,24.77-26.118c1.877,0,2.812,1.221,2.812,3.651c0,4.466-6.013,16.122-18.029,34.953l-17.412,27.4
						c2.352-0.326,5.111-0.486,8.277-0.486c2.928,0,5.323,0.16,7.184,0.486c9.998-18.35,20.053-33.936,30.208-46.76
						c10.143-12.83,17.45-19.245,21.921-19.245c3.006,0,4.509,1.826,4.509,5.477c0,4.059-5.646,15.103-16.927,33.127l-17.293,27.399
						c2.349-0.326,5.189-0.484,8.518-0.484c2.848,0,5.072,0.158,6.704,0.484c26.058-44,44.446-66.003,55.164-66.003
						c3.329,0,4.992,1.662,4.992,4.996c0,3-3.406,9.376-10.227,19.119c-5.358,7.711-8.33,12.055-8.891,13.028
						c-3.086,5.282-4.635,10.192-4.635,14.735c0,4.465,1.22,8.117,3.66,10.961c2.438,2.838,5.565,4.262,9.389,4.262
						c7.312,0,18.616-10.609,33.897-31.83l5.24-7.195c0.729-1.06,1.137-1.711,1.214-1.959c0-0.484-0.242-0.725-0.725-0.725
						c-0.411,0-0.812,0.4-1.223,1.219l-2.194,2.682l-3.783,5.246c-14.633,20.492-25.121,30.738-31.463,30.738
						c-3.334,0-5.003-1.662-5.003-4.994c0-3.084,1.992-7.549,5.974-13.396c6.896-10.31,10.389-15.505,10.472-15.587
						c3.975-6.739,5.967-12.623,5.967-17.657c0-4.312-1.196-7.963-3.595-10.965c-2.393-3.004-5.338-4.506-8.827-4.506
						C371.498,128.738,359.931,139.46,344.51,160.889"/>
				</defs>
				<clipPath id="SVGID_8_">
					<use xlink:href="#SVGID_6_"  overflow="visible"/>
				</clipPath>
				<polygon clip-path="url(#SVGID_8_)" fill="#F9F9F9" points="270.724,127.075 414.419,128.745 413.593,199.33 269.899,197.654 
									"/>
			</g>
		</g>
	</g>
	<g>
		<g>
			<path id="SVGID_5_" fill="#F9F9F9" d="M409.052,189.385c0-5.031,5.357-14.857,16.073-29.465
				c14.292-19.573,24.396-29.355,30.328-29.355c4.543,0,6.816,2.72,6.816,8.158c0,8.936-5.991,20.686-17.965,35.261
				c-11.976,14.572-21.614,21.857-28.922,21.857C411.164,195.842,409.052,193.691,409.052,189.385 M414.284,152.486
				c-7.792,12.503-11.692,21.799-11.692,27.885c0,5.115,1.326,9.279,3.961,12.488c2.639,3.199,6.067,4.805,10.285,4.805
				c9.016,0,19.325-4.422,30.94-13.273c15.587-11.851,23.381-23.902,23.381-36.167c0-5.604-1.443-10.252-4.323-13.941
				c-2.885-3.699-6.594-5.545-11.143-5.545c-3.818,0-7.836,1.995-12.061,5.971c-4.218,3.974-10.596,11.812-19.121,23.499
				l54.683-86.345c-2.999,0.487-5.474,0.732-7.423,0.732c-2.519,0-4.872-0.326-7.062-0.977L414.284,152.486z"/>
		</g>
	</g>
	<g>
		<g>
			<path id="SVGID_7_" fill="#F9F9F9" d="M534.854,71.862c-1.867,0-4.021-0.323-6.45-0.972
				c-10.069,17.942-22.453,39.133-37.146,63.575c-12.019,19.968-19.062,32.042-21.13,36.226c-2.072,4.184-3.105,8.506-3.105,12.969
				c0,4.062,1.115,7.414,3.353,10.053c2.229,2.633,5.097,3.951,8.599,3.951c7.313,0,18.652-10.609,34.019-31.829l5.235-7.196
				c0.816-0.812,1.227-1.463,1.227-1.957c0-0.404-0.168-0.646-0.49-0.726c-0.564,0-1.058,0.399-1.461,1.218
				c-18.213,25.778-30.734,38.668-37.568,38.668c-3.086,0-4.629-1.832-4.629-5.486c0-3.242,2.818-9.858,8.465-19.846
				c5.646-9.982,25.512-43.356,59.617-100.108C540.775,71.379,537.938,71.862,534.854,71.862"/>
		</g>
		<g>
			<g>
				<defs>
					<path id="SVGID_10_" d="M534.854,71.862c-1.867,0-4.021-0.323-6.45-0.972c-10.069,17.942-22.453,39.133-37.146,63.575
						c-12.019,19.968-19.062,32.042-21.13,36.226c-2.072,4.184-3.105,8.506-3.105,12.969c0,4.062,1.115,7.414,3.353,10.053
						c2.229,2.633,5.097,3.951,8.599,3.951c7.313,0,18.652-10.609,34.019-31.829l5.235-7.196c0.816-0.812,1.227-1.463,1.227-1.957
						c0-0.404-0.168-0.646-0.49-0.726c-0.564,0-1.058,0.399-1.461,1.218c-18.213,25.778-30.734,38.668-37.568,38.668
						c-3.086,0-4.629-1.832-4.629-5.486c0-3.242,2.818-9.858,8.465-19.846c5.646-9.982,25.512-43.356,59.617-100.108
						C540.775,71.379,537.938,71.862,534.854,71.862"/>
				</defs>
				<clipPath id="SVGID_12_">
					<use xlink:href="#SVGID_10_"  overflow="visible"/>
				</clipPath>
				<polygon clip-path="url(#SVGID_12_)" fill="#F9F9F9" points="467.031,69.514 544.865,70.422 543.372,198.555 465.533,197.654 
									"/>
			</g>
		</g>
	</g>
	<g>
		<g>
			<path id="SVGID_9_" fill="#F9F9F9" d="M549.279,139.27c7.024-5.963,12.688-8.951,16.988-8.951c2.846,0,4.268,1.297,4.268,3.897
				c0,4.872-4.062,10.049-12.178,15.524c-8.121,5.482-18.023,9.73-29.718,12.734C535.379,152.977,542.262,145.242,549.279,139.27
				 M540.574,137.506c-20.377,11.124-30.565,23.998-30.565,38.605c0,6.17,1.931,11.309,5.791,15.404
				c3.858,4.098,8.633,6.146,14.316,6.146c12.03,0,26.453-10.375,43.275-31.127l5.234-6.566c1.469-1.861,2.2-2.914,2.2-3.16
				c0-0.404-0.163-0.651-0.492-0.729c-0.65,0-1.453,0.646-2.439,1.94c-18.608,25.054-34.334,37.576-47.175,37.576
				c-7.555,0-11.333-3.488-11.333-10.471c0-5.602,2.752-12.587,8.281-20.947c17.854-3.572,30.602-7.408,38.237-11.508
				c7.629-4.101,11.452-9.077,11.452-14.92c0-2.516-1.037-4.644-3.111-6.395c-2.071-1.745-4.563-2.619-7.489-2.619
				C560.018,128.738,551.294,131.661,540.574,137.506"/>
		</g>
		<g>
			<g>
				<defs>
					<path id="SVGID_14_" d="M549.279,139.27c7.024-5.963,12.688-8.951,16.988-8.951c2.846,0,4.268,1.297,4.268,3.897
						c0,4.872-4.062,10.049-12.178,15.524c-8.121,5.482-18.023,9.73-29.718,12.734C535.379,152.977,542.262,145.242,549.279,139.27
						 M540.574,137.506c-20.377,11.124-30.565,23.998-30.565,38.605c0,6.17,1.931,11.309,5.791,15.404
						c3.858,4.098,8.633,6.146,14.316,6.146c12.03,0,26.453-10.375,43.275-31.127l5.234-6.566c1.469-1.861,2.2-2.914,2.2-3.16
						c0-0.404-0.163-0.651-0.492-0.729c-0.65,0-1.453,0.646-2.439,1.94c-18.608,25.054-34.334,37.576-47.175,37.576
						c-7.555,0-11.333-3.488-11.333-10.471c0-5.602,2.752-12.587,8.281-20.947c17.854-3.572,30.602-7.408,38.237-11.508
						c7.629-4.101,11.452-9.077,11.452-14.92c0-2.516-1.037-4.644-3.111-6.395c-2.071-1.745-4.563-2.619-7.489-2.619
						C560.018,128.738,551.294,131.661,540.574,137.506"/>
				</defs>
				<clipPath id="SVGID_16_">
					<use xlink:href="#SVGID_14_"  overflow="visible"/>
				</clipPath>
				<polygon clip-path="url(#SVGID_16_)" fill="#F9F9F9" points="510.014,127.917 581.622,128.745 580.812,198.494 509.202,197.654 
									"/>
			</g>
		</g>
	</g>
	<g>
		<g>
			<path id="SVGID_11_" fill="#F9F9F9" d="M647.133,160.889c4.308-7.141,6.455-13.029,6.455-17.656c0-4.144-1.088-7.593-3.28-10.352
				c-2.195-2.765-5.001-4.146-8.404-4.146c-7.146,0-18.03,10.722-32.639,32.151c4.789-8.361,7.185-14.895,7.185-19.604
				c0-3.41-0.939-6.352-2.81-8.831c-1.875-2.475-4.11-3.715-6.707-3.715c-3.979,0-9.638,4.576-16.958,13.736
				c-7.481,9.393-11.222,14.458-11.222,15.186c0,0.404,0.158,0.65,0.492,0.73c0.48,0,1.138-0.563,1.948-1.707
				c12.525-17.408,20.782-26.118,24.774-26.118c1.872,0,2.804,1.221,2.804,3.651c0,4.466-6.012,16.122-18.019,34.953l-17.425,27.4
				c2.354-0.326,5.117-0.486,8.287-0.486c2.919,0,5.314,0.16,7.186,0.486c9.986-18.35,20.048-33.936,30.203-46.76
				c10.152-12.83,17.452-19.245,21.918-19.245c3.003,0,4.509,1.826,4.509,5.477c0,4.059-5.641,15.103-16.933,33.127l-17.29,27.399
				c2.352-0.326,5.195-0.484,8.523-0.484c2.847,0,5.07,0.158,6.696,0.484c26.068-44,44.454-66.003,55.167-66.003
				c3.331,0,4.997,1.662,4.997,4.996c0,3-3.403,9.376-10.233,19.119c-5.354,7.711-8.322,12.055-8.885,13.028
				c-3.085,5.282-4.635,10.192-4.635,14.735c0,4.465,1.229,8.117,3.657,10.961c2.439,2.838,5.575,4.262,9.387,4.262
				c7.317,0,18.624-10.609,33.9-31.83l5.24-7.195c0.732-1.06,1.142-1.711,1.22-1.959c0-0.484-0.243-0.725-0.729-0.725
				c-0.405,0-0.812,0.4-1.22,1.219l-2.189,2.682l-3.786,5.246c-14.638,20.492-25.124,30.738-31.46,30.738
				c-3.334,0-5.003-1.662-5.003-4.994c0-3.084,1.988-7.549,5.969-13.396c6.896-10.31,10.393-15.505,10.476-15.587
				c3.977-6.739,5.963-12.623,5.963-17.657c0-4.312-1.202-7.963-3.594-10.965c-2.396-3.004-5.338-4.506-8.824-4.506
				C674.13,128.738,662.554,139.46,647.133,160.889"/>
		</g>
		<g>
			<g>
				<defs>
					<path id="SVGID_18_" d="M647.133,160.889c4.308-7.141,6.455-13.029,6.455-17.656c0-4.144-1.088-7.593-3.28-10.352
						c-2.195-2.765-5.001-4.146-8.404-4.146c-7.146,0-18.03,10.722-32.639,32.151c4.789-8.361,7.185-14.895,7.185-19.604
						c0-3.41-0.939-6.352-2.81-8.831c-1.875-2.475-4.11-3.715-6.707-3.715c-3.979,0-9.638,4.576-16.958,13.736
						c-7.481,9.393-11.222,14.458-11.222,15.186c0,0.404,0.158,0.65,0.492,0.73c0.48,0,1.138-0.563,1.948-1.707
						c12.525-17.408,20.782-26.118,24.774-26.118c1.872,0,2.804,1.221,2.804,3.651c0,4.466-6.012,16.122-18.019,34.953l-17.425,27.4
						c2.354-0.326,5.117-0.486,8.287-0.486c2.919,0,5.314,0.16,7.186,0.486c9.986-18.35,20.048-33.936,30.203-46.76
						c10.152-12.83,17.452-19.245,21.918-19.245c3.003,0,4.509,1.826,4.509,5.477c0,4.059-5.641,15.103-16.933,33.127l-17.29,27.399
						c2.352-0.326,5.195-0.484,8.523-0.484c2.847,0,5.07,0.158,6.696,0.484c26.068-44,44.454-66.003,55.167-66.003
						c3.331,0,4.997,1.662,4.997,4.996c0,3-3.403,9.376-10.233,19.119c-5.354,7.711-8.322,12.055-8.885,13.028
						c-3.085,5.282-4.635,10.192-4.635,14.735c0,4.465,1.229,8.117,3.657,10.961c2.439,2.838,5.575,4.262,9.387,4.262
						c7.317,0,18.624-10.609,33.9-31.83l5.24-7.195c0.732-1.06,1.142-1.711,1.22-1.959c0-0.484-0.243-0.725-0.729-0.725
						c-0.405,0-0.812,0.4-1.22,1.219l-2.189,2.682l-3.786,5.246c-14.638,20.492-25.124,30.738-31.46,30.738
						c-3.334,0-5.003-1.662-5.003-4.994c0-3.084,1.988-7.549,5.969-13.396c6.896-10.31,10.393-15.505,10.476-15.587
						c3.977-6.739,5.963-12.623,5.963-17.657c0-4.312-1.202-7.963-3.594-10.965c-2.396-3.004-5.338-4.506-8.824-4.506
						C674.13,128.738,662.554,139.46,647.133,160.889"/>
				</defs>
				<clipPath id="SVGID_20_">
					<use xlink:href="#SVGID_18_"  overflow="visible"/>
				</clipPath>
				<polygon clip-path="url(#SVGID_20_)" fill="#F9F9F9" points="573.356,127.075 717.05,128.745 716.229,199.33 572.53,197.654 
									"/>
			</g>
		</g>
	</g>
	<g>
		<g>
			<path id="SVGID_13_" fill="#F9F9F9" d="M233.087,227.107c-7.109,1.109-12.509,7.107-12.509,14.68
				c0,9.137,7.104,15.602,15.001,15.602c2.22,0,4.712-0.645,6.926-1.66c1.983-0.965,3.743-2.354,4.983-4.104
				c1.2-1.717-1.617-3.418-2.677-1.85c-0.963,1.244-2.352,2.348-3.783,3.092c-1.754,0.871-3.649,1.332-5.355,1.332
				c-6.369,0-11.769-5.344-11.769-12.365c0-6.689,4.014-10.709,9.689-11.588c4.072-0.461,7.715,0.045,10.847,3.371
				c1.3,1.391,3.786-0.506,2.408-2.08c-3.017-3.164-6.746-4.623-10.995-4.623C234.957,226.912,234.036,226.977,233.087,227.107"/>
		</g>
	</g>
	<g>
		<g>
			<path id="SVGID_15_" fill="#F9F9F9" d="M263.967,241.834c0-6.277,3.643-10.758,9.232-11.635c1.289-0.18,2.628-0.18,4.011,0
				c5.687,0.926,9.61,5.682,9.61,11.635c0,7.75-5.126,12.365-11.364,12.365C268.953,254.199,263.967,249.406,263.967,241.834
				 M272.736,227.107c-7.34,1.15-12.226,7.338-12.226,14.584c0,9.787,6.646,15.695,14.946,15.695
				c7.853,0,14.776-6.088,14.776-15.695c0-7.561-5.495-13.475-12.598-14.584c-0.857-0.102-1.7-0.16-2.549-0.16
				C274.313,226.947,273.548,227,272.736,227.107"/>
		</g>
		<g>
			<g>
				<defs>
					<path id="SVGID_22_" d="M263.967,241.834c0-6.277,3.643-10.758,9.232-11.635c1.289-0.18,2.628-0.18,4.011,0
						c5.687,0.926,9.61,5.682,9.61,11.635c0,7.75-5.126,12.365-11.364,12.365C268.953,254.199,263.967,249.406,263.967,241.834
						 M272.736,227.107c-7.34,1.15-12.226,7.338-12.226,14.584c0,9.787,6.646,15.695,14.946,15.695
						c7.853,0,14.776-6.088,14.776-15.695c0-7.561-5.495-13.475-12.598-14.584c-0.857-0.102-1.7-0.16-2.549-0.16
						C274.313,226.947,273.548,227,272.736,227.107"/>
				</defs>
				<clipPath id="SVGID_24_">
					<use xlink:href="#SVGID_22_"  overflow="visible"/>
				</clipPath>
				<polygon clip-path="url(#SVGID_24_)" fill="#F9F9F9" points="260.51,226.605 290.586,226.959 290.226,257.736 260.152,257.387 
									"/>
			</g>
		</g>
	</g>
	<g>
		<g>
			<path id="SVGID_17_" fill="#F9F9F9" d="M305.921,228.674v26.506c0,1.098,0.514,1.699,1.758,1.699h18.925
				c2.353,0,2.353-3.047,0-3.047h-17.265v-25.158c0-1.076-0.855-1.623-1.703-1.623C306.773,227.051,305.921,227.598,305.921,228.674
				"/>
		</g>
		<g>
			<g>
				<defs>
					<path id="SVGID_26_" d="M305.921,228.674v26.506c0,1.098,0.514,1.699,1.758,1.699h18.925c2.353,0,2.353-3.047,0-3.047h-17.265
						v-25.158c0-1.076-0.855-1.623-1.703-1.623C306.773,227.051,305.921,227.598,305.921,228.674"/>
				</defs>
				<clipPath id="SVGID_28_">
					<use xlink:href="#SVGID_26_"  overflow="visible"/>
				</clipPath>
				<polygon clip-path="url(#SVGID_28_)" fill="#F9F9F9" points="305.921,226.783 329.304,227.051 328.952,257.15 305.579,256.875 
									"/>
			</g>
		</g>
	</g>
	<g>
		<g>
			<path id="SVGID_19_" fill="#F9F9F9" d="M341.738,228.674v26.506c0,1.098,0.509,1.699,1.755,1.699h18.921
				c2.361,0,2.361-3.047,0-3.047h-17.261v-25.158c0-1.076-0.848-1.623-1.706-1.623C342.599,227.051,341.738,227.598,341.738,228.674
				"/>
		</g>
		<g>
			<g>
				<defs>
					<path id="SVGID_30_" d="M341.738,228.674v26.506c0,1.098,0.509,1.699,1.755,1.699h18.921c2.361,0,2.361-3.047,0-3.047h-17.261
						v-25.158c0-1.076-0.848-1.623-1.706-1.623C342.599,227.051,341.738,227.598,341.738,228.674"/>
				</defs>
				<clipPath id="SVGID_32_">
					<use xlink:href="#SVGID_30_"  overflow="visible"/>
				</clipPath>
				<polygon clip-path="url(#SVGID_32_)" fill="#F9F9F9" points="341.744,226.783 365.12,227.051 364.775,257.15 341.39,256.875 
									"/>
			</g>
		</g>
	</g>
	<g>
		<g>
			<path id="SVGID_21_" fill="#F9F9F9" d="M379.678,227.525c-1.288,0-2.123,0.924-2.123,1.977v25.354
				c0,1.104,0.834,2.025,2.123,2.025h19.439c2.211,0,1.935-3.049,0-3.049h-18.241v-10.016h17.358c1.938,0,1.851-2.949,0-2.949
				h-17.358v-10.389h18.241c1.935,0,2.024-2.953,0.043-2.953H379.678z"/>
		</g>
		<g>
			<g>
				<defs>
					<path id="SVGID_33_" d="M379.678,227.525c-1.288,0-2.123,0.924-2.123,1.977v25.354c0,1.104,0.834,2.025,2.123,2.025h19.439
						c2.211,0,1.935-3.049,0-3.049h-18.241v-10.016h17.358c1.938,0,1.851-2.949,0-2.949h-17.358v-10.389h18.241
						c1.935,0,2.024-2.953,0.043-2.953H379.678z"/>
				</defs>
				<clipPath id="SVGID_34_">
					<use xlink:href="#SVGID_33_"  overflow="visible"/>
				</clipPath>
				<polygon clip-path="url(#SVGID_34_)" fill="#F9F9F9" points="377.559,227.25 401.665,227.529 401.322,257.162 377.212,256.875 
									"/>
			</g>
		</g>
	</g>
	<g>
		<g>
			<path id="SVGID_23_" fill="#F9F9F9" d="M427.086,227.107c-7.109,1.109-12.512,7.107-12.512,14.68c0,9.137,7.113,15.602,15,15.602
				c2.215,0,4.709-0.645,6.928-1.66c1.979-0.965,3.735-2.354,4.984-4.104c1.195-1.717-1.621-3.418-2.686-1.85
				c-0.966,1.244-2.352,2.348-3.781,3.092c-1.754,0.871-3.649,1.332-5.354,1.332c-6.369,0-11.771-5.344-11.771-12.365
				c0-6.689,4.016-10.709,9.694-11.588c4.062-0.461,7.707,0.045,10.849,3.371c1.297,1.391,3.775-0.506,2.396-2.08
				c-3.006-3.164-6.74-4.623-10.986-4.623C428.947,226.912,428.027,226.977,427.086,227.107"/>
		</g>
	</g>
	<g>
		<g>
			<path id="SVGID_25_" fill="#F9F9F9" d="M453.898,227.479c-2.174,0-2.174,3.182,0,3.182h10.246v25.066
				c0,1.152,0.877,1.705,1.66,1.705c0.788,0,1.756-0.553,1.756-1.705c0-8.303-0.049-16.752-0.049-25.066h10.292
				c2.266,0,2.266-3.182,0-3.182H453.898z"/>
		</g>
		<g>
			<g>
				<defs>
					<path id="SVGID_35_" d="M477.541,257.727c2.172,0.051,2.246-3.127,0.075-3.178l-10.242-0.242l0.586-25.057
						c0.027-1.152-0.838-1.723-1.621-1.742c-0.788-0.02-1.769,0.51-1.795,1.662c-0.194,8.301-0.343,16.746-0.538,25.059
						l-10.289-0.24c-2.263-0.053-2.337,3.127-0.074,3.18L477.541,257.727z"/>
				</defs>
				<clipPath id="SVGID_36_">
					<use xlink:href="#SVGID_35_"  overflow="visible"/>
				</clipPath>
				
					<rect x="451.551" y="227.333" transform="matrix(-0.9999 -0.0117 0.0117 -0.9999 928.9176 490.3865)" clip-path="url(#SVGID_36_)" fill="#F9F9F9" width="28.687" height="30.281"/>
			</g>
		</g>
	</g>
	<g>
		<g>
			<path id="SVGID_27_" fill="#F9F9F9" d="M492.393,228.127v27.6c0,2.219,3.458,2.121,3.458,0v-27.6
				c0-1.135-0.874-1.717-1.739-1.717C493.248,226.412,492.393,226.977,492.393,228.127"/>
		</g>
		<g>
			<g>
				<defs>
					<path id="SVGID_37_" d="M492.393,228.127v27.6c0,2.219,3.458,2.121,3.458,0v-27.6c0-1.135-0.874-1.717-1.739-1.717
						C493.248,226.412,492.393,226.977,492.393,228.127"/>
				</defs>
				<clipPath id="SVGID_38_">
					<use xlink:href="#SVGID_37_"  overflow="visible"/>
				</clipPath>
				<polygon clip-path="url(#SVGID_38_)" fill="#F9F9F9" points="492.393,226.375 496.219,226.412 495.851,257.979 492.024,257.939 
									"/>
			</g>
		</g>
	</g>
	<g>
		<g>
			<path id="SVGID_29_" fill="#F9F9F9" d="M513.763,241.834c0-6.277,3.648-10.758,9.229-11.635c1.295-0.18,2.632-0.18,4.013,0
				c5.683,0.926,9.605,5.682,9.605,11.635c0,7.75-5.127,12.365-11.355,12.365C518.746,254.199,513.763,249.406,513.763,241.834
				 M522.538,227.107c-7.346,1.15-12.235,7.338-12.235,14.584c0,9.787,6.646,15.695,14.952,15.695c7.852,0,14.77-6.088,14.77-15.695
				c0-7.561-5.489-13.475-12.597-14.584c-0.852-0.102-1.688-0.16-2.55-0.16C524.117,226.947,523.344,227,522.538,227.107"/>
		</g>
		<g>
			<g>
				<defs>
					<path id="SVGID_39_" d="M513.763,241.834c0-6.277,3.648-10.758,9.229-11.635c1.295-0.18,2.632-0.18,4.013,0
						c5.683,0.926,9.605,5.682,9.605,11.635c0,7.75-5.127,12.365-11.355,12.365C518.746,254.199,513.763,249.406,513.763,241.834
						 M522.538,227.107c-7.346,1.15-12.235,7.338-12.235,14.584c0,9.787,6.646,15.695,14.952,15.695
						c7.852,0,14.77-6.088,14.77-15.695c0-7.561-5.489-13.475-12.597-14.584c-0.852-0.102-1.688-0.16-2.55-0.16
						C524.117,226.947,523.344,227,522.538,227.107"/>
				</defs>
				<clipPath id="SVGID_40_">
					<use xlink:href="#SVGID_39_"  overflow="visible"/>
				</clipPath>
				<polygon clip-path="url(#SVGID_40_)" fill="#F9F9F9" points="510.303,226.605 540.382,226.959 540.021,257.736 509.943,257.387 
									"/>
			</g>
		</g>
	</g>
	<g>
		<g>
			<path id="SVGID_31_" fill="#F9F9F9" d="M555.485,229.137v26.453c0,2.309,3.51,2.258,3.51,0v-16.291l-0.371-6.367l17.271,23.119
				c0.964,1.613,4.146,1.381,4.146-0.926v-26.494c0-2.031-3.502-1.936-3.502,0v16.342l0.465,6.967l-17.773-23.768
				c-0.486-0.709-1.209-1.064-1.897-1.064C556.36,227.107,555.485,227.793,555.485,229.137"/>
		</g>
		<g>
			<g>
				<defs>
					<path id="SVGID_41_" d="M579.738,255.645l0.614-26.445c0.053-2.309-3.456-2.336-3.51-0.08l-0.378,16.287l0.225,6.371
						l-16.729-23.512c-0.925-1.635-4.112-1.475-4.166,0.83l-0.614,26.484c-0.047,2.031,3.455,2.018,3.5,0.082l0.38-16.336
						l-0.305-6.975l17.219,24.172c0.469,0.721,1.183,1.09,1.871,1.107C578.816,257.65,579.707,256.988,579.738,255.645"/>
				</defs>
				<clipPath id="SVGID_42_">
					<use xlink:href="#SVGID_41_"  overflow="visible"/>
				</clipPath>
				
					<rect x="555.309" y="226.46" transform="matrix(-0.9999 -0.0116 0.0116 -0.9999 1132.6843 491.069)" clip-path="url(#SVGID_42_)" fill="#F9F9F9" width="24.915" height="31.578"/>
			</g>
		</g>
	</g>
</g>
</svg>
