<?xml version="1.0" encoding="utf-8"?>
<!-- Generator: Adobe Illustrator 16.0.0, SVG Export Plug-In . SVG Version: 6.00 Build 0)  -->
<!DOCTYPE svg PUBLIC "-//W3C//DTD SVG 1.1//EN" "http://www.w3.org/Graphics/SVG/1.1/DTD/svg11.dtd">
<svg version="1.1" id="Layer_1" xmlns="http://www.w3.org/2000/svg" xmlns:xlink="http://www.w3.org/1999/xlink" x="0px" y="0px"
	 width="11.721px" height="13px" viewBox="0 0 11.721 13" enable-background="new 0 0 11.721 13" xml:space="preserve">
<g>
	<path fill="#FFFFFF" d="M5.861,7.375c-1.646,0-2.984-1.654-2.984-3.688S4.215,0,5.861,0s2.984,1.654,2.984,3.688
		S7.506,7.375,5.861,7.375z M5.861,0.813c-1.197,0-2.172,1.289-2.172,2.875c0,1.585,0.975,2.875,2.172,2.875s2.172-1.29,2.172-2.875
		C8.033,2.102,7.058,0.813,5.861,0.813z"/>
	<g>
		<path fill="#FFFFFF" d="M8.228,13H3.494c-1.034,0-2.957,0-3.398-1.581c-0.521-1.861,1.212-2.704,2.359-3.263L2.75,8.012
			c0.479-0.24,0.828-0.495,1.035-0.76l0.639,0.502c-0.281,0.359-0.723,0.69-1.311,0.984L2.81,8.887
			c-1.33,0.646-2.246,1.191-1.933,2.313c0.255,0.912,1.483,0.988,2.616,0.988h4.734c1.133,0,2.361-0.076,2.616-0.988
			c0.313-1.121-0.604-1.666-1.933-2.313L8.609,8.738C8.022,8.444,7.581,8.114,7.298,7.754l0.639-0.502
			c0.208,0.265,0.557,0.52,1.035,0.76l0.295,0.145c1.146,0.559,2.88,1.401,2.359,3.263C11.185,13,9.262,13,8.228,13z"/>
	</g>
</g>
</svg>
