<?xml version="1.0" encoding="utf-8"?>
<!-- Generator: Adobe Illustrator 21.0.0, SVG Export Plug-In . SVG Version: 6.00 Build 0)  -->
<svg version="1.1" id="Layer_1" xmlns="http://www.w3.org/2000/svg" xmlns:xlink="http://www.w3.org/1999/xlink" x="0px" y="0px"
	 viewBox="0 0 60 15.8" style="enable-background:new 0 0 60 15.8;" xml:space="preserve">
<style type="text/css">
	.st0{fill:none;stroke:#C1C2C2;stroke-miterlimit:10;}
	.st1{fill:#FFFFFF;}
	.st2{fill:#C1C2C2;}
	.st3{fill:#C1C2C2;stroke:#C1C2C2;stroke-width:0.75;stroke-miterlimit:10;}
</style>
<g>
	<line class="st0" x1="0" y1="8.3" x2="60" y2="8.3"/>
	<g>
		<circle class="st1" cx="29.6" cy="7.9" r="7.5"/>
		<path class="st2" d="M29.6,15.8c-4.3,0-7.9-3.5-7.9-7.9S25.3,0,29.6,0s7.9,3.5,7.9,7.9S34,15.8,29.6,15.8z M29.6,0.8
			c-3.9,0-7.1,3.2-7.1,7.1s3.2,7.1,7.1,7.1s7.1-3.2,7.1-7.1S33.5,0.8,29.6,0.8z"/>
	</g>
	<g>
		<path class="st3" d="M30.4,8l-2.2,2.2l0.2,0.2L31,7.9l-2.5-2.5l-0.2,0.2l2.2,2.2"/>
	</g>
</g>
</svg>
