<?xml version="1.0" encoding="utf-8"?>
<!-- Generator: Adobe Illustrator 16.0.0, SVG Export Plug-In . SVG Version: 6.00 Build 0)  -->
<!DOCTYPE svg PUBLIC "-//W3C//DTD SVG 1.1//EN" "http://www.w3.org/Graphics/SVG/1.1/DTD/svg11.dtd">
<svg version="1.1" id="Layer_1" xmlns="http://www.w3.org/2000/svg" xmlns:xlink="http://www.w3.org/1999/xlink" x="0px" y="0px"
	 width="10.089px" height="14.471px" viewBox="0 0 10.089 14.471" enable-background="new 0 0 10.089 14.471" xml:space="preserve">
<path fill="#FFFFFF" d="M5.035,14.471l-0.266-0.424c0,0-2.999-4.778-3.971-6.285c-0.545-0.848-0.821-1.83-0.797-2.841
	c0.063-2.621,2.16-4.78,4.774-4.915c1.406-0.065,2.729,0.417,3.742,1.379s1.571,2.262,1.571,3.658c0,0.983-0.285,1.937-0.824,2.758
	C8.359,9.179,5.331,13.999,5.3,14.047L5.035,14.471z M5.046,0.626c-0.078,0-0.158,0.002-0.237,0.006
	C2.52,0.751,0.684,2.641,0.628,4.936C0.608,5.821,0.849,6.68,1.327,7.422c0.795,1.233,2.952,4.666,3.708,5.869
	C5.798,12.077,7.99,8.597,8.74,7.456c0.473-0.719,0.723-1.552,0.723-2.413c0-1.223-0.489-2.36-1.377-3.203
	C7.255,1.053,6.185,0.626,5.046,0.626 M5.003,7.463c-1.335,0-2.421-1.086-2.421-2.42s1.086-2.419,2.421-2.419
	c1.334,0,2.42,1.085,2.42,2.419S6.337,7.463,5.003,7.463 M5.003,3.251c-0.988,0-1.793,0.804-1.793,1.792
	c0,0.988,0.805,1.792,1.793,1.792s1.791-0.804,1.791-1.792C6.794,4.055,5.992,3.251,5.003,3.251"/>
</svg>
