<?xml version="1.0" encoding="utf-8"?>
<!-- Generator: Adobe Illustrator 21.0.0, SVG Export Plug-In . SVG Version: 6.00 Build 0)  -->
<svg version="1.1" id="Layer_1" xmlns="http://www.w3.org/2000/svg" xmlns:xlink="http://www.w3.org/1999/xlink" x="0px" y="0px"
	 viewBox="0 0 326.2 124" style="enable-background:new 0 0 326.2 124;" xml:space="preserve">
<style type="text/css">
	.st0{fill:#FFFFFF;}
</style>
<g>
	<g>
		<g>
			<path class="st0" d="M78.6,123.1c-5.4,2.7-11.5-1.3-11.3-7.2c0.1-4,2.7-7,6.4-7.6c2.8-0.4,5.1,0.1,7.1,2.3
				c0.4,0.4-0.2,0.9-0.6,0.5c-1.9-2.1-3.8-2.3-6.4-2c-3.4,0.5-5.7,3-5.8,6.8c-0.1,5.3,5.3,8.9,10.2,6.5c0.9-0.4,1.6-1.1,2.2-1.8
				c0.3-0.5,1,0,0.6,0.5C80.5,122,79.6,122.6,78.6,123.1z"/>
			<path class="st0" d="M88,115.9c0.1-3.7,2.4-7,6.2-7.6c0.8-0.1,1.7-0.1,2.6,0c3.8,0.6,6.3,3.9,6.4,7.6c0.1,4.6-3.4,8.1-7.6,8.1
				C91.5,124,87.9,120.5,88,115.9z M88.8,115.9c-0.1,4.1,3.1,7.4,6.8,7.4c3.7,0,6.9-3.3,6.8-7.4c-0.1-3.3-2.4-6.3-5.8-6.8
				c-0.8-0.1-1.6-0.1-2.3,0C90.9,109.6,88.9,112.6,88.8,115.9z"/>
			<path class="st0" d="M111.9,123.7c-0.3,0-0.4-0.2-0.4-0.5v-14.4c0-0.6,0.8-0.6,0.8,0V123h10c0.5,0,0.5,0.7,0,0.7H111.9z"/>
			<path class="st0" d="M130.4,123.7c-0.3,0-0.4-0.2-0.4-0.5v-14.4c0-0.6,0.8-0.6,0.8,0V123h10c0.5,0,0.5,0.7,0,0.7H130.4z"/>
			<path class="st0" d="M149.2,123h10.5c0.5,0,0.5,0.8,0,0.8h-10.7c-0.4,0-0.6-0.3-0.6-0.6v-13.9c0-0.3,0.3-0.6,0.6-0.6h10.7
				c0.5,0,0.5,0.7,0,0.7h-10.5v6.6h10.1c0.5,0,0.5,0.7,0,0.7h-10.1V123z"/>
			<path class="st0" d="M178.8,123.1c-5.4,2.7-11.5-1.3-11.3-7.2c0.1-4,2.7-7,6.4-7.6c2.8-0.4,5.1,0.1,7.1,2.3
				c0.4,0.4-0.2,0.9-0.6,0.5c-1.9-2.1-3.8-2.3-6.4-2c-3.4,0.5-5.7,3-5.8,6.8c-0.1,5.3,5.3,8.9,10.2,6.5c0.9-0.4,1.6-1.1,2.2-1.8
				c0.3-0.5,1,0,0.6,0.5C180.7,122,179.8,122.6,178.8,123.1z"/>
			<path class="st0" d="M200.5,108.6c0.6,0,0.6,0.7,0,0.7h-6.2l0,14.1c0,0.3-0.2,0.5-0.4,0.5c-0.2,0-0.4-0.1-0.4-0.5v-14.1h-6.2
				c-0.6,0-0.6-0.7,0-0.7C191.7,108.6,196.1,108.6,200.5,108.6z"/>
			<path class="st0" d="M207.9,108.9c0-0.6,0.9-0.6,0.9,0v14.5c0,0.5-0.9,0.5-0.9,0V108.9z"/>
			<path class="st0" d="M217,115.9c0.1-3.7,2.4-7,6.2-7.6c0.8-0.1,1.7-0.1,2.6,0c3.8,0.6,6.3,3.9,6.4,7.6c0.1,4.6-3.4,8.1-7.6,8.1
				C220.5,124,216.9,120.5,217,115.9z M217.9,115.9c-0.1,4.1,3.1,7.4,6.8,7.4c3.7,0,6.9-3.3,6.8-7.4c-0.1-3.3-2.4-6.3-5.8-6.8
				c-0.8-0.1-1.6-0.1-2.3,0C220,109.6,218,112.6,217.9,115.9z"/>
			<path class="st0" d="M251.6,108.9c0-0.6,0.8-0.6,0.8,0v14.4c0,0.6-0.5,0.6-0.8,0.2l-10.4-13.5v13.4c0,0.6-0.8,0.6-0.8,0V109
				c0-0.6,0.5-0.7,0.8-0.2l10.3,13.5V108.9z"/>
		</g>
		<g>
			<path class="st0" d="M30.3,79.5c-1.5,1.2-3.2,2.5-4.9,3.9c-1.7,1.4-3.6,2.7-5.5,3.9c-1.9,1.3-3.9,2.4-6.1,3.4
				c-2.1,1-4.3,1.9-6.7,2.5c-0.9,0.2-1.7,0.4-2.4,0.5c-0.7,0.1-1.4,0.1-2.1,0.1c-0.6-0.1-1.2-0.2-1.6-0.5c-0.4-0.3-0.8-0.7-0.9-1.2
				c-0.2-0.6-0.2-1.3-0.1-2c0.1-0.7,0.4-1.5,0.8-2.3c0.4-0.8,0.8-1.5,1.3-2.3c0.5-0.8,1-1.5,1.4-2.2c1.3-1.7,2.6-3.4,4-5.1
				c1.4-1.7,2.9-3.4,4.3-5.1c2.4-2.8,4.8-5.7,7.3-8.5c2.5-2.8,5.1-5.6,7.9-8.4l0.8-0.8H15.3c-0.6,0-1-0.2-0.9-0.6
				c0-0.4,0.5-0.6,1.3-0.6h13.4c1.2-1.2,2.4-2.3,3.6-3.5c1.3-1.1,2.6-2.3,3.9-3.4c1.7-1.4,3.6-2.8,5.4-4c1.9-1.3,4-2.4,6.3-3.4
				c0.6-0.2,1.3-0.5,2.1-0.9c0.9-0.3,1.7-0.6,2.6-0.8c0.9-0.2,1.7-0.3,2.5-0.3c0.8,0,1.4,0.2,1.8,0.5c0.4,0.4,0.5,1,0.1,1.6
				c-0.4,0.6-0.8,1.2-1.4,1.7c-0.7,0.8-1.4,1.5-2.2,2.3c-0.8,0.7-1.6,1.5-2.4,2.2c-1.7,1.4-3.3,2.7-5,4.1c-1.7,1.3-3.4,2.7-5.2,4
				h17.5c0.3,0,0.5,0.1,0.6,0.2c0.1,0.1,0.1,0.3,0,0.4c-0.1,0.2-0.2,0.3-0.5,0.4c-0.2,0.1-0.5,0.2-0.8,0.2H39.7
				c-1.8,1.4-3.6,2.7-5.4,4.1c-1.8,1.3-3.6,2.7-5.4,4l-3.5,2.6l-6,6.3c-2.3,2.4-4.7,4.8-7.1,7.2c-2.4,2.4-4.5,4.8-6.3,7.3
				c-0.5,0.6-0.9,1.2-1.3,1.9c-0.4,0.6-0.6,1.3-0.7,1.9c0,0.8,0.6,1.2,1.8,1.3c1,0.1,2.1,0,3.2-0.3c1.1-0.3,2.3-0.7,3.4-1.3
				c1.1-0.5,2.2-1.1,3.2-1.7c1-0.6,2-1.2,2.8-1.7c1.4-0.9,2.8-1.8,4-2.7c1.3-0.9,2.5-1.9,3.7-2.8c0.4-0.4,0.9-0.8,1.4-1.2
				c0.5-0.5,1-0.9,1.5-1.2c0.2-0.2,0.5-0.3,0.8-0.4c0.3,0,0.5,0,0.7,0c0.2,0.1,0.3,0.2,0.3,0.3C30.7,79.2,30.5,79.4,30.3,79.5z
				 M38.4,55.5H36l-7.5,7.4c1.7-1.2,3.4-2.4,5-3.7C35.2,58,36.8,56.7,38.4,55.5z M48.9,46.8c0.7-0.6,1.4-1.2,2.1-1.9
				c0.7-0.6,1.3-1.3,1.9-1.9l0.9-0.9c0.3-0.3,0.6-0.6,0.8-1c0.2-0.3,0.3-0.5,0.3-0.8c0-0.2,0.1-0.4,0.2-0.6c0,0-0.2,0.1-0.4,0.2
				c-0.2,0.1-0.4,0.1-0.7,0.2c-0.2,0.1-0.5,0.2-0.7,0.3c-0.2,0.1-0.4,0.1-0.5,0.2c-1,0.6-1.9,1.2-2.7,1.9c-0.8,0.7-1.6,1.4-2.3,2.1
				c-1.6,1.5-3.2,2.9-4.8,4.3c-1.6,1.4-3.2,2.9-4.7,4.4l-1,0.9H40c1.5-1.2,3.1-2.4,4.6-3.6C46,49.4,47.5,48.1,48.9,46.8z"/>
			<path class="st0" d="M80.6,79c-1.8,1.3-3.6,2.6-5.5,3.9c-1.9,1.3-3.8,2.6-5.8,3.8c-2,1.2-4,2.4-6.2,3.5c-2.1,1.1-4.3,2-6.7,2.8
				c-0.9,0.3-1.7,0.6-2.5,0.8c-0.8,0.2-1.6,0.4-2.3,0.4c-0.7,0-1.4,0-1.9-0.2c-0.6-0.2-1-0.5-1.4-1.1c-0.4-0.5-0.5-1.1-0.5-1.8
				c0-0.7,0.1-1.4,0.3-2.2c0.2-0.7,0.5-1.5,0.9-2.2c0.4-0.7,0.8-1.5,1.2-2.2l1.1-1.7c-1.3,0.9-2.6,1.8-3.9,2.6
				c-1.3,0.8-2.6,1.7-4,2.5c-1,0.6-2.1,1.2-3.3,1.8c-1.3,0.6-2.6,1.2-3.9,1.8c-1.4,0.5-2.8,1-4.1,1.4c-1.4,0.4-2.6,0.6-3.8,0.6
				c-1.1,0-2.1-0.1-3-0.5c-0.8-0.4-1.4-1.1-1.7-2c-0.4-1.3-0.4-2.7,0.2-4.2c0.5-1.5,1.4-3,2.5-4.6c1.1-1.6,2.5-3.1,4-4.6
				c1.5-1.5,3.1-2.9,4.6-4.2c1.5-1.2,3.2-2.5,5-3.8c1.8-1.3,3.8-2.5,5.9-3.6c2.1-1.1,4.3-2,6.5-2.8c2.3-0.8,4.6-1.3,6.9-1.5
				c2.4-0.2,4.4,0,5.9,0.7c1.5,0.7,2.1,1.8,2,3.3c-0.1,0.7-0.3,1.4-0.5,2l1.8-1.3c0.7-0.5,1.5-1,2.5-1.6c1-0.6,2-1.2,3.1-1.7
				c1.1-0.5,2.2-1,3.3-1.3c1.1-0.3,2.2-0.5,3.1-0.5c0.4,0,0.6,0.1,0.6,0.2c0,0.1,0,0.3-0.1,0.5c-0.1,0.2-0.3,0.4-0.5,0.6
				c-0.2,0.2-0.4,0.4-0.5,0.5c-0.7,0.6-1.4,1.2-2.1,1.8c-0.7,0.6-1.4,1.2-2,1.7c-1.9,1.7-3.8,3.5-5.6,5.2c-1.8,1.7-3.6,3.5-5.4,5.3
				c-1.1,1.1-2.2,2.2-3.2,3.3c-1.1,1.1-2.1,2.2-3.1,3.3c-0.5,0.6-1,1.2-1.6,1.8c-0.6,0.6-1.1,1.3-1.7,1.9c-0.5,0.6-1,1.3-1.5,1.9
				c-0.4,0.6-0.7,1.2-0.9,1.9c-0.1,0.3,0,0.6,0.2,0.7c0.2,0.2,0.4,0.3,0.8,0.3c0.3,0.1,0.7,0.1,1.2,0c0.5-0.1,0.9-0.2,1.4-0.3
				c1.7-0.4,3.3-1.1,5-2c1.7-0.9,3.2-1.8,4.5-2.5c1.6-0.9,3.2-1.9,4.7-2.9c1.5-1,3-2,4.4-3.1c1.6-1.1,3.1-2.2,4.6-3.3
				c0.5-0.4,1-0.4,1.5-0.2C81,78.4,81,78.7,80.6,79z M63.7,70c0.5-0.6,0.9-1.2,1.2-1.8c0.3-0.6,0.6-1.3,0.6-1.9
				c0.1-0.6,0-1.2-0.2-1.6c-0.2-0.5-0.7-0.9-1.4-1.1c-0.8-0.2-1.6-0.4-2.4-0.3c-0.9,0-1.7,0.2-2.6,0.4c-0.9,0.2-1.8,0.6-2.6,0.9
				c-0.9,0.4-1.6,0.8-2.4,1.3c-2,1.2-3.8,2.5-5.6,3.9c-1.7,1.4-3.4,2.7-5,4c-1.8,1.5-3.5,2.9-5.2,4.4c-1.6,1.5-3.2,3-4.6,4.5
				c-0.6,0.7-1.3,1.4-1.9,2.1c-0.6,0.7-1.2,1.4-1.8,2.1c-0.6,0.7-1.2,1.4-1.8,2.2c-0.6,0.8-0.8,1.5-0.5,2.2c0.2,0.6,0.6,0.9,1.5,1
				c0.8,0.1,1.7,0,2.7-0.3c1-0.2,2-0.6,3-0.9c1-0.4,1.8-0.7,2.5-1.1c2.3-1.1,4.4-2.2,6.4-3.5c2-1.3,4-2.6,5.9-3.9
				c0.7-0.5,1.5-1,2.2-1.5c0.7-0.5,1.5-1,2.2-1.6c1.4-1.6,2.9-3.2,4.5-4.8C60.1,73.1,61.9,71.5,63.7,70z"/>
			<path class="st0" d="M78,79.4l5-4c1.7-1.3,3.3-2.7,4.9-3.9c1.7-1.4,3.5-2.7,5.2-4.1c1.7-1.4,3.3-2.7,4.8-4.2
				c-0.7-1-1.1-2-1.2-3.1c-0.1-1.1,0.4-2.3,1.7-3.6c0.7-0.8,1.7-1.4,2.9-1.9c1.2-0.5,2.4-0.8,3.6-0.7c1.3,0,2.1,0.4,2.5,1
				c0.4,0.6,0.4,1.3-0.1,2.2c-0.3,0.5-0.7,1-1.2,1.5c-0.5,0.5-1,1-1.6,1.5c0,0.4-0.1,0.7-0.1,1v0.5c-0.1,0.7-0.1,1.5-0.2,2.2
				c0,0.7,0,1.4,0.1,2.1c0.1,0.6,0.2,1.3,0.4,1.9c0.2,0.6,0.3,1.2,0.3,1.9c0,0.5-0.1,1.1-0.4,1.7c-0.2,0.6-0.6,1.2-0.9,1.8
				c-0.4,0.6-0.8,1.2-1.3,1.8c-0.5,0.6-1,1.1-1.4,1.7c-1.3,1.5-2.7,3-4.1,4.5c-1.4,1.5-2.8,2.9-4.3,4.3c-0.2,0.2-0.5,0.5-1,0.9
				c-0.4,0.4-0.9,0.8-1.4,1.2c-0.5,0.5-1,1-1.5,1.5c-0.5,0.5-0.9,1-1.2,1.4c-0.3,0.4-0.5,0.8-0.5,1.1c0,0.3,0.1,0.5,0.5,0.6
				c0.8,0.2,1.6,0.2,2.5,0c0.9-0.2,1.8-0.4,2.6-0.7c0.9-0.3,1.8-0.7,2.6-1.1c0.8-0.4,1.6-0.8,2.3-1.2c1.9-1.2,3.8-2.5,5.5-3.8
				c1.7-1.3,3.3-2.7,4.8-4.1l0.7-0.7c0.4-0.4,0.7-0.7,1.2-1c0.4-0.3,0.8-0.6,1.1-0.7c0.3-0.1,0.6,0,0.7,0.3c0,0.2-0.1,0.4-0.3,0.7
				c-0.2,0.3-0.5,0.6-0.9,0.9c-0.3,0.3-0.7,0.6-1,0.9c-0.3,0.3-0.6,0.5-0.8,0.7c-1.6,1.4-3.3,2.7-5,4c-1.7,1.3-3.5,2.5-5.5,3.7
				c-1.7,0.9-3.5,1.8-5.4,2.7c-1.9,0.9-3.9,1.4-5.8,1.5c-1,0.1-1.8,0-2.4-0.2c-0.6-0.2-1.1-0.5-1.3-0.9c-0.3-0.4-0.4-0.8-0.5-1.4
				c0-0.5,0.1-1.1,0.3-1.6c0.5-1.5,1.4-3.1,2.6-4.6c1.2-1.5,2.5-3,3.9-4.5c1.5-1.4,3-2.8,4.6-4.2c1.6-1.4,3.2-2.8,5-4.2
				c1-0.9,1.7-1.6,2-2.2c0.3-0.5,0.4-1.3,0.1-2.2c-0.2-0.6-0.5-1.2-0.9-1.8c-0.4-0.6-0.9-1.2-1.4-1.8c-1.8,1.4-3.5,2.8-5.2,4.2
				c-1.7,1.4-3.4,2.8-5.2,4.1c-1.1,0.9-2.1,1.7-3.2,2.6c-1.1,0.9-2.2,1.7-3.3,2.6c-0.4,0.3-0.8,0.8-1.5,1.4
				c-0.6,0.6-1.2,0.9-1.8,1.1c-0.5,0.1-0.8,0.1-1-0.2C77.6,79.9,77.7,79.6,78,79.4z"/>
			<path class="st0" d="M129.4,67.1c0.9-0.5,2-1.1,3.3-1.7c1.3-0.6,2.6-1.2,4-1.8c1.4-0.5,2.8-1,4.2-1.4c1.4-0.4,2.7-0.6,3.8-0.7
				c1.2-0.1,2.1,0.1,2.9,0.5c0.8,0.4,1.3,1.1,1.5,2.1c0.1,0.6,0.1,1.3-0.1,2c-0.2,0.7-0.5,1.4-0.9,2.2c-0.4,0.7-0.9,1.5-1.4,2.2
				c-0.5,0.7-1.1,1.5-1.6,2.2c-1.2,1.4-2.5,2.8-4,4.2c-1.5,1.4-3.1,2.8-4.9,4.1c-1.7,1.3-3.6,2.6-5.5,3.9c-1.9,1.3-3.9,2.4-6.1,3.5
				c-2.1,1.1-4.4,2-6.8,2.9c-2.4,0.9-4.8,1.5-7.1,1.9c-2.3,0.4-3.9,0.3-5-0.2c-1.1-0.5-1.6-1.2-1.7-2.2c-0.1-1,0.2-2.3,0.8-3.7
				c0.6-1.5,1.5-3,2.6-4.6c1.1-1.6,2.3-3.3,3.6-5c1.4-1.7,2.7-3.3,4-4.8c1.3-1.5,2.5-2.8,3.6-4c1.1-1.2,1.9-2,2.4-2.6
				c2.9-3.2,5.9-6.4,8.9-9.5c3-3.1,6.2-6.2,9.5-9.3c1.5-1.4,3.1-2.8,4.7-4.3c1.6-1.5,3.3-2.9,5.1-4.3c1.8-1.4,3.7-2.7,5.7-3.9
				c2-1.2,4.2-2.3,6.5-3.3c0.9-0.4,1.9-0.7,2.8-1c1-0.3,1.9-0.4,2.7-0.3c1,0.1,1.6,0.4,1.9,0.8c0.3,0.5,0.2,1-0.1,1.6
				c-0.4,0.7-0.9,1.5-1.6,2.2c-0.6,0.7-1.4,1.5-2.2,2.2c-0.8,0.7-1.6,1.4-2.4,2.2c-0.8,0.7-1.6,1.4-2.4,2c-3.6,3-7.4,6-11.3,9
				c-3.9,3-7.8,5.9-11.7,8.8l-10,7.4c-1,0.9-2,1.9-2.9,2.8c-1,1-2,1.9-2.9,2.9c1.3-0.9,2.7-1.7,4-2.5
				C126.6,68.7,128,67.9,129.4,67.1z M106,89.2c-0.2,0.6-0.3,1.1-0.2,1.7c0.1,0.6,0.5,1,1.2,1.2c0.8,0.3,1.8,0.3,2.9,0.1
				c1.1-0.2,2.2-0.5,3.2-0.9c2.1-0.8,3.9-1.8,5.6-3c1.7-1.2,3.3-2.4,4.8-3.6c3-2.2,5.9-4.5,8.7-6.8c2.7-2.3,5.3-4.7,7.6-7.1
				c0.7-0.7,1.3-1.5,1.9-2.2c0.5-0.7,1.1-1.5,1.6-2.2c0.2-0.3,0.3-0.6,0.5-0.9c0.2-0.3,0.3-0.6,0.3-0.9c0-0.3,0-0.5-0.2-0.8
				c-0.2-0.2-0.5-0.4-1-0.5c-0.8-0.2-1.7-0.1-2.8,0.1c-1.1,0.2-2.1,0.5-3.2,0.9c-1.1,0.4-2.1,0.8-3.1,1.3c-1,0.5-1.9,0.9-2.7,1.3
				c-2.3,1.2-4.5,2.4-6.7,3.7c-2.1,1.3-4.2,2.7-6.1,4l-0.2,0.2c-1.1,1.1-2.3,2.3-3.6,3.5c-1.3,1.2-2.5,2.4-3.6,3.6
				c-1.2,1.2-2.2,2.4-3.1,3.6C107.1,86.8,106.5,88,106,89.2z M137.4,57.9c3.9-2.9,7.8-5.9,11.5-8.8c3.8-3,7.4-6,10.8-9.1
				c0.8-0.7,1.5-1.5,2.3-2.2c0.7-0.7,1.5-1.5,2.2-2.2c0.2-0.2,0.4-0.4,0.8-0.8c0.3-0.4,0.7-0.7,0.9-1.1c0.3-0.4,0.5-0.7,0.6-1.1
				c0.1-0.3,0.1-0.6-0.2-0.7c-0.2-0.2-0.6-0.1-1.2,0.1c-0.5,0.2-1.1,0.6-1.8,1c-0.6,0.4-1.3,1-2,1.5c-0.7,0.6-1.3,1.1-1.9,1.6
				c-0.6,0.5-1.1,1-1.6,1.4c-0.4,0.4-0.7,0.7-0.8,0.8c-3.2,3-6.4,6-9.7,8.9c-3.3,2.9-6.5,5.9-9.7,9l-6.7,6.3L137.4,57.9z"/>
			<path class="st0" d="M148,76.9c1.2-1.3,2.5-2.6,4-3.9c1.5-1.3,3.1-2.5,4.9-3.6c1.7-1.2,3.6-2.2,5.6-3.2c2-1,4-1.8,6.1-2.6
				c2.1-0.7,4.2-1.3,6.3-1.6c2.1-0.4,4-0.4,5.8-0.1c1.7,0.3,3,0.9,3.9,1.7c0.9,0.8,1.4,1.8,1.5,3c0.2,1.3,0,2.6-0.5,4
				c-0.5,1.4-1.3,2.8-2.2,4.2c-1,1.4-2.2,2.8-3.6,4.1c-1.4,1.4-2.8,2.6-4.4,3.9c-1.5,1.2-3.2,2.5-5.2,3.7c-2,1.3-4.1,2.4-6.3,3.4
				c-2.2,1-4.5,1.9-6.8,2.6c-2.3,0.7-4.6,1-6.8,1c-2,0-3.6-0.3-4.7-0.8c-1.1-0.5-1.9-1.3-2.4-2.2c-0.4-0.9-0.6-1.9-0.5-3.1
				c0.1-1.2,0.4-2.4,1-3.6c0.5-1.2,1.2-2.4,2-3.6C146.3,79,147.1,77.9,148,76.9z M154.3,78.2c-1.5,1.4-3,2.9-4.3,4.5
				c-1.4,1.6-2.4,3.1-3.1,4.6c-0.2,0.5-0.4,1.1-0.5,1.7c-0.1,0.6,0,1.1,0.2,1.6c0.2,0.5,0.5,0.9,1.1,1.2c0.5,0.3,1.3,0.4,2.3,0.3
				c1.1-0.1,2.3-0.4,3.4-0.7c1.2-0.4,2.3-0.8,3.3-1.3c1.1-0.5,2.1-1.1,3.1-1.7c1-0.6,1.9-1.2,2.8-1.8c2-1.3,3.9-2.7,5.6-4.1
				c1.7-1.4,3.4-2.9,4.9-4.4c2.1-1.9,3.9-4,5.6-6.1c0.5-0.6,1-1.4,1.5-2.1c0.5-0.8,1-1.5,1.3-2.3c0.3-0.7,0.5-1.5,0.5-2.2
				c0-0.7-0.2-1.3-0.8-1.8c-0.5-0.4-1.2-0.7-2.1-0.7c-0.9,0-1.8,0.1-2.9,0.4c-1,0.3-2,0.6-3,1.1c-1,0.4-1.9,0.8-2.6,1.2
				c-2.2,1.2-4.2,2.5-6.1,3.9c-1.9,1.4-3.7,2.8-5.4,4.2c-0.9,0.7-1.8,1.5-2.6,2.2C155.9,76.7,155.1,77.5,154.3,78.2z"/>
			<path class="st0" d="M236.2,79c-1.7,1.3-3.5,2.6-5.4,3.9c-1.9,1.3-3.8,2.6-5.7,3.8c-2,1.2-4,2.4-6.1,3.5c-2.1,1.1-4.3,2-6.7,2.8
				c-0.9,0.3-1.9,0.6-2.8,0.8c-0.9,0.2-1.7,0.3-2.5,0.4c-0.7,0-1.4-0.1-2-0.3c-0.6-0.2-1-0.6-1.3-1.2c-0.3-0.6-0.5-1.2-0.4-1.9
				c0-0.7,0.2-1.4,0.5-2.1c0.3-0.7,0.6-1.4,1-2.1c0.4-0.7,0.8-1.4,1.2-2.1c0.5-0.8,1.1-1.5,1.6-2.3c0.6-0.8,1.2-1.5,1.9-2.3
				l-0.3,0.2c-1.9,1.4-3.8,2.7-5.8,4.1c-1.9,1.3-4,2.6-6.1,3.9c-1.9,1.1-4,2.2-6.3,3.4c-2.3,1.2-4.6,2-7,2.5
				c-1.9,0.4-3.4,0.3-4.4-0.2c-1-0.5-1.5-1.3-1.4-2.4c0-1.4,0.5-2.9,1.5-4.4c1-1.5,2-3,3.2-4.4c2.7-3.1,5.8-6.1,9.3-9.2
				c1.7-1.5,3.4-2.9,5.2-4.3c1.8-1.4,3.6-2.8,5.6-4.2c0.8-0.6,1.6-1.1,2.4-1.6c0.8-0.5,1.7-1,2.6-1.5c0.4-0.2,0.8-0.4,1.3-0.4
				c0.5,0,0.9,0,1.2,0.1c0.3,0.1,0.6,0.2,0.7,0.5c0.2,0.2,0.2,0.5,0.1,0.8c-0.2,0.5-0.6,1.1-1.2,1.7c-0.6,0.6-1.1,1.1-1.5,1.6
				c-0.8,0.8-1.6,1.6-2.4,2.3c-0.8,0.7-1.6,1.5-2.4,2.3c-1.4,1.3-2.8,2.6-4.3,4c-1.4,1.4-2.9,2.7-4.3,4c-1.2,1.1-2.3,2.1-3.4,3.2
				c-1.1,1.1-2.2,2.2-3.2,3.2c-0.5,0.5-1.1,1.1-1.7,1.6c-0.6,0.5-1.2,1.1-1.7,1.6c-0.5,0.5-1,1.1-1.5,1.7c-0.4,0.6-0.8,1.1-1,1.6
				c-0.2,0.6,0,0.9,0.7,0.9c0.7,0,1.5-0.1,2.5-0.3c1-0.2,1.9-0.5,2.9-0.9c1-0.4,1.6-0.6,2-0.8c2.1-1.1,4.2-2.2,6.3-3.5
				c2-1.3,4-2.6,5.9-3.9c1.9-1.3,3.8-2.6,5.6-3.9c1.8-1.3,3.6-2.7,5.4-4.1c1.5-1.5,3.1-3,4.8-4.5c1.6-1.5,3.3-2.9,5.1-4.3
				c0.4-0.3,0.9-0.8,1.7-1.5c0.8-0.7,1.6-1.4,2.6-2c0.9-0.6,1.8-1.1,2.7-1.3c0.9-0.3,1.5-0.1,2,0.5c0.2,0.2,0.2,0.5,0.1,0.8
				c-0.1,0.3-0.3,0.6-0.5,0.9c-0.2,0.3-0.5,0.6-0.8,1c-0.3,0.3-0.6,0.6-0.8,0.9c-0.7,0.8-1.4,1.5-2,2.3c-0.6,0.7-1.3,1.5-2.1,2.3
				l-8.2,9c-0.9,1.1-1.9,2.1-2.9,3.2l-2.9,3.2l-2.8,3.3l-1.2,1.6c-0.4,0.6-0.6,1.1-0.5,1.5c0,0.3,0.2,0.5,0.6,0.6
				c0.4,0.1,0.9,0.1,1.4,0.1c0.5-0.1,1.1-0.2,1.7-0.3c0.6-0.1,1-0.3,1.4-0.4c1.5-0.6,3.1-1.4,4.6-2.2c1.5-0.8,2.9-1.6,4.2-2.4
				c1.6-0.9,3.1-1.9,4.6-2.9c1.4-1,2.9-2,4.3-3c0.7-0.4,1.4-0.9,2-1.4c0.7-0.5,1.3-1,2-1.5c0.2-0.2,0.5-0.3,0.8-0.3
				c0.3,0,0.5,0,0.7,0.1c0.2,0.1,0.3,0.2,0.3,0.4C236.5,78.7,236.4,78.9,236.2,79z"/>
			<path class="st0" d="M258.3,59.5c-0.5,0.5-0.9,1-1,1.6c-0.1,0.6-0.2,1.1-0.1,1.7c0.1,0.6,0.2,1.1,0.3,1.6c0.1,0.5,0.3,1,0.3,1.4
				c0.2,0.9,0.4,1.7,0.5,2.5c0.2,0.8,0.3,1.7,0.5,2.5c0.2,1.2,0.3,2.5,0.2,3.8c0,1.3-0.2,2.7-0.6,4c-0.4,1.4-0.9,2.8-1.7,4.1
				c-0.8,1.4-1.9,2.7-3.2,4.1c-1.3,1.3-2.9,2.5-4.7,3.7c-1.8,1.2-3.9,2-6,2.6c-1,0.2-2,0.4-2.9,0.5c-1,0.1-1.9,0.1-2.9,0.1
				c-0.9,0-1.8-0.2-2.6-0.4c-0.8-0.2-1.4-0.5-2-0.9c-0.7-0.4-1.2-1-1.4-1.6c-0.2-0.6-0.2-1.3-0.1-2c0.2-0.7,0.5-1.5,1-2.2
				c0.5-0.7,1.1-1.5,1.8-2.2c1.4-1.4,3.1-2.7,5.2-3.9c2.1-1.2,4.4-2,6.7-2.5c1.6-0.4,3.1-0.5,4.7-0.5c0-1-0.1-2-0.2-2.9
				c-0.1-1-0.2-2-0.2-3c0-1,0-2,0.1-3.1c0.1-1,0.3-2.1,0.6-3.1l-0.5,0.4l-9.7,8.9c-0.6,0.6-1.1,1.1-1.7,1.6c-0.6,0.5-1.2,1-1.7,1.6
				c-0.3,0.2-0.6,0.6-1,0.9c-0.4,0.4-0.8,0.6-1.3,0.6c-0.4,0-0.6-0.1-0.6-0.2c0-0.1,0-0.3,0.2-0.5c0.2-0.2,0.4-0.4,0.6-0.6
				c0.2-0.2,0.4-0.4,0.5-0.5c0.6-0.6,1.2-1.1,1.8-1.7c0.6-0.5,1.2-1.1,1.9-1.7l10-9.2l3.2-2.9c0.4-0.5,0.8-1,1.3-1.5
				c0.5-0.5,1.2-0.9,1.9-1.3c0.6-0.3,1.2-0.6,1.9-0.8c0.5-0.1,0.9-0.1,1.1,0.1C258.6,58.9,258.6,59.2,258.3,59.5z M238.7,81.9
				c-0.9,0.6-1.8,1.2-2.7,1.9c-0.8,0.7-1.6,1.4-2.2,2.2c-0.6,0.8-1,1.5-1.3,2.3c-0.3,0.7-0.3,1.4-0.1,2.1c0.2,0.4,0.5,0.8,0.9,1.1
				c0.5,0.3,1,0.5,1.7,0.6c0.6,0.1,1.4,0.2,2.1,0.2c0.8,0,1.6-0.1,2.4-0.2c1.1-0.2,2.1-0.5,3-1c0.9-0.5,1.7-1,2.4-1.6
				c0.7-0.6,1.3-1.2,1.9-1.9c0.5-0.7,1-1.3,1.4-2c0.6-1.2,1.2-2.3,1.5-3.5c0.4-1.1,0.6-2.2,0.7-3.3c-1.9-0.1-3.9,0.2-6,0.7
				C242.5,80,240.5,80.8,238.7,81.9z"/>
			<path class="st0" d="M254.9,92.6c0.6-1.1,1.3-2.3,2.1-3.4c0.8-1.1,1.7-2.2,2.7-3.3c1.1-1.4,2.2-2.7,3.3-4.1
				c1.1-1.4,2.2-2.7,3.4-4.1c0.9-1.1,1.8-2.1,2.7-3.1c1-1,1.9-2,2.9-3.1c2.9-3.2,5.8-6.3,8.9-9.4c3.1-3.1,6.2-6.3,9.5-9.4
				c1.7-1.6,3.3-3.2,5-4.7c1.7-1.6,3.4-3.1,5.2-4.7c1.7-1.4,3.4-2.8,5.1-4.2c1.7-1.4,3.6-2.7,5.7-4c0.8-0.5,1.7-1,2.7-1.6
				c1-0.6,2.1-1.1,3.2-1.6c1.1-0.5,2.2-0.9,3.3-1.2c1.1-0.3,2.2-0.5,3.2-0.5c1,0,1.7,0.2,2,0.5c0.3,0.3,0.4,0.7,0.3,1.2
				c-0.1,0.5-0.4,1-0.8,1.6c-0.4,0.6-0.8,1.1-1.2,1.5c-1.4,1.5-2.9,3-4.6,4.4c-1.7,1.4-3.3,2.8-5,4.3c-1.9,1.5-3.7,3-5.6,4.5
				c-1.9,1.5-3.8,2.9-5.7,4.4c-2.8,2.1-5.6,4.2-8.3,6.2c-2.8,2-5.5,4.1-8.3,6.2l-8.1,8.6c-0.8,0.9-1.5,1.7-2.3,2.6
				c-0.8,0.9-1.6,1.7-2.4,2.6c3.3-2.4,6.7-4.8,10.2-7.1c2-1.3,4-2.6,6-3.8c2-1.2,4.2-2.4,6.5-3.4c0.7-0.3,1.4-0.7,2.3-1
				c0.8-0.4,1.7-0.7,2.5-1c0.8-0.3,1.7-0.5,2.6-0.7c0.8-0.2,1.6-0.2,2.4-0.1c1.1,0.1,1.7,0.5,1.9,1.1c0.2,0.6,0.2,1.2,0,2
				c-0.2,0.7-0.6,1.5-1.1,2.3c-0.5,0.8-1,1.4-1.4,2c-1.2,1.5-2.5,3.1-4.1,4.6c-1.6,1.5-3.2,3-4.8,4.4c-1.6,1.5-3.2,2.9-4.9,4.3
				c-1.7,1.4-3.3,2.9-4.9,4.4c-0.7,0.6-1.4,1.2-2.1,1.9c-0.7,0.6-1.2,1.3-1.6,2c-0.2,0.3-0.3,0.6-0.2,0.8c0.1,0.2,0.3,0.4,0.6,0.5
				c0.3,0.1,0.7,0.2,1.1,0.2c0.4,0,0.8,0,1.3-0.1c2.3-0.3,4.6-1.1,6.8-2.2c2.2-1.2,4.2-2.3,6-3.5c0.9-0.6,1.9-1.2,2.8-1.9
				c0.9-0.6,1.8-1.3,2.7-1.9l2.2-1.8c0.4-0.3,0.9-0.7,1.2-1c0.4-0.4,0.8-0.7,1.2-1c0.4-0.2,0.7-0.3,1.1-0.3c0.3,0,0.6,0.1,0.6,0.3
				c0.1,0.2,0,0.4-0.1,0.5c-0.2,0.1-0.4,0.3-0.6,0.5c-0.4,0.4-0.9,0.7-1.3,1.1c-0.5,0.3-1,0.7-1.5,1.1c-1.7,1.3-3.6,2.6-5.4,3.8
				c-1.9,1.3-3.8,2.5-5.9,3.6c-2,1.1-4.1,2.1-6.3,3.1c-2.2,1-4.5,1.5-6.8,1.7c-1.2,0.1-2.2,0-2.9-0.4c-0.7-0.3-1.2-0.7-1.4-1.3
				c-0.3-0.5-0.3-1.1-0.2-1.8c0.1-0.7,0.3-1.3,0.7-2c0.7-1.5,1.7-3,3-4.4c1.3-1.5,2.7-2.9,4.1-4.3c1.2-1.3,2.4-2.5,3.8-3.7
				c1.4-1.2,2.8-2.4,4.1-3.6l4.1-3.5c0.9-0.8,1.9-1.6,3-2.5c1.1-0.9,2-1.7,2.6-2.6c0.1-0.2,0-0.3-0.5-0.3c-0.4,0-1,0.1-1.6,0.2
				c-0.6,0.1-1.2,0.2-1.8,0.4c-0.6,0.1-0.9,0.2-1,0.2c-1.5,0.6-3,1.2-4.4,2c-1.4,0.8-2.8,1.6-4.2,2.3c-3,1.9-6,3.8-8.8,5.8
				c-2.8,2-5.6,4-8.4,6.1c-1.3,1-2.6,2-3.9,3.1c-1.3,1-2.6,2.1-3.9,3.1l-0.1,0.1l-0.9,0.7c-0.3,0.2-0.6,0.5-0.9,0.8
				c-0.3,0.3-0.6,0.5-0.9,0.7l-0.4,0.4c-0.4,0.4-0.9,0.7-1.4,1.1c-0.5,0.4-1,0.7-1.6,1.1c-0.4,0.2-0.7,0.4-1.1,0.7
				c-0.4,0.2-0.8,0.5-1.2,0.7c-0.2,0.1-0.4,0.2-0.7,0.3c-0.3,0.1-0.5,0.1-0.7,0.1c-0.2,0-0.4,0-0.5-0.1
				C254.9,93,254.8,92.9,254.9,92.6z M301.3,52.9c1.9-1.5,3.9-3,5.7-4.5c1.9-1.5,3.7-3,5.6-4.5c1.7-1.5,3.4-2.9,5.1-4.4
				c1.7-1.5,3.1-3,4.4-4.5c0.1-0.2,0.3-0.4,0.6-0.7c0.3-0.3,0.5-0.7,0.7-1c0.2-0.3,0.3-0.6,0.4-0.9c0.1-0.3-0.1-0.4-0.5-0.5
				c-0.2,0-0.4,0-0.7,0.1c-0.2,0.1-0.5,0.2-0.8,0.3c-0.3,0.1-0.5,0.3-0.8,0.4l-0.5,0.4c-1.8,1.2-3.4,2.5-4.8,3.8
				c-1.4,1.4-2.9,2.7-4.4,3.9c-3.9,3.4-7.7,6.9-11.3,10.4c-3.6,3.5-7.1,7-10.6,10.5c2-1.5,4-2.9,6-4.4
				C297.4,55.9,299.3,54.4,301.3,52.9z"/>
		</g>
		<path class="st0" d="M171.1,1.4c0,1.6-0.7,3.4-2.2,5.3l1,1l-1.1,3.2c-0.7-0.5-1.4-1-2.1-1.7c-3.4,3.1-5.9,4.7-7.7,4.7
			c-0.3,0-0.9-0.1-1.8-0.4c2.6-1.3,5.4-3,8.3-5.1c-0.9-0.8-1.3-1.6-1.3-2.2c0-1.1,0.6-2.4,1.8-4c1.2-1.5,2.4-2.3,3.5-2.3
			C170.5,0,171.1,0.5,171.1,1.4z M168.5,4.3c0-1-0.4-1.5-1.3-1.5L166.7,3c-0.2,0.3-0.4,0.6-0.4,1c0,0.4,0.5,1.1,1.6,1.9
			C168.3,5.2,168.5,4.7,168.5,4.3z"/>
		<path class="st0" d="M68.6,10.5c-0.5,1.5-1.1,2.4-1.9,2.8l-11.4,5.6c0.3-1.3,1.4-2.4,3.1-3.3L68.6,10.5z"/>
	</g>
	<path class="st0" d="M239.3,51.8h5.6l-2.8-2.8L239.3,51.8z M237,51.8l4-4l-10.9-10.4L237,51.8z M243.4,47.7l4,4l6.8-14.4
		L243.4,47.7z M237.7,42.1l4.4,4.1l4.3-4.1l-4.3-5.3L237.7,42.1z"/>
</g>
</svg>
