<?xml version="1.0" encoding="utf-8"?>
<!-- Generator: Adobe Illustrator 16.0.0, SVG Export Plug-In . SVG Version: 6.00 Build 0)  -->
<!DOCTYPE svg PUBLIC "-//W3C//DTD SVG 1.1//EN" "http://www.w3.org/Graphics/SVG/1.1/DTD/svg11.dtd">
<svg version="1.1" id="Layer_1" xmlns="http://www.w3.org/2000/svg" xmlns:xlink="http://www.w3.org/1999/xlink" x="0px" y="0px"
	 width="11.049px" height="9.775px" viewBox="291.939 415.918 11.049 9.775" enable-background="new 291.939 415.918 11.049 9.775"
	 xml:space="preserve">
<path fill="#D27037" d="M297.461,425.693c-0.144,0-0.285-0.061-0.389-0.162l-4.2-4.202c-0.603-0.603-0.934-1.398-0.934-2.241
	c-0.002-0.846,0.327-1.643,0.93-2.243c0.597-0.598,1.392-0.927,2.236-0.927c0.849,0,1.646,0.33,2.246,0.931l0.116,0.116l0.112-0.111
	c0.6-0.6,1.396-0.931,2.242-0.931c0.848,0,1.644,0.33,2.24,0.929c0.602,0.601,0.929,1.397,0.926,2.244
	c0,0.847-0.329,1.644-0.931,2.242l-4.209,4.195C297.75,425.632,297.607,425.693,297.461,425.693 M297.426,425.175l0.071,0.002
	l4.209-4.192c0.504-0.504,0.782-1.176,0.782-1.89c0.004-0.714-0.273-1.385-0.778-1.89c-0.503-0.504-1.173-0.782-1.887-0.782
	c-0.715,0-1.386,0.279-1.892,0.785l-0.467,0.465l-0.467-0.471c-0.507-0.506-1.182-0.784-1.895-0.784
	c-0.712,0-1.382,0.277-1.885,0.78c-0.506,0.506-0.783,1.177-0.781,1.889c0,0.711,0.279,1.381,0.785,1.889L297.426,425.175
	L297.426,425.175z M297.461,425.068l-4.165-4.164c-0.485-0.485-0.753-1.13-0.753-1.816c0-0.688,0.267-1.333,0.752-1.813
	c0.483-0.484,1.127-0.751,1.811-0.751c0.688,0,1.333,0.268,1.818,0.754l0.506,0.505h0.073l0.501-0.501
	c0.487-0.486,1.131-0.753,1.816-0.753c0.684,0,1.327,0.266,1.813,0.75c0.485,0.484,0.751,1.13,0.751,1.816
	c0.002,0.686-0.264,1.33-0.751,1.816L297.461,425.068z M295.105,417.023c-0.55,0-1.065,0.215-1.457,0.604
	c-0.391,0.387-0.604,0.906-0.604,1.46c0,0.552,0.216,1.072,0.606,1.463l3.812,3.812l3.819-3.806
	c0.392-0.391,0.605-0.909,0.604-1.461c0-0.554-0.215-1.073-0.604-1.464c-0.781-0.78-2.142-0.778-2.924,0.002l-0.5,0.501
	c-0.207,0.209-0.57,0.211-0.78,0l-0.506-0.505C296.179,417.239,295.66,417.023,295.105,417.023"/>
</svg>
