<?xml version="1.0" encoding="utf-8"?>
<!-- Generator: Adobe Illustrator 21.0.0, SVG Export Plug-In . SVG Version: 6.00 Build 0)  -->
<svg version="1.1" id="Layer_1" xmlns="http://www.w3.org/2000/svg" xmlns:xlink="http://www.w3.org/1999/xlink" x="0px" y="0px"
	 viewBox="0 0 14.5 12.7" style="enable-background:new 0 0 14.5 12.7;" xml:space="preserve">
<style type="text/css">
	.st0{fill:#D27037;}
</style>
<path class="st0" d="M13.3,1.2C12.5,0.4,11.5,0,10.5,0C9.4,0,8.4,0.4,7.6,1.2L7.2,1.6L6.8,1.2C6.1,0.4,5.1,0,4,0
	C2.9,0,1.9,0.4,1.2,1.2C0.4,1.9,0,2.9,0,4c0,1.1,0.4,2.1,1.2,2.8l5.8,5.8c0.1,0.1,0.2,0.1,0.3,0.1c0.1,0,0.2,0,0.3-0.1l5.8-5.8
	c0.8-0.8,1.2-1.8,1.2-2.8C14.5,2.9,14.1,1.9,13.3,1.2L13.3,1.2z M12.7,6.3l-5.5,5.5L1.8,6.3C1.2,5.7,0.8,4.9,0.8,4s0.3-1.6,0.9-2.2
	C2.4,1.2,3.2,0.8,4,0.8c0.9,0,1.7,0.3,2.3,0.9l0.7,0.7c0.2,0.2,0.4,0.2,0.6,0l0.7-0.7c0.6-0.6,1.4-0.9,2.2-0.9
	c0.8,0,1.6,0.3,2.2,0.9c0.6,0.6,0.9,1.4,0.9,2.2C13.6,4.9,13.3,5.7,12.7,6.3L12.7,6.3z M12.7,6.3"/>
</svg>
