<?xml version="1.0" encoding="utf-8"?>
<!-- Generator: Adobe Illustrator 21.0.0, SVG Export Plug-In . SVG Version: 6.00 Build 0)  -->
<svg version="1.1" id="Layer_1" xmlns="http://www.w3.org/2000/svg" xmlns:xlink="http://www.w3.org/1999/xlink" x="0px" y="0px"
	 viewBox="0 0 21.6 18.9" style="enable-background:new 0 0 21.6 18.9;" xml:space="preserve">
<style type="text/css">
	.st0{fill:#FFFFFF;}
</style>
<path class="st0" d="M19.8,1.8C18.7,0.6,17.2,0,15.6,0c-1.6,0-3.1,0.6-4.2,1.8l-0.6,0.6l-0.6-0.6C9.1,0.6,7.6,0,6,0
	C4.4,0,2.9,0.6,1.7,1.7C0.6,2.9,0,4.4,0,6c0,1.6,0.6,3.1,1.8,4.2l8.6,8.6c0.1,0.1,0.3,0.2,0.4,0.2c0.2,0,0.3-0.1,0.4-0.2l8.6-8.6
	c1.1-1.1,1.8-2.6,1.8-4.2C21.6,4.4,20.9,2.9,19.8,1.8L19.8,1.8z M18.9,9.3l-8.2,8.1L2.6,9.3C1.7,8.4,1.2,7.2,1.2,6s0.5-2.5,1.4-3.3
	C3.5,1.7,4.7,1.2,6,1.2c1.3,0,2.5,0.5,3.4,1.4l1,1c0.2,0.2,0.6,0.2,0.9,0l1-1c0.9-0.9,2.1-1.4,3.3-1.4c1.3,0,2.4,0.5,3.3,1.4
	c0.9,0.9,1.4,2.1,1.4,3.3C20.3,7.2,19.8,8.4,18.9,9.3L18.9,9.3z M18.9,9.3"/>
</svg>
