<?xml version="1.0" encoding="utf-8"?>
<!-- Generator: Adobe Illustrator 16.0.0, SVG Export Plug-In . SVG Version: 6.00 Build 0)  -->
<!DOCTYPE svg PUBLIC "-//W3C//DTD SVG 1.1//EN" "http://www.w3.org/Graphics/SVG/1.1/DTD/svg11.dtd">
<svg version="1.1" id="Layer_1" xmlns="http://www.w3.org/2000/svg" xmlns:xlink="http://www.w3.org/1999/xlink" x="0px" y="0px"
	 width="11.05px" height="9.774px" viewBox="0 0 11.05 9.774" enable-background="new 0 0 11.05 9.774" xml:space="preserve">
<path fill="#FFFFFF" d="M5.521,9.774c-0.143,0-0.285-0.06-0.388-0.162L0.933,5.411C0.331,4.809,0,4.013,0,3.17
	c-0.002-0.846,0.327-1.643,0.929-2.243C1.525,0.329,2.32,0,3.166,0c0.848,0,1.646,0.33,2.246,0.931l0.116,0.116l0.112-0.111
	c0.6-0.6,1.396-0.931,2.243-0.931c0.847,0,1.643,0.33,2.24,0.929c0.601,0.6,0.929,1.397,0.926,2.244c0,0.846-0.33,1.643-0.931,2.242
	L5.91,9.614C5.811,9.714,5.668,9.774,5.521,9.774 M5.486,9.257l0.071,0.002l4.209-4.193c0.504-0.504,0.783-1.175,0.783-1.889
	c0.003-0.714-0.274-1.385-0.779-1.89C9.268,0.783,8.598,0.505,7.884,0.505S6.499,0.784,5.993,1.29L5.526,1.755L5.06,1.284
	C4.553,0.778,3.879,0.5,3.166,0.5c-0.712,0-1.382,0.277-1.885,0.78C0.775,1.786,0.498,2.457,0.5,3.169
	c0,0.711,0.279,1.381,0.785,1.889L5.486,9.257L5.486,9.257z M5.521,9.15L1.356,4.986C0.871,4.501,0.604,3.856,0.604,3.17
	c0-0.689,0.267-1.333,0.752-1.814C1.84,0.872,2.482,0.605,3.166,0.605c0.688,0,1.333,0.268,1.818,0.754L5.49,1.864h0.073
	l0.501-0.501C6.552,0.877,7.195,0.61,7.882,0.61c0.683,0,1.327,0.266,1.813,0.75c0.485,0.485,0.751,1.13,0.751,1.817
	c0.002,0.685-0.264,1.33-0.751,1.816L5.521,9.15z M3.166,1.105c-0.55,0-1.066,0.215-1.457,0.605C1.318,2.097,1.104,2.616,1.104,3.17
	c0,0.552,0.216,1.072,0.607,1.463l3.811,3.811l3.82-3.805c0.391-0.391,0.605-0.91,0.604-1.461c0-0.554-0.215-1.074-0.604-1.464
	C8.56,0.934,7.2,0.935,6.418,1.716l-0.5,0.501c-0.207,0.209-0.571,0.211-0.781,0L4.632,1.712C4.239,1.321,3.721,1.105,3.166,1.105"
	/>
</svg>
