<?xml version="1.0" encoding="utf-8"?>
<!-- Generator: Adobe Illustrator 16.0.0, SVG Export Plug-In . SVG Version: 6.00 Build 0)  -->
<!DOCTYPE svg PUBLIC "-//W3C//DTD SVG 1.1//EN" "http://www.w3.org/Graphics/SVG/1.1/DTD/svg11.dtd">
<svg version="1.1" id="Layer_1" xmlns="http://www.w3.org/2000/svg" xmlns:xlink="http://www.w3.org/1999/xlink" x="0px" y="0px"
	 width="279.454px" height="62.321px" viewBox="0 0 279.454 62.321" enable-background="new 0 0 279.454 62.321"
	 xml:space="preserve">
<g>
	<g>
		<path fill="#FDFEFF" d="M70.84,45.292c0.847,0.343,1.596,0.817,2.245,1.424l-0.919,1.159c-0.52-0.52-1.124-0.928-1.813-1.225
			c-0.69-0.297-1.396-0.445-2.12-0.445c-0.99,0-1.899,0.233-2.728,0.701c-0.829,0.467-1.483,1.101-1.963,1.901
			c-0.479,0.802-0.719,1.681-0.719,2.64c0,0.953,0.24,1.831,0.719,2.635c0.479,0.805,1.136,1.439,1.968,1.907
			c0.831,0.467,1.739,0.7,2.723,0.7c0.724,0,1.427-0.14,2.11-0.418s1.291-0.671,1.823-1.178l0.938,1.048
			c-0.675,0.631-1.441,1.131-2.301,1.499c-0.86,0.368-1.741,0.552-2.645,0.552c-1.256,0-2.407-0.3-3.456-0.9
			c-1.049-0.6-1.881-1.416-2.496-2.449c-0.615-1.032-0.923-2.164-0.923-3.396c0-1.219,0.311-2.336,0.933-3.354
			c0.621-1.018,1.461-1.825,2.519-2.422s2.218-0.896,3.479-0.896C69.117,44.776,69.992,44.948,70.84,45.292z"/>
		<path fill="#FDFEFF" d="M88.845,45.671c1.063,0.597,1.906,1.405,2.528,2.426c0.621,1.021,0.932,2.144,0.932,3.368
			c0,1.231-0.311,2.36-0.932,3.387c-0.622,1.026-1.465,1.84-2.528,2.439c-1.064,0.601-2.227,0.9-3.489,0.9
			c-1.28,0-2.452-0.3-3.516-0.9c-1.064-0.6-1.907-1.413-2.528-2.439c-0.622-1.026-0.933-2.155-0.933-3.387
			c0-1.23,0.311-2.357,0.933-3.382c0.621-1.023,1.464-1.831,2.528-2.421c1.063-0.591,2.235-0.887,3.516-0.887
			C86.618,44.776,87.78,45.075,88.845,45.671z M82.646,46.928c-0.829,0.471-1.49,1.104-1.985,1.902s-0.742,1.676-0.742,2.635
			c0,0.965,0.247,1.85,0.742,2.653c0.495,0.805,1.156,1.439,1.985,1.907c0.829,0.467,1.732,0.7,2.709,0.7
			c0.978,0,1.876-0.233,2.695-0.7c0.819-0.468,1.474-1.103,1.963-1.907c0.488-0.804,0.732-1.688,0.732-2.653
			s-0.244-1.845-0.732-2.64c-0.489-0.795-1.145-1.427-1.967-1.897c-0.823-0.47-1.72-0.705-2.691-0.705
			C84.379,46.223,83.476,46.458,82.646,46.928z"/>
		<path fill="#FDFEFF" d="M106.236,56.67v1.447h-7.357V44.813h1.521V56.67H106.236z"/>
		<path fill="#FDFEFF" d="M119.853,56.67v1.447h-7.357V44.813h1.521V56.67H119.853z"/>
		<path fill="#FDFEFF" d="M127.633,46.279v4.37h6.708v1.466h-6.708v4.556h7.756v1.447h-9.277V44.813h9.027v1.466H127.633z"/>
		<path fill="#FDFEFF" d="M150.583,45.292c0.847,0.343,1.596,0.817,2.245,1.424l-0.919,1.159c-0.52-0.52-1.124-0.928-1.813-1.225
			c-0.69-0.297-1.396-0.445-2.12-0.445c-0.99,0-1.899,0.233-2.728,0.701c-0.829,0.467-1.483,1.101-1.963,1.901
			c-0.479,0.802-0.719,1.681-0.719,2.64c0,0.953,0.24,1.831,0.719,2.635c0.479,0.805,1.136,1.439,1.968,1.907
			c0.831,0.467,1.739,0.7,2.723,0.7c0.724,0,1.427-0.14,2.11-0.418s1.291-0.671,1.823-1.178l0.938,1.048
			c-0.675,0.631-1.441,1.131-2.301,1.499c-0.86,0.368-1.741,0.552-2.645,0.552c-1.256,0-2.407-0.3-3.456-0.9
			c-1.049-0.6-1.881-1.416-2.496-2.449c-0.615-1.032-0.923-2.164-0.923-3.396c0-1.219,0.311-2.336,0.933-3.354
			c0.621-1.018,1.461-1.825,2.519-2.422s2.218-0.896,3.479-0.896C148.86,44.776,149.735,44.948,150.583,45.292z"/>
		<path fill="#FDFEFF" d="M163.42,46.279v11.839h-1.521V46.279h-4.323v-1.466h10.196v1.466H163.42z"/>
		<path fill="#FDFEFF" d="M173.771,58.118V44.813h1.521v13.305H173.771z"/>
		<path fill="#FDFEFF" d="M192.331,45.671c1.063,0.597,1.906,1.405,2.528,2.426c0.621,1.021,0.932,2.144,0.932,3.368
			c0,1.231-0.311,2.36-0.932,3.387c-0.622,1.026-1.465,1.84-2.528,2.439c-1.064,0.601-2.227,0.9-3.489,0.9
			c-1.28,0-2.452-0.3-3.516-0.9c-1.064-0.6-1.907-1.413-2.528-2.439c-0.622-1.026-0.933-2.155-0.933-3.387
			c0-1.23,0.311-2.357,0.933-3.382c0.621-1.023,1.464-1.831,2.528-2.421c1.063-0.591,2.235-0.887,3.516-0.887
			C190.104,44.776,191.267,45.075,192.331,45.671z M186.133,46.928c-0.829,0.471-1.49,1.104-1.985,1.902s-0.742,1.676-0.742,2.635
			c0,0.965,0.247,1.85,0.742,2.653c0.495,0.805,1.156,1.439,1.985,1.907c0.829,0.467,1.732,0.7,2.709,0.7
			c0.978,0,1.876-0.233,2.695-0.7c0.819-0.468,1.474-1.103,1.963-1.907c0.488-0.804,0.732-1.688,0.732-2.653
			s-0.244-1.845-0.732-2.64c-0.489-0.795-1.145-1.427-1.967-1.897c-0.823-0.47-1.72-0.705-2.691-0.705
			C187.865,46.223,186.962,46.458,186.133,46.928z"/>
		<path fill="#FDFEFF" d="M211.866,58.118l-7.979-10.679v10.679h-1.521V44.813h1.577l7.979,10.697V44.813h1.503v13.305H211.866z"/>
	</g>
	<g>
		<g>
			<path fill="#FFFFFF" d="M45.294,22.61h1.191c-0.193,3.672-1.997,5.508-5.411,5.508c-1.46,0-2.614-0.386-3.462-1.16
				c-0.849-0.772-1.401-1.92-1.659-3.446c-2.147,1.526-4.106,2.674-5.878,3.446c-1.771,0.774-3.354,1.16-4.75,1.16
				c-1.783,0-3.317-0.515-4.606-1.545c-1.288-1.031-1.933-2.395-1.933-4.091c0-2.21,1.079-4.143,3.237-5.798
				c2.158-1.651,5.138-3.262,8.938-4.831l4.992-2.029V8.535c0-1.824-0.118-3.146-0.354-3.961c-0.236-0.816-0.848-1.545-1.835-2.19
				c-0.988-0.645-2.287-0.966-3.897-0.966c-3.221,0-5.014,1.074-5.379,3.222c-0.344,2.189-1.245,3.285-2.705,3.285
				c-1.311,0-1.965-0.623-1.965-1.869c0-1.224,0.869-2.539,2.608-3.945S26.871,0,30.542,0c2.728,0,4.842,0.43,6.346,1.29
				c1.502,0.858,2.496,1.835,2.979,2.93c0.483,1.095,0.726,2.77,0.726,5.025v10.66c0,2.491,0.128,4.09,0.386,4.8
				c0.258,0.708,0.816,1.062,1.675,1.062C44.069,25.766,44.95,24.715,45.294,22.61z M35.953,11.338l-3.511,1.417
				c-5.539,2.254-8.31,5.089-8.31,8.503c0,1.352,0.354,2.442,1.063,3.268c0.708,0.827,1.631,1.24,2.77,1.24
				c1.009,0,2.179-0.333,3.511-0.998c1.331-0.666,2.823-1.664,4.477-2.996V11.338z"/>
			<path fill="#FFFFFF" d="M74.635,6.732c0.73-1.911,1.917-3.511,3.56-4.8C79.837,0.645,81.441,0,83.009,0
				c1.418,0,2.534,0.44,3.35,1.321c0.816,0.88,1.225,1.783,1.225,2.705c0,0.623-0.21,1.159-0.628,1.61
				c-0.419,0.451-0.93,0.677-1.53,0.677c-1.074,0-1.89-0.794-2.448-2.383c-0.386-1.074-0.966-1.61-1.738-1.61
				c-0.924,0-2.029,0.627-3.317,1.883c-1.289,1.257-2.115,2.561-2.48,3.914c-0.365,1.353-0.548,3.21-0.548,5.571v4.702
				c0,2.814,0.037,4.585,0.113,5.315c0.075,0.73,0.381,1.288,0.918,1.674c0.536,0.386,1.492,0.58,2.866,0.58h0.901v1.481h-14.01
				V25.96h0.676c1.289,0,2.207-0.178,2.754-0.531c0.548-0.354,0.875-0.853,0.982-1.499c0.107-0.644,0.161-2.49,0.161-5.54v-7.438
				c0-2.834-0.038-4.612-0.112-5.331c-0.076-0.719-0.382-1.277-0.918-1.675c-0.537-0.396-1.493-0.596-2.867-0.596h-0.676V1.9
				c2.018-0.235,4.659-0.869,7.923-1.9C74.228,1.697,74.571,3.94,74.635,6.732z"/>
			<path fill="#FFFFFF" d="M115.828,6.732c0.73-1.911,1.917-3.511,3.56-4.8C121.03,0.645,122.635,0,124.202,0
				c1.418,0,2.534,0.44,3.35,1.321c0.816,0.88,1.225,1.783,1.225,2.705c0,0.623-0.21,1.159-0.628,1.61
				c-0.419,0.451-0.93,0.677-1.53,0.677c-1.074,0-1.89-0.794-2.448-2.383c-0.386-1.074-0.966-1.61-1.738-1.61
				c-0.924,0-2.029,0.627-3.317,1.883c-1.289,1.257-2.115,2.561-2.48,3.914c-0.365,1.353-0.548,3.21-0.548,5.571v4.702
				c0,2.814,0.037,4.585,0.113,5.315c0.075,0.73,0.381,1.288,0.918,1.674c0.536,0.386,1.492,0.58,2.866,0.58h0.901v1.481h-14.01
				V25.96h0.676c1.289,0,2.207-0.178,2.754-0.531c0.548-0.354,0.875-0.853,0.982-1.499c0.107-0.644,0.161-2.49,0.161-5.54v-7.438
				c0-2.834-0.038-4.612-0.112-5.331c-0.076-0.719-0.382-1.277-0.918-1.675c-0.537-0.396-1.493-0.596-2.867-0.596h-0.676V1.9
				c2.018-0.235,4.659-0.869,7.923-1.9C115.421,1.697,115.765,3.94,115.828,6.732z"/>
			<path fill="#FFFFFF" d="M146.588,14.205c0-4.038,1.353-7.414,4.058-10.13C153.352,1.358,156.679,0,160.63,0
				c3.973,0,7.312,1.365,10.017,4.091c2.706,2.727,4.059,6.099,4.059,10.114c0,4.444-1.375,7.939-4.123,10.483
				c-2.748,2.544-6.065,3.816-9.952,3.816s-7.198-1.293-9.936-3.881C147.956,22.037,146.588,18.564,146.588,14.205z M151.934,14.365
				c0,4.681,0.763,7.961,2.287,9.839c1.524,1.88,3.66,2.818,6.409,2.818c2.813,0,4.965-0.938,6.458-2.818
				c1.492-1.878,2.238-5.158,2.238-9.839c0-4.637-0.741-7.944-2.223-9.92c-1.481-1.975-3.64-2.964-6.474-2.964
				c-2.813,0-4.966,0.982-6.457,2.947C152.68,6.394,151.934,9.706,151.934,14.365z"/>
			<path fill="#FFFFFF" d="M224.627,28.472h-1.449l-7.858-20.934l-8.021,20.934h-1.417L197.83,7.538
				c-0.924-2.384-1.61-3.813-2.062-4.284c-0.45-0.472-1.353-0.708-2.705-0.708V1.064h12.046v1.481c-1.353,0-2.276,0.124-2.771,0.37
				c-0.494,0.247-0.74,0.672-0.74,1.273c0,0.429,0.419,1.686,1.256,3.769l5.347,14.139l8.181-21.031h1.256l7.924,21.031
				l5.797-14.977c0.623-1.589,0.935-2.544,0.935-2.866c0-1.051-1.085-1.621-3.253-1.707V1.064h8.566v1.481
				c-1.03,0.021-1.841,0.22-2.432,0.595c-0.591,0.376-1.133,1.22-1.626,2.529l-0.709,1.868L224.627,28.472z"/>
		</g>
		<rect y="17.043" fill="#FFFFFF" width="20.106" height="1.837"/>
		<rect x="227.695" y="17.043" fill="#FFFFFF" width="49.661" height="1.837"/>
		<polygon fill="#FFFFFF" points="264.355,6.445 276.476,20.494 279.454,18.422 266.102,0.737 		"/>
		<polygon fill="#FFFFFF" points="263.998,30.148 276.118,16.099 279.097,18.171 265.744,35.855 		"/>
	</g>
</g>
</svg>
