<svg xmlns="http://www.w3.org/2000/svg">
<defs>
<font id="MitreSquare" horiz-adv-x="0" >
  <font-face 
    font-family="MitreSquare"
    font-weight="400"
    font-stretch="normal"
    units-per-em="2048"
    panose-1="2 0 0 0 0 0 0 0 0 0"
    ascent="1638"
    descent="-410"
    x-height="575.997"
    cap-height="2285"
    bbox="-1099 -1404 4607 2828"
    underline-thickness="20"
    underline-position="-266"
    unicode-range="U+0020-U+25CA"
  />
<missing-glyph horiz-adv-x="4980" 
d="M1595 2214c16.667 40 30.334 81.667 41.001 125c-33.333 -10.667 -69.333 -31.667 -108 -63c23.333 -26 45.666 -46.667 66.999 -62zM1515 2301c34 28.667 76.668 51.667 128.001 69c10 34.667 13.833 74.167 11.5 118.5s-11.333 75.666 -27 94
c-15.667 18.333 -33.667 26.833 -54 25.5s-37.833 -9.83301 -52.5 -25.5s-26.334 -40.5 -35.001 -74.5s-11 -69.667 -7 -107s16 -70.666 36 -100zM1584 2189c-36 24 -61.667 47.333 -77 70c-24.667 -19.333 -50 -47.833 -76 -85.5s-41.667 -70.834 -47 -99.5
c-5.33301 -28.667 -5 -50.5 1 -65.5s15.5 -22.167 28.5 -21.5s26.333 5.16699 40 13.5s32 24.833 55 49.5s48.167 71 75.5 139zM1620 2199l66.999 -44c26 -16.667 57.833 -29.834 95.5 -39.5c37.667 -9.66699 78.834 -11.167 123.501 -4.5c25.333 20 51 38.333 77 55
c-1.33301 46 -9.33301 82.833 -24 110.5s-36.167 49.167 -64.5 64.5s-60 24.333 -95 27s-77.5 -3 -127.5 -17c-14 -44.667 -31.333 -95.334 -52 -152zM1975 2121c-38.667 -24.667 -62.833 -44.668 -72.5 -60.001s-14.667 -27.166 -15 -35.499s8 -11 25 -8
s32.833 15.333 47.5 37s19.667 43.834 15 66.5zM2652 2185c1.33301 38.667 6.83398 75 16.501 109s17 66.5 22 97.5s7.33301 53.667 7 68s-2 25.5 -5 33.5s-9.16699 11.667 -18.5 11s-19.166 -19.667 -29.5 -57c-10.333 -37.333 -19.333 -79.333 -27 -126
s-13.334 -75.5 -17.001 -86.5s-7.16699 -20.5 -10.5 -28.5l10 -2c11.333 6.66699 19.5 9 24.5 7s8.83301 -5.33301 11.5 -10s8 -10 16 -16zM1678 2379c38 10.667 70.1709 16.5029 96.5039 17.5029s52.666 -1 78.999 -6s52.666 -15 78.999 -30s47.5 -35.167 63.5 -60.5

<glyph glyph-name=".notdef" unicode="&#x2126;" horiz-adv-x="4980" 
d="M1595 2214c16.667 40 30.334 81.667 41.001 125c-33.333 -10.667 -69.333 -31.667 -108 -63c23.333 -26 45.666 -46.667 66.999 -62zM1515 2301c34 28.667 76.668 51.667 128.001 69c10 34.667 13.833 74.167 11.5 118.5s-11.333 75.666 -27 94
c-15.667 18.333 -33.667 26.833 -54 25.5s-37.833 -9.83301 -52.5 -25.5s-26.334 -40.5 -35.001 -74.5s-11 -69.667 -7 -107s16 -70.666 36 -100zM1584 2189c-36 24 -61.667 47.333 -77 70c-24.667 -19.333 -50 -47.833 -76 -85.5s-41.667 -70.834 -47 -99.5
c-5.33301 -28.667 -5 -50.5 1 -65.5s15.5 -22.167 28.5 -21.5s26.333 5.16699 40 13.5s32 24.833 55 49.5s48.167 71 75.5 139zM1620 2199l66.999 -44c26 -16.667 57.833 -29.834 95.5 -39.5c37.667 -9.66699 78.834 -11.167 123.501 -4.5c25.333 20 51 38.333 77 55
c-1.33301 46 -9.33301 82.833 -24 110.5s-36.167 49.167 -64.5 64.5s-60 24.333 -95 27s-77.5 -3 -127.5 -17c-14 -44.667 -31.333 -95.334 -52 -152zM1975 2121c-38.667 -24.667 -62.833 -44.668 -72.5 -60.001s-14.667 -27.166 -15 -35.499s8 -11 25 -8
s32.833 15.333 47.5 37s19.667 43.834 15 66.5zM2652 2185c1.33301 38.667 6.83398 75 16.501 109s17 66.5 22 97.5s7.33301 53.667 7 68s-2 25.5 -5 33.5s-9.16699 11.667 -18.5 11s-19.166 -19.667 -29.5 -57c-10.333 -37.333 -19.333 -79.333 -27 -126
s-13.334 -75.5 -17.001 -86.5s-7.16699 -20.5 -10.5 -28.5l10 -2c11.333 6.66699 19.5 9 24.5 7s8.83301 -5.33301 11.5 -10s8 -10 16 -16zM1678 2379c38 10.667 70.1709 16.5029 96.5039 17.5029s52.666 -1 78.999 -6s52.666 -15 78.999 -30s47.5 -35.167 63.5 -60.5
s27 -63.333 33 -114c38 18 68 28.5 90 31.5s41.167 2.16699 57.5 -2.5s28.166 -14.334 35.5 -29c7.33301 -14.667 11.166 -32.167 11.5 -52.5c0.333008 -20.333 -0.333984 -38.666 -2 -54.999c-1.66699 -16.333 -1.83398 -28 -0.5 -35c1.33301 -7 7 -10.5 17 -10.5
s23.5 4.5 40.5 13.5s33.167 21.667 48.5 38s25.166 28 29.5 35c4.33301 7 12.5 11 24.5 12s20.667 -0.833008 26 -5.5c-1.33301 -21.333 -4.16602 -37.5 -8.5 -48.5c-4.33301 -11 -5 -20.5 -2 -28.5s11.833 -11.667 26.5 -11s31.334 8.33398 50 23.001
c18.667 14.667 38.334 37 59 67c20.667 30 32.334 52 35 66c2.66699 14 8.16699 44.833 16.5 92.5l21 117c5.66699 30.333 13 55.666 22 76c9 20.333 18 35.5 27 45.5s21.333 17.167 37 21.5s28.334 0.5 38 -11.5c9.66699 -12 15 -25.833 16 -41.5s-3 -44.334 -12 -86
c-9 -41.667 -21.5 -87.834 -37.5 -138.5c-16 -50.667 -24.667 -85 -26 -103s-8 -32.5 -20 -43.5s-17.667 -23 -17 -36s12.667 -19.833 36 -20.5s48 4.5 74 15.5s48.5 25.833 67.5 44.5s34 36.167 45 52.5s18.333 28.166 22 35.5c3.66699 7.33301 12.167 12 25.5 14
s23.5 -1.83301 30.5 -11.5s11.333 -22 13 -37s-2 -29.667 -11 -44s-14.667 -30.833 -17 -49.5s-1.16602 -30.834 3.5 -36.501c4.66699 -5.66699 18.5 -6.33398 41.5 -2.00098s46.833 11.333 71.5 21s43 19.5 55 29.5c-8.66699 22.667 -9.33398 42.5 -2 59.5
c7.33301 17 17 30.333 29 40s25.667 16.5 41 20.5s28.5 5 39.5 3s18.167 -8.16699 21.5 -18.5s1.66602 -21 -5 -32c-6.66699 -11 -15.334 -20.167 -26 -27.5c-10.667 -7.33301 -22.334 -16 -35 -26c10.667 -15.333 26.334 -26.5 47 -33.5c20.667 -7 46.334 -6.33301 77 2
c30.667 8.33301 49.334 19.833 56 34.5c6.66699 14.667 4.83398 29.667 -5.5 45c-10.333 15.333 -20.5 25.166 -30.5 29.5c-10 4.33301 -15 8.83301 -15 13.5l4 9c18 -4 34.167 -13 48.5 -27s23.333 -30 27 -48s0.833984 -34.167 -8.5 -48.5
c-9.33301 -14.333 -27.166 -26.5 -53.5 -36.5c-26.333 -10 -53.5 -15.167 -81.5 -15.5s-52.5 3 -73.5 10s-35.833 16.833 -44.5 29.5c-34.667 -20.667 -69.334 -36.334 -104 -47.001c-34.667 -10.667 -61.334 -15.334 -80 -14.001c-18.667 1.33301 -31.167 6.33301 -37.5 15
s-8.33301 23.5 -6 44.5s5.33301 39.167 9 54.5s4.5 27.166 2.5 35.5c-2 8.33301 -5.66699 8.83301 -11 1.5s-15.833 -20.333 -31.5 -39s-38 -37 -67 -55s-57 -28.5 -84 -31.5s-49.5 -2.5 -67.5 1.5s-32.333 13.5 -43 28.5s-17 31.833 -19 50.5c-12 -20 -26.5 -39 -43.5 -57
s-33.5 -31.833 -49.5 -41.5s-33.833 -15.167 -53.5 -16.5s-36 2 -49 10s-18.5 18.167 -16.5 30.5s0.333008 18.5 -5 18.5c-28 -26 -49.667 -43.333 -65 -52s-31.333 -13.5 -48 -14.5s-31.167 1.83301 -43.5 8.5s-18.5 22 -18.5 46s0.333008 46.333 1 67s-1.33301 36 -6 46
s-13 15.833 -25 17.5s-29.833 -0.666016 -53.5 -7c-23.667 -6.33301 -38.334 -13 -44.001 -20s-11 -22.833 -16 -47.5s-14 -47.5 -27 -68.5s-29.333 -37.333 -49 -49s-37.167 -17.5 -52.5 -17.5s-26.5 5.83301 -33.5 17.5s-9 25.167 -6 40.5s12.167 34.333 27.5 57
c-46.667 -7.33301 -94.834 -2.83301 -144.501 13.5s-92.834 38.166 -129.501 65.499c-28 -62 -55 -108.833 -81 -140.5s-50.833 -53.5 -74.5 -65.5s-44.5 -16 -62.5 -12s-31 11.833 -39 23.5s-12 29.834 -12 54.501c0 22 4.5 44.833 13.5 68.5s20.5 46.334 34.5 68
c14 21.667 30.5 41.834 49.5 60.5l52.5 52c-18 28.667 -30.833 59.667 -38.5 93s-9.5 66.166 -5.5 98.499s11.5 60.833 22.5 85.5s25.667 44.667 44 60s37.5 23 57.5 23c24 0 44.833 -6.33301 62.5 -19s30.834 -30.5 39.501 -53.5s14 -52 16 -87s-1.66699 -69.5 -11 -103.5z
M3142.01 2132c14 9.33301 25.333 17.333 34 24s13.834 14.167 15.5 22.5c1.66699 8.33301 0 14.166 -5 17.5c-5 3.33301 -12.5 3.33301 -22.5 0s-18 -10 -24 -20s-5.33301 -24.667 2 -44zM2465.01 2448c16 -2 28.667 -6.83301 38 -14.5s16.166 -15.5 20.5 -23.5
c4.33301 -8 3 -12.833 -4 -14.5s-14.167 -3 -21.5 -4s-13.666 1.83301 -19 8.5c-5.33301 6.66699 -10.833 8.33398 -16.5 5c-5.66699 -3.33301 -13.167 -4.5 -22.5 -3.5s-13.833 5.5 -13.5 13.5s4.16602 15.333 11.5 22c7.33301 6.66699 16.333 10.334 27 11zM3838.01 1885
c-5.33301 -8.66699 -11.333 -20.001 -18 -34.001s-8.83398 -34.333 -6.5 -61c2.33301 -26.667 6.33301 -53.834 12 -81.501s14 -52.167 25 -73.5s20.167 -34.166 27.5 -38.499s13.333 -1.66602 18 8.00098s10.5 26.667 17.5 51l22.5 79.5zM3843.01 1356
c16 -27.333 26.833 -43.333 32.5 -48s13 -6.5 22 -5.5s9.33301 8.16699 1 21.5s-26.833 24 -55.5 32zM3856.01 484.001c9.33301 -18.667 18 -33.667 26 -45s14.333 -15 19 -11s5.33398 11 2 21c-3.33301 10 -9.16602 18 -17.5 24c-8.33301 6 -18.166 9.66699 -29.5 11z
M3900.01 -130.999c18 -23.333 30.667 -35.166 38 -35.499s12.333 2.5 15 8.5s-1 12.167 -11 18.5s-24 9.16602 -42 8.49902zM3738.01 1641c-4.66699 29.333 -7 51.8311 -7 67.498s1.83301 33.334 5.5 53.001s9.66699 36.5 18 50.5l23 38.5c7 11.667 12 24.5 15 38.5
s3.83301 28.667 2.5 44s-3.66602 29 -7 41l-116.5 154c-37.667 49.333 -78.667 97.666 -123 145c-44.333 47.333 -82.166 82.833 -113.5 106.5c-31.333 23.667 -57.833 38.5 -79.5 44.5s-42.834 8.66699 -63.5 8l4 13c9.33301 2.66699 19.666 4 31 4
c8 0 19.5 -1.16699 34.5 -3.5s33.167 -9.16602 54.5 -20.5c21.333 -11.333 47.5 -31.666 78.5 -61c31 -29.333 68.5 -69.5 112.5 -120.5s79.667 -96.333 107 -136l84 -121.5c24.667 -4 37.667 -9.16699 39 -15.5s2.5 -15.833 3.5 -28.5s6.83301 -27.167 17.5 -43.5
l39.5 -61.5l49.5 -75c14 52.667 31.333 93.834 52 123.501s41.167 48.5 61.5 56.5s39.333 11.167 57 9.5c17.666 -1.66699 39.833 -11.834 66.5 -30.501c26.666 -18.667 53.333 -43.667 80 -75c26.666 -31.333 48.666 -63.333 66 -96s27.667 -55.667 31 -69
c3.33398 -13.333 1.66699 -21.333 -5 -24c-6.66602 -2.66699 -11.833 2.16602 -15.5 14.499c-3.66602 12.333 -12.666 32.333 -27 60s-36.834 57.834 -67.5 90.501s-60.833 54.667 -90.5 66c-29.666 11.333 -55.666 11.833 -78 1.5c-22.333 -10.333 -42 -31.166 -59 -62.499
s-31.5 -67.333 -43.5 -108c56.667 -80.667 103.167 -140.167 139.5 -178.5c36.334 -38.333 74.667 -71.666 115 -99.999c40.334 -28.333 70 -44.166 89 -47.499s34 1 45 13s18.166 28.167 21.5 48.5s4.33398 40.5 3 60.5s-4.33398 37.333 -9 52s-5.33301 23 -2 25
c3.33398 2 7.83398 -2.83301 13.5 -14.5s9.83301 -25 12.5 -40c2.66602 -15 4 -31.833 4 -50.5c0 -32.667 -3 -58.167 -9 -76.5s-16.166 -31.666 -30.5 -39.999s-34.834 -9.5 -61.5 -3.5s-58.5 23.5 -95.5 52.5s-75.666 66.167 -116 111.5
c-40.333 45.333 -83.166 99.666 -128.5 162.999c-11.333 -44 -21 -78 -29 -102s-17 -38.833 -27 -44.5s-20.667 -4.5 -32 3.5s-24 26.5 -38 55.5s-24.167 57.333 -30.5 85s-10.833 62.5 -13.5 104.5c-8 -8.66699 -15.5 -18.834 -22.5 -30.501s-12.833 -26.834 -17.5 -45.501
s-6.33398 -45 -5 -79h-13zM3770.01 1481c-11.333 17.333 -19.333 37.8311 -24 61.498s-6 47.834 -4 72.501l8 5c4 -26.667 6.5 -48.167 7.5 -64.5s6.83301 -39.166 17.5 -68.499zM3913.01 1031c-14.667 30.667 -32.167 55.5 -52.5 74.5s-43.833 37.167 -70.5 54.5
s-64.834 34.333 -114.5 51c-49.667 16.667 -98.667 31.334 -147 44.001s-103.333 30.834 -165 54.501s-104.834 44.5 -129.5 62.5c-24.667 18 -39.167 32.167 -43.5 42.5s-6.83301 20.833 -7.5 31.5c4.66699 9.33301 9.5 15.5 14.5 18.5s11.833 3.33301 20.5 1
s15.334 -4.83301 20 -7.5c4.66699 -2.66699 19.834 -8.33398 45.5 -17.001l87.5 -30c32.667 -11.333 72.667 -24.333 120 -39l161.5 -49.5c60.333 -18.333 98.666 -30.5 115 -36.5c16.333 -6 26.666 -8.5 31 -7.5c4.33301 1 3.66602 7 -2 18
c-5.66699 11 -10.334 24.167 -14 39.5c-3.66699 15.333 -3.83398 28.833 -0.5 40.5c3.33301 11.667 10.333 21.5 21 29.5c-9.33301 14 -18.666 33.333 -28 58l6 6c14 -24.667 25.667 -44.334 35 -59.001c28 0.666992 50.667 -6.5 68 -21.5s30.666 -32.667 40 -53
c9.33301 -20.333 14.333 -37 15 -50s-2.5 -21.5 -9.5 -25.5s-14.833 -4.66699 -23.5 -2s-19 11 -31 25s-22.5 29.833 -31.5 47.5s-16.333 26.5 -22 26.5s-9.66699 -4.83301 -12 -14.5s-1.5 -19.667 2.5 -30s9 -21.5 15 -33.5s8.83301 -21.833 8.5 -29.5
s-5.33301 -11.5 -15 -11.5s-27.167 4.33301 -52.5 13l-90 31.5c-34.667 12.333 -81.5 26.833 -140.5 43.5s-114.833 34.167 -167.5 52.5s-88.834 31.5 -108.5 39.5c-19.667 8 -30.167 10.167 -31.5 6.5s0.666992 -9.33398 6 -17.001s18.833 -17.167 40.5 -28.5
s44.834 -21.333 69.5 -30c24.667 -8.66699 51.167 -18.667 79.5 -30s68.333 -23.666 120 -36.999s95.334 -27 131 -41c35.667 -14 68.5 -29.667 98.5 -47s57.333 -38.5 82 -63.5s41.334 -45.5 50 -61.5c8.66699 -16 13 -28.333 13 -37zM3785.01 620.997
c-6 11.333 -9.83301 29.1699 -11.5 53.5029s-0.833984 43.666 2.5 57.999c3.33301 14.333 11.5 26.666 24.5 36.999s35.5 14.166 67.5 11.499c-5.33301 13.333 -13.5 30 -24.5 50s-24.167 40 -39.5 60s-30.333 37 -45 51c5.33301 11.333 11.833 17.333 19.5 18
s18.167 -1.33301 31.5 -6s31.166 -8.66699 53.5 -12c22.333 -3.33301 38.833 -2.66602 49.5 2.00098s16 13.5 16 26.5s-3.33301 27.167 -10 42.5l8 5c13.333 -19.333 21.166 -38 23.5 -56c2.33301 -18 1 -32.333 -4 -43s-13.167 -18.167 -24.5 -22.5s-23.333 -6 -36 -5
s-26.334 4 -41 9c-14.667 5 -23 5.83301 -25 2.5c27.333 -36.667 48.666 -69 64 -97c15.333 -28 24.333 -49.833 27 -65.5s0.833984 -25.334 -5.5 -29.001c-6.33301 -3.66699 -13.5 -3.33398 -21.5 0.999023s-21.833 6 -41.5 5s-33.334 -6.33301 -41 -16
c-7.66699 -9.66699 -11.667 -22.167 -12 -37.5s0.5 -28.666 2.5 -39.999zM3799.01 611.001c5.33301 -14.667 9.83301 -26.1787 13.5 -34.5117s8.83398 -18.5 15.5 -30.5c14 0 28 -2.83301 42 -8.5s26.333 -16.667 37 -33s18 -32.666 22 -48.999s4.16699 -29.833 0.5 -40.5
s-10.5 -16 -20.5 -16s-17 -1.66699 -21 -5c6.66699 -6 11.834 -11.5 15.5 -16.5c3.66699 -5 4.16699 -13.833 1.5 -26.5c-12 2.66699 -24.167 3.83398 -36.5 3.50098s-25.166 -3.83301 -38.5 -10.5c-13.333 -6.66699 -20.666 -18.167 -22 -34.5
c-1.33301 -16.333 0.166992 -31.166 4.5 -44.499s11.666 -26.666 22 -39.999c10.333 -13.333 21.666 -24.833 34 -34.5l36.5 -28c12 -9 22.333 -20.167 31 -33.5s14.667 -24.666 18 -33.999s2.33301 -18.333 -3 -27s-16.666 -11.5 -34 -8.5l-46 8
c-13.333 2.33301 -26.833 3.16602 -40.5 2.49902s-22 -6.5 -25 -17.5s-3.5 -22.833 -1.5 -35.5s6.83301 -27.334 14.5 -44.001s19.834 -32.667 36.5 -48c18.667 6.66699 39.334 6.33398 62 -0.999023c22.667 -7.33301 38.5 -17.666 47.5 -30.999s14.833 -27.833 17.5 -43.5
s2.5 -26.334 -0.5 -32.001s-8.66699 -9.66699 -17 -12s-19.5 0.5 -33.5 8.5s-25.667 18.5 -35 31.5s-16.666 19.333 -22 19c-5.33301 -0.333008 -11.166 -2.16602 -17.5 -5.49902c-6.33301 -3.33301 -13.166 -11.666 -20.5 -24.999
c-7.33301 -13.333 -9.66602 -38.833 -7 -76.5c2.66699 -37.667 5.5 -70.667 8.5 -99s7.66699 -57.666 14 -87.999s12.166 -70.666 17.5 -120.999c5.33301 -50.333 10.333 -88.833 15 -115.5s6.83398 -50.667 6.5 -72c-0.333008 -21.333 -3.5 -41.5 -9.5 -60.5
s-14.333 -36.167 -25 -51.5s-18.834 -31.166 -24.5 -47.499c-5.66699 -16.333 -8.5 -26.166 -8.5 -29.499s-2 -7.66602 -6 -12.999c-8.66699 0.666992 -12 10.167 -10 28.5s8 35.5 18 51.5s18.167 33.5 24.5 52.5s10.333 37.167 12 54.5s0 44.833 -5 82.5
s-9.33301 78.167 -13 121.5s-9.66699 91.166 -18 143.499s-14.833 99.833 -19.5 142.5s-5.16699 78 -1.5 106s15.834 52.667 36.5 74c-20 22.667 -34.833 46.834 -44.5 72.501s-14 50.167 -13 73.5s6.16699 38.5 15.5 45.5s21 12 35 15s29.333 4.83301 46 5.5
s24.167 2.83398 22.5 6.50098s-9 10.167 -22 19.5s-29.5 25.5 -49.5 48.5s-33 46.333 -39 70s-8 46 -6 67s13.667 40.5 35 58.5c-20 10 -33 24.333 -39 43s-6.66699 37.5 -2 56.5s16.334 32.833 35 41.5c-14.667 27.333 -24 50 -28 68zM3842.01 482.989
c-18.667 -0.666992 -29.667 -7.00098 -33 -19.001s-2.33301 -22.833 3 -32.5s12.5 -15.667 21.5 -18s19 -2.83301 30 -1.5s16.167 2.83301 15.5 4.5s-4 7.33398 -10 17.001s-15 26.167 -27 49.5zM3255.01 -720.012c-16.667 -40.667 -30.334 -82.667 -41 -126
c33.333 10.667 69.666 32 109 64c-24 25.333 -46.667 46 -68 62zM3335.01 -808.012c-34 -28 -76.333 -50.667 -127 -68c-10.667 -35.333 -14.334 -76.333 -11 -123c3.33301 -46.667 13.166 -78.167 29.5 -94.5c16.333 -16.333 34 -23.5 53 -21.5s35.667 10.667 50 26
s26.166 39.333 35.5 72c9.33301 32.667 11.666 68.5 7 107.5c-4.66699 39 -17 72.833 -37 101.5zM3266.01 -696.012c36 -23.333 62 -46.667 78 -70c24 20 49.167 48.667 75.5 86s42 70.5 47 99.5s4.5 50.833 -1.5 65.5s-15.333 21.667 -28 21s-25.834 -5.16699 -39.5 -13.5
c-13.667 -8.33301 -32 -24.833 -55 -49.5s-48.5 -71 -76.5 -139zM2868.01 -673.013c1.33301 -46 9.16602 -82.668 23.5 -110.001c14.333 -27.333 35.666 -48.666 64 -63.999c28.333 -15.333 60.166 -24.5 95.5 -27.5c35.333 -3 77.666 2.5 127 16.5
c14 45.333 31.333 96 52 152l-67 44c-26 16.667 -57.833 29.834 -95.5 39.501s-78.834 11.5 -123.5 5.5c-25.333 -20.667 -50.666 -39.334 -76 -56.001zM2875.01 -628.014c39.333 24.667 63.666 44.6689 73 60.002c9.33301 15.333 14.166 27.166 14.5 35.499
c0.333008 8.33301 -8 11 -25 8s-32.833 -15.333 -47.5 -37s-19.667 -43.834 -15 -66.501zM2198.01 -692.012c-0.666992 -38.667 -6 -74.833 -16 -108.5s-17.5 -66 -22.5 -97s-7.33301 -53.667 -7 -68s2.16602 -25.5 5.5 -33.5c3.33301 -8 9.5 -11.667 18.5 -11
s18.667 19.5 29 56.5s19.333 78.833 27 125.5s13.334 75.5 17 86.5c3.66699 11 7.5 20.5 11.5 28.5l-11 2c-11.333 -6 -19.5 -8.16699 -24.5 -6.5s-8.66699 5 -11 10s-7.83301 10.167 -16.5 15.5zM3360.01 -788.011c17.333 -29.333 29.9941 -60.6699 37.9941 -94.0029
s10 -66.166 6 -98.499s-11.667 -60.833 -23 -85.5s-27.333 -44.667 -48 -60s-40.667 -23 -60 -23c-21.333 0 -42 8.16699 -62 24.5s-34.5 46.833 -43.5 91.5s-7.5 94 4.5 148c-38 -11.333 -70.167 -17.333 -96.5 -18s-52.666 1.5 -79 6.5c-26.333 5 -52.666 14.833 -79 29.5
c-26.333 14.667 -47.5 34.667 -63.5 60s-27 63.333 -33 114c-38 -18 -68 -28.333 -90 -31s-41 -1.83398 -57 2.49902s-27.833 13.833 -35.5 28.5s-11.667 32.167 -12 52.5s0.5 38.666 2.5 54.999s2.16699 28 0.5 35s-7.33398 10.5 -17 10.5c-9.66699 0 -23 -4.33301 -40 -13
s-33.333 -21.334 -49 -38.001s-25.667 -28.5 -30 -35.5s-12.5 -11 -24.5 -12s-20.667 1.16699 -26 6.5c1.33301 21.333 4.33301 37.333 9 48s5.5 20 2.5 28s-12 11.667 -27 11s-31.833 -8.33398 -50.5 -23.001s-38.334 -37 -59 -67c-20.667 -30 -32.167 -52 -34.5 -66
s-7.83301 -44.833 -16.5 -92.5l-21.5 -116.5c-5.66699 -30 -12.834 -55.333 -21.5 -76c-8.66699 -20.667 -17.667 -36 -27 -46s-21.833 -17.167 -37.5 -21.5s-28.167 -0.333008 -37.5 12s-14.5 26.166 -15.5 41.499s2.83301 44 11.5 86s21 88.167 37 138.5
s24.667 84.666 26 102.999s8 32.833 20 43.5s17.833 22.5 17.5 35.5s-12.333 20 -36 21s-48.5 -4.16699 -74.5 -15.5s-48.5 -26.333 -67.5 -45s-34 -36.167 -45 -52.5s-18.333 -28.166 -22 -35.499s-12.167 -11.833 -25.5 -13.5s-23.333 2.16602 -30 11.499
s-10.834 21.5 -12.501 36.5s1.83301 29.833 10.5 44.5s14.334 31.334 17.001 50.001s1.66699 30.834 -3 36.501s-18.667 6.33398 -42 2.00098s-47.166 -11.5 -71.499 -21.5s-42.833 -19.667 -55.5 -29c8.66699 -22.667 9.33398 -42.667 2.00098 -60s-17 -30.166 -29 -38.499
s-24.833 -14.666 -38.5 -18.999s-26.667 -6 -39 -5s-20.166 6.83301 -23.499 17.5s-1.66602 21.334 5.00098 32.001s14.834 20.5 24.501 29.5s21.5 16.833 35.5 23.5c-10 16 -25.5 27.333 -46.5 34s-46.833 6 -77.5 -2s-49.167 -18.5 -55.5 -31.5s-4.33301 -27.5 6 -43.5
s19.833 -27.333 28.5 -34s13.334 -12.334 14.001 -17.001l-5 -9c-12 8 -26.333 20.333 -43 37s-26.5 32.167 -29.5 46.5s0.166992 28.666 9.5 42.999s27 26.5 53 36.5s53 15.333 81 16s52.5 -2.66602 73.5 -9.99902s36.167 -17.333 45.5 -30
c34.667 20.667 69.334 36.334 104.001 47.001s61.167 15.334 79.5 14.001s30.666 -6.16602 36.999 -14.499s8.5 -23 6.5 -44s-5 -39.333 -9 -55s-4.83301 -27.5 -2.5 -35.5s6 -8.5 11 -1.5s15.5 19.833 31.5 38.5s38.333 37 67 55s56.5 28.667 83.5 32
s49.5 2.83301 67.5 -1.5s32.5 -14 43.5 -29s17.167 -31.5 18.5 -49.5c12.667 19.333 27.5 38 44.5 56s33.333 31.833 49 41.5s33.5 15.334 53.5 17.001s36.333 -1.66602 49 -9.99902s18 -18.666 16 -30.999s-0.333008 -18.5 5 -18.5c28.667 26.667 50.667 44.167 66 52.5
s31.166 13 47.5 14c16.333 1 30.833 -1.83301 43.5 -8.5s19 -21.834 19 -45.501s-0.333008 -46 -1 -67s1.16602 -36.5 5.5 -46.5c4.33301 -10 12.5 -15.833 24.5 -17.5s30 0.666016 54 6.99902s38.833 13 44.5 20s11 23 16 48s13.833 48 26.5 69s28.834 37.167 48.5 48.5
c19.667 11.333 37.334 17 53 17c15.667 0 26.834 -5.66699 33.5 -17c6.66699 -11.333 8.66699 -24.666 6 -39.999s-12 -34.333 -28 -57c46.667 6.66699 95 1.83398 145 -14.499s93 -37.833 129 -64.5c28 62 55.167 108.667 81.5 140s51.166 53 74.5 65
c23.333 12 44 16 62 12s31.167 -11.833 39.5 -23.5s12.5 -29.834 12.5 -54.501c0 -22 -4.5 -44.833 -13.5 -68.5s-20.667 -46.334 -35 -68.001s-31 -41.834 -50 -60.501zM1709 -639.015c-16 -6 -28 -13.1689 -36 -21.502s-12.833 -16.666 -14.5 -24.999s0 -14.166 5 -17.499
s12.667 -3.33301 23 0s18.5 10 24.5 20s5.33301 24.667 -2 44zM2385 -955.017c-16 2 -28.667 6.83398 -38 14.501s-16.166 15.5 -20.5 23.5c-4.33301 8 -2.83301 12.833 4.5 14.5s14.5 3.16699 21.5 4.5s13.167 -1.5 18.5 -8.5s11 -8.66699 17 -5s13.5 5 22.5 4
s13.333 -5.66699 13 -14s-4 -15.833 -11 -22.5s-16.167 -10.334 -27.5 -11.001zM1012 -392.016c5.33301 8.66699 11.333 20.166 18 34.499s9 34.833 7 61.5s-6 53.834 -12 81.501s-14.5 52.167 -25.5 73.5s-20 34 -27 38s-12.833 1.33301 -17.5 -8s-10.5 -26.333 -17.5 -51
l-23.5 -80zM1007 136.983c-16 27.333 -26.6689 43.5 -32.002 48.5s-12.666 6.83301 -21.999 5.5s-9.66602 -8.5 -0.999023 -21.5s27 -23.833 55 -32.5zM994.998 1009.98c-10 19.333 -18.998 34.333 -26.998 45s-14.333 14 -19 10s-5.33398 -10.833 -2.00098 -20.5
s9.16602 -17.667 17.499 -24s18.5 -9.83301 30.5 -10.5zM950 1623.98c-18 24 -30.667 36 -38 36s-12.333 -3 -15 -9s1 -12 11 -18s24 -9 42 -9zM1112 -148.017c5.33301 -29.333 7.8252 -51.834 7.49219 -67.501s-2.33301 -33.334 -6 -53.001s-9.66699 -36.5 -18 -50.5
l-23 -38.5c-7 -11.667 -12 -24.334 -15 -38.001s-3.83301 -28.334 -2.5 -44.001s3.66602 -29.5 6.99902 -41.5l117 -153.5c37.333 -49.667 78.333 -98.167 123 -145.5s82.667 -83.166 114 -107.499s58.333 -39.166 81 -44.499s43.334 -7.66602 62.001 -6.99902l-5 -12
c-10 -3.33301 -21 -5 -33 -5c-7.33301 0 -18.333 1.16699 -33 3.5s-32.5 9.33301 -53.5 21s-47.167 32 -78.5 61s-69 69 -113 120s-79.667 96.333 -107 136l-84 121.5c-24 4 -36.833 9.16699 -38.5 15.5s-3 16 -4 29s-6.83301 27.5 -17.5 43.5l-39.5 61l-49.5 76
c-14 -53.333 -31.333 -94.833 -52 -124.5s-41.167 -48.5 -61.5 -56.5s-39.166 -11 -56.499 -9s-39.333 12.167 -66 30.5s-53.5 43.166 -80.5 74.499s-49.167 63.333 -66.5 96s-27.666 55.667 -30.999 69s-1.66602 21.5 5.00098 24.5s11.834 -1.83301 15.501 -14.5
s12.667 -32.667 27 -60s36.833 -57.5 67.5 -90.5s60.834 -55.167 90.501 -66.5s55.667 -11.833 78 -1.5s42 31.166 59 62.499s31.5 67.333 43.5 108c-56 80.667 -102.333 140.334 -139 179.001s-75 72.167 -115 100.5s-69.667 44 -89 47s-34.5 -1.5 -45.5 -13.5
s-18.167 -28.167 -21.5 -48.5s-4.33301 -40.333 -3 -60s4.5 -37 9.5 -52s5.83301 -23.333 2.5 -25s-7.83301 3.16602 -13.5 14.499s-10 24.5 -13 39.5s-4.5 31.833 -4.5 50.5c0 32.667 3 58.167 9 76.5s16.167 31.833 30.5 40.5s35 9.83398 62 3.50098s59 -23.833 96 -52.5
s75.667 -65.667 116 -111s82.833 -100 127.5 -164c11.333 44.667 21 78.834 29 102.501s17 38.334 27 44.001s20.667 4.66699 32 -3s24 -26 38 -55s24.333 -57.333 31 -85s11 -62.5 13 -104.5c8.66699 8 16.334 18 23.001 30s12.334 27.167 17.001 45.5
s6.33398 44.5 5.00098 78.5h13zM1080.99 11.9824c10.667 -17.333 18.333 -37.832 23 -61.499s6 -47.834 4 -72.501l-8 -4c-4 26 -6.5 47.167 -7.5 63.5s-6.83301 39.5 -17.5 69.5zM936.991 461.983c15.333 -30 32.999 -54.4961 52.999 -73.4961s43.5 -37.333 70.5 -55
s65.167 -34.667 114.5 -51s98.166 -31 146.499 -44s103.333 -31.333 165 -55s104.834 -44.334 129.501 -62.001s39.167 -31.834 43.5 -42.501s6.83301 -21.334 7.5 -32.001c-4 -9.33301 -8.66699 -15.333 -14 -18s-12.333 -3 -21 -1s-15.334 4.33301 -20.001 7
s-19.834 8.33398 -45.501 17.001l-87.5 30c-32.667 11.333 -72.5 24.333 -119.5 39l-161.5 49.5c-60.667 18.333 -99.167 30.5 -115.5 36.5s-26.666 8.5 -30.999 7.5s-3.66602 -7 2.00098 -18s10.334 -24.167 14.001 -39.5s3.83398 -28.833 0.500977 -40.5
s-10.333 -21.5 -21 -29.5c9.33301 -14 18.666 -33.333 27.999 -58l-5 -6l-35 59c-28 -0.666992 -50.833 6.5 -68.5 21.5s-31.167 32.667 -40.5 53s-14.333 37.166 -15 50.499s2.5 21.833 9.5 25.5s14.833 4.16699 23.5 1.5s19 -11 31 -25s22.5 -29.833 31.5 -47.5
s16.5 -26.5 22.5 -26.5s10 4.83301 12 14.5s1.16699 19.667 -2.5 30s-8.66699 21.5 -15 33.5s-9.16602 21.833 -8.49902 29.5s5.66699 11.5 15 11.5s26.833 -4.16699 52.5 -12.5s55.667 -18.666 90 -30.999s81 -26.833 140 -43.5s115 -34.334 168 -53.001
s89.167 -32 108.5 -40s29.666 -10 30.999 -6s-0.5 9.66699 -5.5 17s-18.333 16.666 -40 27.999s-45 21.333 -70 30s-51.667 18.667 -80 30s-68.333 23.666 -120 36.999s-95.167 27 -130.5 41s-68 29.833 -98 47.5s-57.5 39 -82.5 64s-41.667 45.333 -50 61
s-12.833 27.834 -13.5 36.501zM922.99 474.987c-13.333 19.333 -21.0029 37.9971 -23.0029 55.9971s-0.666992 32.333 4 43s12.834 18.167 24.501 22.5s23.834 6 36.501 5s26.167 -4 40.5 -9s22.833 -5.83301 25.5 -2.5c-28 37.333 -49.667 69.833 -65 97.5
s-24.166 49.334 -26.499 65.001s-0.5 25.5 5.5 29.5s13 3.66699 21 -1s21.833 -6.5 41.5 -5.5s33.334 6.33301 41.001 16s11.667 22.334 12 38.001s-0.5 29.167 -2.5 40.5l7 2c6 -11.333 9.83301 -29 11.5 -53s1 -43.333 -2 -58s-11 -27.167 -24 -37.5
s-35.833 -14.166 -68.5 -11.499c5.33301 -13.333 13.5 -29.833 24.5 -49.5s24.333 -39.667 40 -60s30.5 -37.5 44.5 -51.5c-4.66699 -10.667 -11 -16.5 -19 -17.5s-18.5 1 -31.5 6s-30.833 9 -53.5 12s-39.334 2.16699 -50.001 -2.5s-16 -13.5 -16 -26.5
s3.33301 -26.833 10 -41.5zM1051.99 882.984l-14.0088 34.0078c-3.33301 8 -8.66602 18 -15.999 30c-13.333 0 -27.166 2.83301 -41.499 8.5s-26.833 16.667 -37.5 33s-17.834 32.666 -21.501 48.999s-3.83398 29.833 -0.500977 40.5s10 16 20 16s17.333 1.66699 22 5
c-7.33301 6.66699 -12.833 12.5 -16.5 17.5s-3.83398 13.5 -0.500977 25.5c11.333 -2.66699 23.333 -3.66699 36 -3s25.5 4.33398 38.5 11.001s20.167 18.167 21.5 34.5s-0.166992 31.166 -4.5 44.499s-11.5 26.666 -21.5 39.999s-21.333 24.666 -34 33.999l-37 28
c-12 9.33301 -22.167 20.5 -30.5 33.5s-14.333 24.167 -18 33.5s-2.83398 18.333 2.49902 27s16.666 11.5 33.999 8.5l46 -8c13.333 -2.33301 26.833 -3 40.5 -2s22.167 6.83301 25.5 17.5s3.83301 22.5 1.5 35.5s-7.33301 27.833 -15 44.5s-19.5 32.667 -35.5 48
c-19.333 -7.33301 -40.166 -7.16602 -62.499 0.500977s-38.166 18 -47.499 31s-15.166 27.5 -17.499 43.5s-2.16602 26.833 0.500977 32.5s8.33398 9.5 17.001 11.5s19.834 -0.833008 33.501 -8.5s25.167 -18.167 34.5 -31.5s16.833 -19.833 22.5 -19.5
s11.5 2.16602 17.5 5.49902s12.667 11.666 20 24.999s9.83301 38.833 7.5 76.5s-5.16602 70.667 -8.49902 99s-8.16602 57.833 -14.499 88.5s-12.166 71.167 -17.499 121.5s-10.333 88.666 -15 115c-4.66699 26.333 -6.83398 50.166 -6.50098 71.5
c0.333008 21.333 3.5 41.5 9.5 60.5s14.333 36.167 25 51.5s18.834 31.166 24.501 47.5c5.66699 16.333 8.5 26.333 8.5 30s2.33301 7.83398 7 12.5c8 -0.666992 11 -10.167 9 -28.5s-8 -35.5 -18 -51.5s-18.167 -33.333 -24.5 -52s-10.333 -36.834 -12 -54.5
c-1.66699 -17.667 0.166016 -45.167 5.49902 -82.5s9.66602 -77.833 12.999 -121.5s9.33301 -91.667 18 -144s15.334 -99.833 20.001 -142.5s5 -78 1 -106s-16.333 -52.667 -37 -74c20 -22.667 35 -46.834 45 -72.501s14.333 -50 13 -73s-6.66602 -38.167 -15.999 -45.5
s-21 -12.5 -35 -15.5s-29.167 -4.83301 -45.5 -5.5s-23.666 -2.83398 -21.999 -6.50098s8.83398 -10 21.501 -19s29.167 -25.167 49.5 -48.5s33.5 -46.833 39.5 -70.5s7.83301 -46 5.5 -67s-14.166 -40.5 -35.499 -58.5c20 -10 33 -24.333 39 -43s6.66699 -37.334 2 -56.001
s-16 -32.334 -34 -41.001c14 -28 23 -51 27 -69zM1007.98 1009.99c19.333 2 30.499 8.66504 33.499 19.998s2 21.833 -3 31.5s-12 15.667 -21 18s-19.167 2.83301 -30.5 1.5s-16.666 -2.66602 -15.999 -3.99902s4 -6.66602 10 -15.999s15 -26.333 27 -51z" />
    <glyph glyph-name=".notdef" unicode="&#x222b;" horiz-adv-x="4980" 
d="M1595 2214c16.667 40 30.334 81.667 41.001 125c-33.333 -10.667 -69.333 -31.667 -108 -63c23.333 -26 45.666 -46.667 66.999 -62zM1515 2301c34 28.667 76.668 51.667 128.001 69c10 34.667 13.833 74.167 11.5 118.5s-11.333 75.666 -27 94
c-15.667 18.333 -33.667 26.833 -54 25.5s-37.833 -9.83301 -52.5 -25.5s-26.334 -40.5 -35.001 -74.5s-11 -69.667 -7 -107s16 -70.666 36 -100zM1584 2189c-36 24 -61.667 47.333 -77 70c-24.667 -19.333 -50 -47.833 -76 -85.5s-41.667 -70.834 -47 -99.5
c-5.33301 -28.667 -5 -50.5 1 -65.5s15.5 -22.167 28.5 -21.5s26.333 5.16699 40 13.5s32 24.833 55 49.5s48.167 71 75.5 139zM1620 2199l66.999 -44c26 -16.667 57.833 -29.834 95.5 -39.5c37.667 -9.66699 78.834 -11.167 123.501 -4.5c25.333 20 51 38.333 77 55
c-1.33301 46 -9.33301 82.833 -24 110.5s-36.167 49.167 -64.5 64.5s-60 24.333 -95 27s-77.5 -3 -127.5 -17c-14 -44.667 -31.333 -95.334 -52 -152zM1975 2121c-38.667 -24.667 -62.833 -44.668 -72.5 -60.001s-14.667 -27.166 -15 -35.499s8 -11 25 -8
s32.833 15.333 47.5 37s19.667 43.834 15 66.5zM2652 2185c1.33301 38.667 6.83398 75 16.501 109s17 66.5 22 97.5s7.33301 53.667 7 68s-2 25.5 -5 33.5s-9.16699 11.667 -18.5 11s-19.166 -19.667 -29.5 -57c-10.333 -37.333 -19.333 -79.333 -27 -126
s-13.334 -75.5 -17.001 -86.5s-7.16699 -20.5 -10.5 -28.5l10 -2c11.333 6.66699 19.5 9 24.5 7s8.83301 -5.33301 11.5 -10s8 -10 16 -16zM1678 2379c38 10.667 70.1709 16.5029 96.5039 17.5029s52.666 -1 78.999 -6s52.666 -15 78.999 -30s47.5 -35.167 63.5 -60.5
s27 -63.333 33 -114c38 18 68 28.5 90 31.5s41.167 2.16699 57.5 -2.5s28.166 -14.334 35.5 -29c7.33301 -14.667 11.166 -32.167 11.5 -52.5c0.333008 -20.333 -0.333984 -38.666 -2 -54.999c-1.66699 -16.333 -1.83398 -28 -0.5 -35c1.33301 -7 7 -10.5 17 -10.5
s23.5 4.5 40.5 13.5s33.167 21.667 48.5 38s25.166 28 29.5 35c4.33301 7 12.5 11 24.5 12s20.667 -0.833008 26 -5.5c-1.33301 -21.333 -4.16602 -37.5 -8.5 -48.5c-4.33301 -11 -5 -20.5 -2 -28.5s11.833 -11.667 26.5 -11s31.334 8.33398 50 23.001
c18.667 14.667 38.334 37 59 67c20.667 30 32.334 52 35 66c2.66699 14 8.16699 44.833 16.5 92.5l21 117c5.66699 30.333 13 55.666 22 76c9 20.333 18 35.5 27 45.5s21.333 17.167 37 21.5s28.334 0.5 38 -11.5c9.66699 -12 15 -25.833 16 -41.5s-3 -44.334 -12 -86
c-9 -41.667 -21.5 -87.834 -37.5 -138.5c-16 -50.667 -24.667 -85 -26 -103s-8 -32.5 -20 -43.5s-17.667 -23 -17 -36s12.667 -19.833 36 -20.5s48 4.5 74 15.5s48.5 25.833 67.5 44.5s34 36.167 45 52.5s18.333 28.166 22 35.5c3.66699 7.33301 12.167 12 25.5 14
s23.5 -1.83301 30.5 -11.5s11.333 -22 13 -37s-2 -29.667 -11 -44s-14.667 -30.833 -17 -49.5s-1.16602 -30.834 3.5 -36.501c4.66699 -5.66699 18.5 -6.33398 41.5 -2.00098s46.833 11.333 71.5 21s43 19.5 55 29.5c-8.66699 22.667 -9.33398 42.5 -2 59.5
c7.33301 17 17 30.333 29 40s25.667 16.5 41 20.5s28.5 5 39.5 3s18.167 -8.16699 21.5 -18.5s1.66602 -21 -5 -32c-6.66699 -11 -15.334 -20.167 -26 -27.5c-10.667 -7.33301 -22.334 -16 -35 -26c10.667 -15.333 26.334 -26.5 47 -33.5c20.667 -7 46.334 -6.33301 77 2
c30.667 8.33301 49.334 19.833 56 34.5c6.66699 14.667 4.83398 29.667 -5.5 45c-10.333 15.333 -20.5 25.166 -30.5 29.5c-10 4.33301 -15 8.83301 -15 13.5l4 9c18 -4 34.167 -13 48.5 -27s23.333 -30 27 -48s0.833984 -34.167 -8.5 -48.5
c-9.33301 -14.333 -27.166 -26.5 -53.5 -36.5c-26.333 -10 -53.5 -15.167 -81.5 -15.5s-52.5 3 -73.5 10s-35.833 16.833 -44.5 29.5c-34.667 -20.667 -69.334 -36.334 -104 -47.001c-34.667 -10.667 -61.334 -15.334 -80 -14.001c-18.667 1.33301 -31.167 6.33301 -37.5 15
s-8.33301 23.5 -6 44.5s5.33301 39.167 9 54.5s4.5 27.166 2.5 35.5c-2 8.33301 -5.66699 8.83301 -11 1.5s-15.833 -20.333 -31.5 -39s-38 -37 -67 -55s-57 -28.5 -84 -31.5s-49.5 -2.5 -67.5 1.5s-32.333 13.5 -43 28.5s-17 31.833 -19 50.5c-12 -20 -26.5 -39 -43.5 -57
s-33.5 -31.833 -49.5 -41.5s-33.833 -15.167 -53.5 -16.5s-36 2 -49 10s-18.5 18.167 -16.5 30.5s0.333008 18.5 -5 18.5c-28 -26 -49.667 -43.333 -65 -52s-31.333 -13.5 -48 -14.5s-31.167 1.83301 -43.5 8.5s-18.5 22 -18.5 46s0.333008 46.333 1 67s-1.33301 36 -6 46
s-13 15.833 -25 17.5s-29.833 -0.666016 -53.5 -7c-23.667 -6.33301 -38.334 -13 -44.001 -20s-11 -22.833 -16 -47.5s-14 -47.5 -27 -68.5s-29.333 -37.333 -49 -49s-37.167 -17.5 -52.5 -17.5s-26.5 5.83301 -33.5 17.5s-9 25.167 -6 40.5s12.167 34.333 27.5 57
c-46.667 -7.33301 -94.834 -2.83301 -144.501 13.5s-92.834 38.166 -129.501 65.499c-28 -62 -55 -108.833 -81 -140.5s-50.833 -53.5 -74.5 -65.5s-44.5 -16 -62.5 -12s-31 11.833 -39 23.5s-12 29.834 -12 54.501c0 22 4.5 44.833 13.5 68.5s20.5 46.334 34.5 68
c14 21.667 30.5 41.834 49.5 60.5l52.5 52c-18 28.667 -30.833 59.667 -38.5 93s-9.5 66.166 -5.5 98.499s11.5 60.833 22.5 85.5s25.667 44.667 44 60s37.5 23 57.5 23c24 0 44.833 -6.33301 62.5 -19s30.834 -30.5 39.501 -53.5s14 -52 16 -87s-1.66699 -69.5 -11 -103.5z
M3142.01 2132c14 9.33301 25.333 17.333 34 24s13.834 14.167 15.5 22.5c1.66699 8.33301 0 14.166 -5 17.5c-5 3.33301 -12.5 3.33301 -22.5 0s-18 -10 -24 -20s-5.33301 -24.667 2 -44zM2465.01 2448c16 -2 28.667 -6.83301 38 -14.5s16.166 -15.5 20.5 -23.5
c4.33301 -8 3 -12.833 -4 -14.5s-14.167 -3 -21.5 -4s-13.666 1.83301 -19 8.5c-5.33301 6.66699 -10.833 8.33398 -16.5 5c-5.66699 -3.33301 -13.167 -4.5 -22.5 -3.5s-13.833 5.5 -13.5 13.5s4.16602 15.333 11.5 22c7.33301 6.66699 16.333 10.334 27 11zM3838.01 1885
c-5.33301 -8.66699 -11.333 -20.001 -18 -34.001s-8.83398 -34.333 -6.5 -61c2.33301 -26.667 6.33301 -53.834 12 -81.501s14 -52.167 25 -73.5s20.167 -34.166 27.5 -38.499s13.333 -1.66602 18 8.00098s10.5 26.667 17.5 51l22.5 79.5zM3843.01 1356
c16 -27.333 26.833 -43.333 32.5 -48s13 -6.5 22 -5.5s9.33301 8.16699 1 21.5s-26.833 24 -55.5 32zM3856.01 484.001c9.33301 -18.667 18 -33.667 26 -45s14.333 -15 19 -11s5.33398 11 2 21c-3.33301 10 -9.16602 18 -17.5 24c-8.33301 6 -18.166 9.66699 -29.5 11z
M3900.01 -130.999c18 -23.333 30.667 -35.166 38 -35.499s12.333 2.5 15 8.5s-1 12.167 -11 18.5s-24 9.16602 -42 8.49902zM3738.01 1641c-4.66699 29.333 -7 51.8311 -7 67.498s1.83301 33.334 5.5 53.001s9.66699 36.5 18 50.5l23 38.5c7 11.667 12 24.5 15 38.5
s3.83301 28.667 2.5 44s-3.66602 29 -7 41l-116.5 154c-37.667 49.333 -78.667 97.666 -123 145c-44.333 47.333 -82.166 82.833 -113.5 106.5c-31.333 23.667 -57.833 38.5 -79.5 44.5s-42.834 8.66699 -63.5 8l4 13c9.33301 2.66699 19.666 4 31 4
c8 0 19.5 -1.16699 34.5 -3.5s33.167 -9.16602 54.5 -20.5c21.333 -11.333 47.5 -31.666 78.5 -61c31 -29.333 68.5 -69.5 112.5 -120.5s79.667 -96.333 107 -136l84 -121.5c24.667 -4 37.667 -9.16699 39 -15.5s2.5 -15.833 3.5 -28.5s6.83301 -27.167 17.5 -43.5
l39.5 -61.5l49.5 -75c14 52.667 31.333 93.834 52 123.501s41.167 48.5 61.5 56.5s39.333 11.167 57 9.5c17.666 -1.66699 39.833 -11.834 66.5 -30.501c26.666 -18.667 53.333 -43.667 80 -75c26.666 -31.333 48.666 -63.333 66 -96s27.667 -55.667 31 -69
c3.33398 -13.333 1.66699 -21.333 -5 -24c-6.66602 -2.66699 -11.833 2.16602 -15.5 14.499c-3.66602 12.333 -12.666 32.333 -27 60s-36.834 57.834 -67.5 90.501s-60.833 54.667 -90.5 66c-29.666 11.333 -55.666 11.833 -78 1.5c-22.333 -10.333 -42 -31.166 -59 -62.499
s-31.5 -67.333 -43.5 -108c56.667 -80.667 103.167 -140.167 139.5 -178.5c36.334 -38.333 74.667 -71.666 115 -99.999c40.334 -28.333 70 -44.166 89 -47.499s34 1 45 13s18.166 28.167 21.5 48.5s4.33398 40.5 3 60.5s-4.33398 37.333 -9 52s-5.33301 23 -2 25
c3.33398 2 7.83398 -2.83301 13.5 -14.5s9.83301 -25 12.5 -40c2.66602 -15 4 -31.833 4 -50.5c0 -32.667 -3 -58.167 -9 -76.5s-16.166 -31.666 -30.5 -39.999s-34.834 -9.5 -61.5 -3.5s-58.5 23.5 -95.5 52.5s-75.666 66.167 -116 111.5
c-40.333 45.333 -83.166 99.666 -128.5 162.999c-11.333 -44 -21 -78 -29 -102s-17 -38.833 -27 -44.5s-20.667 -4.5 -32 3.5s-24 26.5 -38 55.5s-24.167 57.333 -30.5 85s-10.833 62.5 -13.5 104.5c-8 -8.66699 -15.5 -18.834 -22.5 -30.501s-12.833 -26.834 -17.5 -45.501
s-6.33398 -45 -5 -79h-13zM3770.01 1481c-11.333 17.333 -19.333 37.8311 -24 61.498s-6 47.834 -4 72.501l8 5c4 -26.667 6.5 -48.167 7.5 -64.5s6.83301 -39.166 17.5 -68.499zM3913.01 1031c-14.667 30.667 -32.167 55.5 -52.5 74.5s-43.833 37.167 -70.5 54.5
s-64.834 34.333 -114.5 51c-49.667 16.667 -98.667 31.334 -147 44.001s-103.333 30.834 -165 54.501s-104.834 44.5 -129.5 62.5c-24.667 18 -39.167 32.167 -43.5 42.5s-6.83301 20.833 -7.5 31.5c4.66699 9.33301 9.5 15.5 14.5 18.5s11.833 3.33301 20.5 1
s15.334 -4.83301 20 -7.5c4.66699 -2.66699 19.834 -8.33398 45.5 -17.001l87.5 -30c32.667 -11.333 72.667 -24.333 120 -39l161.5 -49.5c60.333 -18.333 98.666 -30.5 115 -36.5c16.333 -6 26.666 -8.5 31 -7.5c4.33301 1 3.66602 7 -2 18
c-5.66699 11 -10.334 24.167 -14 39.5c-3.66699 15.333 -3.83398 28.833 -0.5 40.5c3.33301 11.667 10.333 21.5 21 29.5c-9.33301 14 -18.666 33.333 -28 58l6 6c14 -24.667 25.667 -44.334 35 -59.001c28 0.666992 50.667 -6.5 68 -21.5s30.666 -32.667 40 -53
c9.33301 -20.333 14.333 -37 15 -50s-2.5 -21.5 -9.5 -25.5s-14.833 -4.66699 -23.5 -2s-19 11 -31 25s-22.5 29.833 -31.5 47.5s-16.333 26.5 -22 26.5s-9.66699 -4.83301 -12 -14.5s-1.5 -19.667 2.5 -30s9 -21.5 15 -33.5s8.83301 -21.833 8.5 -29.5
s-5.33301 -11.5 -15 -11.5s-27.167 4.33301 -52.5 13l-90 31.5c-34.667 12.333 -81.5 26.833 -140.5 43.5s-114.833 34.167 -167.5 52.5s-88.834 31.5 -108.5 39.5c-19.667 8 -30.167 10.167 -31.5 6.5s0.666992 -9.33398 6 -17.001s18.833 -17.167 40.5 -28.5
s44.834 -21.333 69.5 -30c24.667 -8.66699 51.167 -18.667 79.5 -30s68.333 -23.666 120 -36.999s95.334 -27 131 -41c35.667 -14 68.5 -29.667 98.5 -47s57.333 -38.5 82 -63.5s41.334 -45.5 50 -61.5c8.66699 -16 13 -28.333 13 -37zM3785.01 620.997
c-6 11.333 -9.83301 29.1699 -11.5 53.5029s-0.833984 43.666 2.5 57.999c3.33301 14.333 11.5 26.666 24.5 36.999s35.5 14.166 67.5 11.499c-5.33301 13.333 -13.5 30 -24.5 50s-24.167 40 -39.5 60s-30.333 37 -45 51c5.33301 11.333 11.833 17.333 19.5 18
s18.167 -1.33301 31.5 -6s31.166 -8.66699 53.5 -12c22.333 -3.33301 38.833 -2.66602 49.5 2.00098s16 13.5 16 26.5s-3.33301 27.167 -10 42.5l8 5c13.333 -19.333 21.166 -38 23.5 -56c2.33301 -18 1 -32.333 -4 -43s-13.167 -18.167 -24.5 -22.5s-23.333 -6 -36 -5
s-26.334 4 -41 9c-14.667 5 -23 5.83301 -25 2.5c27.333 -36.667 48.666 -69 64 -97c15.333 -28 24.333 -49.833 27 -65.5s0.833984 -25.334 -5.5 -29.001c-6.33301 -3.66699 -13.5 -3.33398 -21.5 0.999023s-21.833 6 -41.5 5s-33.334 -6.33301 -41 -16
c-7.66699 -9.66699 -11.667 -22.167 -12 -37.5s0.5 -28.666 2.5 -39.999zM3799.01 611.001c5.33301 -14.667 9.83301 -26.1787 13.5 -34.5117s8.83398 -18.5 15.5 -30.5c14 0 28 -2.83301 42 -8.5s26.333 -16.667 37 -33s18 -32.666 22 -48.999s4.16699 -29.833 0.5 -40.5
s-10.5 -16 -20.5 -16s-17 -1.66699 -21 -5c6.66699 -6 11.834 -11.5 15.5 -16.5c3.66699 -5 4.16699 -13.833 1.5 -26.5c-12 2.66699 -24.167 3.83398 -36.5 3.50098s-25.166 -3.83301 -38.5 -10.5c-13.333 -6.66699 -20.666 -18.167 -22 -34.5
c-1.33301 -16.333 0.166992 -31.166 4.5 -44.499s11.666 -26.666 22 -39.999c10.333 -13.333 21.666 -24.833 34 -34.5l36.5 -28c12 -9 22.333 -20.167 31 -33.5s14.667 -24.666 18 -33.999s2.33301 -18.333 -3 -27s-16.666 -11.5 -34 -8.5l-46 8
c-13.333 2.33301 -26.833 3.16602 -40.5 2.49902s-22 -6.5 -25 -17.5s-3.5 -22.833 -1.5 -35.5s6.83301 -27.334 14.5 -44.001s19.834 -32.667 36.5 -48c18.667 6.66699 39.334 6.33398 62 -0.999023c22.667 -7.33301 38.5 -17.666 47.5 -30.999s14.833 -27.833 17.5 -43.5
s2.5 -26.334 -0.5 -32.001s-8.66699 -9.66699 -17 -12s-19.5 0.5 -33.5 8.5s-25.667 18.5 -35 31.5s-16.666 19.333 -22 19c-5.33301 -0.333008 -11.166 -2.16602 -17.5 -5.49902c-6.33301 -3.33301 -13.166 -11.666 -20.5 -24.999
c-7.33301 -13.333 -9.66602 -38.833 -7 -76.5c2.66699 -37.667 5.5 -70.667 8.5 -99s7.66699 -57.666 14 -87.999s12.166 -70.666 17.5 -120.999c5.33301 -50.333 10.333 -88.833 15 -115.5s6.83398 -50.667 6.5 -72c-0.333008 -21.333 -3.5 -41.5 -9.5 -60.5
s-14.333 -36.167 -25 -51.5s-18.834 -31.166 -24.5 -47.499c-5.66699 -16.333 -8.5 -26.166 -8.5 -29.499s-2 -7.66602 -6 -12.999c-8.66699 0.666992 -12 10.167 -10 28.5s8 35.5 18 51.5s18.167 33.5 24.5 52.5s10.333 37.167 12 54.5s0 44.833 -5 82.5
s-9.33301 78.167 -13 121.5s-9.66699 91.166 -18 143.499s-14.833 99.833 -19.5 142.5s-5.16699 78 -1.5 106s15.834 52.667 36.5 74c-20 22.667 -34.833 46.834 -44.5 72.501s-14 50.167 -13 73.5s6.16699 38.5 15.5 45.5s21 12 35 15s29.333 4.83301 46 5.5
s24.167 2.83398 22.5 6.50098s-9 10.167 -22 19.5s-29.5 25.5 -49.5 48.5s-33 46.333 -39 70s-8 46 -6 67s13.667 40.5 35 58.5c-20 10 -33 24.333 -39 43s-6.66699 37.5 -2 56.5s16.334 32.833 35 41.5c-14.667 27.333 -24 50 -28 68zM3842.01 482.989
c-18.667 -0.666992 -29.667 -7.00098 -33 -19.001s-2.33301 -22.833 3 -32.5s12.5 -15.667 21.5 -18s19 -2.83301 30 -1.5s16.167 2.83301 15.5 4.5s-4 7.33398 -10 17.001s-15 26.167 -27 49.5zM3255.01 -720.012c-16.667 -40.667 -30.334 -82.667 -41 -126
c33.333 10.667 69.666 32 109 64c-24 25.333 -46.667 46 -68 62zM3335.01 -808.012c-34 -28 -76.333 -50.667 -127 -68c-10.667 -35.333 -14.334 -76.333 -11 -123c3.33301 -46.667 13.166 -78.167 29.5 -94.5c16.333 -16.333 34 -23.5 53 -21.5s35.667 10.667 50 26
s26.166 39.333 35.5 72c9.33301 32.667 11.666 68.5 7 107.5c-4.66699 39 -17 72.833 -37 101.5zM3266.01 -696.012c36 -23.333 62 -46.667 78 -70c24 20 49.167 48.667 75.5 86s42 70.5 47 99.5s4.5 50.833 -1.5 65.5s-15.333 21.667 -28 21s-25.834 -5.16699 -39.5 -13.5
c-13.667 -8.33301 -32 -24.833 -55 -49.5s-48.5 -71 -76.5 -139zM2868.01 -673.013c1.33301 -46 9.16602 -82.668 23.5 -110.001c14.333 -27.333 35.666 -48.666 64 -63.999c28.333 -15.333 60.166 -24.5 95.5 -27.5c35.333 -3 77.666 2.5 127 16.5
c14 45.333 31.333 96 52 152l-67 44c-26 16.667 -57.833 29.834 -95.5 39.501s-78.834 11.5 -123.5 5.5c-25.333 -20.667 -50.666 -39.334 -76 -56.001zM2875.01 -628.014c39.333 24.667 63.666 44.6689 73 60.002c9.33301 15.333 14.166 27.166 14.5 35.499
c0.333008 8.33301 -8 11 -25 8s-32.833 -15.333 -47.5 -37s-19.667 -43.834 -15 -66.501zM2198.01 -692.012c-0.666992 -38.667 -6 -74.833 -16 -108.5s-17.5 -66 -22.5 -97s-7.33301 -53.667 -7 -68s2.16602 -25.5 5.5 -33.5c3.33301 -8 9.5 -11.667 18.5 -11
s18.667 19.5 29 56.5s19.333 78.833 27 125.5s13.334 75.5 17 86.5c3.66699 11 7.5 20.5 11.5 28.5l-11 2c-11.333 -6 -19.5 -8.16699 -24.5 -6.5s-8.66699 5 -11 10s-7.83301 10.167 -16.5 15.5zM3360.01 -788.011c17.333 -29.333 29.9941 -60.6699 37.9941 -94.0029
s10 -66.166 6 -98.499s-11.667 -60.833 -23 -85.5s-27.333 -44.667 -48 -60s-40.667 -23 -60 -23c-21.333 0 -42 8.16699 -62 24.5s-34.5 46.833 -43.5 91.5s-7.5 94 4.5 148c-38 -11.333 -70.167 -17.333 -96.5 -18s-52.666 1.5 -79 6.5c-26.333 5 -52.666 14.833 -79 29.5
c-26.333 14.667 -47.5 34.667 -63.5 60s-27 63.333 -33 114c-38 -18 -68 -28.333 -90 -31s-41 -1.83398 -57 2.49902s-27.833 13.833 -35.5 28.5s-11.667 32.167 -12 52.5s0.5 38.666 2.5 54.999s2.16699 28 0.5 35s-7.33398 10.5 -17 10.5c-9.66699 0 -23 -4.33301 -40 -13
s-33.333 -21.334 -49 -38.001s-25.667 -28.5 -30 -35.5s-12.5 -11 -24.5 -12s-20.667 1.16699 -26 6.5c1.33301 21.333 4.33301 37.333 9 48s5.5 20 2.5 28s-12 11.667 -27 11s-31.833 -8.33398 -50.5 -23.001s-38.334 -37 -59 -67c-20.667 -30 -32.167 -52 -34.5 -66
s-7.83301 -44.833 -16.5 -92.5l-21.5 -116.5c-5.66699 -30 -12.834 -55.333 -21.5 -76c-8.66699 -20.667 -17.667 -36 -27 -46s-21.833 -17.167 -37.5 -21.5s-28.167 -0.333008 -37.5 12s-14.5 26.166 -15.5 41.499s2.83301 44 11.5 86s21 88.167 37 138.5
s24.667 84.666 26 102.999s8 32.833 20 43.5s17.833 22.5 17.5 35.5s-12.333 20 -36 21s-48.5 -4.16699 -74.5 -15.5s-48.5 -26.333 -67.5 -45s-34 -36.167 -45 -52.5s-18.333 -28.166 -22 -35.499s-12.167 -11.833 -25.5 -13.5s-23.333 2.16602 -30 11.499
s-10.834 21.5 -12.501 36.5s1.83301 29.833 10.5 44.5s14.334 31.334 17.001 50.001s1.66699 30.834 -3 36.501s-18.667 6.33398 -42 2.00098s-47.166 -11.5 -71.499 -21.5s-42.833 -19.667 -55.5 -29c8.66699 -22.667 9.33398 -42.667 2.00098 -60s-17 -30.166 -29 -38.499
s-24.833 -14.666 -38.5 -18.999s-26.667 -6 -39 -5s-20.166 6.83301 -23.499 17.5s-1.66602 21.334 5.00098 32.001s14.834 20.5 24.501 29.5s21.5 16.833 35.5 23.5c-10 16 -25.5 27.333 -46.5 34s-46.833 6 -77.5 -2s-49.167 -18.5 -55.5 -31.5s-4.33301 -27.5 6 -43.5
s19.833 -27.333 28.5 -34s13.334 -12.334 14.001 -17.001l-5 -9c-12 8 -26.333 20.333 -43 37s-26.5 32.167 -29.5 46.5s0.166992 28.666 9.5 42.999s27 26.5 53 36.5s53 15.333 81 16s52.5 -2.66602 73.5 -9.99902s36.167 -17.333 45.5 -30
c34.667 20.667 69.334 36.334 104.001 47.001s61.167 15.334 79.5 14.001s30.666 -6.16602 36.999 -14.499s8.5 -23 6.5 -44s-5 -39.333 -9 -55s-4.83301 -27.5 -2.5 -35.5s6 -8.5 11 -1.5s15.5 19.833 31.5 38.5s38.333 37 67 55s56.5 28.667 83.5 32
s49.5 2.83301 67.5 -1.5s32.5 -14 43.5 -29s17.167 -31.5 18.5 -49.5c12.667 19.333 27.5 38 44.5 56s33.333 31.833 49 41.5s33.5 15.334 53.5 17.001s36.333 -1.66602 49 -9.99902s18 -18.666 16 -30.999s-0.333008 -18.5 5 -18.5c28.667 26.667 50.667 44.167 66 52.5
s31.166 13 47.5 14c16.333 1 30.833 -1.83301 43.5 -8.5s19 -21.834 19 -45.501s-0.333008 -46 -1 -67s1.16602 -36.5 5.5 -46.5c4.33301 -10 12.5 -15.833 24.5 -17.5s30 0.666016 54 6.99902s38.833 13 44.5 20s11 23 16 48s13.833 48 26.5 69s28.834 37.167 48.5 48.5
c19.667 11.333 37.334 17 53 17c15.667 0 26.834 -5.66699 33.5 -17c6.66699 -11.333 8.66699 -24.666 6 -39.999s-12 -34.333 -28 -57c46.667 6.66699 95 1.83398 145 -14.499s93 -37.833 129 -64.5c28 62 55.167 108.667 81.5 140s51.166 53 74.5 65
c23.333 12 44 16 62 12s31.167 -11.833 39.5 -23.5s12.5 -29.834 12.5 -54.501c0 -22 -4.5 -44.833 -13.5 -68.5s-20.667 -46.334 -35 -68.001s-31 -41.834 -50 -60.501zM1709 -639.015c-16 -6 -28 -13.1689 -36 -21.502s-12.833 -16.666 -14.5 -24.999s0 -14.166 5 -17.499
s12.667 -3.33301 23 0s18.5 10 24.5 20s5.33301 24.667 -2 44zM2385 -955.017c-16 2 -28.667 6.83398 -38 14.501s-16.166 15.5 -20.5 23.5c-4.33301 8 -2.83301 12.833 4.5 14.5s14.5 3.16699 21.5 4.5s13.167 -1.5 18.5 -8.5s11 -8.66699 17 -5s13.5 5 22.5 4
s13.333 -5.66699 13 -14s-4 -15.833 -11 -22.5s-16.167 -10.334 -27.5 -11.001zM1012 -392.016c5.33301 8.66699 11.333 20.166 18 34.499s9 34.833 7 61.5s-6 53.834 -12 81.501s-14.5 52.167 -25.5 73.5s-20 34 -27 38s-12.833 1.33301 -17.5 -8s-10.5 -26.333 -17.5 -51
l-23.5 -80zM1007 136.983c-16 27.333 -26.6689 43.5 -32.002 48.5s-12.666 6.83301 -21.999 5.5s-9.66602 -8.5 -0.999023 -21.5s27 -23.833 55 -32.5zM994.998 1009.98c-10 19.333 -18.998 34.333 -26.998 45s-14.333 14 -19 10s-5.33398 -10.833 -2.00098 -20.5
s9.16602 -17.667 17.499 -24s18.5 -9.83301 30.5 -10.5zM950 1623.98c-18 24 -30.667 36 -38 36s-12.333 -3 -15 -9s1 -12 11 -18s24 -9 42 -9zM1112 -148.017c5.33301 -29.333 7.8252 -51.834 7.49219 -67.501s-2.33301 -33.334 -6 -53.001s-9.66699 -36.5 -18 -50.5
l-23 -38.5c-7 -11.667 -12 -24.334 -15 -38.001s-3.83301 -28.334 -2.5 -44.001s3.66602 -29.5 6.99902 -41.5l117 -153.5c37.333 -49.667 78.333 -98.167 123 -145.5s82.667 -83.166 114 -107.499s58.333 -39.166 81 -44.499s43.334 -7.66602 62.001 -6.99902l-5 -12
c-10 -3.33301 -21 -5 -33 -5c-7.33301 0 -18.333 1.16699 -33 3.5s-32.5 9.33301 -53.5 21s-47.167 32 -78.5 61s-69 69 -113 120s-79.667 96.333 -107 136l-84 121.5c-24 4 -36.833 9.16699 -38.5 15.5s-3 16 -4 29s-6.83301 27.5 -17.5 43.5l-39.5 61l-49.5 76
c-14 -53.333 -31.333 -94.833 -52 -124.5s-41.167 -48.5 -61.5 -56.5s-39.166 -11 -56.499 -9s-39.333 12.167 -66 30.5s-53.5 43.166 -80.5 74.499s-49.167 63.333 -66.5 96s-27.666 55.667 -30.999 69s-1.66602 21.5 5.00098 24.5s11.834 -1.83301 15.501 -14.5
s12.667 -32.667 27 -60s36.833 -57.5 67.5 -90.5s60.834 -55.167 90.501 -66.5s55.667 -11.833 78 -1.5s42 31.166 59 62.499s31.5 67.333 43.5 108c-56 80.667 -102.333 140.334 -139 179.001s-75 72.167 -115 100.5s-69.667 44 -89 47s-34.5 -1.5 -45.5 -13.5
s-18.167 -28.167 -21.5 -48.5s-4.33301 -40.333 -3 -60s4.5 -37 9.5 -52s5.83301 -23.333 2.5 -25s-7.83301 3.16602 -13.5 14.499s-10 24.5 -13 39.5s-4.5 31.833 -4.5 50.5c0 32.667 3 58.167 9 76.5s16.167 31.833 30.5 40.5s35 9.83398 62 3.50098s59 -23.833 96 -52.5
s75.667 -65.667 116 -111s82.833 -100 127.5 -164c11.333 44.667 21 78.834 29 102.501s17 38.334 27 44.001s20.667 4.66699 32 -3s24 -26 38 -55s24.333 -57.333 31 -85s11 -62.5 13 -104.5c8.66699 8 16.334 18 23.001 30s12.334 27.167 17.001 45.5
s6.33398 44.5 5.00098 78.5h13zM1080.99 11.9824c10.667 -17.333 18.333 -37.832 23 -61.499s6 -47.834 4 -72.501l-8 -4c-4 26 -6.5 47.167 -7.5 63.5s-6.83301 39.5 -17.5 69.5zM936.991 461.983c15.333 -30 32.999 -54.4961 52.999 -73.4961s43.5 -37.333 70.5 -55
s65.167 -34.667 114.5 -51s98.166 -31 146.499 -44s103.333 -31.333 165 -55s104.834 -44.334 129.501 -62.001s39.167 -31.834 43.5 -42.501s6.83301 -21.334 7.5 -32.001c-4 -9.33301 -8.66699 -15.333 -14 -18s-12.333 -3 -21 -1s-15.334 4.33301 -20.001 7
s-19.834 8.33398 -45.501 17.001l-87.5 30c-32.667 11.333 -72.5 24.333 -119.5 39l-161.5 49.5c-60.667 18.333 -99.167 30.5 -115.5 36.5s-26.666 8.5 -30.999 7.5s-3.66602 -7 2.00098 -18s10.334 -24.167 14.001 -39.5s3.83398 -28.833 0.500977 -40.5
s-10.333 -21.5 -21 -29.5c9.33301 -14 18.666 -33.333 27.999 -58l-5 -6l-35 59c-28 -0.666992 -50.833 6.5 -68.5 21.5s-31.167 32.667 -40.5 53s-14.333 37.166 -15 50.499s2.5 21.833 9.5 25.5s14.833 4.16699 23.5 1.5s19 -11 31 -25s22.5 -29.833 31.5 -47.5
s16.5 -26.5 22.5 -26.5s10 4.83301 12 14.5s1.16699 19.667 -2.5 30s-8.66699 21.5 -15 33.5s-9.16602 21.833 -8.49902 29.5s5.66699 11.5 15 11.5s26.833 -4.16699 52.5 -12.5s55.667 -18.666 90 -30.999s81 -26.833 140 -43.5s115 -34.334 168 -53.001
s89.167 -32 108.5 -40s29.666 -10 30.999 -6s-0.5 9.66699 -5.5 17s-18.333 16.666 -40 27.999s-45 21.333 -70 30s-51.667 18.667 -80 30s-68.333 23.666 -120 36.999s-95.167 27 -130.5 41s-68 29.833 -98 47.5s-57.5 39 -82.5 64s-41.667 45.333 -50 61
s-12.833 27.834 -13.5 36.501zM922.99 474.987c-13.333 19.333 -21.0029 37.9971 -23.0029 55.9971s-0.666992 32.333 4 43s12.834 18.167 24.501 22.5s23.834 6 36.501 5s26.167 -4 40.5 -9s22.833 -5.83301 25.5 -2.5c-28 37.333 -49.667 69.833 -65 97.5
s-24.166 49.334 -26.499 65.001s-0.5 25.5 5.5 29.5s13 3.66699 21 -1s21.833 -6.5 41.5 -5.5s33.334 6.33301 41.001 16s11.667 22.334 12 38.001s-0.5 29.167 -2.5 40.5l7 2c6 -11.333 9.83301 -29 11.5 -53s1 -43.333 -2 -58s-11 -27.167 -24 -37.5
s-35.833 -14.166 -68.5 -11.499c5.33301 -13.333 13.5 -29.833 24.5 -49.5s24.333 -39.667 40 -60s30.5 -37.5 44.5 -51.5c-4.66699 -10.667 -11 -16.5 -19 -17.5s-18.5 1 -31.5 6s-30.833 9 -53.5 12s-39.334 2.16699 -50.001 -2.5s-16 -13.5 -16 -26.5
s3.33301 -26.833 10 -41.5zM1051.99 882.984l-14.0088 34.0078c-3.33301 8 -8.66602 18 -15.999 30c-13.333 0 -27.166 2.83301 -41.499 8.5s-26.833 16.667 -37.5 33s-17.834 32.666 -21.501 48.999s-3.83398 29.833 -0.500977 40.5s10 16 20 16s17.333 1.66699 22 5
c-7.33301 6.66699 -12.833 12.5 -16.5 17.5s-3.83398 13.5 -0.500977 25.5c11.333 -2.66699 23.333 -3.66699 36 -3s25.5 4.33398 38.5 11.001s20.167 18.167 21.5 34.5s-0.166992 31.166 -4.5 44.499s-11.5 26.666 -21.5 39.999s-21.333 24.666 -34 33.999l-37 28
c-12 9.33301 -22.167 20.5 -30.5 33.5s-14.333 24.167 -18 33.5s-2.83398 18.333 2.49902 27s16.666 11.5 33.999 8.5l46 -8c13.333 -2.33301 26.833 -3 40.5 -2s22.167 6.83301 25.5 17.5s3.83301 22.5 1.5 35.5s-7.33301 27.833 -15 44.5s-19.5 32.667 -35.5 48
c-19.333 -7.33301 -40.166 -7.16602 -62.499 0.500977s-38.166 18 -47.499 31s-15.166 27.5 -17.499 43.5s-2.16602 26.833 0.500977 32.5s8.33398 9.5 17.001 11.5s19.834 -0.833008 33.501 -8.5s25.167 -18.167 34.5 -31.5s16.833 -19.833 22.5 -19.5
s11.5 2.16602 17.5 5.49902s12.667 11.666 20 24.999s9.83301 38.833 7.5 76.5s-5.16602 70.667 -8.49902 99s-8.16602 57.833 -14.499 88.5s-12.166 71.167 -17.499 121.5s-10.333 88.666 -15 115c-4.66699 26.333 -6.83398 50.166 -6.50098 71.5
c0.333008 21.333 3.5 41.5 9.5 60.5s14.333 36.167 25 51.5s18.834 31.166 24.501 47.5c5.66699 16.333 8.5 26.333 8.5 30s2.33301 7.83398 7 12.5c8 -0.666992 11 -10.167 9 -28.5s-8 -35.5 -18 -51.5s-18.167 -33.333 -24.5 -52s-10.333 -36.834 -12 -54.5
c-1.66699 -17.667 0.166016 -45.167 5.49902 -82.5s9.66602 -77.833 12.999 -121.5s9.33301 -91.667 18 -144s15.334 -99.833 20.001 -142.5s5 -78 1 -106s-16.333 -52.667 -37 -74c20 -22.667 35 -46.834 45 -72.501s14.333 -50 13 -73s-6.66602 -38.167 -15.999 -45.5
s-21 -12.5 -35 -15.5s-29.167 -4.83301 -45.5 -5.5s-23.666 -2.83398 -21.999 -6.50098s8.83398 -10 21.501 -19s29.167 -25.167 49.5 -48.5s33.5 -46.833 39.5 -70.5s7.83301 -46 5.5 -67s-14.166 -40.5 -35.499 -58.5c20 -10 33 -24.333 39 -43s6.66699 -37.334 2 -56.001
s-16 -32.334 -34 -41.001c14 -28 23 -51 27 -69zM1007.98 1009.99c19.333 2 30.499 8.66504 33.499 19.998s2 21.833 -3 31.5s-12 15.667 -21 18s-19.167 2.83301 -30.5 1.5s-16.666 -2.66602 -15.999 -3.99902s4 -6.66602 10 -15.999s15 -26.333 27 -51z" />
    <glyph glyph-name=".notdef" unicode="&#x2202;" horiz-adv-x="4980" 
d="M1595 2214c16.667 40 30.334 81.667 41.001 125c-33.333 -10.667 -69.333 -31.667 -108 -63c23.333 -26 45.666 -46.667 66.999 -62zM1515 2301c34 28.667 76.668 51.667 128.001 69c10 34.667 13.833 74.167 11.5 118.5s-11.333 75.666 -27 94
c-15.667 18.333 -33.667 26.833 -54 25.5s-37.833 -9.83301 -52.5 -25.5s-26.334 -40.5 -35.001 -74.5s-11 -69.667 -7 -107s16 -70.666 36 -100zM1584 2189c-36 24 -61.667 47.333 -77 70c-24.667 -19.333 -50 -47.833 -76 -85.5s-41.667 -70.834 -47 -99.5
c-5.33301 -28.667 -5 -50.5 1 -65.5s15.5 -22.167 28.5 -21.5s26.333 5.16699 40 13.5s32 24.833 55 49.5s48.167 71 75.5 139zM1620 2199l66.999 -44c26 -16.667 57.833 -29.834 95.5 -39.5c37.667 -9.66699 78.834 -11.167 123.501 -4.5c25.333 20 51 38.333 77 55
c-1.33301 46 -9.33301 82.833 -24 110.5s-36.167 49.167 -64.5 64.5s-60 24.333 -95 27s-77.5 -3 -127.5 -17c-14 -44.667 -31.333 -95.334 -52 -152zM1975 2121c-38.667 -24.667 -62.833 -44.668 -72.5 -60.001s-14.667 -27.166 -15 -35.499s8 -11 25 -8
s32.833 15.333 47.5 37s19.667 43.834 15 66.5zM2652 2185c1.33301 38.667 6.83398 75 16.501 109s17 66.5 22 97.5s7.33301 53.667 7 68s-2 25.5 -5 33.5s-9.16699 11.667 -18.5 11s-19.166 -19.667 -29.5 -57c-10.333 -37.333 -19.333 -79.333 -27 -126
s-13.334 -75.5 -17.001 -86.5s-7.16699 -20.5 -10.5 -28.5l10 -2c11.333 6.66699 19.5 9 24.5 7s8.83301 -5.33301 11.5 -10s8 -10 16 -16zM1678 2379c38 10.667 70.1709 16.5029 96.5039 17.5029s52.666 -1 78.999 -6s52.666 -15 78.999 -30s47.5 -35.167 63.5 -60.5
s27 -63.333 33 -114c38 18 68 28.5 90 31.5s41.167 2.16699 57.5 -2.5s28.166 -14.334 35.5 -29c7.33301 -14.667 11.166 -32.167 11.5 -52.5c0.333008 -20.333 -0.333984 -38.666 -2 -54.999c-1.66699 -16.333 -1.83398 -28 -0.5 -35c1.33301 -7 7 -10.5 17 -10.5
s23.5 4.5 40.5 13.5s33.167 21.667 48.5 38s25.166 28 29.5 35c4.33301 7 12.5 11 24.5 12s20.667 -0.833008 26 -5.5c-1.33301 -21.333 -4.16602 -37.5 -8.5 -48.5c-4.33301 -11 -5 -20.5 -2 -28.5s11.833 -11.667 26.5 -11s31.334 8.33398 50 23.001
c18.667 14.667 38.334 37 59 67c20.667 30 32.334 52 35 66c2.66699 14 8.16699 44.833 16.5 92.5l21 117c5.66699 30.333 13 55.666 22 76c9 20.333 18 35.5 27 45.5s21.333 17.167 37 21.5s28.334 0.5 38 -11.5c9.66699 -12 15 -25.833 16 -41.5s-3 -44.334 -12 -86
c-9 -41.667 -21.5 -87.834 -37.5 -138.5c-16 -50.667 -24.667 -85 -26 -103s-8 -32.5 -20 -43.5s-17.667 -23 -17 -36s12.667 -19.833 36 -20.5s48 4.5 74 15.5s48.5 25.833 67.5 44.5s34 36.167 45 52.5s18.333 28.166 22 35.5c3.66699 7.33301 12.167 12 25.5 14
s23.5 -1.83301 30.5 -11.5s11.333 -22 13 -37s-2 -29.667 -11 -44s-14.667 -30.833 -17 -49.5s-1.16602 -30.834 3.5 -36.501c4.66699 -5.66699 18.5 -6.33398 41.5 -2.00098s46.833 11.333 71.5 21s43 19.5 55 29.5c-8.66699 22.667 -9.33398 42.5 -2 59.5
c7.33301 17 17 30.333 29 40s25.667 16.5 41 20.5s28.5 5 39.5 3s18.167 -8.16699 21.5 -18.5s1.66602 -21 -5 -32c-6.66699 -11 -15.334 -20.167 -26 -27.5c-10.667 -7.33301 -22.334 -16 -35 -26c10.667 -15.333 26.334 -26.5 47 -33.5c20.667 -7 46.334 -6.33301 77 2
c30.667 8.33301 49.334 19.833 56 34.5c6.66699 14.667 4.83398 29.667 -5.5 45c-10.333 15.333 -20.5 25.166 -30.5 29.5c-10 4.33301 -15 8.83301 -15 13.5l4 9c18 -4 34.167 -13 48.5 -27s23.333 -30 27 -48s0.833984 -34.167 -8.5 -48.5
c-9.33301 -14.333 -27.166 -26.5 -53.5 -36.5c-26.333 -10 -53.5 -15.167 -81.5 -15.5s-52.5 3 -73.5 10s-35.833 16.833 -44.5 29.5c-34.667 -20.667 -69.334 -36.334 -104 -47.001c-34.667 -10.667 -61.334 -15.334 -80 -14.001c-18.667 1.33301 -31.167 6.33301 -37.5 15
s-8.33301 23.5 -6 44.5s5.33301 39.167 9 54.5s4.5 27.166 2.5 35.5c-2 8.33301 -5.66699 8.83301 -11 1.5s-15.833 -20.333 -31.5 -39s-38 -37 -67 -55s-57 -28.5 -84 -31.5s-49.5 -2.5 -67.5 1.5s-32.333 13.5 -43 28.5s-17 31.833 -19 50.5c-12 -20 -26.5 -39 -43.5 -57
s-33.5 -31.833 -49.5 -41.5s-33.833 -15.167 -53.5 -16.5s-36 2 -49 10s-18.5 18.167 -16.5 30.5s0.333008 18.5 -5 18.5c-28 -26 -49.667 -43.333 -65 -52s-31.333 -13.5 -48 -14.5s-31.167 1.83301 -43.5 8.5s-18.5 22 -18.5 46s0.333008 46.333 1 67s-1.33301 36 -6 46
s-13 15.833 -25 17.5s-29.833 -0.666016 -53.5 -7c-23.667 -6.33301 -38.334 -13 -44.001 -20s-11 -22.833 -16 -47.5s-14 -47.5 -27 -68.5s-29.333 -37.333 -49 -49s-37.167 -17.5 -52.5 -17.5s-26.5 5.83301 -33.5 17.5s-9 25.167 -6 40.5s12.167 34.333 27.5 57
c-46.667 -7.33301 -94.834 -2.83301 -144.501 13.5s-92.834 38.166 -129.501 65.499c-28 -62 -55 -108.833 -81 -140.5s-50.833 -53.5 -74.5 -65.5s-44.5 -16 -62.5 -12s-31 11.833 -39 23.5s-12 29.834 -12 54.501c0 22 4.5 44.833 13.5 68.5s20.5 46.334 34.5 68
c14 21.667 30.5 41.834 49.5 60.5l52.5 52c-18 28.667 -30.833 59.667 -38.5 93s-9.5 66.166 -5.5 98.499s11.5 60.833 22.5 85.5s25.667 44.667 44 60s37.5 23 57.5 23c24 0 44.833 -6.33301 62.5 -19s30.834 -30.5 39.501 -53.5s14 -52 16 -87s-1.66699 -69.5 -11 -103.5z
M3142.01 2132c14 9.33301 25.333 17.333 34 24s13.834 14.167 15.5 22.5c1.66699 8.33301 0 14.166 -5 17.5c-5 3.33301 -12.5 3.33301 -22.5 0s-18 -10 -24 -20s-5.33301 -24.667 2 -44zM2465.01 2448c16 -2 28.667 -6.83301 38 -14.5s16.166 -15.5 20.5 -23.5
c4.33301 -8 3 -12.833 -4 -14.5s-14.167 -3 -21.5 -4s-13.666 1.83301 -19 8.5c-5.33301 6.66699 -10.833 8.33398 -16.5 5c-5.66699 -3.33301 -13.167 -4.5 -22.5 -3.5s-13.833 5.5 -13.5 13.5s4.16602 15.333 11.5 22c7.33301 6.66699 16.333 10.334 27 11zM3838.01 1885
c-5.33301 -8.66699 -11.333 -20.001 -18 -34.001s-8.83398 -34.333 -6.5 -61c2.33301 -26.667 6.33301 -53.834 12 -81.501s14 -52.167 25 -73.5s20.167 -34.166 27.5 -38.499s13.333 -1.66602 18 8.00098s10.5 26.667 17.5 51l22.5 79.5zM3843.01 1356
c16 -27.333 26.833 -43.333 32.5 -48s13 -6.5 22 -5.5s9.33301 8.16699 1 21.5s-26.833 24 -55.5 32zM3856.01 484.001c9.33301 -18.667 18 -33.667 26 -45s14.333 -15 19 -11s5.33398 11 2 21c-3.33301 10 -9.16602 18 -17.5 24c-8.33301 6 -18.166 9.66699 -29.5 11z
M3900.01 -130.999c18 -23.333 30.667 -35.166 38 -35.499s12.333 2.5 15 8.5s-1 12.167 -11 18.5s-24 9.16602 -42 8.49902zM3738.01 1641c-4.66699 29.333 -7 51.8311 -7 67.498s1.83301 33.334 5.5 53.001s9.66699 36.5 18 50.5l23 38.5c7 11.667 12 24.5 15 38.5
s3.83301 28.667 2.5 44s-3.66602 29 -7 41l-116.5 154c-37.667 49.333 -78.667 97.666 -123 145c-44.333 47.333 -82.166 82.833 -113.5 106.5c-31.333 23.667 -57.833 38.5 -79.5 44.5s-42.834 8.66699 -63.5 8l4 13c9.33301 2.66699 19.666 4 31 4
c8 0 19.5 -1.16699 34.5 -3.5s33.167 -9.16602 54.5 -20.5c21.333 -11.333 47.5 -31.666 78.5 -61c31 -29.333 68.5 -69.5 112.5 -120.5s79.667 -96.333 107 -136l84 -121.5c24.667 -4 37.667 -9.16699 39 -15.5s2.5 -15.833 3.5 -28.5s6.83301 -27.167 17.5 -43.5
l39.5 -61.5l49.5 -75c14 52.667 31.333 93.834 52 123.501s41.167 48.5 61.5 56.5s39.333 11.167 57 9.5c17.666 -1.66699 39.833 -11.834 66.5 -30.501c26.666 -18.667 53.333 -43.667 80 -75c26.666 -31.333 48.666 -63.333 66 -96s27.667 -55.667 31 -69
c3.33398 -13.333 1.66699 -21.333 -5 -24c-6.66602 -2.66699 -11.833 2.16602 -15.5 14.499c-3.66602 12.333 -12.666 32.333 -27 60s-36.834 57.834 -67.5 90.501s-60.833 54.667 -90.5 66c-29.666 11.333 -55.666 11.833 -78 1.5c-22.333 -10.333 -42 -31.166 -59 -62.499
s-31.5 -67.333 -43.5 -108c56.667 -80.667 103.167 -140.167 139.5 -178.5c36.334 -38.333 74.667 -71.666 115 -99.999c40.334 -28.333 70 -44.166 89 -47.499s34 1 45 13s18.166 28.167 21.5 48.5s4.33398 40.5 3 60.5s-4.33398 37.333 -9 52s-5.33301 23 -2 25
c3.33398 2 7.83398 -2.83301 13.5 -14.5s9.83301 -25 12.5 -40c2.66602 -15 4 -31.833 4 -50.5c0 -32.667 -3 -58.167 -9 -76.5s-16.166 -31.666 -30.5 -39.999s-34.834 -9.5 -61.5 -3.5s-58.5 23.5 -95.5 52.5s-75.666 66.167 -116 111.5
c-40.333 45.333 -83.166 99.666 -128.5 162.999c-11.333 -44 -21 -78 -29 -102s-17 -38.833 -27 -44.5s-20.667 -4.5 -32 3.5s-24 26.5 -38 55.5s-24.167 57.333 -30.5 85s-10.833 62.5 -13.5 104.5c-8 -8.66699 -15.5 -18.834 -22.5 -30.501s-12.833 -26.834 -17.5 -45.501
s-6.33398 -45 -5 -79h-13zM3770.01 1481c-11.333 17.333 -19.333 37.8311 -24 61.498s-6 47.834 -4 72.501l8 5c4 -26.667 6.5 -48.167 7.5 -64.5s6.83301 -39.166 17.5 -68.499zM3913.01 1031c-14.667 30.667 -32.167 55.5 -52.5 74.5s-43.833 37.167 -70.5 54.5
s-64.834 34.333 -114.5 51c-49.667 16.667 -98.667 31.334 -147 44.001s-103.333 30.834 -165 54.501s-104.834 44.5 -129.5 62.5c-24.667 18 -39.167 32.167 -43.5 42.5s-6.83301 20.833 -7.5 31.5c4.66699 9.33301 9.5 15.5 14.5 18.5s11.833 3.33301 20.5 1
s15.334 -4.83301 20 -7.5c4.66699 -2.66699 19.834 -8.33398 45.5 -17.001l87.5 -30c32.667 -11.333 72.667 -24.333 120 -39l161.5 -49.5c60.333 -18.333 98.666 -30.5 115 -36.5c16.333 -6 26.666 -8.5 31 -7.5c4.33301 1 3.66602 7 -2 18
c-5.66699 11 -10.334 24.167 -14 39.5c-3.66699 15.333 -3.83398 28.833 -0.5 40.5c3.33301 11.667 10.333 21.5 21 29.5c-9.33301 14 -18.666 33.333 -28 58l6 6c14 -24.667 25.667 -44.334 35 -59.001c28 0.666992 50.667 -6.5 68 -21.5s30.666 -32.667 40 -53
c9.33301 -20.333 14.333 -37 15 -50s-2.5 -21.5 -9.5 -25.5s-14.833 -4.66699 -23.5 -2s-19 11 -31 25s-22.5 29.833 -31.5 47.5s-16.333 26.5 -22 26.5s-9.66699 -4.83301 -12 -14.5s-1.5 -19.667 2.5 -30s9 -21.5 15 -33.5s8.83301 -21.833 8.5 -29.5
s-5.33301 -11.5 -15 -11.5s-27.167 4.33301 -52.5 13l-90 31.5c-34.667 12.333 -81.5 26.833 -140.5 43.5s-114.833 34.167 -167.5 52.5s-88.834 31.5 -108.5 39.5c-19.667 8 -30.167 10.167 -31.5 6.5s0.666992 -9.33398 6 -17.001s18.833 -17.167 40.5 -28.5
s44.834 -21.333 69.5 -30c24.667 -8.66699 51.167 -18.667 79.5 -30s68.333 -23.666 120 -36.999s95.334 -27 131 -41c35.667 -14 68.5 -29.667 98.5 -47s57.333 -38.5 82 -63.5s41.334 -45.5 50 -61.5c8.66699 -16 13 -28.333 13 -37zM3785.01 620.997
c-6 11.333 -9.83301 29.1699 -11.5 53.5029s-0.833984 43.666 2.5 57.999c3.33301 14.333 11.5 26.666 24.5 36.999s35.5 14.166 67.5 11.499c-5.33301 13.333 -13.5 30 -24.5 50s-24.167 40 -39.5 60s-30.333 37 -45 51c5.33301 11.333 11.833 17.333 19.5 18
s18.167 -1.33301 31.5 -6s31.166 -8.66699 53.5 -12c22.333 -3.33301 38.833 -2.66602 49.5 2.00098s16 13.5 16 26.5s-3.33301 27.167 -10 42.5l8 5c13.333 -19.333 21.166 -38 23.5 -56c2.33301 -18 1 -32.333 -4 -43s-13.167 -18.167 -24.5 -22.5s-23.333 -6 -36 -5
s-26.334 4 -41 9c-14.667 5 -23 5.83301 -25 2.5c27.333 -36.667 48.666 -69 64 -97c15.333 -28 24.333 -49.833 27 -65.5s0.833984 -25.334 -5.5 -29.001c-6.33301 -3.66699 -13.5 -3.33398 -21.5 0.999023s-21.833 6 -41.5 5s-33.334 -6.33301 -41 -16
c-7.66699 -9.66699 -11.667 -22.167 -12 -37.5s0.5 -28.666 2.5 -39.999zM3799.01 611.001c5.33301 -14.667 9.83301 -26.1787 13.5 -34.5117s8.83398 -18.5 15.5 -30.5c14 0 28 -2.83301 42 -8.5s26.333 -16.667 37 -33s18 -32.666 22 -48.999s4.16699 -29.833 0.5 -40.5
s-10.5 -16 -20.5 -16s-17 -1.66699 -21 -5c6.66699 -6 11.834 -11.5 15.5 -16.5c3.66699 -5 4.16699 -13.833 1.5 -26.5c-12 2.66699 -24.167 3.83398 -36.5 3.50098s-25.166 -3.83301 -38.5 -10.5c-13.333 -6.66699 -20.666 -18.167 -22 -34.5
c-1.33301 -16.333 0.166992 -31.166 4.5 -44.499s11.666 -26.666 22 -39.999c10.333 -13.333 21.666 -24.833 34 -34.5l36.5 -28c12 -9 22.333 -20.167 31 -33.5s14.667 -24.666 18 -33.999s2.33301 -18.333 -3 -27s-16.666 -11.5 -34 -8.5l-46 8
c-13.333 2.33301 -26.833 3.16602 -40.5 2.49902s-22 -6.5 -25 -17.5s-3.5 -22.833 -1.5 -35.5s6.83301 -27.334 14.5 -44.001s19.834 -32.667 36.5 -48c18.667 6.66699 39.334 6.33398 62 -0.999023c22.667 -7.33301 38.5 -17.666 47.5 -30.999s14.833 -27.833 17.5 -43.5
s2.5 -26.334 -0.5 -32.001s-8.66699 -9.66699 -17 -12s-19.5 0.5 -33.5 8.5s-25.667 18.5 -35 31.5s-16.666 19.333 -22 19c-5.33301 -0.333008 -11.166 -2.16602 -17.5 -5.49902c-6.33301 -3.33301 -13.166 -11.666 -20.5 -24.999
c-7.33301 -13.333 -9.66602 -38.833 -7 -76.5c2.66699 -37.667 5.5 -70.667 8.5 -99s7.66699 -57.666 14 -87.999s12.166 -70.666 17.5 -120.999c5.33301 -50.333 10.333 -88.833 15 -115.5s6.83398 -50.667 6.5 -72c-0.333008 -21.333 -3.5 -41.5 -9.5 -60.5
s-14.333 -36.167 -25 -51.5s-18.834 -31.166 -24.5 -47.499c-5.66699 -16.333 -8.5 -26.166 -8.5 -29.499s-2 -7.66602 -6 -12.999c-8.66699 0.666992 -12 10.167 -10 28.5s8 35.5 18 51.5s18.167 33.5 24.5 52.5s10.333 37.167 12 54.5s0 44.833 -5 82.5
s-9.33301 78.167 -13 121.5s-9.66699 91.166 -18 143.499s-14.833 99.833 -19.5 142.5s-5.16699 78 -1.5 106s15.834 52.667 36.5 74c-20 22.667 -34.833 46.834 -44.5 72.501s-14 50.167 -13 73.5s6.16699 38.5 15.5 45.5s21 12 35 15s29.333 4.83301 46 5.5
s24.167 2.83398 22.5 6.50098s-9 10.167 -22 19.5s-29.5 25.5 -49.5 48.5s-33 46.333 -39 70s-8 46 -6 67s13.667 40.5 35 58.5c-20 10 -33 24.333 -39 43s-6.66699 37.5 -2 56.5s16.334 32.833 35 41.5c-14.667 27.333 -24 50 -28 68zM3842.01 482.989
c-18.667 -0.666992 -29.667 -7.00098 -33 -19.001s-2.33301 -22.833 3 -32.5s12.5 -15.667 21.5 -18s19 -2.83301 30 -1.5s16.167 2.83301 15.5 4.5s-4 7.33398 -10 17.001s-15 26.167 -27 49.5zM3255.01 -720.012c-16.667 -40.667 -30.334 -82.667 -41 -126
c33.333 10.667 69.666 32 109 64c-24 25.333 -46.667 46 -68 62zM3335.01 -808.012c-34 -28 -76.333 -50.667 -127 -68c-10.667 -35.333 -14.334 -76.333 -11 -123c3.33301 -46.667 13.166 -78.167 29.5 -94.5c16.333 -16.333 34 -23.5 53 -21.5s35.667 10.667 50 26
s26.166 39.333 35.5 72c9.33301 32.667 11.666 68.5 7 107.5c-4.66699 39 -17 72.833 -37 101.5zM3266.01 -696.012c36 -23.333 62 -46.667 78 -70c24 20 49.167 48.667 75.5 86s42 70.5 47 99.5s4.5 50.833 -1.5 65.5s-15.333 21.667 -28 21s-25.834 -5.16699 -39.5 -13.5
c-13.667 -8.33301 -32 -24.833 -55 -49.5s-48.5 -71 -76.5 -139zM2868.01 -673.013c1.33301 -46 9.16602 -82.668 23.5 -110.001c14.333 -27.333 35.666 -48.666 64 -63.999c28.333 -15.333 60.166 -24.5 95.5 -27.5c35.333 -3 77.666 2.5 127 16.5
c14 45.333 31.333 96 52 152l-67 44c-26 16.667 -57.833 29.834 -95.5 39.501s-78.834 11.5 -123.5 5.5c-25.333 -20.667 -50.666 -39.334 -76 -56.001zM2875.01 -628.014c39.333 24.667 63.666 44.6689 73 60.002c9.33301 15.333 14.166 27.166 14.5 35.499
c0.333008 8.33301 -8 11 -25 8s-32.833 -15.333 -47.5 -37s-19.667 -43.834 -15 -66.501zM2198.01 -692.012c-0.666992 -38.667 -6 -74.833 -16 -108.5s-17.5 -66 -22.5 -97s-7.33301 -53.667 -7 -68s2.16602 -25.5 5.5 -33.5c3.33301 -8 9.5 -11.667 18.5 -11
s18.667 19.5 29 56.5s19.333 78.833 27 125.5s13.334 75.5 17 86.5c3.66699 11 7.5 20.5 11.5 28.5l-11 2c-11.333 -6 -19.5 -8.16699 -24.5 -6.5s-8.66699 5 -11 10s-7.83301 10.167 -16.5 15.5zM3360.01 -788.011c17.333 -29.333 29.9941 -60.6699 37.9941 -94.0029
s10 -66.166 6 -98.499s-11.667 -60.833 -23 -85.5s-27.333 -44.667 -48 -60s-40.667 -23 -60 -23c-21.333 0 -42 8.16699 -62 24.5s-34.5 46.833 -43.5 91.5s-7.5 94 4.5 148c-38 -11.333 -70.167 -17.333 -96.5 -18s-52.666 1.5 -79 6.5c-26.333 5 -52.666 14.833 -79 29.5
c-26.333 14.667 -47.5 34.667 -63.5 60s-27 63.333 -33 114c-38 -18 -68 -28.333 -90 -31s-41 -1.83398 -57 2.49902s-27.833 13.833 -35.5 28.5s-11.667 32.167 -12 52.5s0.5 38.666 2.5 54.999s2.16699 28 0.5 35s-7.33398 10.5 -17 10.5c-9.66699 0 -23 -4.33301 -40 -13
s-33.333 -21.334 -49 -38.001s-25.667 -28.5 -30 -35.5s-12.5 -11 -24.5 -12s-20.667 1.16699 -26 6.5c1.33301 21.333 4.33301 37.333 9 48s5.5 20 2.5 28s-12 11.667 -27 11s-31.833 -8.33398 -50.5 -23.001s-38.334 -37 -59 -67c-20.667 -30 -32.167 -52 -34.5 -66
s-7.83301 -44.833 -16.5 -92.5l-21.5 -116.5c-5.66699 -30 -12.834 -55.333 -21.5 -76c-8.66699 -20.667 -17.667 -36 -27 -46s-21.833 -17.167 -37.5 -21.5s-28.167 -0.333008 -37.5 12s-14.5 26.166 -15.5 41.499s2.83301 44 11.5 86s21 88.167 37 138.5
s24.667 84.666 26 102.999s8 32.833 20 43.5s17.833 22.5 17.5 35.5s-12.333 20 -36 21s-48.5 -4.16699 -74.5 -15.5s-48.5 -26.333 -67.5 -45s-34 -36.167 -45 -52.5s-18.333 -28.166 -22 -35.499s-12.167 -11.833 -25.5 -13.5s-23.333 2.16602 -30 11.499
s-10.834 21.5 -12.501 36.5s1.83301 29.833 10.5 44.5s14.334 31.334 17.001 50.001s1.66699 30.834 -3 36.501s-18.667 6.33398 -42 2.00098s-47.166 -11.5 -71.499 -21.5s-42.833 -19.667 -55.5 -29c8.66699 -22.667 9.33398 -42.667 2.00098 -60s-17 -30.166 -29 -38.499
s-24.833 -14.666 -38.5 -18.999s-26.667 -6 -39 -5s-20.166 6.83301 -23.499 17.5s-1.66602 21.334 5.00098 32.001s14.834 20.5 24.501 29.5s21.5 16.833 35.5 23.5c-10 16 -25.5 27.333 -46.5 34s-46.833 6 -77.5 -2s-49.167 -18.5 -55.5 -31.5s-4.33301 -27.5 6 -43.5
s19.833 -27.333 28.5 -34s13.334 -12.334 14.001 -17.001l-5 -9c-12 8 -26.333 20.333 -43 37s-26.5 32.167 -29.5 46.5s0.166992 28.666 9.5 42.999s27 26.5 53 36.5s53 15.333 81 16s52.5 -2.66602 73.5 -9.99902s36.167 -17.333 45.5 -30
c34.667 20.667 69.334 36.334 104.001 47.001s61.167 15.334 79.5 14.001s30.666 -6.16602 36.999 -14.499s8.5 -23 6.5 -44s-5 -39.333 -9 -55s-4.83301 -27.5 -2.5 -35.5s6 -8.5 11 -1.5s15.5 19.833 31.5 38.5s38.333 37 67 55s56.5 28.667 83.5 32
s49.5 2.83301 67.5 -1.5s32.5 -14 43.5 -29s17.167 -31.5 18.5 -49.5c12.667 19.333 27.5 38 44.5 56s33.333 31.833 49 41.5s33.5 15.334 53.5 17.001s36.333 -1.66602 49 -9.99902s18 -18.666 16 -30.999s-0.333008 -18.5 5 -18.5c28.667 26.667 50.667 44.167 66 52.5
s31.166 13 47.5 14c16.333 1 30.833 -1.83301 43.5 -8.5s19 -21.834 19 -45.501s-0.333008 -46 -1 -67s1.16602 -36.5 5.5 -46.5c4.33301 -10 12.5 -15.833 24.5 -17.5s30 0.666016 54 6.99902s38.833 13 44.5 20s11 23 16 48s13.833 48 26.5 69s28.834 37.167 48.5 48.5
c19.667 11.333 37.334 17 53 17c15.667 0 26.834 -5.66699 33.5 -17c6.66699 -11.333 8.66699 -24.666 6 -39.999s-12 -34.333 -28 -57c46.667 6.66699 95 1.83398 145 -14.499s93 -37.833 129 -64.5c28 62 55.167 108.667 81.5 140s51.166 53 74.5 65
c23.333 12 44 16 62 12s31.167 -11.833 39.5 -23.5s12.5 -29.834 12.5 -54.501c0 -22 -4.5 -44.833 -13.5 -68.5s-20.667 -46.334 -35 -68.001s-31 -41.834 -50 -60.501zM1709 -639.015c-16 -6 -28 -13.1689 -36 -21.502s-12.833 -16.666 -14.5 -24.999s0 -14.166 5 -17.499
s12.667 -3.33301 23 0s18.5 10 24.5 20s5.33301 24.667 -2 44zM2385 -955.017c-16 2 -28.667 6.83398 -38 14.501s-16.166 15.5 -20.5 23.5c-4.33301 8 -2.83301 12.833 4.5 14.5s14.5 3.16699 21.5 4.5s13.167 -1.5 18.5 -8.5s11 -8.66699 17 -5s13.5 5 22.5 4
s13.333 -5.66699 13 -14s-4 -15.833 -11 -22.5s-16.167 -10.334 -27.5 -11.001zM1012 -392.016c5.33301 8.66699 11.333 20.166 18 34.499s9 34.833 7 61.5s-6 53.834 -12 81.501s-14.5 52.167 -25.5 73.5s-20 34 -27 38s-12.833 1.33301 -17.5 -8s-10.5 -26.333 -17.5 -51
l-23.5 -80zM1007 136.983c-16 27.333 -26.6689 43.5 -32.002 48.5s-12.666 6.83301 -21.999 5.5s-9.66602 -8.5 -0.999023 -21.5s27 -23.833 55 -32.5zM994.998 1009.98c-10 19.333 -18.998 34.333 -26.998 45s-14.333 14 -19 10s-5.33398 -10.833 -2.00098 -20.5
s9.16602 -17.667 17.499 -24s18.5 -9.83301 30.5 -10.5zM950 1623.98c-18 24 -30.667 36 -38 36s-12.333 -3 -15 -9s1 -12 11 -18s24 -9 42 -9zM1112 -148.017c5.33301 -29.333 7.8252 -51.834 7.49219 -67.501s-2.33301 -33.334 -6 -53.001s-9.66699 -36.5 -18 -50.5
l-23 -38.5c-7 -11.667 -12 -24.334 -15 -38.001s-3.83301 -28.334 -2.5 -44.001s3.66602 -29.5 6.99902 -41.5l117 -153.5c37.333 -49.667 78.333 -98.167 123 -145.5s82.667 -83.166 114 -107.499s58.333 -39.166 81 -44.499s43.334 -7.66602 62.001 -6.99902l-5 -12
c-10 -3.33301 -21 -5 -33 -5c-7.33301 0 -18.333 1.16699 -33 3.5s-32.5 9.33301 -53.5 21s-47.167 32 -78.5 61s-69 69 -113 120s-79.667 96.333 -107 136l-84 121.5c-24 4 -36.833 9.16699 -38.5 15.5s-3 16 -4 29s-6.83301 27.5 -17.5 43.5l-39.5 61l-49.5 76
c-14 -53.333 -31.333 -94.833 -52 -124.5s-41.167 -48.5 -61.5 -56.5s-39.166 -11 -56.499 -9s-39.333 12.167 -66 30.5s-53.5 43.166 -80.5 74.499s-49.167 63.333 -66.5 96s-27.666 55.667 -30.999 69s-1.66602 21.5 5.00098 24.5s11.834 -1.83301 15.501 -14.5
s12.667 -32.667 27 -60s36.833 -57.5 67.5 -90.5s60.834 -55.167 90.501 -66.5s55.667 -11.833 78 -1.5s42 31.166 59 62.499s31.5 67.333 43.5 108c-56 80.667 -102.333 140.334 -139 179.001s-75 72.167 -115 100.5s-69.667 44 -89 47s-34.5 -1.5 -45.5 -13.5
s-18.167 -28.167 -21.5 -48.5s-4.33301 -40.333 -3 -60s4.5 -37 9.5 -52s5.83301 -23.333 2.5 -25s-7.83301 3.16602 -13.5 14.499s-10 24.5 -13 39.5s-4.5 31.833 -4.5 50.5c0 32.667 3 58.167 9 76.5s16.167 31.833 30.5 40.5s35 9.83398 62 3.50098s59 -23.833 96 -52.5
s75.667 -65.667 116 -111s82.833 -100 127.5 -164c11.333 44.667 21 78.834 29 102.501s17 38.334 27 44.001s20.667 4.66699 32 -3s24 -26 38 -55s24.333 -57.333 31 -85s11 -62.5 13 -104.5c8.66699 8 16.334 18 23.001 30s12.334 27.167 17.001 45.5
s6.33398 44.5 5.00098 78.5h13zM1080.99 11.9824c10.667 -17.333 18.333 -37.832 23 -61.499s6 -47.834 4 -72.501l-8 -4c-4 26 -6.5 47.167 -7.5 63.5s-6.83301 39.5 -17.5 69.5zM936.991 461.983c15.333 -30 32.999 -54.4961 52.999 -73.4961s43.5 -37.333 70.5 -55
s65.167 -34.667 114.5 -51s98.166 -31 146.499 -44s103.333 -31.333 165 -55s104.834 -44.334 129.501 -62.001s39.167 -31.834 43.5 -42.501s6.83301 -21.334 7.5 -32.001c-4 -9.33301 -8.66699 -15.333 -14 -18s-12.333 -3 -21 -1s-15.334 4.33301 -20.001 7
s-19.834 8.33398 -45.501 17.001l-87.5 30c-32.667 11.333 -72.5 24.333 -119.5 39l-161.5 49.5c-60.667 18.333 -99.167 30.5 -115.5 36.5s-26.666 8.5 -30.999 7.5s-3.66602 -7 2.00098 -18s10.334 -24.167 14.001 -39.5s3.83398 -28.833 0.500977 -40.5
s-10.333 -21.5 -21 -29.5c9.33301 -14 18.666 -33.333 27.999 -58l-5 -6l-35 59c-28 -0.666992 -50.833 6.5 -68.5 21.5s-31.167 32.667 -40.5 53s-14.333 37.166 -15 50.499s2.5 21.833 9.5 25.5s14.833 4.16699 23.5 1.5s19 -11 31 -25s22.5 -29.833 31.5 -47.5
s16.5 -26.5 22.5 -26.5s10 4.83301 12 14.5s1.16699 19.667 -2.5 30s-8.66699 21.5 -15 33.5s-9.16602 21.833 -8.49902 29.5s5.66699 11.5 15 11.5s26.833 -4.16699 52.5 -12.5s55.667 -18.666 90 -30.999s81 -26.833 140 -43.5s115 -34.334 168 -53.001
s89.167 -32 108.5 -40s29.666 -10 30.999 -6s-0.5 9.66699 -5.5 17s-18.333 16.666 -40 27.999s-45 21.333 -70 30s-51.667 18.667 -80 30s-68.333 23.666 -120 36.999s-95.167 27 -130.5 41s-68 29.833 -98 47.5s-57.5 39 -82.5 64s-41.667 45.333 -50 61
s-12.833 27.834 -13.5 36.501zM922.99 474.987c-13.333 19.333 -21.0029 37.9971 -23.0029 55.9971s-0.666992 32.333 4 43s12.834 18.167 24.501 22.5s23.834 6 36.501 5s26.167 -4 40.5 -9s22.833 -5.83301 25.5 -2.5c-28 37.333 -49.667 69.833 -65 97.5
s-24.166 49.334 -26.499 65.001s-0.5 25.5 5.5 29.5s13 3.66699 21 -1s21.833 -6.5 41.5 -5.5s33.334 6.33301 41.001 16s11.667 22.334 12 38.001s-0.5 29.167 -2.5 40.5l7 2c6 -11.333 9.83301 -29 11.5 -53s1 -43.333 -2 -58s-11 -27.167 -24 -37.5
s-35.833 -14.166 -68.5 -11.499c5.33301 -13.333 13.5 -29.833 24.5 -49.5s24.333 -39.667 40 -60s30.5 -37.5 44.5 -51.5c-4.66699 -10.667 -11 -16.5 -19 -17.5s-18.5 1 -31.5 6s-30.833 9 -53.5 12s-39.334 2.16699 -50.001 -2.5s-16 -13.5 -16 -26.5
s3.33301 -26.833 10 -41.5zM1051.99 882.984l-14.0088 34.0078c-3.33301 8 -8.66602 18 -15.999 30c-13.333 0 -27.166 2.83301 -41.499 8.5s-26.833 16.667 -37.5 33s-17.834 32.666 -21.501 48.999s-3.83398 29.833 -0.500977 40.5s10 16 20 16s17.333 1.66699 22 5
c-7.33301 6.66699 -12.833 12.5 -16.5 17.5s-3.83398 13.5 -0.500977 25.5c11.333 -2.66699 23.333 -3.66699 36 -3s25.5 4.33398 38.5 11.001s20.167 18.167 21.5 34.5s-0.166992 31.166 -4.5 44.499s-11.5 26.666 -21.5 39.999s-21.333 24.666 -34 33.999l-37 28
c-12 9.33301 -22.167 20.5 -30.5 33.5s-14.333 24.167 -18 33.5s-2.83398 18.333 2.49902 27s16.666 11.5 33.999 8.5l46 -8c13.333 -2.33301 26.833 -3 40.5 -2s22.167 6.83301 25.5 17.5s3.83301 22.5 1.5 35.5s-7.33301 27.833 -15 44.5s-19.5 32.667 -35.5 48
c-19.333 -7.33301 -40.166 -7.16602 -62.499 0.500977s-38.166 18 -47.499 31s-15.166 27.5 -17.499 43.5s-2.16602 26.833 0.500977 32.5s8.33398 9.5 17.001 11.5s19.834 -0.833008 33.501 -8.5s25.167 -18.167 34.5 -31.5s16.833 -19.833 22.5 -19.5
s11.5 2.16602 17.5 5.49902s12.667 11.666 20 24.999s9.83301 38.833 7.5 76.5s-5.16602 70.667 -8.49902 99s-8.16602 57.833 -14.499 88.5s-12.166 71.167 -17.499 121.5s-10.333 88.666 -15 115c-4.66699 26.333 -6.83398 50.166 -6.50098 71.5
c0.333008 21.333 3.5 41.5 9.5 60.5s14.333 36.167 25 51.5s18.834 31.166 24.501 47.5c5.66699 16.333 8.5 26.333 8.5 30s2.33301 7.83398 7 12.5c8 -0.666992 11 -10.167 9 -28.5s-8 -35.5 -18 -51.5s-18.167 -33.333 -24.5 -52s-10.333 -36.834 -12 -54.5
c-1.66699 -17.667 0.166016 -45.167 5.49902 -82.5s9.66602 -77.833 12.999 -121.5s9.33301 -91.667 18 -144s15.334 -99.833 20.001 -142.5s5 -78 1 -106s-16.333 -52.667 -37 -74c20 -22.667 35 -46.834 45 -72.501s14.333 -50 13 -73s-6.66602 -38.167 -15.999 -45.5
s-21 -12.5 -35 -15.5s-29.167 -4.83301 -45.5 -5.5s-23.666 -2.83398 -21.999 -6.50098s8.83398 -10 21.501 -19s29.167 -25.167 49.5 -48.5s33.5 -46.833 39.5 -70.5s7.83301 -46 5.5 -67s-14.166 -40.5 -35.499 -58.5c20 -10 33 -24.333 39 -43s6.66699 -37.334 2 -56.001
s-16 -32.334 -34 -41.001c14 -28 23 -51 27 -69zM1007.98 1009.99c19.333 2 30.499 8.66504 33.499 19.998s2 21.833 -3 31.5s-12 15.667 -21 18s-19.167 2.83301 -30.5 1.5s-16.666 -2.66602 -15.999 -3.99902s4 -6.66602 10 -15.999s15 -26.333 27 -51z" />
    <glyph glyph-name="space" unicode=" " horiz-adv-x="612" 
 />
    <glyph glyph-name="exclam" unicode="!" horiz-adv-x="1124" 
d="M463 510c118 314.667 186.668 543.999 206.001 687.999s27.166 238.833 23.499 284.5s13.333 84.334 51 116.001s71.167 47.834 100.5 48.501c25.333 -0.666992 41 -12.834 47 -36.501s9 -45.5 9 -65.5c0 -36 -6.66699 -93.167 -20 -171.5s-46.833 -188.5 -100.5 -330.5
s-136.167 -342 -247.5 -600zM295.001 -5.00098c-60 32.667 -83.499 62.501 -70.499 89.501s-1.83301 56.167 -44.5 87.5c6 52.667 59.667 80.667 161 84c67.333 -16 103.666 -52.333 108.999 -109c-8 -63.333 -23 -103.833 -45 -121.5s-58.667 -27.834 -110 -30.501z" />
    <glyph glyph-name="quotedbl" unicode="&#x22;" horiz-adv-x="1123" 
d="M619 1202l16.001 126.998c8.66699 64 29.834 120.833 63.501 170.5s69.5 92.834 107.5 129.501l31 -10c12 -21.333 18 -43.333 18 -66v-8c-1.33301 -22 -8.33301 -44.667 -21 -68c-27.333 -49.333 -46.833 -89.666 -58.5 -120.999s-23.334 -78.833 -35.001 -142.5
s-30.5 -107.167 -56.5 -130.5c-10.667 22 -32.334 61.667 -65.001 119zM328.001 1222c0 15.333 1.66797 31.668 5.00098 49.001l27 161c10 60 38.333 112 85 156c44.667 41.333 77.667 62 99 62h3c21.333 -2.66699 32 -24.334 32 -65.001
c-35.333 -90 -65.5 -163.667 -90.5 -221s-44.667 -114.833 -59 -172.5s-29.833 -88.5 -46.5 -92.5c-12.667 0.666992 -26.334 17.667 -41.001 51c-9.33301 20.667 -14 44.667 -14 72z" />
    <glyph glyph-name="numbersign" unicode="#" horiz-adv-x="3134" 
d="M2578 1120c-72.667 -41.333 -120 -84.667 -142 -130s-27.167 -91.333 -15.5 -138s30.334 -76.5 56 -89.5c25.667 -13 51 -6.83301 76 18.5s43 57.333 54 96s15.833 79 14.5 121s-15.666 82.667 -43 122zM2571 1293c49.333 -50 86 -96.167 110 -138.5s40 -89.5 48 -141.5
c1.33301 -13.333 2 -26.666 2 -39.999c0 -38.667 -8 -77.667 -24 -117c-22.667 -53.333 -51.5 -92.833 -86.5 -118.5s-61.333 -35.334 -79 -29.001s-31.5 4.33301 -41.5 -6s-41 -17.833 -93 -22.5c-39.333 0 -70.5 7.33301 -93.5 22s-41.333 36.5 -55 65.5
s-21.5 59.5 -23.5 91.5c3.33301 52 21 101 53 147s65.5 80 100.5 102s69.833 36.333 104.5 43s55.167 5.66699 61.5 -3s11.166 -2 14.5 20c3.33301 22 -8.33398 51 -35 87zM2208 1092c-80 -24 -145.662 -57.1621 -196.995 -99.4951s-97.166 -87.333 -137.499 -135
s-83 -108.667 -128 -183l-126.5 -217c-39.333 -70.333 -71 -144 -95 -221s-38.333 -136.833 -43 -179.5s-21.834 -66.667 -51.501 -72s-47.5 9.16699 -53.5 43.5s10 135.5 48 303.5s100.5 389.333 187.5 664l180 566c33 102.667 47.167 152 42.5 148
s-23.834 -44.333 -57.501 -121s-70.667 -175.167 -111 -295.5l-132 -380c-47.667 -133 -108.834 -265 -183.501 -396s-150.667 -231.5 -228 -301.5s-154.5 -128.333 -231.5 -175s-145.833 -78.5 -206.5 -95.5s-127.667 -25.5 -201 -25.5c-28.667 0 -59.167 6.5 -91.5 19.5
s-60.166 33.167 -83.499 60.5s-36.333 55.666 -39 84.999c4.66699 30 20.167 52.333 46.5 67s50.166 21.5 71.499 20.5s37.666 -7.33301 48.999 -19s21.666 -30.834 30.999 -57.501s31.833 -47.167 67.5 -61.5s74 -18.333 115 -12s98.667 29 173 68
s145.833 89.667 214.5 152s131.834 137 189.501 224s111.834 191.667 162.501 314s105.167 271.166 163.5 446.499s116.666 335.666 174.999 480.999l138.5 336c34 78.667 78.333 118 133 118c42.667 0 65.5 -19.667 68.5 -59s-11 -106 -42 -200l-135.5 -418l-160 -488.5
c-47.333 -141 -78.5 -238.5 -93.5 -292.5s-22.333 -83.667 -22 -89s25.666 30.167 75.999 106.5s95.166 137.166 134.499 182.499s90.5 90 153.5 134s134.833 74.667 215.5 92z" />
    <glyph glyph-name="dollar" unicode="$" horiz-adv-x="2461" 
d="M894 292c-109.333 -87.333 -185.999 -156.666 -229.999 -207.999c20 -6.66699 41 -12.334 63 -17.001c113.333 -24.667 195.166 -31 245.499 -19s75.5 31.333 75.5 58s-31.667 71 -95 133c-18 18 -37.667 35.667 -59 53zM1797 1766
c-187.333 -30.667 -387.332 -95.668 -599.999 -195.001s-379.334 -203.666 -500.001 -312.999s-180.667 -212 -180 -308s38.667 -187.333 114 -274c71.333 -82 166.333 -169.667 285 -263c149.333 122 270.5 234.333 363.5 337s191 239 294 409s177.5 372.333 223.5 607z
M756.002 -617.001c-42.667 -3.33301 -81.666 -5.00488 -116.999 -5.00488c-55.333 0 -105.333 20.667 -150 62s-72.834 95.833 -84.501 163.5s-6.66699 141.667 15 222s51.834 142.833 90.501 187.5c-97.333 20 -166.666 38.667 -207.999 56
c-53.333 22.667 -82.333 46.334 -87 71.001c34.667 60.667 72.5 93.834 113.5 99.501s89.5 -15.166 145.5 -62.499c27.333 -24.667 62.666 -46.334 105.999 -65.001c55.333 66.667 129.333 136 222 208c9.33301 8 19 15.667 29 23
c-38.667 30.667 -81.667 61.334 -129 92.001c-103.333 70 -180.5 138.333 -231.5 205s-78.5 151.834 -82.5 255.501s36.833 210.334 122.5 320.001s226.167 217 421.5 322s361.666 178.833 498.999 221.5s265 74.667 383 96c10 106 14 190 12 252s3.66699 120 17 174l23 -5
c12 -23.333 37.667 -46.333 77 -69c12 -42 14.833 -91.333 8.5 -148s-10.166 -116.334 -11.499 -179.001c107.333 12.667 200.5 17.334 279.5 14.001s146.333 -12.166 202 -26.499s100.167 -39.5 133.5 -75.5s50 -77.667 50 -125c0 -70 -54.333 -114 -163 -132l-15 13
c63.333 33.333 91.5 77.833 84.5 133.5s-36.667 92.167 -89 109.5s-125.333 25.5 -219 24.5s-190.5 -10.5 -290.5 -28.5c0 -44 -24 -150.5 -72 -319.5s-155.5 -358.333 -322.5 -568s-341.5 -385.167 -523.5 -526.5l-15 -11c96 -78.667 152 -139.667 168 -183
c17.333 -50.667 3.5 -96.5 -41.5 -137.5s-102.833 -65.5 -173.5 -73.5c-72 -8.66699 -185 -0.333984 -339 24.999c-50.667 -58 -84.834 -132.333 -102.501 -223s-9.5 -171.5 24.5 -242.5s116.333 -106.833 247 -107.5z" />
    <glyph glyph-name="percent" unicode="%" horiz-adv-x="1794" 
d="M495 1582c-40.667 -60.667 -66.668 -112.499 -78.001 -155.499s-15.833 -81.333 -13.5 -115s9.5 -56.834 21.5 -69.501s32.333 -16.167 61 -10.5s55.834 27.834 81.501 66.501s38.5 77.167 38.5 115.5s-1.16699 68.166 -3.5 89.499s-11.833 40.5 -28.5 57.5
s-43 24.167 -79 21.5zM1195 1582c-18.667 -22 -38.3311 -41.998 -58.998 -59.998c-67.333 -60 -136.833 -91.667 -208.5 -95s-124.5 6.5 -158.5 29.5s-59 36.833 -75 41.5c9.33301 -61.333 6 -115.166 -10 -161.499s-36.833 -83 -62.5 -110s-49.834 -48 -72.501 -63
s-56.667 -24.833 -102 -29.5c-30 0 -61.833 8 -95.5 24s-61.167 47.667 -82.5 95s-32 97.666 -32 150.999s17.333 102 52 146s78 76.833 130 98.5s85.5 40.834 100.5 57.501s46.167 25 93.5 25c20.667 -42 52 -83 94 -123s90.667 -70.333 146 -91
s108.666 -21.334 159.999 -2.00098s98.666 50.333 141.999 93c42.667 42 93 103 151 183c42.667 75.333 80.334 114.666 113.001 117.999c29.333 -11.333 46.666 -24 51.999 -38c-4 -48.667 -41.667 -134.834 -113 -258.501l-186 -316c-52.667 -87 -133.5 -238 -242.5 -453
l-256 -500c-61.667 -118.333 -114.667 -200 -159 -245s-78.5 -72.833 -102.5 -83.5c-18.667 4.66699 -28 21 -28 49c26.667 36 74.334 124 143.001 264s143.5 283 224.5 429l292.5 540zM1416 683.003c-36.667 -10 -76.5 -48.5 -119.5 -115.5s-71.333 -124 -85 -171
s-14.167 -82.333 -1.5 -106s37.667 -35.5 75 -35.5s69.833 21.5 97.5 64.5s41.5 99.833 41.5 170.5c0 96.667 -2.66699 161 -8 193zM1497 859.003c10.667 -3.33301 19.3301 -23.668 25.9971 -61.001s10 -99.666 10 -186.999c-6.66699 -139.333 -21 -231.666 -43 -276.999
s-51.5 -88 -88.5 -128s-74.833 -60 -113.5 -60c-58.667 0 -100.667 7.83301 -126 23.5s-45 40.667 -59 75s-21 66.166 -21 95.499c0 28.667 5.83301 64 17.5 106s31.834 89.333 60.501 142s57.834 99.667 87.501 141s66.834 72 111.501 92s90.667 32.667 138 38z" />
    <glyph glyph-name="ampersand" unicode="&#x26;" horiz-adv-x="2267" 
d="M1416 747c54 -31.333 94.9922 -76.4951 122.992 -135.495s30.167 -125 6.5 -198s-68 -139.667 -133 -200s-140.5 -109.333 -226.5 -147s-171.667 -56.5 -257 -56.5c-130 0 -239.167 26.833 -327.5 80.5s-152 117.167 -191 190.5s-58.5 144.666 -58.5 213.999
c0 94 15.5 170.833 46.5 230.5s67.333 108.5 109 146.5s87.167 70.333 136.5 97c-44 84.667 -48.667 163.334 -14 236.001s95.334 129.167 182.001 169.5s178.334 60.5 275.001 60.5c132 0 219 -26.167 261 -78.5s43 -98 3 -137s-66.667 -50.5 -80 -34.5
c-9.33301 12.667 -2.16602 34 21.501 64s9 56.667 -44 80s-124.667 29.5 -215 18.5s-168.666 -47.667 -234.999 -110s-81.833 -138.166 -46.5 -227.499c73.333 13.333 132.333 3.16602 177 -30.501s64.834 -71.834 60.501 -114.501s-28.333 -67.334 -72 -74.001
s-83.5 1.33301 -119.5 24s-68.333 51.667 -97 87c-56 -24.667 -100.667 -60 -134 -106s-53.166 -103.667 -59.499 -173s4.83398 -143.833 33.501 -223.5s81.834 -149.834 159.501 -210.501s170.5 -88 278.5 -82s202.167 36.5 282.5 91.5s137.333 117.5 171 187.5
s42.667 131.167 27 183.5s-44.667 92.833 -87 121.5s-86.166 35.5 -131.499 20.5s-77.333 -38.5 -96 -70.5s-15.667 -53.667 9 -65s33.167 -32.5 25.5 -63.5s-27 -55.333 -58 -73s-62.833 -11.334 -95.5 18.999s-44.834 73 -36.501 128s40.833 103.5 97.5 145.5
s120.334 70.667 191.001 86l203.5 42.5c65 13 115.833 32 152.5 57s54.5 52.5 53.5 82.5s-13 48.167 -36 54.5s-42.333 7.66602 -58 3.99902s-26.334 -1 -32.001 8s3.83301 21 28.5 36s57 22.5 97 22.5s70.333 -4.33301 91 -13s31 -39.667 31 -93
c-7.33301 -36 -28.5 -73.167 -63.5 -111.5s-79.667 -70.833 -134 -97.5s-119.5 -47.667 -195.5 -63zM803.992 939.005c16 -24.667 35.332 -42.501 57.999 -53.501s35.667 -9.33301 39 5s-5.16699 28.833 -25.5 43.5s-44.166 16.334 -71.499 5.00098z" />
    <glyph glyph-name="quotesingle" unicode="'" horiz-adv-x="840" 
d="M325 1150c-9.33301 20.667 -13.999 44.6689 -13.999 72.002c0 15.333 1.66699 31.666 5 48.999l27 161c10 60 38.333 112 85 156c44.667 41.333 77.667 62 99 62h3c21.333 -2.66699 32 -24.334 32 -65.001c-35.333 -90 -65.5 -163.667 -90.5 -221
s-44.667 -114.833 -59 -172.5s-29.833 -88.5 -46.5 -92.5c-12.667 0.666992 -26.334 17.667 -41.001 51z" />
    <glyph glyph-name="parenleft" unicode="(" horiz-adv-x="960" 
d="M1087 1835c-92.667 -13.333 -185.332 -65.668 -277.999 -157.001s-180 -225.833 -262 -403.5s-132.167 -345.667 -150.5 -504s-12.333 -303.833 18 -436.5s78 -237 143 -313s119.333 -125.167 163 -147.5s95.167 -42.166 154.5 -59.499l-8 -18l-104 8
c-46 4.66699 -100.5 23.5 -163.5 56.5s-121.333 76.833 -175 131.5s-99.334 130.667 -137.001 228s-56.5 230.333 -56.5 399l4 146c3.33301 70.667 20.5 151.167 51.5 241.5s67.833 179.333 110.5 267s89.667 164.667 141 231s105 125.5 161 177.5s121.167 97 195.5 135
s146.5 57.667 216.5 59z" />
    <glyph glyph-name="parenright" unicode=")" horiz-adv-x="938" 
d="M218 1900c46.667 0 108.334 -29.665 185.001 -88.998s136 -124.333 178 -195s74.833 -145.5 98.5 -224.5s38.167 -156.167 43.5 -231.5s9.33301 -148 12 -218c-4.66699 -66.667 -13.167 -140 -25.5 -220s-36.833 -170.833 -73.5 -272.5s-98.167 -218.334 -184.5 -350.001
s-178.5 -231.5 -276.5 -299.5l-17 22c62 71.333 119.667 151.5 173 240.5s98.333 192.333 135 310s60.167 250.167 70.5 397.5s9.83301 282.666 -1.5 405.999s-39.833 233.5 -85.5 330.5s-94.667 176.5 -147 238.5s-87.333 75.333 -105 40s-31.834 -46.333 -42.501 -33
c2 74 13 123.333 33 148h30z" />
    <glyph glyph-name="asterisk" unicode="*" horiz-adv-x="1410" 
d="M332 1761c18 -8.66699 36.501 -15.499 55.501 -20.499s36.667 -8.66699 53 -11s32 -0.333008 47 6s27.5 13.5 37.5 21.5c-6 5.33301 -13 10.166 -21 14.499s-22.5 5.5 -43.5 3.5s-40.333 -3.5 -58 -4.5s-32.334 -2 -44.001 -3s-20.5 -3.16699 -26.5 -6.5zM112.001 1763
c1.33301 5.33301 3.33008 9.83301 5.99707 13.5s9.5 5.5 20.5 5.5s25.833 0.833008 44.5 2.5l74.5 6.5c31 2.66699 66.167 5.16699 105.5 7.5l103.5 6c29.667 1.66699 53.334 -1.33301 71.001 -9s35.167 -17.5 52.5 -29.5c-4.66699 -8.66699 -14.167 -18.5 -28.5 -29.5
s-33.833 -22 -58.5 -33s-58.167 -12 -100.5 -3s-87.666 21 -135.999 36s-82.166 22.667 -101.499 23s-30.333 -3.16699 -33 -10.5l-11 7zM970.998 1755c-5.33301 3.33301 -13.832 5.33301 -25.499 6l-44.5 2.5c-18 1 -37.333 2.5 -58 4.5s-35.167 1 -43.5 -3
s-15.5 -8.66699 -21.5 -14c10.667 -8.66699 23.334 -16.167 38.001 -22.5s30.167 -8.33301 46.5 -6s34.166 6 53.499 11s37.666 12.167 54.999 21.5zM1183 1749l-12.0029 -7c-2 7.33301 -12.667 10.833 -32 10.5s-53.166 -8 -101.499 -23s-93.833 -27 -136.5 -36
s-76.167 -8 -100.5 3s-43.666 22 -57.999 33s-23.833 20.833 -28.5 29.5c17.333 12 34.833 21.833 52.5 29.5s41.167 10.667 70.5 9l103.5 -6c39.667 -2.33301 75 -4.83301 106 -7.5l74.5 -6.5c18.667 -1.66699 33.334 -2.5 44.001 -2.5s17.5 -1.83301 20.5 -5.5
s5.16699 -8.16699 6.5 -13.5zM414.996 1998c8 -18 17.502 -35.332 28.502 -51.999s22 -31.167 33 -43.5s24.167 -20.833 39.5 -25.5s29.666 -7.33398 42.999 -8.00098c-0.666992 8 -2.83398 16.333 -6.50098 25s-14 19 -31 31l-47 34.5l-35.5 26.5
c-9.33301 6.66699 -17.333 10.667 -24 12zM248.998 2142c4.66699 4 9.17188 6.33105 13.5049 6.99805s10.666 -2.5 18.999 -9.5s20.166 -15.833 35.499 -26.5l61 -43.5l85 -63.5l82.5 -63c23.667 -18 39.667 -35.667 48 -53s15.166 -36 20.499 -56
c-9.33301 -4 -23 -5.5 -41 -4.5s-40 5.33301 -66 13s-52.167 28.834 -78.5 63.501s-52.833 73.334 -79.5 116.001s-47.334 70.5 -62.001 83.5s-25.334 17.5 -32.001 13.5l-4 13zM900.003 1995c-6.66699 -1.33301 -14.665 -5.33398 -23.998 -12.001l-35.5 -26.5l-47 -35
c-17 -12.333 -27.333 -22.666 -31 -30.999s-5.83398 -16.5 -6.50098 -24.5c13.333 0 27.666 2.5 42.999 7.5s28.5 13.667 39.5 26s22 26.833 33 43.5s20.5 34 28.5 52zM1064 2129l-3.99609 -13.9971c-6.66699 4.66699 -17.334 0.5 -32.001 -12.5
s-35.334 -40.833 -62.001 -83.5s-53.167 -81.334 -79.5 -116.001s-52.5 -55.834 -78.5 -63.501s-48 -12 -66 -13s-31.667 0.5 -41 4.5c6 20 13 38.667 21 56s23.833 35 47.5 53l82.5 63l85 63l61 43c15.333 10.667 27.166 19.667 35.499 27s14.666 10.666 18.999 9.99902
s8.83301 -3 13.5 -7zM665.009 2103c-8.66699 -17.333 -15.667 -35.668 -21 -55.001s-9.16602 -37.166 -11.499 -53.499s-0.5 -32 5.5 -47s13.333 -27.5 22 -37.5c5.33301 6 10 13.167 14 21.5s5.16699 22.833 3.5 43.5s-2.83398 40 -3.50098 58s-1.5 32.833 -2.5 44.5
s-3.16699 20.167 -6.5 25.5zM667.009 2324c6 -1.33301 10.667 -3.5 14 -6.5s5 -10 5 -21s0.833008 -25.833 2.5 -44.5l6.5 -74c2.66699 -30.667 5 -65.834 7 -105.5c2 -39.667 3.83301 -74.334 5.5 -104.001s-1.5 -53.167 -9.5 -70.5s-17.667 -34.666 -29 -51.999
c-9.33301 4.66699 -19.333 14.167 -30 28.5s-21.5 33.833 -32.5 58.5s-12 58.167 -3 100.5s21.167 87.666 36.5 136c15.333 48.333 23.333 82.166 24 101.5c0.666992 19.333 -3 30 -11 32l8 12zM748.009 1633c0.666992 -7.33301 2.83203 -15.332 6.49902 -23.999
s14 -19 31 -31l47 -34.5l35.5 -26.5c9.33301 -6.66699 17.333 -10.667 24 -12c-8 18 -17.5 35.167 -28.5 51.5s-22 30.666 -33 42.999s-24.167 21 -39.5 26s-29.666 7.5 -42.999 7.5zM1058.01 1360c-4 -3.33301 -8.33398 -5.33105 -13.001 -5.99805s-11.167 2.5 -19.5 9.5
s-20.166 15.833 -35.499 26.5l-60.5 43l-85 63.5l-83 63.5c-23.667 18 -39.5 35.5 -47.5 52.5s-14.667 35.833 -20 56.5c8.66699 4 22 5.5 40 4.5s40 -5.33301 66 -13s52.167 -28.834 78.5 -63.501s53 -73.334 80 -116.001s47.667 -70.5 62 -83.5s24.833 -17.5 31.5 -13.5
l4 -13zM408.006 1508c6 1.33301 13.833 5.33301 23.5 12s21.5 15.5 35.5 26.5s29.5 22.5 46.5 34.5s27.333 22.333 31 31s5.83398 17 6.50098 25c-12.667 0 -26.834 -2.5 -42.501 -7.5s-28.834 -13.667 -39.501 -26s-21.667 -26.833 -33 -43.5s-20.666 -34 -27.999 -52z
M243.006 1374l5 13.998c6 -4.66699 16.333 -0.5 31 12.5s35.5 40.833 62.5 83.5s53.667 81.334 80 116.001s52.333 55.834 78 63.501s47.5 12 65.5 13s31.667 -0.5 41 -4.5c-5.33301 -20 -12.166 -38.667 -20.499 -56s-24.333 -35 -48 -53l-82.5 -63l-85 -63.5l-61 -43.5
c-15.333 -10.667 -27 -19.5 -35 -26.5s-14.333 -10.167 -19 -9.5s-9.33398 3 -14.001 7zM642.006 1400c9.33301 17.333 16.5 35.667 21.5 55s8.66699 37 11 53s0.5 31.5 -5.5 46.5s-13.333 27.833 -22 38.5c-5.33301 -6 -10 -13.167 -14 -21.5s-5.16699 -22.833 -3.5 -43.5
s3 -40 4 -58l2.5 -44.5c0.666992 -11.667 2.66699 -20.167 6 -25.5zM640.006 1190c-6 0.666992 -10.668 2.49902 -14.001 5.49902s-5 10 -5 21s-0.833008 25.833 -2.5 44.5l-6.5 74.5c-2.66699 31 -5 66.167 -7 105.5s-3.83301 73.833 -5.5 103.5s1.5 53.334 9.5 71.001
s18 34.834 30 51.501c8.66699 -4 18.5 -13.167 29.5 -27.5s22 -33.833 33 -58.5s11.833 -58.334 2.5 -101.001s-21.666 -88 -36.999 -136s-23.333 -81.833 -24 -101.5s3 -30.5 11 -32.5l-8 -12z" />
    <glyph glyph-name="plus" unicode="+" horiz-adv-x="1236" 
d="M1055 422c-4.66699 -35.333 -15.8311 -61.1729 -33.498 -77.5059s-45.667 -29.666 -84 -39.999s-85.333 -15 -141 -14s-107.834 2.16699 -156.501 3.5c-26 -57.333 -54.667 -114.166 -86 -170.499s-66.666 -92.166 -105.999 -107.499l-20 24
c14.667 37.333 27.167 86.333 37.5 147s18.5 102.334 24.5 125.001c-71.333 6 -130.333 18 -177 36c-15.333 17.333 -23 36 -23 56c81.333 -3.33301 157 -5.66602 227 -6.99902c22 66.667 46 114.167 72 142.5s50 49.833 72 64.5s67 25.334 135 32.001
c-42.667 -71.333 -69.834 -125.333 -81.501 -162s-21.5 -64.667 -29.5 -84c99.333 -4.66699 179.166 -6 239.499 -4s98.5 14.333 114.5 37z" />
    <glyph glyph-name="comma" unicode="," horiz-adv-x="751" 
d="M414 224c36.667 0 66.8311 -12.1689 90.498 -36.502s35.5 -65.166 35.5 -122.499c0 -52.667 -27.5 -119.5 -82.5 -200.5s-115.5 -146.167 -181.5 -195.5c-47.333 -42 -81 -63 -101 -63s-30 15.667 -30 47c0 21.333 13.833 42.833 41.5 64.5s58 50.834 91 87.501
s55.833 78.167 68.5 124.5s9.83398 87.5 -8.49902 123.5s-20.666 73.5 -6.99902 112.5s41.5 58.5 83.5 58.5z" />
    <glyph glyph-name="hyphen" unicode="-" horiz-adv-x="1201" 
d="M249 456c0 8.66699 1.33105 14.668 3.99805 18.001s11.5 5.83301 26.5 7.5s38.833 3.16699 71.5 4.5s69.834 2.66602 111.501 3.99902s96.5 4.33301 164.5 9s128.667 12.667 182 24l150 31c27.333 -8 43.666 -23.667 48.999 -47c-16 -12.667 -42.167 -22.167 -78.5 -28.5
s-72.666 -15.833 -108.999 -28.5s-88.666 -23 -156.999 -31s-125.5 -12.667 -171.5 -14s-88.667 -2 -128 -2c-10 0 -29.833 0.166992 -59.5 0.5s-46 5 -49 14s-5.16699 21.833 -6.5 38.5z" />
    <glyph glyph-name="hyphen" unicode="&#x2010;" horiz-adv-x="1201" 
d="M249 456c0 8.66699 1.33105 14.668 3.99805 18.001s11.5 5.83301 26.5 7.5s38.833 3.16699 71.5 4.5s69.834 2.66602 111.501 3.99902s96.5 4.33301 164.5 9s128.667 12.667 182 24l150 31c27.333 -8 43.666 -23.667 48.999 -47c-16 -12.667 -42.167 -22.167 -78.5 -28.5
s-72.666 -15.833 -108.999 -28.5s-88.666 -23 -156.999 -31s-125.5 -12.667 -171.5 -14s-88.667 -2 -128 -2c-10 0 -29.833 0.166992 -59.5 0.5s-46 5 -49 14s-5.16699 21.833 -6.5 38.5z" />
    <glyph glyph-name="period" unicode="." horiz-adv-x="790" 
d="M409 -2c-56.667 30.667 -78.8311 58.834 -66.498 84.501s-1.83398 53.5 -42.501 83.5c6 50 57 76.333 153 79c63.333 -14.667 97.666 -49 102.999 -103c-7.33301 -60 -21.5 -98.333 -42.5 -115s-55.833 -26.334 -104.5 -29.001z" />
    <glyph glyph-name="slash" unicode="/" horiz-adv-x="937" 
d="M1102 2074c30.667 -13.333 48.667 -28.666 54 -45.999c-4 -58.667 -43 -162.667 -117 -312l-193 -382c-54.667 -105.333 -138.667 -287.833 -252 -547.5l-266 -604c-64 -143 -119 -241.833 -165 -296.5s-81.333 -88.334 -106 -101.001c-19.333 6 -29 25.667 -29 59
c28 44 77.5 150.5 148.5 319.5s148.5 341.667 232.5 518l303.5 652.5l255 560.5c51.667 115 96.5 174.833 134.5 179.5z" />
    <glyph glyph-name="zero" unicode="0" horiz-adv-x="952" 
d="M425 122c35.333 0 67.8311 13.333 97.498 40s54.834 74.5 75.501 143.5s31.834 154.667 33.501 257s-9.5 158.833 -33.5 169.5c-22.667 0.666992 -48.167 -18.833 -76.5 -58.5s-61.833 -102.167 -100.5 -187.5s-56.5 -167.333 -53.5 -246s22.167 -118 57.5 -118z
M757.998 787c0 -42 -6.83203 -136.001 -20.499 -282.001s-46.5 -267 -98.5 -363s-128.333 -144.333 -229 -145c-64 4 -113.833 26.833 -149.5 68.5s-53.5 105.834 -53.5 192.501c0 83.333 24.667 176 74 278s100.166 191.667 152.499 269s90.5 127 114.5 149
s56.667 33 98 33c45.333 0 75.333 -10 90 -30s22 -76.667 22 -170z" />
    <glyph glyph-name="one" unicode="1" horiz-adv-x="928" 
d="M808 1345c18.667 -8 34 -25.333 46 -52c-10 -26 -48.167 -107.333 -114.5 -244l-208.5 -444l-198.5 -419c-59.667 -120 -95.5 -185 -107.5 -195s-22.333 -15 -31 -15h-2c-1.33301 22 -2 42 -2 60v18c14 58 38.333 135.833 73 233.5s86.667 236 156 415
s152.333 379.167 249 600.5c44.667 17.333 73.5 26.333 86.5 27s30.833 5.66699 53.5 15z" />
    <glyph glyph-name="two" unicode="2" horiz-adv-x="1579" 
d="M849 232c174.667 84 265.334 184.499 272.001 301.499s-23.333 203.167 -90 258.5s-148.5 86.333 -245.5 93s-176 3.16699 -237 -10.5s-103.833 -10 -128.5 11s-39.667 45 -45 72s0.166992 61.667 16.5 104s42.333 80.166 78 113.499s86.167 51 151.5 53
c34 -4.66699 59.167 -22.167 75.5 -52.5s1.66602 -55.666 -44.001 -75.999s-69.167 -47 -70.5 -80s50.334 -45.667 155.001 -38s196.167 -3.5 274.5 -33.5s139.333 -66.667 183 -110s70.667 -104.333 81 -183s-14.167 -160 -73.5 -244s-124.666 -152.667 -195.999 -206
c119.333 -28 233.666 -70.667 342.999 -128c-2.66699 -47.333 -24.334 -73 -65.001 -77c-67.333 30 -125 54.167 -173 72.5s-101.667 32.666 -161 42.999s-117.833 12.166 -175.5 5.49902s-127.834 -28.167 -210.501 -64.5s-152.5 -53.166 -209.5 -50.499
s-94.833 26.334 -113.5 71.001c13.333 40.667 64.833 74.334 154.5 101.001s172.334 43 248.001 49s144.167 7.66699 205.5 5z" />
    <glyph glyph-name="three" unicode="3" horiz-adv-x="1369" 
d="M856 876c-8.66699 51.333 -6.83301 86.3291 5.5 104.996s10 33.834 -7 45.501s-53.167 12.667 -108.5 3s-100.833 -9.16699 -136.5 1.5s-57 33.5 -64 68.5s5.83301 71.333 38.5 109s72.5 67.5 119.5 89.5s87.167 33 120.5 33c6 -31.333 -4 -55.166 -30 -71.499
s-51 -34.833 -75 -55.5s-24.5 -43.167 -1.5 -67.5s68 -28.5 135 -12.5s114.667 7 143 -27s36.333 -76.333 24 -127s-31.5 -86 -57.5 -106c71.333 -13.333 126.5 -45.833 165.5 -97.5s58.5 -106.5 58.5 -164.5c0 -52.667 -9.66699 -111.667 -29 -177
s-59.166 -135.5 -119.499 -210.5s-128.5 -132.667 -204.5 -173s-162.667 -60.5 -260 -60.5c-62 0 -123 22.667 -183 68s-122.667 83.666 -188 114.999s-111 38.666 -137 21.999s-29.833 -35.167 -11.5 -55.5s43.166 -36.666 74.499 -48.999l119 -47.5
c48 -19.333 53.667 -32.333 17 -39s-95.167 5 -175.5 35s-133.166 70 -158.499 120l-5 31c16 30 48.833 60.667 98.5 92s96 49 139 53s92 -13.333 147 -52s123.5 -84.334 205.5 -137.001s145.667 -77 191 -73s94 25.833 146 65.5s97.5 101.834 136.5 186.501
s58.333 165.5 58 242.5s-13.5 133.833 -39.5 170.5s-58.333 54.334 -97 53.001c-40.667 -49.333 -86.5 -84.833 -137.5 -106.5s-88.667 -24.667 -113 -9s-32.833 38.334 -25.5 68.001s29.166 58.334 65.499 86.001s88.5 46.167 156.5 55.5z" />
    <glyph glyph-name="four" unicode="4" horiz-adv-x="2133" 
d="M628 419c-82 10.667 -145.667 15.5 -191 14.5s-88.833 -4.16699 -130.5 -9.5s-73.167 -12.833 -94.5 -22.5s-34.666 -26.167 -39.999 -49.5c10.667 -10.667 30.667 -24 60 -40s74.166 -22.167 134.499 -18.5s147.5 45.5 261.5 125.5zM1049 -184l125.497 217.501
c28.333 49 70.166 152.5 125.499 310.5c-156.667 23.333 -266.5 38.5 -329.5 45.5l-265.5 29.5l-154.5 -108c-49.667 -34.667 -105.667 -54.667 -168 -60s-115.666 -1.33301 -159.999 12s-73.166 28 -86.499 44s-20 36.333 -20 61c8.66699 26.667 30.334 48.5 65.001 65.5
s87.167 29.5 157.5 37.5s185.5 9.33301 345.5 4c30 26.667 85.5 90.167 166.5 190.5s140.167 197.166 177.5 290.499s68.333 185.333 93 276c60.667 21.333 119.334 32 176.001 32c0 -35.333 -13.333 -90.833 -40 -166.5s-55.5 -140.167 -86.5 -193.5
s-86.5 -125.333 -166.5 -216l-208 -229c83.333 -16 169 -26.667 257 -32s182.667 -11.666 284 -18.999c76.667 197.333 125.167 310.666 145.5 339.999s55 53.833 104 73.5s100.167 47.167 153.5 82.5c-34 -56.667 -65.167 -111.667 -93.5 -165s-74.5 -166.333 -138.5 -339
c266.667 -26.667 434.667 -39.5 504 -38.5s120 8.16699 152 21.5s64 37.666 96 72.999l29 -13l-32 -51c-32 -37.333 -82.667 -60.833 -152 -70.5s-144.833 -17.167 -226.5 -22.5s-226.5 -1 -434.5 13c-71.333 -126 -144.333 -235.667 -219 -329s-136 -158.666 -184 -195.999
z" />
    <glyph glyph-name="five" unicode="5" horiz-adv-x="1430" 
d="M460 797c14 68 41.9971 141.669 83.9971 221.002s86.333 149.666 133 210.999s88 96.666 124 105.999s84.333 15.333 145 18c0 -38.667 -29.5 -91.5 -88.5 -158.5s-137.5 -176.167 -235.5 -327.5c115.333 -35.333 208.833 -74.833 280.5 -118.5s131 -104 178 -181
s64 -157.667 51 -242s-52.5 -157.5 -118.5 -219.5s-148.5 -100.333 -247.5 -115s-180.833 -22 -245.5 -22c-93.333 4.66699 -165.666 15.334 -216.999 32.001s-97.5 43.667 -138.5 81s-61.5 79 -61.5 125c0 54.667 29.167 103 87.5 145s117.833 67 178.5 75
s121.5 5.16699 182.5 -8.5s110.667 -37.834 149 -72.501s62.5 -69.834 72.5 -105.501s8.33301 -62.667 -5 -81s-36.166 -28.666 -68.499 -30.999s-53.666 13.834 -63.999 48.501s-39.333 68.167 -87 100.5s-99.667 49.666 -156 51.999s-102.5 -11 -138.5 -40
s-54 -57.833 -54 -86.5s39 -62.834 117 -102.501s162 -60.667 252 -63s172.833 16.334 248.5 56.001s124.5 97.334 146.5 173.001s20.5 146.5 -4.5 212.5s-71 126.167 -138 180.5s-187.5 100.166 -361.5 137.499zM1858 1103c-87.333 -60 -184.834 -89.668 -292.501 -89.001
s-203.5 17.5 -287.5 50.5s-152.833 47.167 -206.5 42.5s-103.5 -7 -149.5 -7c-1.33301 58.667 13 98 43 118c63.333 16 124.833 19.667 184.5 11s110.167 -23.167 151.5 -43.5s83.833 -39.5 127.5 -57.5s98.334 -28.167 164.001 -30.5s150.167 14.834 253.5 51.501z" />
    <glyph glyph-name="six" unicode="6" horiz-adv-x="1077" 
d="M482 124c68.667 -18.667 125.833 -22.6699 171.5 -12.0029s80 29.334 103 56.001s34.5 62.167 34.5 106.5s-17.167 76 -51.5 95s-67.5 25.333 -99.5 19s-62.5 -24.666 -91.5 -54.999s-51.167 -100.166 -66.5 -209.499zM922.999 271.997
c0 -27.333 -5.6748 -58.165 -17.0078 -92.498s-44 -69.333 -98 -105s-117.667 -58.834 -191 -69.501c-79.333 3.33301 -156.666 21.666 -231.999 54.999s-127.333 84.666 -156 153.999s-44.667 136 -48 200c7.33301 167.333 26.333 311.166 57 431.499
s84.834 253.5 162.501 399.5s138.5 241.833 182.5 287.5s79.667 73.834 107 84.501s47.333 16 60 16c14.667 0 28.167 -8 40.5 -24s14.333 -48 6 -96s-41.833 -108.5 -100.5 -181.5s-102.167 -124.333 -130.5 -154s-63.666 -82.5 -105.999 -158.5
s-80.666 -174.5 -114.999 -295.5s-47.666 -231 -39.999 -330s40.167 -169.833 97.5 -212.5c12.667 98.667 39.834 170.834 81.501 216.501s91.834 72.667 150.501 81s110.834 3.5 156.501 -14.5s79.167 -43 100.5 -75s32 -71 32 -117z" />
    <glyph glyph-name="seven" unicode="7" horiz-adv-x="1069" 
d="M232 -235c0 58.667 10.835 120.995 32.502 186.995s59.167 154.167 112.5 264.5s119.333 233.666 198 369.999l223.5 388c70.333 122.333 103.166 195.333 98.499 219s-17.167 39 -37.5 46s-51 8.16699 -92 3.5s-91.667 -20.667 -152 -48s-106.333 -51.666 -138 -72.999
s-56.834 -51.666 -75.501 -90.999l-48.5 -106c-13.667 -31.333 -29.834 -50.833 -48.501 -58.5s-35.5 -11.5 -50.5 -11.5s-24 14.667 -27 44s-1.16699 52.833 5.5 70.5s17.5 37.834 32.5 60.501s18.833 38.334 11.5 47.001s-21.666 13.667 -42.999 15
s-33.333 16.666 -36 45.999c0 18 4.16699 35 12.5 51s42.833 50 103.5 102c25.333 2.66699 44.833 2.83398 58.5 0.500977s20.5 -13.666 20.5 -33.999s-9.83301 -39.166 -29.5 -56.499s-28.334 -29.833 -26.001 -37.5s12.166 -12.167 29.499 -13.5s35.5 -0.333008 54.5 3
s56.833 19.833 113.5 49.5s117.5 55.167 182.5 76.5s131.167 32 198.5 32c66 0 99 -29.667 99 -89c0 -40.667 -12.5 -86 -37.5 -136s-61.333 -110.667 -109 -182s-99.167 -159.166 -154.5 -263.499s-116.5 -229.833 -183.5 -376.5s-109.667 -268.834 -128 -366.501
s-16.666 -181.167 5.00098 -250.5s55.667 -124.5 102 -165.5s84.333 -65.333 114 -73s55.334 -10.834 77.001 -9.50098s36 -1 43 -7s7.5 -14.833 1.5 -26.5s-32.667 -17.5 -80 -17.5c-30 0 -62 1.33301 -96 4s-75.333 15 -124 37s-90 54.667 -124 98
s-57.333 86.833 -70 130.5s-19 92.834 -19 147.501z" />
    <glyph glyph-name="eight" unicode="8" horiz-adv-x="1142" 
d="M943 1227c-146 10 -263.331 4.16797 -351.998 -17.499s-154.334 -49.167 -197.001 -82.5s-71.334 -70.333 -86.001 -111s-13.667 -80.834 3 -120.501s79.334 -119.167 188.001 -238.5c78 72 145 139.833 201 203.5s102.667 123 140 178s71.666 117.833 102.999 188.5z
M453.002 471.001c-54.667 -60 -99.667 -111.666 -135 -154.999s-59.333 -87.333 -72 -132s-13.167 -79.334 -1.5 -104.001s32.667 -41.334 63 -50.001s67.5 -11 111.5 -7s78.5 18.5 103.5 43.5s44.833 55.667 59.5 92s14.667 75.833 0 118.5s-57.667 107.334 -129 194.001z
M1525 1075c-154.667 55.333 -259.168 90.001 -313.501 104.001s-115.833 25.667 -184.5 35c-19.333 -48.667 -51.833 -112 -97.5 -190s-93.334 -146.167 -143.001 -204.5s-122.167 -137.5 -217.5 -237.5c52.667 -67.333 91.167 -128.166 115.5 -182.499
s33 -109.166 26 -164.499s-27.5 -103.5 -61.5 -144.5s-77.833 -72.333 -131.5 -94s-114.167 -32.5 -181.5 -32.5c-55.333 0 -100.666 16.333 -135.999 49s-53 74.334 -53 125.001s18.167 109.667 54.5 177s96.833 144.333 181.5 231
c-76 93.333 -131.333 171.666 -166 234.999s-50.5 124.166 -47.5 182.499s30.333 113.5 82 165.5s135 95.5 250 130.5s268.5 45.5 460.5 31.5l8 23c10 28 17.5 56 22.5 84s7.16699 56.333 6.5 85l20 9c12 -10.667 20.667 -36.334 26 -77.001s3.33301 -85 -6 -133
c60.667 -11.333 129.834 -30.333 207.501 -57s174.5 -68.334 290.5 -125.001z" />
    <glyph glyph-name="nine" unicode="9" horiz-adv-x="1071" 
d="M676 747c81.333 170.667 127.835 284.499 139.502 341.499s11.667 100.667 0 131s-38.334 45 -80.001 44s-80 -18 -115 -51s-71 -81.833 -108 -146.5s-52.5 -126.167 -46.5 -184.5s23.167 -97.666 51.5 -117.999s81.166 -25.833 158.499 -16.5zM659.002 684.999
c-76.667 -31.333 -138.169 -43.668 -184.502 -37.001s-86.333 25.834 -120 57.501s-53.334 67.667 -59.001 108s0 89.333 17 147s53 116.334 108 176.001s107.667 106.834 158 141.501s93.333 57.5 129 68.5s63.5 16.5 83.5 16.5c12 0 30.5 -5.33301 55.5 -16
s45.667 -34.834 62 -72.501s13.5 -97.834 -8.5 -180.501l11 -6c35.333 12 58.833 11.333 70.5 -2s17.5 -41 17.5 -83c0 -25.333 -16.5 -58.333 -49.5 -99s-63.5 -81.667 -91.5 -123s-59.167 -108.5 -93.5 -201.5s-63.333 -165.833 -87 -218.5
s-57.334 -113.834 -101.001 -183.501s-90.5 -135.5 -140.5 -197.5s-105.167 -113.833 -165.5 -155.5s-117.666 -73 -171.999 -94s-102.166 -32.167 -143.499 -33.5l-7 41c76.667 32.667 149 73.834 217 123.501s126.5 111.5 175.5 185.5s94.333 145.667 136 215
s73.334 131.333 95.001 186s50.834 133.667 87.501 237z" />
    <glyph glyph-name="colon" unicode=":" horiz-adv-x="900" 
d="M548 138c-7.33301 -58.667 -21.166 -96 -41.499 -112s-53.833 -25.333 -100.5 -28c-55.333 30 -77 57.333 -65 82s-1.66699 51.667 -41 81c5.33301 48 54.666 73.667 147.999 77c62 -14.667 95.333 -48 100 -100zM670 653c-5.33301 -52 -38.998 -85.333 -100.998 -100
c-92.667 3.33301 -142 29 -148 77c39.333 29.333 53 56.333 41 81s9.66699 52 65 82c47.333 -2.66699 81.166 -12 101.499 -28s34.166 -53.333 41.499 -112z" />
    <glyph glyph-name="semicolon" unicode=";" horiz-adv-x="847" 
d="M191 -447c36 62.667 58.334 115.499 67.001 158.499s17.5 94.667 26.5 155s28 106.833 57 139.5s53.167 58.667 72.5 78s44.333 23.833 75 13.5s45.167 -32.833 43.5 -67.5s-12 -66.167 -31 -94.5s-32.833 -59.666 -41.5 -93.999s-31.334 -81.333 -68.001 -141
s-91.667 -124.167 -165 -193.5zM553.001 519.999c68 -5.33301 107.667 -27.6689 119 -67.002c-20 -27.333 -33.833 -47.666 -41.5 -60.999s-7 -29 2 -47s-2.83301 -39.333 -35.5 -64c-49.333 2.66699 -84.333 12.334 -105 29.001s-35 52 -43 106
c5.33301 54 40 88.667 104 104z" />
    <glyph glyph-name="less" unicode="&#x3c;" horiz-adv-x="951" 
d="M453 495c27.333 18 36.498 53.332 27.498 105.999s-36.167 80.334 -81.5 83.001s-85.5 -8.33301 -120.5 -33s-70 -63.667 -105 -117s-53.167 -110.833 -54.5 -172.5s18.834 -92.167 60.501 -91.5s86.834 23 135.501 67s73.5 77.833 74.5 101.5s22.167 42.5 63.5 56.5z
M278.998 -109.001c-128.667 -80 -236.169 -172.833 -322.502 -278.5s-149.666 -232.667 -189.999 -381s-48.666 -270 -24.999 -365s54.167 -142.5 91.5 -142.5c30 0 59.833 12 89.5 36s67 95 112 213s84.333 247.667 118 389zM420.996 -29.001
c-62 -248.667 -105.168 -427.838 -129.501 -537.505s-59.5 -235.167 -105.5 -376.5s-96.667 -250.166 -152 -326.499s-118.666 -114.5 -189.999 -114.5c-40 0 -71.5 12.167 -94.5 36.5s-43.5 70.666 -61.5 138.999s-27 139.833 -27 214.5c0 75.333 16.833 173.333 50.5 294
s95.167 236.667 184.5 348s224.333 221 405 329c33.333 94.667 59 203.667 77 327c-103.333 -82 -184.166 -121.833 -242.499 -119.5s-99.666 36.333 -123.999 102s-29.333 136.334 -15 212.001s43.666 136.334 87.999 182.001s95.666 74.334 153.999 86.001
s99.833 17.5 124.5 17.5c39.333 0 80.666 -14.167 123.999 -42.5s68.833 -72 76.5 -131s1.5 -130.667 -18.5 -215s-52.333 -198.166 -97 -341.499c56.667 28 123.834 63.833 201.501 107.5s178.167 106.834 301.5 189.501h60c-111.333 -90 -204.5 -157.5 -279.5 -202.5z" />
    <glyph glyph-name="equal" unicode="=" horiz-adv-x="1180" 
d="M288 421c-24.667 10 -39.3359 29.6689 -44.0029 59.002c14.667 15.333 38.334 27 71.001 35s65.5 14.667 98.5 20l142 23c61.667 10 113.334 15.833 155.001 17.5s80.5 2.5 116.5 2.5c8.66699 0 26.334 -0.166992 53.001 -0.5s41.334 -6.16602 44.001 -17.499
s4.66699 -27.333 6 -48c0 -10.667 -1.16699 -18.167 -3.5 -22.5s-10.333 -7.5 -24 -9.5s-35.334 -3.83301 -65.001 -5.5s-63.167 -3.33398 -100.5 -5.00098s-86.833 -5.33398 -148.5 -11.001s-116.5 -10.334 -164.5 -14.001s-93.333 -11.5 -136 -23.5zM301.998 239.002
c-24 12 -37.6631 33 -40.9961 63c15.333 15.333 39.666 26.166 72.999 32.499s66.5 11.333 99.5 15l143 16c62.333 7 114.333 10.167 156 9.5s80.167 -2 115.5 -4c9.33301 0 27.333 -1 54 -3s41 -8.83301 43 -20.5s3 -28.167 3 -49.5
c-0.666992 -11.333 -2.33398 -19.166 -5.00098 -23.499s-10.834 -7.16602 -24.501 -8.49902s-35.334 -2 -65.001 -2s-63.167 0.166992 -100.5 0.5s-87 -0.833984 -149 -3.50098s-117 -4.5 -165 -5.5s-93.667 -6.5 -137 -16.5z" />
    <glyph glyph-name="greater" unicode="&#x3e;" horiz-adv-x="1012" 
d="M0 351c57.333 29.333 100.162 57.3291 128.495 83.9961s59.5 58.167 93.5 94.5s72 45.666 114 27.999s55.667 -41.667 41 -72s-35.5 -56.166 -62.5 -77.499s-52.333 -50.833 -76 -88.5s-29.667 -81.5 -18 -131.5s41.334 -72.333 89.001 -67s124.5 49.333 230.5 132
c12 16.667 24.833 53.167 38.5 109.5s35.5 128.5 65.5 216.5l76.5 227.5c21 63.667 46.5 109.834 76.5 138.501s59.667 43 89 43c37.333 0 56 -14.667 56 -44c0 -35.333 -7.83301 -92.833 -23.5 -172.5s-53.667 -175.5 -114 -287.5s-116.5 -203.667 -168.5 -275
c-127.333 -282 -225.666 -515 -294.999 -699s-118.5 -354.333 -147.5 -511s-30.167 -235 -3.5 -235c33.333 0 72.833 38.833 118.5 116.5s87.5 173.334 125.5 287.001s64.333 211.834 79 294.501s37 156.334 67 221.001l29 -6c3.33301 -50 -6.5 -132.5 -29.5 -247.5
s-49.333 -219 -79 -312s-68.667 -186.5 -117 -280.5s-88.5 -157.667 -120.5 -191s-66 -50 -102 -50c-29.333 10 -53.833 33 -73.5 69s-28.167 89.833 -25.5 161.5s27.334 186.667 74.001 345s105.667 333.166 177 524.499s132.333 337.333 183 438
c-93.333 -72 -171.166 -109.167 -233.499 -111.5s-108.666 18.834 -138.999 63.501s-39.333 101.5 -27 170.5s23.5 109.167 33.5 120.5l-70 -26h-60z" />
    <glyph glyph-name="question" unicode="?" horiz-adv-x="1501" 
d="M415 479c0 84.667 8.33496 155.324 25.002 211.991s44.834 106.334 84.501 149.001s93.334 77.334 161.001 104.001l215.5 86.5c76 31 136 73.167 180 126.5s60.667 108.833 50 166.5s-42.334 109.334 -95.001 155.001s-115.334 68.334 -188.001 68.001
s-133.167 -23.666 -181.5 -69.999s-69 -99.666 -62 -159.999s38.167 -105.833 93.5 -136.5l-36 -33c-78 27.333 -131.333 62.333 -160 105s-43 91.334 -43 146.001c0 57.333 41.833 111.666 125.5 162.999s164.5 77 242.5 77c56 0 121.833 -9.66699 197.5 -29
s143 -60 202 -122s88.5 -132 88.5 -210c0 -85.333 -31.833 -150.666 -95.5 -195.999s-139.834 -81.166 -228.501 -107.499s-162.667 -51.333 -222 -75s-103.833 -56.167 -133.5 -97.5s-51.834 -139.666 -66.501 -294.999zM390.002 232.99
c63.333 -15.333 97.335 -49.666 102.002 -102.999c-7.33301 -59.333 -21.333 -97.166 -42 -113.499s-55 -25.833 -103 -28.5c-56.667 30.667 -78.834 58.667 -66.501 84s-1.5 52.666 -41.5 81.999c5.33301 49.333 55.666 75.666 150.999 78.999z" />
    <glyph glyph-name="at" unicode="@" horiz-adv-x="2366" 
d="M1212 1018c-40 46.667 -89.334 60.499 -148.001 41.499s-105.667 -54.167 -141 -105.5s-42.166 -113.166 -20.499 -185.499s54 -116 97 -131s84.167 1.16699 123.5 48.5s69 158 89 332zM2043 421.999c-82.667 -125.333 -171.334 -211.669 -266.001 -259.002
s-181.667 -80.666 -261 -99.999s-180 -29 -302 -29s-243 24 -363 72s-224.167 117 -312.5 207s-151.333 188.667 -189 296s-56.5 211.333 -56.5 312v5c0.666992 102 20 196.5 58 283.5s86.167 169.5 144.5 247.5s154.5 156.333 288.5 235s305 118 513 118
c166.667 0 304.334 -33.167 413.001 -99.5s186.5 -152.5 233.5 -258.5s68.5 -217.333 64.5 -334s-34 -219.834 -90 -309.501s-117.667 -157.834 -185 -204.501s-139.5 -72.334 -216.5 -77.001s-138.667 11.666 -185 48.999s-83.833 56.833 -112.5 58.5
s-49.167 -10.666 -61.5 -36.999s-39.666 -46.666 -81.999 -60.999s-75.166 -21.5 -98.499 -21.5c-21.333 0 -45.333 6.16699 -72 18.5s-53.334 36.5 -80.001 72.5s-47.167 69.167 -61.5 99.5s-21.5 62.5 -21.5 96.5c0 38 20.167 92 60.5 162s89.5 124.667 147.5 164
s122.333 61.666 193 66.999c79.333 -3.33301 145 -37.666 197 -102.999c18.667 20 38.5 29.667 59.5 29s30.667 -17 29 -49s-20 -77.5 -55 -136.5s-45.333 -114.833 -31 -167.5s54.166 -93.667 119.499 -123s129 -26.333 191 9s120.167 88 174.5 158
s85.666 165.667 93.999 287s-10.167 230.5 -55.5 327.5s-114 172 -206 225s-205 80.167 -339 81.5s-254.333 -20.667 -361 -66s-197.5 -106.166 -272.5 -182.499s-128.833 -154.166 -161.5 -233.499s-51 -167.166 -55 -263.499s6.66699 -194.166 32 -293.499
s74.333 -194.333 147 -285s172.667 -162.334 300 -215.001s268 -73 422 -61s281.333 46 382 102s178.334 124.667 233.001 206z" />
    <glyph glyph-name="A" unicode="A" horiz-adv-x="2612" 
d="M3692 1524c-189.333 60.667 -323.831 102.332 -403.498 124.999s-189.334 45.334 -329.001 68.001s-325 32.834 -556 30.501s-442.167 -25.666 -633.5 -69.999s-389.666 -115.5 -594.999 -213.5s-379.833 -222 -523.5 -372s-228 -309 -253 -477
s6.16699 -308.833 93.5 -422.5s205.333 -176.667 354 -189s302 2.66699 460 45s314 120.166 468 233.499c-13.333 98 -12 195.5 4 292.5s37.333 171.167 64 222.5s53.667 89 81 113s82 35.333 164 34c-15.333 -150 -38.5 -274 -69.5 -372s-73.167 -195.667 -126.5 -293
c-9.33301 -54.667 18.5 -97.834 83.5 -129.501s156.667 -29.834 275 5.49902s239.166 100.666 362.5 195.999h60c-100 -108.667 -204.833 -192.834 -314.5 -252.501s-215.334 -87.834 -317 -84.501c-101.667 3.33301 -182.834 69.333 -243.501 198
c-114 -85.333 -247.167 -158 -399.5 -218s-266.666 -95 -342.999 -105s-147.833 -15 -214.5 -15c-85.333 0 -177.5 13.333 -276.5 40s-184.5 80.334 -256.5 161.001s-117 196.334 -135 347.001c0 96.667 12 185.334 36 266.001s79.667 179.334 167 296.001
s219.166 234 395.499 352s355.166 212.333 536.499 283s362 122.667 542 156s361.333 50 544 50c244 0 440.833 -13.833 590.5 -41.5s291.334 -64.167 425 -109.5c133.667 -45.333 228.5 -83 284.5 -113z" />
    <glyph glyph-name="B" unicode="B" horiz-adv-x="1571" 
d="M938 923c91.333 173.333 153.167 313.668 185.5 421.001s47.333 177.166 45 209.499s-12.5 52.5 -30.5 60.5s-48.667 -12.5 -92 -61.5s-77.666 -117.333 -102.999 -205s-35.833 -173.167 -31.5 -256.5s13.166 -139.333 26.499 -168zM797.001 1936
c19.333 -2 37.6689 -15.1621 55.002 -39.4951s22.5 -59.5 15.5 -105.5s-25.167 -83.667 -54.5 -113s-57.666 -71.333 -84.999 -126s-52.333 -108.5 -75 -161.5s-45.5 -122.333 -68.5 -208s-51.833 -157.834 -86.5 -216.501s-66.167 -117.334 -94.5 -176.001
s-62.666 -137.834 -102.999 -237.501s-63.833 -180 -70.5 -241s-4.5 -111.167 6.5 -150.5s37.333 -46.166 79 -20.499s96.5 72.167 164.5 139.5s134.667 147.5 200 240.5s115 168.833 149 227.5c8 82 7.33301 131.167 -2 147.5s-18.666 62.333 -27.999 138
s-8 154.334 4 236.001s38.167 164.834 78.5 249.501s86 140.5 137 167.5s95.833 40.5 134.5 40.5s64.5 -3.83301 77.5 -11.5s26.5 -22.334 40.5 -44.001s18 -56.334 12 -104.001s-35.333 -142.5 -88 -284.5s-97.334 -242.5 -134.001 -301.5l-73 -116.5
c-12 -18.667 -16.5 -42.834 -13.5 -72.501s40.833 -81.5 113.5 -155.5l208.5 -213c66.333 -68 99.5 -127 99.5 -177c0 -26 -3.83301 -51.167 -11.5 -75.5s-27.5 -54 -59.5 -89s-73.667 -60.833 -125 -77.5s-96.333 -25 -135 -25c-20.667 0 -50.834 3.83301 -90.501 11.5
s-98 38.167 -175 91.5s-123.5 95.166 -139.5 125.499s-15.333 54.833 2 73.5s41.666 32.667 72.999 42s65.666 8.5 102.999 -2.5s69.5 -39.5 96.5 -85.5s50.5 -83.833 70.5 -113.5s53.333 -44.5 100 -44.5s83.667 18.833 111 56.5s37 78.167 29 121.5
s-40.833 94.5 -98.5 153.5s-105.5 113.667 -143.5 164s-76.667 91.833 -116 124.5c-81.333 -106 -148.333 -198 -201 -276s-126 -161.5 -220 -250.5s-172 -134.5 -234 -136.5c-34.667 4.66699 -64.834 25.167 -90.501 61.5s-39.5 88.5 -41.5 156.5
c0 52.667 13.333 116 40 190s53 151.5 79 232.5s59.5 179 100.5 294l102 277.5c27 70 54.667 147.833 83 233.5s61.833 159 100.5 220s69.5 112.167 92.5 153.5s56.167 68.666 99.5 81.999z" />
    <glyph glyph-name="C" unicode="C" horiz-adv-x="2526" 
d="M1877 1649c-60.667 -64 -113.17 -145.167 -157.503 -243.5s-73.666 -201 -87.999 -308s-7.16602 -196.333 21.501 -268s73.5 -114.5 134.5 -128.5s123.833 -0.166992 188.5 41.5s117.834 97.667 159.501 168s65.334 145.833 71 226.5c5.66699 80.667 -18.5 168 -72.5 262
s-139.667 177.333 -257 250zM2586 351c-134.667 -150 -309.337 -261.669 -524.004 -335.002s-500.334 -110.666 -857.001 -111.999c-143.333 0 -274.666 17.833 -393.999 53.5s-229.166 85.834 -329.499 150.501s-186.5 154.5 -258.5 269.5s-109.333 236.833 -112 365.5
c0 140.667 21.5 264.167 64.5 370.5s109.833 204.833 200.5 295.5s198.334 169 323.001 235s246.167 111.833 364.5 137.5s225.333 37.834 321 36.501s176.5 -7.66602 242.5 -18.999s132 -30 198 -56l175 147c14.667 -11.333 22 -23.5 22 -36.5s-34.333 -62.5 -103 -148.5
c89.333 -58 156.333 -111.167 200.999 -159.5c44.667 -48.333 82.834 -104.333 114.5 -168c31.667 -63.667 48.834 -129.334 51.501 -197.001s-13.833 -144.334 -49.5 -230.001s-86.667 -158.167 -153 -217.5s-138.333 -98.333 -216 -117s-153 -14.334 -226 12.999
s-122.667 89.166 -149 185.499s-30 197.666 -11 303.999s55.167 207.5 108.5 303.5s116.333 185.333 189 268c-132.667 52 -270.167 76 -412.5 72s-292.5 -34 -450.5 -90s-292.167 -137.833 -402.5 -245.5s-177.666 -237.667 -201.999 -390s-17.833 -294.5 19.5 -426.5
s95.333 -240.5 174 -325.5s184.834 -153.333 318.501 -205s266.834 -79.667 399.501 -84s281.5 0.333984 446.5 14.001s313.167 44.834 444.5 93.501s268.666 131.334 411.999 248.001h60z" />
    <glyph glyph-name="D" unicode="D" horiz-adv-x="1912" 
d="M1458 400c84.667 182.667 109.164 359.334 73.4971 530.001s-91.167 302 -166.5 394s-147.166 160.167 -215.499 204.5s-158.166 79.166 -269.499 104.499c-18 -77.333 -24.667 -163.5 -20 -258.5s26.334 -196 65.001 -303s95.667 -219.167 171 -336.5s196 -229 362 -335
zM746.997 1232c-97.333 -236 -165.335 -410.666 -204.002 -523.999c86.667 29.333 149.667 15.833 189 -40.5s87 -146.666 143 -270.999s101.833 -204.333 137.5 -240s68 -58.334 97 -68.001s67 -5.16699 114 13.5s111.833 94.667 194.5 228
c-130.667 68 -243.667 161.833 -339 281.5s-165.666 224.667 -210.999 315s-85.666 192.166 -120.999 305.499zM165.995 -45.999c-32.667 6.66699 -53.8311 14.8379 -63.498 24.5049s-14.5 25.834 -14.5 48.501c49.333 54 83.5 100.167 102.5 138.5
s26.333 86.666 22 144.999s19 103.833 70 136.5s98.333 102.167 142 208.5s101 263 172 470s98.167 354.667 81.5 443s24.666 153.5 123.999 195.5l168.5 408.5c43.667 103.667 68.667 193.834 75 270.5c6.33301 76.667 33.833 124.667 82.5 144
c32 -10 57.167 -34.333 75.5 -73s11.166 -87.334 -21.501 -146c-32.667 -58.667 -52.834 -142.834 -60.501 -252.501s-23.834 -164.334 -48.501 -164.001s-25.667 70.166 -3 209.499l-141 -401c115.333 -29.333 205.333 -61.833 270 -97.5s147.5 -106 248.5 -211
s167.5 -259.833 199.5 -464.5s-3 -416.334 -105 -635.001c28.667 -24 70.334 -41.667 125.001 -53s136.334 6 245.001 52h60c-166 -124 -325 -145 -477 -63c-56.667 -94 -116.5 -167.333 -179.5 -220s-122.667 -82.334 -179 -89.001s-111.166 0.333008 -164.499 21
s-101 63.334 -143 128.001s-84.833 143.667 -128.5 237s-82.334 157.833 -116.001 193.5s-67.5 28.5 -101.5 -21.5s-59.833 -105.833 -77.5 -167.5s-47 -141.334 -88 -239.001s-91.5 -156.5 -151.5 -176.5z" />
    <glyph glyph-name="E" unicode="E" horiz-adv-x="1908" 
d="M1109 1294c94 132 157.333 232 190 300s57.5 146.333 74.5 235s13 159.5 -12 212.5s-61.5 86.5 -109.5 100.5s-110.333 -7 -187 -63s-128.167 -136.167 -154.5 -240.5s-32.5 -208.833 -18.5 -313.5s49 -188 105 -250zM1155 1234l-57.002 -51.001
c32.667 -26 75.5 -52.333 128.5 -79s109.833 -50.667 170.5 -72s115.334 -30.166 164.001 -26.499s86.834 24.5 114.501 62.5s27.5 71.833 -0.5 101.5s-91.833 53.167 -191.5 70.5s-209.167 15.333 -328.5 -6zM915.998 1198c-160 -34.667 -280.169 -84.833 -360.502 -150.5
s-133.666 -130.667 -159.999 -195s-39.166 -135.833 -38.499 -214.5c150 99.333 274 191.333 372 276s180.333 164 247 238zM1387 158c40.667 68 57 141.665 49 220.998s-40.667 142.5 -98 189.5s-127.333 74.333 -210 82s-155.834 -9.66602 -219.501 -51.999
s-91.5 -95.333 -83.5 -159s39.167 -119.167 93.5 -166.5s113.333 -81.166 177 -101.499s160.834 -24.833 291.501 -13.5zM1968 350.998c-54 -60.667 -130.336 -114.497 -229.003 -161.497s-196.667 -75.167 -294 -84.5c-58 -46.667 -127.667 -81.834 -209 -105.501
s-182.666 -35.5 -303.999 -35.5c-94 0 -201.667 21.167 -323 63.5s-216.333 104.5 -285 186.5s-110.667 164.333 -126 247l-202.5 -93.5c-75.667 -33.667 -161.167 -60.5 -256.5 -80.5l-9 42c92 32 168.5 61 229.5 87s136.167 67.667 225.5 125
c3.33301 70.667 14.833 137.5 34.5 200.5s59.834 130.333 120.501 202s133.167 132.334 217.5 182.001s188.833 90.167 313.5 121.5c-62 88 -101.667 170.833 -119 248.5s-12 167.834 16 270.501s63.833 183.667 107.5 243s95.834 106.833 156.501 142.5
s136.334 55.167 227.001 58.5c68.667 -12.667 117.834 -43.167 147.501 -91.5s47.5 -109 53.5 -182s-11.167 -165.667 -51.5 -278s-110.5 -232.5 -210.5 -360.5c68.667 12.667 152.167 15.167 250.5 7.5s177.166 -28.834 236.499 -63.501c53.333 -30.667 80 -70 80 -118
c-6.66699 -64.667 -33.5 -108.667 -80.5 -132s-108.667 -32.666 -185 -27.999s-157.333 22.167 -243 52.5s-158.167 65.166 -217.5 104.499c-92.667 -105.333 -171.667 -185.166 -237 -239.499s-127 -102.833 -185 -145.5s-139.667 -99.667 -245 -171
c28.667 -124 71.167 -220.833 127.5 -290.5s128.5 -124.834 216.5 -165.501s185.667 -61 293 -61s213.666 18.333 318.999 55c-122.667 -9.33301 -225.667 -2.5 -309 20.5s-154.833 62.667 -214.5 119s-93.167 115 -100.5 176s9.16699 115.167 49.5 162.5s99.333 85 177 113
s158 35.167 241 21.5s155.5 -44.834 217.5 -93.501s100 -113.334 114 -194.001s1.33301 -168.334 -38 -263.001c82 14 156.333 33.5 223 58.5s140 67.5 220 127.5h60z" />
    <glyph glyph-name="F" unicode="F" horiz-adv-x="1754" 
d="M1550 1461c96.667 104 165.167 216.67 205.5 338.003s58.5 213.666 54.5 276.999s-17.5 91.166 -40.5 83.5c-23 -7.66699 -46 -50.834 -69 -129.501s-73.167 -268.334 -150.5 -569.001zM1810 2408c73.333 -11.333 112.002 -76.6729 116.002 -196.006
c-2 -90.667 -9.33301 -179.667 -22 -267s-54.5 -199.333 -125.5 -336s-164.5 -247.334 -280.5 -332.001l-132 -445c119.333 0 265.333 -3.66699 438 -11c-22.667 -34.667 -53.334 -55.834 -92.001 -63.501s-90.667 -11.5 -156 -11.5s-140.333 -2 -225 -6l-153 -459
c-36.667 -106 -77.167 -180 -121.5 -222s-81.833 -67.833 -112.5 -77.5s-78.667 -18.5 -144 -26.5c-108 4 -194.667 17.5 -260 40.5s-126.833 41.167 -184.5 54.5s-106.667 36.5 -147 69.5s-63.5 62.833 -69.5 89.5c2 30.667 21.333 52.834 58 66.501s79 12.667 127 -3
s89.333 -39.834 124 -72.501s61.5 -61.5 80.5 -86.5s54.5 -44.167 106.5 -57.5s96.333 -23 133 -29s79 -3.16699 127 8.5s94.167 48.334 138.5 110.001s81.833 147.334 112.5 257.001s57.667 218.167 81 325.5c-184.667 -7.33301 -317.334 -15.833 -398.001 -25.5
s-138.334 -27 -173.001 -52s-57.834 -30.833 -69.501 -17.5s-4 32.5 23 57.5s75.167 48.167 144.5 69.5s146.333 36.833 231 46.5s175 14.5 271 14.5c58 176.667 92.667 307.334 104 392.001c-88.667 -15.333 -153.167 -13.333 -193.5 6s-69.166 48.166 -86.499 86.499
s-21.166 75.833 -11.499 112.5s0 58.834 -29 66.501s-65.667 29.834 -110 66.501s-48.166 71.334 -11.499 104.001s72.334 51.834 107.001 57.501s62.5 -1.16602 83.5 -20.499s44.167 -37.666 69.5 -54.999s41.833 -60.5 49.5 -129.5s8.5 -126.667 2.5 -173
s43 -63.5 147 -51.5c73.333 257.333 130.166 467.833 170.499 631.5s82.666 284 126.999 361s89.5 121.167 135.5 132.5z" />
    <glyph glyph-name="G" unicode="G" horiz-adv-x="2124" 
d="M375 815c371.333 133.333 691.5 267.499 960.5 402.499s473 256.667 612 365s230.167 209.333 273.5 303s57.333 161 42 202s-50.166 70.167 -104.499 87.5s-152 4.33301 -293 -39s-283.167 -106.166 -426.5 -188.499s-295.333 -190.833 -456 -325.5
s-289.834 -271.5 -387.501 -410.5s-171.167 -271.167 -220.5 -396.5zM230 682.999c-344 -147.333 -587.16 -239.845 -729.493 -277.512s-269.833 -59.5 -382.5 -65.5l-33 26c96 14.667 193 36.167 291 64.5s203.167 64 315.5 107s297.5 119.833 555.5 230.5
c78.667 230.667 197.167 436 355.5 616s348.166 346 569.499 498s415.666 254.167 582.999 306.5s305.333 78.5 413.999 78.5c56 -8.66699 103.667 -33.667 143 -75s61 -92.333 65 -153c-4 -52.667 -15.833 -107.167 -35.5 -163.5s-83.834 -139.833 -192.501 -250.5
s-302.334 -240 -581.001 -388s-677.667 -319.333 -1197 -514c4.66699 -65.333 31.834 -113.166 81.501 -143.499s109.334 -27 179.001 10s150 77.167 241 120.5s190.833 83.5 299.5 120.5s214 48.833 316 35.5s192.167 -41.666 270.5 -84.999
s132.666 -105.166 162.999 -185.499s20.5 -179.166 -29.5 -296.499s-125 -203 -225 -257s-210.667 -83.333 -332 -88c-112.667 4.66699 -237.5 11.334 -374.5 20.001s-231.5 28.167 -283.5 58.5s-95.333 50.833 -130 61.5s-70.5 22.5 -107.5 35.5s-49 32.667 -36 59
s57.5 44.833 133.5 55.5s167.167 -11.166 273.5 -65.499s221.333 -91.166 345 -110.499s226.834 -18.166 309.501 3.50098s151.167 56.334 205.5 104.001s84.666 110.667 90.999 189s-7.83398 154.333 -42.501 228s-95.334 122.5 -182.001 146.5
s-184.334 30.5 -293.001 19.5s-233.5 -54.5 -374.5 -130.5s-245.167 -122.667 -312.5 -140s-128.166 -21.666 -182.499 -12.999s-91.333 29.334 -111 62.001s-30.834 81.334 -33.501 146.001z" />
    <glyph glyph-name="H" unicode="H" horiz-adv-x="2724" 
d="M2784 351c-62.667 -90.667 -134.662 -152.005 -215.995 -184.005s-160.5 -48 -237.5 -48s-124.167 -3 -141.5 -9s-26.5 -26.667 -27.5 -62s-21.167 -50.333 -60.5 -45s-59.333 53.666 -60 144.999c-164.667 60.667 -268.667 126.334 -312 197.001
c-109.333 -112.667 -205.666 -195.167 -288.999 -247.5s-171.833 -87 -265.5 -104s-181.834 -25.5 -264.501 -25.5c-80.667 0.666992 -166.334 13.167 -257.001 37.5s-192.5 74.333 -305.5 150s-176.833 153.167 -191.5 232.5c10.667 32 34.834 53.5 72.501 64.5
s84.334 16.5 140.001 16.5s113.167 -19 172.5 -57s124 -88.333 194 -151s139.667 -103.5 209 -122.5s132.166 -24.333 188.499 -16s104.5 19.5 144.5 33.5c-14.667 -36 -61.5 -61.167 -140.5 -75.5s-171.5 -7.16602 -277.5 21.501s-191.333 62.834 -256 102.501
s-114 65.834 -148 78.501s-57.333 10 -70 -8s-7.33398 -41.333 15.999 -70s75 -60.834 155 -96.501s154.333 -59 223 -70s161.667 -12.167 279 -3.5s227 49.834 329 123.501s184.5 165.334 247.5 275.001s96.333 226.5 100 350.5s-20.166 244.5 -71.499 361.5
s-106 201.833 -164 254.5s-133 78.834 -225 78.501s-181.5 -16.833 -268.5 -49.5s-152 -48.334 -195 -47.001s-73 12 -90 32s-24.667 58.667 -23 116s19.667 132.666 54 225.999s75.5 155.166 123.5 185.499s91.667 49 131 56s66.166 -3.83301 80.499 -32.5
s14.333 -51.167 0 -67.5s-34.5 -28.166 -60.5 -35.499s-52.833 -38.166 -80.5 -92.499s-45.834 -119.5 -54.501 -195.5s-1.33398 -113.167 21.999 -111.5s84.333 16.834 183 45.501s193 36.834 283 24.501s174.5 -49 253.5 -110s141 -136.5 186 -226.5
s71.833 -183.5 80.5 -280.5s4.16699 -176 -13.5 -237s-14.834 -97.833 8.49902 -110.5s34 -33.334 32 -62.001s18.667 -72.5 62 -131.5s72.166 -86.833 86.499 -83.5s33.166 102 56.5 296c23.333 194 58.666 383.5 106 568.5c47.333 185 77.833 337.667 91.5 458
s17.834 206.5 12.5 258.5c-5.33301 52 11.667 96.833 51 134.5s74.666 57.5 106 59.5c27.333 0 46.166 -20.167 56.5 -60.5c10.333 -40.333 4 -103.666 -19 -189.999l-102.5 -381c-45.333 -167.667 -91.333 -349.834 -138 -546.501s-85.334 -419 -116 -667
c135.333 -18.667 244.333 -18 327 2s155.334 62.667 218 128h60z" />
    <glyph glyph-name="I" unicode="I" horiz-adv-x="3096" 
d="M2629 803c74.667 202.667 121 436.832 139 702.499s-2.5 449.834 -61.5 552.501s-124.333 156.667 -196 162s-133.5 -39.167 -185.5 -133.5s-78 -203.333 -78 -327s33 -265.5 99 -425.5s160.333 -337 283 -531zM2135 172.998c-326.667 -20 -603.834 -30.667 -831.501 -32
s-392.167 8 -493.5 28c-45.333 -16 -66.333 -38.667 -63 -68c222.667 -48.667 427.334 -72.167 614.001 -70.5s348 15 484 40s232.667 59.167 290 102.5zM3146 350.998c-8 -19.333 -46.498 -40.001 -115.498 -62.001s-157.333 -43.167 -265 -63.5
s-246.167 -36.5 -415.5 -48.5c-98.667 -66 -230.834 -118.667 -396.5 -158c-165.667 -39.333 -360.5 -59 -584.5 -59c-241.333 0 -442.833 20 -604.5 60s-279 73.167 -352 99.5s-132.167 56 -177.5 89s-68 56.5 -68 70.5c0 17.333 8.66699 31.166 26 41.499
s62.666 15.5 135.999 15.5s142.166 -12.167 206.499 -36.5s147.833 -44 250.5 -59s265 -26.167 487 -33.5s534.667 1 938 25c176 144 303 306.667 381 488c-143.333 196.667 -251.5 385.667 -324.5 567s-111.333 326 -115 434s11.166 203.667 44.5 287
c33.333 83.333 77.833 147.666 133.5 192.999s116.5 73.333 182.5 84c56 0 110.167 -14.833 162.5 -44.5s101 -83.667 146 -162s70.167 -190.666 75.5 -336.999s-6.16699 -310.166 -34.5 -491.499s-77.5 -368.666 -147.5 -561.999l131.5 -153
c42.333 -48 107.833 -110 196.5 -186l-16 -12c-124 60.667 -240.667 153.667 -350 279c-46.667 -104 -137 -228.667 -271 -374c134 7.33301 264 20 390 38s226 41.667 300 71h50z" />
    <glyph glyph-name="J" unicode="J" horiz-adv-x="2410" 
d="M1864 646c134 368.667 218.667 644.331 254 826.998s46.166 327.334 32.5 434.001c-13.667 106.667 -53.834 185 -120.5 235c-59.333 2 -125 -29.667 -197 -95s-133.5 -149.666 -184.5 -252.999s-90.167 -231.333 -117.5 -384s-32.333 -274.5 -15 -365.5
s53.5 -169.333 108.5 -235s134.833 -120.167 239.5 -163.5zM1722 320.997c-208 -29.333 -400.167 -69.335 -576.5 -120.002s-342.5 -119.167 -498.5 -205.5s-300 -195 -432 -326s-215.5 -254.5 -250.5 -370.5s-27 -221.667 24 -317s136.333 -153.666 256 -174.999
s253 -12 400 28s269.667 110.833 368 212.5s197.333 237.334 297 407.001s237.167 458.5 412.5 866.5zM2248 437.995c-126 18.667 -232.334 44.667 -319.001 78l-46 -107c108.667 15.333 230.334 25 365.001 29zM2520 336.995
c-116.667 44 -229.001 60.3369 -337.001 49.0039s-219 -27 -333 -47c-218 -456 -386.167 -784.333 -504.5 -985s-234.5 -342.167 -348.5 -424.5s-230.5 -137.333 -349.5 -165s-220.5 -41.5 -304.5 -41.5c-120.667 0 -226.5 27.333 -317.5 82s-147.833 113.167 -170.5 175.5
s-34 110.5 -34 144.5c0 46 11.167 113.667 33.5 203s96.333 205.666 222 348.999s277.167 264.166 454.5 362.499s336.333 169.5 477 213.5s265.5 75.667 374.5 95s234.5 35.333 376.5 48l72 162c-120.667 44 -214.834 108.167 -282.501 192.5
s-107.834 191.666 -120.501 321.999s-2 276.666 32 438.999s90.333 300 169 413s151.834 192.667 219.501 239s130.834 69.5 189.501 69.5c76 -4 138.333 -43 187 -117s75 -153.333 79 -238c0 -118 -22.5 -275.167 -67.5 -471.5s-133.167 -463.5 -264.5 -801.5
c102 -46 198.833 -79.333 290.5 -100s181.834 -57.667 270.501 -111z" />
    <glyph glyph-name="K" unicode="K" horiz-adv-x="3028" 
d="M1741 1263c-58 55.333 -109.166 91.332 -153.499 107.999s-79.833 16.334 -106.5 -0.999023s-36.167 -46 -28.5 -86s31.167 -72.167 70.5 -96.5s101.666 -38.5 186.999 -42.5zM3088 350.999c-88 -116 -180.67 -206.832 -278.003 -272.499s-211.666 -98.5 -343 -98.5
c-107.333 0 -189.166 40.5 -245.5 121.5c-56.333 81 -94 209.333 -113 385s-44.667 302.167 -77 379.5s-63.5 133 -93.5 167c-42.667 -6.66699 -79.667 -9.33398 -111 -8.00098c-26.667 -78.667 -54.167 -166 -82.5 -262s-64.666 -196 -108.999 -300
s-111.666 -193 -201.999 -267s-180 -125.167 -269 -153.5s-157.333 -42.333 -205 -42s-83.834 0.5 -108.501 0.5c-51.333 0 -112 2.5 -182 7.5s-134.167 16.5 -192.5 34.5s-107.833 32.667 -148.5 44s-82.834 10.5 -126.501 -2.5s-82.5 -11.5 -116.5 4.5
s-56.667 35.333 -68 58s-17 47.334 -17 74.001c0 22.667 6.5 36.334 19.5 41.001s29.167 8.66699 48.5 12s46 0.166016 80 -9.50098s84.333 -29.834 151 -60.501s138 -58.334 214 -83.001s154.5 -42.667 235.5 -54s156.333 -14.5 226 -9.5s141 24.5 214 58.5
s134.667 74.5 185 121.5s93.833 111.167 130.5 192.5s66.334 172.833 89.001 274.5s53.334 212.834 92.001 333.501c-122.667 19.333 -208.334 45.333 -257.001 78s-80.5 68.834 -95.5 108.501s-13.167 81.5 5.5 125.5s51.334 78 98.001 102s97.167 31 151.5 21
s116.5 -40 186.5 -90c22 77.333 54.333 174.333 97 291s75 213 97 289s43.667 124.333 65 145s47 31 77 31c9.33301 0 17.333 -2.66699 24 -8c20.667 -17.333 35 -46.333 43 -87s-1.83301 -91.5 -29.5 -152.5l-115 -257c-49 -110.333 -91.5 -229.5 -127.5 -357.5
c40 -39.333 76 -82.666 108 -129.999c62.667 -8.66699 129.834 13.5 201.5 66.5c71.667 53 134.834 118.333 189.5 196c54.667 77.667 106.834 159.667 156.5 246c49.667 86.333 90.667 150.833 123 193.5s73.166 74.667 122.5 96c49.333 21.333 88 20.166 116 -3.50098
s39.667 -51.834 35 -84.501s-28.167 -54 -70.5 -64s-103.166 -56.167 -182.499 -138.5s-144.333 -161.166 -195 -236.499s-112 -148.333 -184 -219s-157.667 -118.334 -257 -143.001c59.333 -88.667 103.333 -196.834 132 -324.501s48.167 -246.667 58.5 -357
s39.333 -189.666 87 -237.999s120 -69.5 217 -63.5s178.5 33.5 244.5 82.5s139.667 114.167 221 195.5h60z" />
    <glyph glyph-name="L" unicode="L" horiz-adv-x="1685" 
d="M2401 -214c-79.333 -72 -156.999 -134.002 -232.999 -186.002s-166.833 -96.667 -272.5 -134s-205.167 -56 -298.5 -56c-106.667 0 -198 11.833 -274 35.5s-150.333 76 -223 157s-141 172.5 -205 274.5s-122 184 -174 246s-114.333 86.333 -187 73l-90 -187
c-26 -55.333 -58.833 -106.333 -98.5 -153s-76.834 -71.667 -111.501 -75s-55.334 4.5 -62.001 23.5s-12 45.833 -16 80.5c4 31.333 14.5 68.5 31.5 111.5s48 83.5 93 121.5l109 93c27.667 24 52.667 56.833 75 98.5s51.666 127.334 87.999 257.001l106.5 368
c34.667 115.667 60.667 216.834 78 303.501s39.833 175.667 67.5 267s57.834 169 90.501 233s62.834 105.5 90.501 124.5s62.167 30.167 103.5 33.5c31.333 -6.66699 49.5 -19.5 54.5 -38.5s8.5 -46.667 10.5 -83s-0.5 -71.833 -7.5 -106.5s-19.167 -74.334 -36.5 -119.001
s-35.5 -66.167 -54.5 -64.5s-23.333 20.667 -13 57s16.333 64 18 83s-1.83301 29.333 -10.5 31s-27.667 -33 -57 -104s-59.5 -166 -90.5 -285s-69.833 -243.333 -116.5 -373l-205 -599.5c96.667 0 182.167 -37.167 256.5 -111.5s154.833 -171.833 241.5 -292.5
s154.167 -207 202.5 -259s104.5 -90 168.5 -114s142.5 -35.167 235.5 -33.5s181 17.167 264 46.5s172.167 79.333 267.5 150s156.666 118.334 184 143.001v-37z" />
    <glyph glyph-name="M" unicode="M" horiz-adv-x="3442" 
d="M1231 1569c58.667 192 90.832 331.167 96.499 417.5s-10 163.5 -47 231.5s-74.833 117.667 -113.5 149s-80 45.166 -124 41.5c-44 -3.66699 -80.667 -21.167 -110 -52.5s-55 -78.166 -77 -140.5c-22 -62.333 -25.667 -137.666 -11 -226
c14.667 -88.333 46.834 -169.333 96.501 -243s110.167 -143.167 181.5 -208.5zM1319 1410c40.667 -51.333 95.832 -97.333 165.499 -138s188.834 -100.667 357.501 -180c50.667 61.333 109 116 175 164c-57.333 106 -122.5 178.167 -195.5 216.5s-144.833 59.5 -215.5 63.5
s-157 -6.66699 -259 -32zM2104 993c-4.66699 60 -22.334 121 -53 183l-118 -115zM2725 787c114 231.333 176.5 378.332 187.5 440.999s-1.83301 109.5 -38.5 140.5s-96.334 47.5 -179 49.5c-82.667 2 -161.667 -7.16699 -237 -27.5s-183.333 -72.833 -324 -157.5
c37.333 -84.667 58 -180 62 -286c147.333 -55.333 323.666 -108.666 529 -159.999zM1087 1426c-150 -68 -275.666 -150.168 -376.999 -246.501s-182.333 -197.833 -243 -304.5s-102 -208.667 -124 -306s-27.5 -182 -16.5 -254s31.167 -132.833 60.5 -182.5
s66 -82.667 110 -99s110.167 34.334 198.5 152.001s163.166 258.167 224.499 421.5l152 416.5c40 114.333 71 233.833 93 358.5zM1871 968.998c-40.667 -26 -95.001 -97.832 -163.001 -215.499s-108.5 -228.834 -121.5 -333.501s-0.166992 -191.167 38.5 -259.5
s89.334 -85.833 152.001 -52.5s119.667 111.5 171 234.5s88 230.5 110 322.5s36.667 165.667 44 221zM3502 350.999c-67.333 -79.333 -156.666 -140.5 -268 -183.5c-111.333 -43 -225.833 -63.667 -343.5 -62s-196.667 21.834 -237 60.501s-67 81.834 -80 129.501
s-5.66699 108.334 22 182.001s59.834 150.834 96.501 231.501c-154 40.667 -317.667 88.667 -491 144c-40 -210 -96.833 -384.833 -170.5 -524.5s-139 -227 -196 -262s-107.5 -52.5 -151.5 -52.5s-85.333 18.5 -124 55.5s-64.5 101.333 -77.5 193s1.66699 199.167 44 322.5
s127.833 264 256.5 422c-102.667 51.333 -193.5 99.166 -272.5 143.499s-161.5 93.166 -247.5 146.499c-10.667 -34.667 -27.667 -95.334 -51 -182.001s-82 -248.5 -176 -485.5s-182.333 -406 -265 -507s-141.5 -158 -176.5 -171s-76.167 -21.167 -123.5 -24.5
c-52 18 -96.333 49 -133 93s-66 107.333 -88 190s-33 148 -33 196c0 62.667 13.833 140.834 41.5 234.501s70 189.167 127 286.5s122.167 182 195.5 254s146.833 133.667 220.5 185s145.5 90 215.5 116l-149 179c-66 79.333 -111 174.166 -135 284.499
s-18.5 207.666 16.5 292c35 84.333 82.833 144 143.5 179s122 52.5 184 52.5c70 0 133.5 -23 190.5 -69s98.333 -99.333 124 -160s39.5 -138.834 41.5 -234.5c2 -95.667 -25.333 -233.167 -82 -412.5c108 21.333 203.667 29.833 287 25.5s165.166 -28.166 245.499 -71.499
s150.5 -120.666 210.5 -231.999c106.667 66.667 212.667 114.834 318 144.501s210.666 41.667 316 36c105.333 -5.66699 182 -24.167 230 -55.5s81.167 -71.833 99.5 -121.5s13.666 -120.334 -14 -212.001c-27.667 -91.667 -79.834 -215.167 -156.5 -370.5
c48.667 -16.667 103 -39.334 163 -68.001c-0.666992 -30.667 -18.834 -41.834 -54.5 -33.501c-35.667 8.33301 -82.834 20.5 -141.5 36.5c-55.333 -113.333 -91.333 -205.333 -108 -276c-20.667 -84.667 -16.167 -146.334 13.5 -185.001s99.167 -52.667 208.5 -42
s200.5 30.667 273.5 60s140.167 70.333 201.5 123h60z" />
    <glyph glyph-name="N" unicode="N" horiz-adv-x="2323" 
d="M735 1129c-118 -147.333 -200.333 -255.667 -247 -325s-99 -158 -157 -266s-89.833 -230.167 -95.5 -366.5s12 -218.333 53 -246s83.5 15.5 127.5 129.5s96.833 278 158.5 492s115.167 408 160.5 582zM824 1573c17.333 154.667 22.502 281.667 15.502 381
s-22.333 170.333 -46 213s-55.167 65.167 -94.5 67.5s-69.333 -20.5 -90 -68.5s-15.334 -123.5 15.999 -226.5s97.666 -225.167 198.999 -366.5zM2383 350.999c-80 -94 -178.007 -169.67 -294.007 -227.003s-221.333 -88.5 -316 -93.5s-162.667 4.66699 -204 29
s-69.333 62 -84 113s-3.16699 136.167 34.5 255.5l157.5 492c67.333 208.667 96 361.667 86 459s-45.167 174.666 -105.5 231.999s-152 69.333 -275 36s-257.5 -117.666 -403.5 -252.999c158.667 -153.333 281.667 -260.666 369 -321.999s138.833 -102.666 154.5 -123.999
s23.667 -38.833 24 -52.5s-40.167 3.33301 -121.5 51s-241 176.834 -479 387.501l-62 -80c-79.333 -324.667 -144.333 -562.167 -195 -712.5s-93.167 -282.833 -127.5 -397.5s-77.166 -203.667 -128.499 -267s-104.333 -95.333 -159 -96
c-61.333 5.33301 -98.666 50 -111.999 134s-20 148.333 -20 193c0 74 13.167 156.5 39.5 247.5s79.666 202 159.999 333s219.833 315.167 418.5 552.5c33.333 73.333 50.333 145.333 51 216c-113.333 167.333 -191.833 301.333 -235.5 402s-59 189.334 -46 266.001
s35.833 127.334 68.5 152c32.667 24.667 66.667 37 102 37c27.333 -2 56 -6.16699 86 -12.5s60.333 -29.666 91 -70c30.667 -40.333 51.334 -131 62.001 -272s0.666992 -303.167 -30 -486.5l34 -34c101.333 100 204.5 178 309.5 234s203.333 83.333 295 82
s167.167 -31.333 226.5 -90s99.5 -128 120.5 -208s28.667 -143.667 23 -191s-21.667 -135.5 -48 -264.5s-61.166 -255.167 -104.499 -378.5s-74.666 -227 -93.999 -311s-6.66602 -141.833 38.001 -173.5s107.834 -39.334 189.501 -23.001s155.834 42.5 222.501 78.5
s140.667 88.333 222 157h60z" />
    <glyph glyph-name="O" unicode="O" horiz-adv-x="2730" 
d="M978 330c-145.333 60 -242.828 128.333 -292.495 205s-75 152.5 -76 227.5s21 160 66 255s112.5 180 202.5 255s196.667 134.167 320 177.5s244.166 63.666 362.499 60.999s227 -19.334 326 -50.001s198.5 -84.667 298.5 -162s176.333 -171.166 229 -281.499
s72.834 -221.333 60.5 -333c-12.333 -111.667 -59.333 -214.167 -141 -307.5s-181.667 -166.166 -300 -218.499s-243 -95.166 -374 -128.499s-308.167 -50 -531.5 -50c-184.667 0 -334.667 19.667 -450 59s-212.5 91.833 -291.5 157.5s-131 128.5 -156 188.5
s-37.5 125 -37.5 195c0 66.667 9.16699 143.334 27.5 230.001s73.833 191.667 166.5 315s203.167 228.666 331.5 315.999s260.5 156.5 396.5 207.5s262.333 86.833 379 107.5s225 31 325 31c124.667 -4.66699 228.667 -24 312 -58s164.166 -86.333 242.5 -157
c78.333 -70.667 125.166 -129.334 140.499 -176.001l-50 -7c-68 95.333 -154.167 173.833 -258.5 235.5s-226.5 95.5 -366.5 101.5s-301.333 -16.833 -484 -68.5s-348.667 -127.667 -498 -228s-258.166 -213.333 -326.499 -339s-105.833 -239.667 -112.5 -342
s10 -197.333 50 -285s99.167 -161 177.5 -220s191.666 -105.167 339.999 -138.5s289.666 -46.166 423.999 -38.499s283.166 40.167 446.499 97.5s288.333 131 374.999 221c86.667 90 135.834 184.667 147.5 284c11.667 99.333 -3.33301 199 -45 299s-113 193.167 -214 279.5
s-219 145 -354 176s-256.667 37.833 -365 20.5s-210 -49.833 -305 -97.5s-171.667 -109.834 -230 -186.501s-98.333 -170 -120 -280s-11.5 -206.333 30.5 -289s119.333 -154.667 232 -216z" />
    <glyph glyph-name="P" unicode="P" horiz-adv-x="2195" 
d="M1527 1330l42.999 324c-76.667 -51.333 -118.667 -102 -126 -152s20.334 -107.333 83.001 -172zM1734 1744c-12.667 -53.333 -23.667 -113 -33 -179c43.333 40 78.333 106.667 105 200zM1752 1840l78.999 18c21.333 82 32.333 148.167 33 198.5
s-3.16602 82.166 -11.499 95.5c-8.33301 13.333 -24 -6.66699 -47 -60s-40.833 -137.333 -53.5 -252zM2058 1085c102 49.333 179.667 93.8262 233 133.493s92.666 90.834 118 153.501c25.333 62.667 28.666 124.834 10 186.501c-18.667 61.667 -67.334 118.167 -146 169.5
c-78.667 51.333 -204.334 68.666 -377 51.999c-42.667 -115.333 -79 -192.666 -109 -231.999s-66.333 -74.666 -109 -105.999l-13 92l-50 -274c172.667 -143.333 285.667 -252.833 339 -328.5s84 -135.834 92 -180.501s6.33301 -83.5 -5 -116.5s-52 -67.5 -122 -103.5
l-44 25c86 43.333 114.667 97.833 86 163.5s-66.5 122.334 -113.5 170.001s-134.5 122.167 -262.5 223.5c-26.667 -100.667 -48.167 -211.834 -64.5 -333.501s-47.833 -260.667 -94.5 -417s-122.334 -270.666 -227.001 -342.999s-224.667 -111.5 -360 -117.5
c-150 2.66699 -267.333 18.834 -352 48.501s-161.167 51.167 -229.5 64.5s-119 24.833 -152 34.5s-70.167 13.667 -111.5 12s-67 3.33301 -77 15s-17 27.167 -21 46.5c7.33301 27.333 18.5 46.666 33.5 57.999s42.167 17 81.5 17s69 -9.83301 89 -29.5
s63.167 -35.5 129.5 -47.5s132 -33.5 197 -64.5s139.833 -55.5 224.5 -73.5s170.334 -22.167 257.001 -12.5s158.167 33.5 214.5 71.5s105.833 104.667 148.5 200s77.667 216 105 362s58.666 343.333 93.999 592c-78 79.333 -124.5 146 -139.5 200s-15.333 107.167 -1 159.5
s38.5 88.333 72.5 108s58.5 32.167 73.5 37.5s25.167 22 30.5 50s42.333 49.667 111 65c45.333 244.667 83.833 396 115.5 454s58.334 94.5 80.001 109.5s42.5 24.167 62.5 27.5c26.667 -3.33301 47.5 -19.166 62.5 -47.499s23.333 -77.5 25 -147.5
s-15.833 -183.333 -52.5 -340c145.333 8.66699 260.833 -0.166016 346.5 -26.499s151.5 -57.666 197.5 -93.999s80.833 -76.666 104.5 -120.999s35.5 -86.833 35.5 -127.5c0 -48.667 -12.333 -95.167 -37 -139.5s-76 -97.333 -154 -159s-190.667 -116.167 -338 -163.5z" />
    <glyph glyph-name="Q" unicode="Q" horiz-adv-x="2207" 
d="M1390 240c-5.33301 62 -34.666 89.168 -87.999 81.501s-92.5 -27.334 -117.5 -59.001s-33.833 -59.667 -26.5 -84s23.166 -36.833 47.499 -37.5s51.833 7.33301 82.5 24s64.667 41.667 102 75zM997 30.001c-76.667 -20 -180.669 -25.834 -312.002 -17.501
s-230.5 35 -297.5 80s-113.833 100.833 -140.5 167.5s-40 126.667 -40 180c0 63.333 10 130 30 200s69.167 174.167 147.5 312.5s186 272.5 323 402.5s256.333 222.167 358 276.5s183.5 90.333 245.5 108s122.333 26.5 181 26.5c36.667 0 73.334 -9.33301 110.001 -28
s64.167 -42.167 82.5 -70.5s25.833 -55.833 22.5 -82.5c140 -71.333 239.167 -151.666 297.5 -240.999s87.5 -187.333 87.5 -294c0 -112 -34.5 -220.833 -103.5 -326.5s-204.167 -251.167 -405.5 -436.5c15.333 -42 16.5 -97.833 3.5 -167.5s-5.33301 -117.834 23 -144.501
s75.166 -33.667 140.499 -21s134.833 47.334 208.5 104.001s156.5 154.334 248.5 293.001h60c-89.333 -168 -188.666 -296.833 -298 -386.5c-109.333 -89.667 -206.666 -134.5 -291.999 -134.5c-59.333 0 -109.666 13.167 -150.999 39.5s-74 65.5 -98 117.5
s-36 109.667 -36 173c-66.667 -50.667 -121.667 -79.167 -165 -85.5s-77.166 -4.5 -101.499 5.5s-42.666 25.833 -54.999 47.5s-16 46.667 -11 75s21.667 59.166 50 92.499s66.5 59.5 114.5 78.5s99.667 28.167 155 27.5s107.333 -17.667 156 -51
c54.667 38 121.667 114.667 201 230s125.666 232 138.999 350s-4.83398 233.333 -54.501 346s-105.167 189.334 -166.5 230.001s-122.833 62 -184.5 64s-105.334 0.166992 -131.001 -5.5s-40.5 3.5 -44.5 27.5c28.667 16.667 70.834 27.5 126.501 32.5
s123.834 -0.833008 204.501 -17.5c1.33301 25.333 -9.33398 48.833 -32.001 70.5s-68.5 32.167 -137.5 31.5s-158 -32.334 -267 -95.001s-232.333 -169 -370 -319s-237.334 -290.833 -299.001 -422.5s-97 -252.5 -106 -362.5s10.5 -200.833 58.5 -272.5
s118.333 -120.5 211 -146.5s197.334 -36.333 314.001 -31v-30z" />
    <glyph glyph-name="R" unicode="R" horiz-adv-x="2593" 
d="M1673 1263c-12 -52 -32.665 -132.667 -61.998 -242c46.667 -6 102.667 -1.33301 168 14s146.333 42.333 243 81c-48.667 24 -99.334 47 -152.001 69s-118.334 48 -197.001 78zM2111 1157c103.333 52.667 168.999 127.667 196.999 225s42 189.5 42 276.5
s-19.333 164.333 -58 232s-96.167 118.167 -172.5 151.5s-156.166 52.666 -239.499 58l-188 -747l241.5 -105.5c67 -28.333 126.167 -58.5 177.5 -90.5zM1756 2104c-139.333 -1.33301 -246.5 -18.166 -321.5 -50.5c-75 -32.333 -132.833 -84.833 -173.5 -157.5
s-50.167 -147.167 -28.5 -223.5s65.167 -133 130.5 -170s140.666 -73.167 225.999 -108.5c74.667 292 130.334 528.667 167.001 710zM2087 2362c8 52 20.167 110.667 36.5 176s13 111.166 -10 137.5c-23 26.333 -48.167 13.833 -75.5 -37.5s-73.666 -198.333 -138.999 -441
c106 -15.333 194.833 -36.666 266.5 -63.999s137.167 -66 196.5 -116s103.166 -105 131.5 -165c28.333 -60 42.5 -136.667 42.5 -230c-14 -115.333 -50.833 -212.166 -110.5 -290.499s-146.167 -149.833 -259.5 -214.5c26 -57.333 28.333 -107.5 7 -150.5
s-61 -90.167 -119 -141.5l-38 22c33.333 40 58.166 77.5 74.5 112.5c16.333 35 9.5 70.5 -20.5 106.5c-55.333 -24.667 -115.833 -46.5 -181.5 -65.5s-156.5 -35.167 -272.5 -48.5c56.667 -22 108.667 -84.333 156 -187s70.5 -222 69.5 -358s16.833 -226.833 53.5 -272.5
s95.167 -65 175.5 -58s171.333 41.333 273 103s184.834 118.834 249.5 171.501h60c-74.667 -72.667 -165.334 -142.334 -272 -209.001c-106.667 -66.667 -191.834 -107.334 -255.5 -122.001c-63.667 -14.667 -133.167 -16.334 -208.5 -5.00098s-129 49.666 -161 114.999
s-48.333 141.166 -49 227.499s-10.167 176.833 -28.5 271.5s-54.5 173 -108.5 235c-92.667 -281.333 -182 -480.166 -268 -596.499s-178.5 -193.833 -277.5 -232.5s-201.833 -61.334 -308.5 -68.001c-110 0 -224.167 9.16699 -342.5 27.5s-207.5 45.833 -267.5 82.5
s-118.333 52.5 -175 47.5s-99.167 -4.16699 -127.5 2.5s-42.5 21.667 -42.5 45c30 36.667 58.333 61.667 85 75s70 10.833 130 -7.5s118.333 -46.666 175 -84.999s113.334 -68.333 170.001 -90s149.167 -31.667 277.5 -30s232.5 13.334 312.5 35.001s150.667 62 212 121
s118.833 137.333 172.5 235s109.834 263.5 168.501 497.5c-54 24.667 -101.667 31.167 -143 19.5s-72.333 -18 -93 -19s-31.167 8.5 -31.5 28.5s4.66699 42.167 15 66.5s41.333 36 93 35s114.834 -5.5 189.501 -13.5c25.333 69.333 51 159 77 269
c-155.333 61.333 -259.333 121.333 -312 180s-84.834 123 -96.501 193s0.666016 144 36.999 222s97.666 143.5 183.999 196.5s218.833 85.167 397.5 96.5c36 140.667 75.167 259.667 117.5 357s84.5 167.333 126.5 210s76 64 102 64h5
c23.333 -13.333 41.166 -41.333 53.499 -84s12.333 -98.834 0 -168.5c-12.333 -69.667 -35.833 -143.167 -70.5 -220.5z" />
    <glyph glyph-name="S" unicode="S" horiz-adv-x="2071" 
d="M1223 709c180 138.667 329.834 273.835 449.501 405.502s222.834 268.5 309.501 410.5s141.167 245 163.5 309s26.666 123.667 13 179c-13.667 55.333 -44.834 92.666 -93.501 112c-48.667 19.333 -118.834 25.5 -210.501 18.5s-190.334 -27.833 -296.001 -62.5
s-215.667 -86.667 -330 -156s-207.166 -140.333 -278.499 -213s-123.833 -140.834 -157.5 -204.501s-58.667 -131.334 -75 -203.001s-10.5 -144.167 17.5 -217.5s80.833 -136.5 158.5 -189.5s187.5 -115.833 329.5 -188.5zM1155 569.001
c-55.333 -31.333 -142.335 -89.332 -261.002 -173.999l282 -227c112.667 27.333 185 53 217 77s48.833 52.667 50.5 86s-18.166 65.666 -59.499 96.999s-117.666 78.333 -228.999 141zM697.999 335.002c-65.333 36.667 -119.167 52.1689 -161.5 46.502
s-72 -27.834 -89 -66.501s-0.166992 -76.334 50.5 -113.001zM1013 129.004c-59.333 48 -107.332 85.335 -143.999 112.002s-70.667 47.667 -102 63c-76.667 -48 -149.334 -96 -218.001 -144c78.667 -32.667 155 -50.834 229 -54.501s152.333 4.16602 235 23.499z
M2131 351.006c-148 -149.333 -281.841 -251.667 -401.508 -307s-228.834 -82.5 -327.501 -81.5s-172.167 13.667 -220.5 38s-88.166 49.833 -119.499 76.5c-147.333 -35.333 -266.833 -46.666 -358.5 -33.999s-168.167 35.334 -229.5 68.001
c-152 -96.667 -301.667 -202.167 -449 -316.5s-256.5 -214.833 -327.5 -301.5s-113.333 -176.667 -127 -270s-3.16699 -157.333 31.5 -192s36.334 -66 5.00098 -94c-48.667 38 -81.667 78 -99 120c-8.66699 20.667 -13 47 -13 79c0 32.667 4.33301 70.334 13 113.001
c17.333 86.667 62.333 175 135 265s151.5 171.333 236.5 244s264.167 202.667 537.5 390c-70 55.333 -94.833 118.666 -74.5 189.999s73.833 120.666 160.5 147.999s196 9 328 -55l262 174c-128 60.667 -235.333 121.834 -322 183.501s-148.5 136.167 -185.5 223.5
s-48.667 169.5 -35 246.5s44.334 153.667 92.001 230s110.334 154.333 188.001 234s166.834 151.5 267.501 215.5s207.334 118.5 320.001 163.5s217.5 74.5 314.5 88.5s178.5 21 244.5 21c62 -3.33301 113.833 -15.5 155.5 -36.5s71.167 -48 88.5 -81s26 -68.5 26 -106.5
c-3.33301 -34.667 -10.166 -77 -20.5 -127c-10.333 -50 -53.666 -140.833 -130 -272.5c-76.333 -131.667 -178.666 -273 -306.999 -424s-294.5 -312.833 -498.5 -485.5c152 -83.333 245.5 -144.5 280.5 -183.5s51.333 -81.333 49 -127s-29.333 -88.834 -81 -129.501
s-154.167 -81.334 -307.5 -122.001c22 -20.667 65.833 -40.5 131.5 -59.5s158.334 -10.667 278.001 25s262.834 125.5 429.501 269.5h60z" />
    <glyph glyph-name="T" unicode="T" horiz-adv-x="1755" 
d="M1673 1262c66.667 102.667 112.333 199.167 137 289.5s37.334 151 38.001 182s-11.333 24.667 -36 -19s-43.334 -89.667 -56.001 -138zM1488 1087c-83.333 -2.66699 -153.828 17.1699 -211.495 59.5029s-96.667 102.5 -117 180.5s-25.166 142.667 -14.499 194
s5.16699 87.166 -16.5 107.499s-33.334 40.5 -35.001 60.5s14.666 39.5 48.999 58.5s64.666 26.167 90.999 21.5s48.166 -18.834 65.499 -42.501s28.333 -57.167 33 -100.5s-2.33301 -94.666 -21 -153.999s-17.667 -122 3 -188s90 -91.667 208 -77
c29.333 132.667 62 251.834 98 357.501s76.167 201.5 120.5 287.5s80.666 143 108.999 171s59.5 45 93.5 51c34 -12.667 52.667 -42.334 56 -89.001c-0.666992 -84.667 -15.334 -188.667 -44.001 -312s-68.334 -232.833 -119.001 -328.5s-113.667 -172.167 -189 -229.5
c-90.667 -308 -158.334 -516.5 -203.001 -625.5s-97.334 -191.5 -158.001 -247.5s-129.167 -104.333 -205.5 -145s-170.5 -74.167 -282.5 -100.5s-216.333 -39.5 -313 -39.5c-100 3.33301 -167 13.5 -201 30.5s-86.833 41.167 -158.5 72.5s-123.834 55.5 -156.501 72.5
s-59.167 27.833 -79.5 32.5s-32.166 18 -35.499 40c6.66699 18.667 25.5 35.667 56.5 51s65.167 26.166 102.5 32.499s75.5 -6 114.5 -37s92.667 -66.833 161 -107.5s154 -67.167 257 -79.5s205.833 -6.83301 308.5 16.5s182.834 52.833 240.501 88.5
s106.834 88.667 147.501 159s76.334 159.666 107.001 267.999z" />
    <glyph glyph-name="U" unicode="U" horiz-adv-x="2208" 
d="M568 1068c82 174.667 130.83 306.167 146.497 394.5s0.333984 148.833 -45.999 181.5s-110.166 45.5 -191.499 38.5s-155 -41.333 -221 -103s-94 -128 -84 -199s44.833 -129.333 104.5 -175s156.834 -91.5 291.501 -137.5zM669.997 500
c142 56.667 230.664 114.668 265.997 174.001s44.5 106.5 27.5 141.5s-51.833 62 -104.5 81s-112.667 38.833 -180 59.5c-112 -213.333 -175.333 -382.666 -190 -507.999s14.5 -220.5 87.5 -285.5s156.333 -88.667 250 -71s171.5 55.834 233.5 114.501
s127.833 145 197.5 259s115.5 216.333 137.5 307s46.667 214 74 370s57.333 299 90 429s80.834 217.5 144.501 262.5s103.167 83.667 118.5 116s39.333 50.166 72 53.499c17.333 -22 24.5 -58.167 21.5 -108.5s-12.5 -104.333 -28.5 -162s-59 -167.334 -129 -329.001
s-132.333 -314.834 -187 -459.501s-86.5 -283.334 -95.5 -416.001s3 -247.667 36 -345s81.667 -158.666 146 -183.999s126.333 -23.666 186 5.00098s115.834 65.667 168.501 111s118 124 196 236h60c-68 -107.333 -130.333 -191.333 -187 -252
s-117.834 -108.334 -183.501 -143.001s-128.167 -52 -187.5 -52c-32 0 -71.167 10.167 -117.5 30.5s-88.166 53.833 -125.499 100.5s-67.333 118.334 -90 215.001s-31 183 -25 259c-74 -139.333 -139.167 -241.833 -195.5 -307.5s-119.5 -114.334 -189.5 -146.001
s-153.833 -47.167 -251.5 -46.5s-177.5 28.167 -239.5 82.5s-102.667 125.5 -122 213.5s-15.666 177.667 11.001 269s84.334 234.333 173.001 429l-64 22c-116 42 -206.333 90.333 -271 145s-99.334 131.667 -104.001 231c0 78 24 144.333 72 199
c52 59.333 115.833 103.333 191.5 132s151.167 43.334 226.5 44.001s139 -13.833 191 -43.5s85.5 -70.834 100.5 -123.501s6 -131.167 -27 -235.5s-83.833 -222.833 -152.5 -355.5c85.333 -24 150.333 -45.5 195 -64.5s78.5 -42 101.5 -69s34.833 -65.5 35.5 -115.5
s-22 -98.833 -68 -146.5s-139.667 -95.5 -281 -143.5z" />
    <glyph glyph-name="V" unicode="V" horiz-adv-x="1021" 
d="M-2 1260c43.333 21.333 73.832 40.8301 91.499 58.4971s38 23.834 61 18.501s46 -22.166 69 -50.499s49.667 -50.833 80 -67.5s70.5 -17.667 120.5 -3s95.5 34.5 136.5 59.5s82.833 80.167 125.5 165.5s73.167 168.833 91.5 250.5s44.833 152.667 79.5 213
s68.167 106.833 100.5 139.5s62.833 49 91.5 49c25.333 0 41.5 -7.16699 48.5 -21.5s0.833008 -59.666 -18.5 -135.999s-45.833 -148.833 -79.5 -217.5s-75.667 -138.167 -126 -208.5s-87.833 -137 -112.5 -200s-58 -143.833 -100 -242.5s-83 -217 -123 -355
s-72.5 -255.833 -97.5 -353.5s-40.167 -162.5 -45.5 -194.5s0.833984 -48.833 18.501 -50.5s37.167 19.666 58.5 63.999l120.5 251c59 123 118.667 256.667 179 401s139.5 281.5 237.5 411.5s231.667 239.5 401 328.5s346.5 154 531.5 195s369.333 64.167 553 69.5
s380.5 -6.33398 590.5 -35.001s394.667 -65.334 554 -110.001s314.333 -107 465 -187c150.666 -80 259.666 -159.333 327 -238s101.334 -136.667 102 -174l5 -65l-44 21c-3.33398 44 -27.667 96.167 -73 156.5c-45.334 60.333 -122.668 125.833 -232.001 196.5
s-246 134.834 -410 192.501s-395.5 107.667 -694.5 150s-585.667 43 -860 2s-500.5 -105.167 -678.5 -192.5s-315.167 -188.833 -411.5 -304.5s-197.833 -296.5 -304.5 -542.5s-187.667 -418 -243 -516s-99 -159.333 -131 -184s-64 -40.667 -96 -48
c-21.333 7.33301 -35.5 17.166 -42.5 29.499s-12.333 41 -16 86s7.83301 130.833 34.5 257.5s62 262.334 106 407.001s81.333 251.167 112 319.5s41.667 110.5 33 126.5s-40.167 7.83301 -94.5 -24.5s-128.166 -45.666 -221.499 -39.999s-161.5 21.834 -204.5 48.501
s-64.5 58 -64.5 94z" />
    <glyph glyph-name="W" unicode="W" horiz-adv-x="1846" 
d="M627 1451c19.333 136.667 17.668 259.999 -4.99902 369.999s-54.5 186.667 -95.5 230s-72.5 43.333 -94.5 0s-19.333 -109.166 8 -197.499s89.666 -222.5 186.999 -402.5zM581.002 921.999c52 48.667 101 89.666 147 122.999c-11.333 36 -32.333 92.333 -63 169
c-25.333 -107.333 -53.333 -204.666 -84 -291.999zM414.002 687.998c-126 -150 -211.001 -275.501 -255.001 -376.501s-54 -152 -30 -153s61.833 43.333 113.5 133s108.834 221.834 171.501 396.501zM1246 391.997c-105.333 -109.333 -168.999 -205.5 -190.999 -288.5
s-22.167 -128 -0.5 -135s50.5 4.66699 86.5 35s62.167 77 78.5 140s25.166 145.833 26.499 248.5zM1931 1453c34.667 135.333 30 251.833 -14 349.5s-104.833 155.5 -182.5 173.5s-138 11.333 -181 -20s-66 -83.5 -69 -156.5s31.833 -142.5 104.5 -208.5
s186.667 -112 342 -138zM549.002 779.997c-55.333 -165.333 -109.336 -303.668 -162.003 -415.001s-110.334 -197.333 -173.001 -258s-110 -93.167 -142 -97.5s-51 3.5 -57 23.5s-9 34.667 -9 44c0 38 11.833 93.5 35.5 166.5s61.834 150 114.501 231s152 195.5 298 343.5
c41.333 102 72 191.667 92 269s38 153.333 54 228c-94 172 -162.667 312.333 -206 421s-61.666 198.667 -54.999 270s24.334 119 53.001 143s54.334 36 77.001 36c35.333 -2.66699 73.5 -24.5 114.5 -65.5s76.333 -115.833 106 -224.5s42.167 -209.334 37.5 -302.001
s-14 -176.667 -28 -252c43.333 -107.333 78.333 -186.666 105 -237.999c144.667 82.667 256.5 113.834 335.5 93.501s134.5 -81.833 166.5 -184.5s53.333 -231.334 64 -386.001c152 171.333 266.333 311.833 343 421.5s143 222.834 199 339.501
c-202 34.667 -345.333 94.667 -430 180s-119.167 178.666 -103.5 279.999s64 169.333 145 204s167.167 36.834 258.5 6.50098s163.333 -97.5 216 -201.5s58.667 -242.667 18 -416c173.333 -16 435.166 -2.33301 785.5 41c350.333 43.333 674.666 69 973 77
c298.333 8 575.833 -12 832.5 -60l-18 -27c-406.666 56 -798.833 66.5 -1176.5 31.5s-678.834 -66.833 -903.501 -95.5s-395 -37 -511 -25c-80 -180 -178.333 -346.5 -295 -499.5s-223.334 -277.5 -320.001 -373.5c2 -180.667 -13.167 -314 -45.5 -400
s-74.666 -149.333 -126.999 -190s-102.166 -61.667 -149.499 -63c-49.333 2.66699 -82.166 27.334 -98.499 74.001s-15.833 100.667 1.5 162s43.5 120 78.5 176s101.5 138.667 199.5 248c-3.33301 103.333 -12.5 201.333 -27.5 294s-34.5 165.834 -58.5 219.501
s-64.167 79 -120.5 76s-122.166 -26.5 -197.499 -70.5c36 -84.667 62.167 -148.834 78.5 -192.501s31.666 -89 45.999 -136s18.333 -89.167 12 -126.5s-20.333 -60.333 -42 -69s-53.667 6.5 -96 45.5s-44.833 62.667 -7.5 71s43.5 53.166 18.5 134.499
s-51.833 155 -80.5 221c-80.667 -64 -153.334 -131.667 -218.001 -203z" />
    <glyph glyph-name="X" unicode="X" horiz-adv-x="2226" 
d="M688 810c90 44 163.5 76.3311 220.5 96.998l187.5 65c51.333 162.667 83.5 291.834 96.5 387.501s11.833 172.334 -3.5 230.001s-58 88.5 -128 92.5c-77.333 0 -150.5 -49.333 -219.5 -148s-117.167 -193.5 -144.5 -284.5s-39 -176 -35 -255s12.667 -140.5 26 -184.5z
M924 523.998c71.333 146.667 118.333 264.667 141 354c-98.667 -29.333 -210.667 -76.666 -336 -141.999c38 -80.667 103 -151.334 195 -212.001zM658 710.998c-147.333 -86 -255.334 -165.832 -324.001 -239.499s-108.5 -145.167 -119.5 -214.5s8.33301 -116.333 58 -141
s133.334 -13.834 251.001 32.499s237.5 149.5 359.5 309.5c-54.667 36 -98.667 71.333 -132 106s-64.333 83.667 -93 147zM1553 1100c114.667 36 214.501 84.6689 299.501 146.002s153.333 133.666 205 216.999s81.334 178.666 89.001 285.999s-12.833 174.333 -61.5 201
s-97.834 12.167 -147.501 -43.5s-101.334 -144.167 -155.001 -265.5zM1238 925.001c-72 -202 -140 -357.333 -204 -466c22 -16 59.333 -29.667 112 -41c14 47.333 32.333 106.333 55 177s67.667 189 135 355zM2307 351.001
c-112.667 -204 -239.168 -343.835 -379.501 -419.502s-269.833 -113.5 -388.5 -113.5c-102.667 0 -188.667 27.5 -258 82.5s-114.333 121.833 -135 200.5s-25.667 159 -15 241c-52 14 -100 33.667 -144 59c-92 -126.667 -177.667 -221.167 -257 -283.5
s-159.666 -105.833 -240.999 -130.5s-151.333 -28.5 -210 -11.5s-100.334 47.167 -125.001 90.5s-37 90 -37 140c0 83.333 38.667 172.333 116 267s205 197 383 307c-25.333 83.333 -36.166 175.5 -32.499 276.5s25.834 201.5 66.501 301.5s93.167 186 157.5 258
s129.333 119.667 195 143s129.667 28.833 192 16.5s108.5 -49.5 138.5 -111.5s42.167 -138.333 36.5 -229s-42.5 -230.334 -110.5 -419.001l112 30l69 167c118.667 286 200.167 473.833 244.5 563.5s99.833 157.667 166.5 204s140.334 69.5 221.001 69.5
c83.333 0 136.333 -41.667 159 -125s25.834 -168.166 9.5 -254.499c-16.333 -86.333 -53.166 -174.833 -110.5 -265.5c-57.333 -90.667 -138.5 -170.5 -243.5 -239.5s-228.5 -126.167 -370.5 -171.5c-90.667 -192.667 -151.5 -330.5 -182.5 -413.5
s-55.167 -153.5 -72.5 -211.5c68 -26.667 135.333 -48.167 202 -64.5s98.667 -37.166 96 -62.499c-108.667 6.66699 -183.334 16.167 -224.001 28.5s-69.667 22.166 -87 29.499c-10.667 -66.667 -3 -136.167 23 -208.5s74.833 -123.5 146.5 -153.5
s157.167 -37.667 256.5 -23s199.166 54.834 299.499 120.501s191.5 170.834 273.5 315.501h60z" />
    <glyph glyph-name="Y" unicode="Y" horiz-adv-x="1610" 
d="M682 -569c-88 -55.333 -173.667 -98.666 -257 -129.999c-34 -92.667 -55.167 -165.834 -63.5 -219.501s-4.66602 -97.834 11.001 -132.501s42.667 -50.167 81 -46.5s81 22.334 128 56.001s81 77.167 102 130.5s30.167 106.333 27.5 159s-12.334 113.667 -29.001 183z
M462 -255c-102.667 74 -206.167 118.667 -310.5 134s-199.5 4.66602 -285.5 -32.001s-144.667 -88.667 -176 -156s-27.5 -144.666 11.5 -231.999s108 -142.333 207 -165s234.833 -4.66699 407.5 54zM544 -333l-98.999 -282.999
c63.333 23.333 135.666 60.666 216.999 111.999c-38 84.667 -77.333 141.667 -118 171zM813.001 650.001c-68 -66 -147.998 -122.666 -239.998 -169.999s-176.5 -65.333 -253.5 -54s-128.667 49 -155 113s-39.5 130.333 -39.5 199c0 68 17 157.667 51 269
s83.667 231 149 359s130.166 226 194.499 294s107.166 97.667 128.499 89s35 -21.667 41 -39s1.66699 -38 -13 -62l-109 -175.5c-58 -93 -111 -196.5 -159 -310.5s-79.167 -228.667 -93.5 -344s-6.5 -192.666 23.5 -231.999s76.5 -55.166 139.5 -47.499
s133.833 42.5 212.5 104.5s159.334 167.333 242.001 316c85.333 244 160 472.167 224 684.5s119.667 381.5 167 507.5s103.333 207 168 243c47.333 -29.333 65.166 -75.166 53.499 -137.5c-11.667 -62.333 -39.667 -164.833 -84 -307.5s-108.166 -304.334 -191.499 -485.001
c-76.667 -167.333 -154.167 -347.166 -232.5 -539.499l-216 -535.5l-249.5 -640c60.667 -51.333 113 -123.333 157 -216c88 52 174.5 113.333 259.5 184s171 150.667 258 240l216.5 220c57.333 57.333 106.666 115.333 147.999 174h60c-78.667 -100.667 -158 -194 -238 -280
l-242 -248c-81.333 -79.333 -157.5 -148.166 -228.5 -206.499s-140.167 -106.833 -207.5 -145.5c18.667 -52.667 30.334 -120.167 35.001 -202.5s-12.833 -161.333 -52.5 -237s-95.167 -133.5 -166.5 -173.5s-137 -61.333 -197 -64c-69.333 7.33301 -110 35.666 -122 84.999
s-14.5 106.666 -7.5 171.999s21.833 134.666 44.5 207.999c-106.667 -35.333 -207.667 -53 -303 -53c-138.667 0 -246.334 39 -323.001 117s-115 164.333 -115 259c0 65.333 29.167 130.833 87.5 196.5s139.5 114.667 243.5 147s209.167 37.333 315.5 15
s204.833 -64.5 295.5 -126.5c22.667 44 58 128.167 106 252.5s87.167 231.166 117.5 320.499s63.833 177 100.5 263z" />
    <glyph glyph-name="Z" unicode="Z" horiz-adv-x="1923" 
d="M541 394c-126 -12.667 -217.5 -56.167 -274.5 -130.5s-73 -119.5 -48 -135.5s85.167 26.333 180.5 127zM1549 962c-106.667 28.667 -200.995 50.9971 -282.995 66.9971l-503 -541c33.333 -7.33301 75 -22.333 125 -45s104.167 -60.167 162.5 -112.5
s106.333 -104.833 144 -157.5s82.667 -94.167 135 -124.5s109.5 -41.666 171.5 -33.999s126.333 39.334 193 95.001s143 136.167 229 241.5h60c-132.667 -194.667 -242.667 -319 -330 -373s-172 -81 -254 -81c-82.667 0 -159.834 18.167 -231.501 54.5
s-130.167 85.5 -175.5 147.5l-132.5 180.5c-43 58.333 -106.833 92.5 -191.5 102.5l-248 -253.5c-46.667 -45.667 -94 -79.834 -142 -102.501s-88.667 -28.5 -122 -17.5s-52.666 28.167 -57.999 51.5s-8 44.666 -8 63.999c0 38.667 9.66699 79 29 121
c28.667 64 88.334 125.833 179.001 185.5s203 87.834 337 84.501c188.667 170.667 364.667 349.334 528 536.001c-168 33.333 -356 46.333 -564 39c-5.33301 44.667 59.667 67.667 195 69s267.666 -8.66699 396.999 -30l35 -6c187.333 220.667 285.666 361.667 294.999 423
c-100.667 -11.333 -214.834 -25.166 -342.501 -41.499s-274.334 -23 -440.001 -20s-273.167 20.333 -322.5 52s-74.666 70.834 -75.999 117.501c1.33301 40 20.666 72.667 57.999 98s84 38 140 38c9.33301 0 34.666 -1.66699 75.999 -5l-2 -15
c-76.667 -16 -105.334 -49.667 -86.001 -101s78.666 -85.166 177.999 -101.499s249.833 -13.333 451.5 9s324.167 45.833 367.5 70.5c-9.33301 60 40 93 148 99c72.667 3.33301 108.834 -15.834 108.501 -57.501s-16.833 -91.5 -49.5 -149.5s-136.667 -176 -312 -354
l-81 -82c101.333 -20.667 219 -46.334 353 -77.001z" />
    <glyph glyph-name="bracketleft" unicode="[" horiz-adv-x="820" 
d="M103 370l163.001 132c36 28.667 46.167 51.5 30.5 68.5s-40.334 21.5 -74.001 13.5s-61.5 -29.667 -83.5 -65s-34 -85 -36 -149zM114.001 306c10 -42.667 28.4971 -81.6641 55.4971 -116.997s64 -62 111 -80s97.333 -24.333 151 -19s114.834 27.666 183.501 66.999
s137 104 205 194h60c-86 -125.333 -166 -209.5 -240 -252.5s-136.833 -70.167 -188.5 -81.5s-95.834 -17 -132.501 -17c-25.333 0 -63.666 5.5 -114.999 16.5s-100.666 37.167 -147.999 78.5s-78.5 84.666 -93.5 129.999s-22.5 85.666 -22.5 120.999
c0 39.333 8.16699 84.666 24.5 135.999s49.333 98.833 99 142.5s105.5 65.5 167.5 65.5c50.667 -2 92.5 -16.5 125.5 -43.5s45.833 -52.667 38.5 -77s-32.166 -54.666 -74.499 -90.999z" />
    <glyph glyph-name="backslash" unicode="\" horiz-adv-x="730" 
d="M856 -169c-5.33301 -17.333 -23.333 -32.666 -54 -45.999c-38 4.66699 -82.833 64.5 -134.5 179.5l-255 560.5l-303.5 652.5c-84 176.333 -161.5 349 -232.5 518s-120.5 275.5 -148.5 319.5c0 33.333 9.66699 53 29 59c24.667 -12.667 60 -46.334 106 -101.001
s101 -153.667 165 -297l266 -603c113.333 -258.667 197.333 -441 252 -547l193 -383.5c74 -149.667 113 -253.5 117 -311.5z" />
    <glyph glyph-name="bracketright" unicode="]" horiz-adv-x="1019" 
d="M284 459c-37.333 -2 -75.3301 -22.1689 -113.997 -60.502s-59.334 -92.166 -62.001 -161.499s12.166 -114.666 44.499 -135.999s66.333 -21.833 102 -1.5s68.167 51 97.5 92s50.666 92.5 63.999 154.5zM437.003 482.998c-0.666992 162.667 -17.332 318.167 -49.999 466.5
s-77.334 267.5 -134.001 357.5s-104 130.167 -142 120.5s-61.167 -53 -69.5 -130s10.5 -186 56.5 -327s159 -303.5 339 -487.5zM201.005 557.998c-120 138.667 -199.667 263.832 -239 375.499s-59 198.834 -59 261.501c0 76.667 5 138 15 184s28.5 84.5 55.5 115.5
s62.5 49.167 106.5 54.5c49.333 0 100.5 -23.833 153.5 -71.5s104.167 -129.834 153.5 -246.501s83.166 -243.667 101.499 -381s25.833 -283.666 22.5 -438.999c31.333 -38 69.333 -69.5 114 -94.5s97.667 -38.667 159 -41s112.5 5.83398 153.5 24.501
s68.167 35.667 81.5 51h60c-21.333 -30 -58 -61.167 -110 -93.5s-112.167 -49.833 -180.5 -52.5s-126 3.66602 -173 18.999s-88.5 37.333 -124.5 66c-24.667 -79.333 -67.834 -152.5 -129.501 -219.5s-135.167 -100.5 -220.5 -100.5c-81.333 8 -138.5 46.5 -171.5 115.5
s-40.167 139.333 -21.5 211s52.334 128.667 101.001 171s99.334 72.5 152.001 90.5z" />
    <glyph glyph-name="asciicircum" unicode="^" horiz-adv-x="1839" 
d="M1494 715c-20 -44.667 -43.9971 -89.334 -71.9971 -134.001s-67.833 -86.167 -119.5 -124.5s-115.167 -60.833 -190.5 -67.5c-46.667 0 -96.834 11 -150.501 33s-106.667 53.333 -159 94s-109.333 77.834 -171 111.501s-109.5 34.667 -143.5 3
s-47.667 -68.167 -41 -109.5s17.667 -68.333 33 -81l-18 -14c-32 10 -59.167 28.333 -81.5 55s-33.5 56.334 -33.5 89.001c0 39.333 10.167 74.333 30.5 105s49.166 56 86.499 76s87.333 30.333 150 31c24 0 62.667 -9 116 -27s112.333 -49 177 -93s129 -76.333 193 -97
s123.667 -19.334 179 3.99902s109.666 71.333 162.999 144z" />
    <glyph glyph-name="underscore" unicode="_" horiz-adv-x="1058" 
d="M1055 -412h-1055v52h1055v-52z" />
    <glyph glyph-name="grave" unicode="`" 
d="M356 710c-116 42 -204.333 88.166 -265 138.499s-91 101.5 -91 153.5c0 35.333 17.667 53 53 53c40 0 67.333 -18 82 -54s35.167 -69.667 61.5 -101s57.833 -60.666 94.5 -87.999s66 -52.333 88 -75z" />
    <glyph glyph-name="a" unicode="a" horiz-adv-x="1017" 
d="M393 406c-47.333 49.333 -84 54.998 -110 16.998s-66.333 -70.333 -121 -97s-72.834 -69.667 -54.501 -129s47.5 -95.666 87.5 -108.999s78.333 0.833984 115 42.501s64.334 133.5 83.001 275.5zM1077 350.998c-72.667 -87.333 -150.832 -163.671 -234.499 -229.004
s-151.667 -100.666 -204 -105.999s-98.5 4.5 -138.5 29.5s-73.333 38.333 -100 40s-45.834 -9.16602 -57.501 -32.499s-37.167 -41.333 -76.5 -54s-70 -19 -92 -19c-20 0 -42.333 5.5 -67 16.5s-49.5 32.333 -74.5 64s-44.167 60.834 -57.5 87.501s-20 55 -20 85
c0 33.333 18.833 78 56.5 134s83.5 101.333 137.5 136s114 54.334 180 59.001c74 -2.66699 135.333 -33 184 -91c17.333 18 35.833 26.667 55.5 26s28.667 -15.167 27 -43.5s-18.834 -65.5 -51.501 -111.5s-42.334 -92.333 -29.001 -139s35.5 -76.5 66.5 -89.5
s69.833 -11.5 116.5 4.5s92.834 40.167 138.501 72.5s105.834 85.833 180.501 160.5h60z" />
    <glyph glyph-name="b" unicode="b" horiz-adv-x="803" 
d="M109 573c18 -6 73.002 69.999 165.002 227.999s171 313.5 237 466.5s104.333 276.333 115 370s6.5 153 -12.5 178s-47 7.83301 -84 -51.5s-77.833 -141.166 -122.5 -245.499s-87.334 -216.833 -128.001 -337.5s-73.834 -229.667 -99.501 -327s-49.167 -191 -70.5 -281z
M300.002 205.999c-105.333 34.667 -166.666 83.668 -183.999 147.001c-11.333 -24 -19.333 -60.333 -24 -109s-2.5 -86 6.5 -112s26.667 -39.167 53 -39.5s52.666 10.167 78.999 31.5s49.5 48.666 69.5 81.999zM863.002 351
c-58.667 -73.333 -131.829 -123.17 -219.496 -149.503s-176.834 -30.5 -267.501 -12.5c-28.667 -51.333 -59.834 -93.166 -93.501 -125.499s-68.667 -54.166 -105 -65.499s-62.833 -17 -79.5 -17c-23.333 5.33301 -45.166 17.333 -65.499 36s-33.833 48.167 -40.5 88.5
s-10 88.833 -10 145.5c0 40 6.33301 105.167 19 195.5s43.167 230.5 91.5 420.5s114.166 392.667 197.499 608s145.666 348.333 186.999 399s79.166 84.667 113.499 102s64.833 26 91.5 26c36.667 0 60 -40.333 70 -121s-2.66699 -188 -38 -322s-88.5 -278.667 -159.5 -434
s-202.833 -374.666 -395.5 -657.999c76 88.667 137.833 134.834 185.5 138.501s80.5 -21 98.5 -74s5.66699 -143.167 -37 -270.5c51.333 -20.667 115.333 -24.334 192 -11.001s145 47 205 101h60zM332.007 296.996c26.667 72 30.667 118.832 12 140.499
s-49.5 17.834 -92.5 -11.499s-16.167 -72.333 80.5 -129z" />
    <glyph glyph-name="c" unicode="c" horiz-adv-x="1021" 
d="M1081 351c-68.667 -84.667 -149.672 -155.999 -243.005 -213.999s-176.166 -98 -248.499 -120s-145.833 -33 -220.5 -33c-71.333 0 -137.833 10.833 -199.5 32.5s-109.5 55.834 -143.5 102.501s-51 96.334 -51 149.001c4.66699 61.333 20.667 114.166 48 158.499
s66 78.333 116 102s103.667 35.167 161 34.5c11.333 18 25.833 35.833 43.5 53.5s41.834 34.167 72.501 49.5c10.667 -6 22 -18.667 34 -38c-22 -20.667 -39.333 -45.667 -52 -75c58 -26.667 93.5 -61 106.5 -103s15.667 -78 8 -108s-35 -48.667 -82 -56
s-86.167 4.5 -117.5 35.5s-46.333 83.167 -45 156.5c-64 0.666992 -109.167 -23 -135.5 -71s-34.166 -99.833 -23.499 -155.5s44.334 -99.834 101.001 -132.501s118.334 -51.334 185.001 -56.001s132.5 1 197.5 17s140.833 50.833 227.5 104.5s153.667 109.167 201 166.5h60
z" />
    <glyph glyph-name="d" unicode="d" horiz-adv-x="1222" 
d="M387 346c-74 22 -132.502 29.5 -175.502 22.5s-77 -31.167 -102 -72.5s-40.167 -79 -45.5 -113s1.83398 -61.667 21.501 -83s51.834 -21.333 96.501 0s85.5 55.833 122.5 103.5s64.5 95.167 82.5 142.5zM1282 351c-56 -95.333 -115.338 -167.334 -178.005 -216.001
s-124.667 -83.167 -186 -103.5s-100.333 -30.5 -117 -30.5c-68.667 0 -128 15.167 -178 45.5s-81.833 81.666 -95.5 153.999s-27.167 107.666 -40.5 105.999s-28.5 -19 -45.5 -52s-47 -73.167 -90 -120.5s-93.667 -81.833 -152 -103.5s-110.833 -32.5 -157.5 -32.5
c-100 10 -151.667 51.667 -155 125c0.666992 68.667 19.167 124 55.5 166s85.333 81.167 147 117.5s123.334 51.666 185.001 45.999s107.834 -12.167 138.501 -19.5s57.667 1.66699 81 27s40.5 66.833 51.5 124.5s14.5 114 10.5 169s16.333 144.333 61 268
s72.334 244.5 83.001 362.5s26.834 207.833 48.501 269.5s48.834 106.334 81.501 134.001s80.667 41.834 144 42.501c-9.33301 -173.333 -31.333 -323.166 -66 -449.499s-72.167 -241.166 -112.5 -344.499s-83.333 -229.666 -129 -378.999s-64 -267 -55 -353
s33.167 -146.833 72.5 -182.5s92 -50.834 158 -45.501s132.5 31 199.5 77s127.167 112 180.5 198h60z" />
    <glyph glyph-name="e" unicode="e" horiz-adv-x="870" 
d="M337 528c80.667 42.667 124.168 81.832 130.501 117.499s-6.33398 71.667 -38.001 108s-64.334 45.333 -98.001 27s-54.167 -40.666 -61.5 -66.999s-8.16602 -58.333 -2.49902 -96s18.5 -66.167 38.5 -85.5zM402.001 446.998c50.667 -23.333 76.167 -28.833 76.5 -16.5
s-25.167 17.833 -76.5 16.5zM930.001 350.998c-74.667 -89.333 -144.667 -157.663 -210 -204.996s-128.333 -82.833 -189 -106.5s-122 -36.834 -184 -39.501c-76.667 2.66699 -141.334 14.834 -194.001 36.501s-95 55.834 -127 102.501s-48 88.667 -48 126
c2 38.667 14.167 76.5 36.5 113.5s59 65.333 110 85s75.167 34.5 72.5 44.5c-24.667 34.667 -40.667 67.167 -48 97.5s-2.66602 69.166 14.001 116.499s48.667 81.166 96 101.499s79.666 35.166 96.999 44.499s38 14 62 14c22 -2 45.333 -15.333 70 -40s41.667 -56 51 -94
s1.66602 -78.667 -23.001 -122s-49.834 -71.333 -75.501 -84s-34.167 -22 -25.5 -28s28.834 -8.33301 60.501 -7s54.834 -10.167 69.501 -34.5s18 -43.5 10 -57.5s-16.5 -27.333 -25.5 -40s-23.833 -19.334 -44.5 -20.001s-41.334 7.16602 -62.001 23.499s-53 28.333 -97 36
s-84.5 1.5 -121.5 -18.5s-59.167 -55.833 -66.5 -107.5s9.33398 -98.5 50.001 -140.5s96.334 -65.333 167.001 -70s137 7.5 199 36.5s114.667 60.667 158 95s96 81.5 158 141.5h60z" />
    <glyph glyph-name="f" unicode="f" horiz-adv-x="777" 
d="M357 852c64 88.667 132.5 206.5 205.5 353.5s115.5 289.5 127.5 427.5s-0.166992 180 -36.5 126s-79.833 -158 -130.5 -312s-106 -352.333 -166 -595zM74 -83c-16 -20 -34.167 -58.167 -54.5 -114.5l-122.5 -341c-61.333 -171 -97.833 -283.167 -109.5 -336.5
s-17.5 -95 -17.5 -125s6.66699 -45 20 -45s33.333 30 60 90s58.167 153.833 94.5 281.5s79.5 324.5 129.5 590.5zM837 351c-54.667 -55.333 -128.668 -105.326 -222.001 -149.993s-171.333 -67.167 -234 -67.5s-111.167 6.66699 -145.5 21s-50.666 -22.334 -48.999 -110.001
s-29.833 -267.834 -94.5 -540.501s-122 -450.667 -172 -534s-90 -143.333 -120 -180c-33.333 0 -60 2.5 -80 7.5s-38.333 34.167 -55 87.5c4.66699 111.333 32.167 262.166 82.5 452.499s113.166 362.5 188.499 516.5s109 247.333 101 280s-9.5 62 -4.5 88
s19.333 52.333 43 79s57.5 98.667 101.5 216c-55.333 -76 -94.333 -132 -117 -168h-60c69.333 84 131.166 176.333 185.499 277s88.5 189 102.5 265s46.333 205.667 97 389s95.167 320.5 133.5 411.5s75.833 170.667 112.5 239s73.334 107.5 110.001 117.5
c40 0 65.833 -14.167 77.5 -42.5s13.334 -55.833 5.00098 -82.5s-13.333 -67.5 -15 -122.5s-7.5 -117.5 -17.5 -187.5s-38.5 -164.833 -85.5 -284.5s-115.5 -249.834 -205.5 -390.501s-152.667 -253.834 -188 -339.501s-61 -158.834 -77 -219.501s-12.167 -106 11.5 -136
s64.667 -46 123 -48s120.333 10.167 186 36.5s139.5 66.166 221.5 119.499h60z" />
    <glyph glyph-name="g" unicode="g" horiz-adv-x="537" 
d="M144 476c38 76 60.999 145.168 68.999 207.501s2.33301 105.166 -17 128.499s-43.166 34.833 -71.499 34.5s-48.5 -20.833 -60.5 -61.5s14.667 -143.667 80 -309zM94.999 -16.999c-182 -103.333 -325.834 -207.333 -431.501 -312s-185.667 -212 -240 -322
s-82.333 -203.833 -84 -281.5s23.333 -134.5 75 -170.5s113.334 -38 185.001 -6s147.667 102.5 228 211.5s147 238.5 200 388.5s75.5 314 67.5 492zM596.998 351.001c-29.333 -42.667 -72.0049 -87.5039 -128.005 -134.504s-141.667 -106.833 -257 -179.5
c2 -162 -10.333 -300.167 -37 -414.5s-69.167 -229.166 -127.5 -344.499s-121.666 -212.5 -189.999 -291.5s-133 -132.333 -194 -160s-110.833 -41.5 -149.5 -41.5c-49.333 0 -93.166 11.333 -131.499 34s-68 54.334 -89 95.001s-31.5 86 -31.5 136
c0 88.667 34.833 197.834 104.5 327.501s153.667 242.667 252 339s254.833 207.166 469.5 332.499c-8 127.333 -25.167 231 -51.5 311s-52.666 147.833 -78.999 203.5s-39.166 113.334 -38.499 173.001s23.5 113.834 68.5 162.501s98.167 73 159.5 73
c60 0 101 -36.5 123 -109.5s21.5 -145.333 -1.5 -217s-59.167 -148.167 -108.5 -229.5c23.333 -88.667 38 -192.667 44 -312c98.667 56.667 172.834 105.5 222.501 146.5s86.5 74.5 110.5 100.5h60z" />
    <glyph glyph-name="h" unicode="h" horiz-adv-x="1493" 
d="M404 921c56.667 79.333 96.168 151.501 118.501 216.501s44.5 133.167 66.5 204.5s35.667 132.166 41 182.499s0.333008 81.833 -15 94.5c-26.667 -5.33301 -53 -54.333 -79 -147l-83.5 -305.5c-29.667 -111 -45.834 -192.833 -48.501 -245.5zM1553 351.001
c-43.333 -72.667 -119.332 -140.661 -227.999 -203.994s-209.167 -104.666 -301.5 -123.999s-180.5 -29 -264.5 -29c-59.333 0 -109.5 11.333 -150.5 34s-75.167 58.5 -102.5 107.5s-48.666 80.167 -63.999 93.5s-41.333 0.666016 -78 -38.001s-55 -66 -55 -82
s-4.83301 -31.333 -14.5 -46s-23.834 -26.834 -42.501 -36.501s-46 -15.834 -82 -18.501s-60.5 0.333008 -73.5 9s-19.833 24.667 -20.5 48s5.83301 54.666 19.5 93.999s25.834 84.5 36.501 135.5s27.667 115.5 51 193.5l-123 -137h-60
c45.333 48.667 89.833 102.667 133.5 162s73.667 124.333 90 195l72.5 311.5c32 137 73.5 290 124.5 459s92.667 317.167 125 444.5s65.5 213.833 99.5 259.5s67 70.167 99 73.5c32 -11.333 49.333 -29 52 -53s1 -78.833 -5 -164.5s-23.333 -215.834 -52 -390.501
s-70 -330 -124 -466s-153.333 -316 -298 -540c-40.667 -172.667 -65 -291.834 -73 -357.501s-9.83301 -104.667 -5.5 -117s13.666 -13.166 27.999 -2.49902s37 35.667 68 75s57.5 76.166 79.5 110.499s47.833 61.833 77.5 82.5s60.834 27.667 93.501 21
s51.167 -21.667 55.5 -45s9.16602 -59 14.499 -107s24.166 -90.833 56.499 -128.5s75.166 -59.834 128.499 -66.501s115.5 -6 186.5 2s153.333 34.333 247 79s166.834 99 219.501 163h60z" />
    <glyph glyph-name="i" unicode="i" horiz-adv-x="654" 
d="M714 351c-42 -47.333 -86.335 -93.667 -133.002 -139s-94.5 -83.5 -143.5 -114.5s-96.5 -54.667 -142.5 -71s-93 -25.166 -141 -26.499c-54 1.33301 -90.5 15.5 -109.5 42.5s-34.5 55.667 -46.5 86s-18 66.833 -18 109.5c0 50.667 6.5 91.5 19.5 122.5l40.5 92
c14 30.333 34.167 47.666 60.5 51.999s47 13.5 62 27.5s33.167 18.333 54.5 13s32 -19.166 32 -41.499s-10.667 -48.5 -32 -78.5s-39.166 -67 -53.499 -111s-14.166 -91.333 0.500977 -142s45.5 -75 92.5 -73s95.667 16.667 146 44s95.333 59.166 135 95.499
s78.5 73.833 116.5 112.5h60zM233.998 986.999c25.333 0 43.832 -14.499 55.499 -43.499s17.5 -60.5 17.5 -94.5s-11.667 -56.333 -35 -67s-39.833 -10.667 -49.5 0s-15.5 27.667 -17.5 51s-12.167 35 -30.5 35s-31.166 9.66699 -38.499 29s0.666992 39.166 24 59.499
s48 30.5 74 30.5z" />
    <glyph glyph-name="j" unicode="j" horiz-adv-x="636" 
d="M389 1034c-26.667 6 -37.999 29 -33.999 69s4.5 70.5 1.5 91.5s5.16699 35 24.5 42s49.666 12.833 90.999 17.5c20.667 -10.667 34.5 -23.5 41.5 -38.5s13.5 -44.5 19.5 -88.5c-24 -26 -46 -41.667 -66 -47s-33 -19.333 -39 -42s-19 -24 -39 -4zM190.001 -1134
c28.667 86 72.666 194.003 131.999 324.003c-80 48.667 -145.5 109 -196.5 181s-84 151 -99 237s-17 189.5 -6 310.5s66.833 298.833 167.5 533.5l-128 -103h-60c58 47.333 115.5 104.166 172.5 170.499s96 125.333 117 177s37.833 95 50.5 130s53 52.833 121 53.5
c53.333 -3.33301 72.5 -38.166 57.5 -104.499s-33.167 -116.666 -54.5 -150.999s-57.166 -80.166 -107.499 -137.499s-98.5 -143.5 -144.5 -258.5s-76.167 -230.5 -90.5 -346.5s-4.83301 -229.333 28.5 -340s101 -204.334 203 -281.001c66 144.667 124.5 248.667 175.5 312
s109.167 108.5 174.5 135.5s131 33.667 197 20s120.333 -43.834 163 -90.501s64 -102.334 64 -167.001s-16.333 -126.667 -49 -186s-79.167 -103.5 -139.5 -132.5s-134.833 -48.833 -223.5 -59.5c-49.333 -1.33301 -71 9.66699 -65 33c92 4.66699 164.667 27.167 218 67.5
s89.666 89.333 108.999 147s23.166 109.5 11.499 155.5s-35.167 84 -70.5 114s-80.666 40.167 -135.999 30.5s-112.666 -40.334 -171.999 -92.001s-130.666 -159.5 -213.999 -323.5c13.333 -16.667 29 -30.5 47 -41.5s40.833 -24 68.5 -39s64.167 -23.5 109.5 -25.5
c-0.666992 -11.333 -10.167 -18.333 -28.5 -21s-47.833 1.33301 -88.5 12c-38.667 9.33301 -86 28.333 -142 57c-60.667 -122.667 -107.334 -227.334 -140.001 -314.001z" />
    <glyph glyph-name="k" unicode="k" horiz-adv-x="1146" 
d="M1206 351c-54 -92.667 -141.501 -180.835 -262.501 -264.502s-241.833 -125.5 -362.5 -125.5c-87.333 0 -162.833 16.833 -226.5 50.5s-118.667 87.667 -165 162s-77.333 112 -93 113s-27 -36.167 -34 -111.5s-19.167 -124.333 -36.5 -147s-38.333 -45.334 -63 -68.001
c-24.667 2 -37 36 -37 102c14 172.667 50.667 306 110 400c14 159.333 54.667 363.5 122 612.5s123.833 426.833 169.5 533.5s85.834 175.667 120.501 207s66 47 94 47c24.667 0 46.5 -12.167 65.5 -36.5s23.333 -86.166 13 -185.499s-42.666 -240.5 -96.999 -423.5
s-109.5 -337 -165.5 -462s-124.333 -231.833 -205 -320.5c36 -16.667 69 -45.667 99 -87c82.667 2 149.667 14.833 201 38.5s84.5 52.5 99.5 86.5s-1.83301 51.833 -50.5 53.5s-129.334 -45.166 -242.001 -140.499l-21 18c92 106.667 171.833 174.5 239.5 203.5
s120.667 41 159 36s68 -18.833 89 -41.5s26.333 -57.167 16 -103.5s-58 -93.166 -143 -140.499s-186.5 -73.333 -304.5 -78c48 -97.333 106.5 -164.166 175.5 -200.499s142 -47 219 -32s156.333 48.667 238 101s154.5 120.166 218.5 203.499h60zM99.999 497.999
c13.333 2.66699 40.832 33.999 82.499 93.999s82 143.5 121 250.5s84.167 246 135.5 417s78.5 287.333 81.5 349s-18.167 48.834 -63.5 -38.499s-102.166 -241.333 -170.499 -462z" />
    <glyph glyph-name="l" unicode="l" horiz-adv-x="801" 
d="M92 418c142 198 252.166 367.829 330.499 509.496s144.833 285.334 199.5 431.001s86.334 241.334 95.001 287.001s9.5 78.834 2.5 99.501s-22 29.334 -45 26.001s-53.167 -25 -90.5 -65s-100.166 -141.5 -188.499 -304.5s-160.833 -338 -217.5 -525
s-85.334 -339.833 -86.001 -458.5zM860.999 350.996c-55.333 -61.333 -112.497 -118.335 -171.497 -171.002s-124.667 -103.167 -197 -151.5s-146.5 -72.5 -222.5 -72.5c-52 0 -96.167 14.167 -132.5 42.5s-67.666 71.666 -93.999 129.999s-44.166 134.833 -53.499 229.5
c-2 16.667 -3 35.334 -3 56.001c0 91.333 19.5 214.333 58.5 369s83.833 290.834 134.5 408.501s112.167 235.167 184.5 352.5s123.666 195 153.999 233s59.166 65.667 86.499 83s61.333 26 102 26c31.333 0 57.333 -15.5 78 -46.5s30.667 -74.5 30 -130.5
s-33 -167.667 -97 -335s-138.5 -325.666 -223.5 -474.999s-215.833 -334 -392.5 -554c8.66699 -99.333 28.667 -173.333 60 -222s69.166 -76 113.499 -82s89.666 0.333008 135.999 19s101.166 51.667 164.499 99s138.333 111.333 225 192h60z" />
    <glyph glyph-name="m" unicode="m" horiz-adv-x="1932" 
d="M1992 351c-73.333 -102 -166.333 -186.504 -279 -253.504s-206.834 -100.667 -282.501 -101s-130.834 11 -165.501 34s-49.167 64.167 -43.5 123.5s3.16699 101.833 -7.5 127.5s-30.334 34.334 -59.001 26.001s-60.167 -23.333 -94.5 -45
s-72.166 -55.834 -113.499 -102.501s-74 -81.167 -98 -103.5s-49.833 -34.5 -77.5 -36.5s-46 11.667 -55 41s-1.83301 69 21.5 119s33.666 98.333 30.999 145s-34.5 62.5 -95.5 47.5s-122.667 -41.333 -185 -79s-112.166 -81 -149.499 -130s-66.5 -92.167 -87.5 -129.5
s-36.5 -59.166 -46.5 -65.499s-22.667 -9.5 -38 -9.5c-20 0 -36.333 12.833 -49 38.5s-18.5 51.167 -17.5 76.5s15.333 56 43 92s62.667 94.667 105 176s58.5 130.833 48.5 148.5s-37 12.334 -81 -15.999s-96 -69.5 -156 -123.5h-60l122 114c40 36 77.833 65.167 113.5 87.5
s72.834 33.5 111.501 33.5c28.667 0 51.167 -14.667 67.5 -44s19.5 -66.666 9.5 -111.999s-36.333 -103 -79 -173c82 66.667 166.167 117.667 252.5 153s152.333 54.833 198 58.5s81.334 -6.83301 107.001 -31.5s34.167 -90.667 25.5 -198
c47.333 40.667 102.166 75.334 164.499 104.001s120.333 44.5 174 47.5s87.334 -13 101.001 -48s13 -82.5 -2 -142.5s-9.83301 -101.167 15.5 -123.5s74.5 -23.5 147.5 -3.5s148 56.667 225 110s136.5 109.333 178.5 168h60z" />
    <glyph glyph-name="n" unicode="n" horiz-adv-x="1030" 
d="M1090 351c-68 -99.333 -129.169 -171.503 -183.502 -216.503s-104.666 -78.667 -150.999 -101s-90.5 -33.5 -132.5 -33.5s-76.167 6.83301 -102.5 20.5s-48.166 38.834 -65.499 75.501s-27.666 87.334 -30.999 152.001c-52 -15.333 -105 -42.5 -159 -81.5l-121 -88.5
c-26.667 -20 -62.5 -25.833 -107.5 -17.5s-67.5 37.5 -67.5 87.5s10.833 110.833 32.5 182.5s44.167 121.667 67.5 150s53.666 43.5 90.999 45.5c43.333 0 80.666 -13.167 111.999 -39.5s28.666 -57.666 -8.00098 -93.999s-73.334 -84.5 -110.001 -144.5
s-46.667 -92.5 -30 -97.5s58.5 16.667 125.5 65s125.667 86.666 176 114.999s91.333 40.5 123 36.5s53.834 -16.5 66.501 -37.5s16.5 -57.333 11.5 -109s-4.16699 -89.667 2.5 -114s40.334 -26.166 101.001 -5.49902s119.334 57.5 176.001 110.5s98 99.5 124 139.5h60z" />
    <glyph glyph-name="o" unicode="o" horiz-adv-x="805" 
d="M123 224c4 -60 21.168 -91.502 51.501 -94.502s58.833 23 85.5 78s33.667 108.833 21 161.5s-28.334 84.334 -47.001 95.001s-43 -11.666 -73 -66.999s-42.667 -113 -38 -173zM865.001 350.998c-42 -54.667 -86.835 -95.335 -134.502 -122.002s-96 -45 -145 -55
s-92.833 -7.83301 -131.5 6.5s-64.667 29.333 -78 45s-25.166 7.83398 -35.499 -23.499s-33.5 -74 -69.5 -128s-75.667 -81 -119 -81c-31.333 0 -68 15 -110 45s-67 91.667 -75 185c4 78 9.83301 136.667 17.5 176s26.334 73 56.001 101s57.334 51.5 83.001 70.5
s53.834 28.5 84.501 28.5c5.33301 0 19.666 -5.83301 42.999 -17.5s50 -23 80 -34s42.167 -35.167 36.5 -72.5s0.666016 -77 18.999 -119s43.833 -76.5 76.5 -103.5s72.334 -36.833 119.001 -29.5s89.667 23.333 129 48s70.666 51.334 93.999 80.001h60z" />
    <glyph glyph-name="p" unicode="p" horiz-adv-x="1330" 
d="M418 225c37.333 31.333 77.667 46.002 121 44.002s80.666 -12.667 111.999 -32s61.833 -26.833 91.5 -22.5s37.334 27.166 23.001 68.499s-40.5 75.666 -78.5 102.999s-81.5 32 -130.5 14s-100.5 -67 -154.5 -147zM1390 351.002
c-54.667 -81.333 -125.669 -160.666 -213.002 -237.999s-182.166 -128.5 -284.499 -153.5s-195.666 -24 -279.999 3s-145 60.5 -182 100.5s-57.5 83.667 -61.5 131c-54 -18.667 -100 -60.5 -138 -125.5s-100.667 -199.833 -188 -404.5s-161.5 -398.167 -222.5 -580.5
s-96.833 -286.166 -107.5 -311.499s-27.667 -41.666 -51 -48.999c-28 11.333 -44 29.666 -48 54.999c4 21.333 37.5 122.166 100.5 302.499l217 596.5l329.5 877c-47.333 -68 -114.333 -136.333 -201 -205h-60c58.667 59.333 125 137.833 199 235.5s143.667 228.5 209 392.5
s120.333 283.5 165 358.5s88.667 121.5 132 139.5c40 -3.33301 62.667 -16.833 68 -40.5s-0.5 -67.5 -17.5 -131.5s-44.833 -148.667 -83.5 -254s-96.667 -221.166 -174 -347.499s-134 -223 -170 -290s-57.5 -113.167 -64.5 -138.5s-2.83301 -37.666 12.5 -36.999
s49.333 34.167 102 100.5s107.167 116.166 163.5 149.499s112 49.333 167 48s101.167 -21.333 138.5 -60s59.333 -92.334 66 -161.001s3.66699 -117.5 -9 -146.5s-48.334 -50.667 -107.001 -65s-115.667 -4.33301 -171 30s-98 40.166 -128 17.499
c19.333 -42 65.833 -75.667 139.5 -101s152.5 -29.333 236.5 -12s158.833 50 224.5 98s142.834 120.333 231.501 217h60z" />
    <glyph glyph-name="q" unicode="q" horiz-adv-x="1008" 
d="M328 340c78 152 126.172 248.998 144.505 290.998s46.666 85.667 84.999 131s72.166 75.333 101.499 90s53.333 8.83398 72 -17.499s11.5 -79.333 -21.5 -159s-101.5 -171.5 -205.5 -275.5c-80 -151.333 -155.833 -313.833 -227.5 -487.5
s-139.334 -351.5 -203.001 -533.5s-104.334 -308.833 -122.001 -380.5s-19 -112.667 -4 -123s31 -5.66602 48 14.001s52.833 74.334 107.5 164.001s129.167 229.334 223.5 419.001l235 484c62.333 133 122.666 246 180.999 339s113 169.833 164 230.5s101.167 103 150.5 127
s95.666 26.667 138.999 8s70 -53 80 -103h-164c-8 32 -25 41 -51 27s-62 -48.333 -108 -103s-103.167 -142.834 -171.5 -264.501s-130.5 -246.5 -186.5 -374.5s-113.833 -253.5 -173.5 -376.5s-114 -227 -163 -312l-150.5 -254.5c-51.333 -84.667 -90 -132.5 -116 -143.5
s-46.333 -16.5 -61 -16.5c-20 0 -42 8 -66 24s-36 43.667 -36 83c0 70 30.167 190.667 90.5 362l172 490.5l192.5 539.5c-71.333 -44.667 -133.833 -48.334 -187.5 -11.001s-88.5 79 -104.5 125s-24 102 -24 168c0 56 22.833 119.833 68.5 191.5
s100.334 133.167 164.001 184.5s144 94.666 241 129.999s220.833 53 371.5 53c150 0 293 -7.66699 429 -23s356 -47.666 660 -96.999l4 -34c-211.333 34 -384.666 58.333 -519.999 73s-266 22 -392 22s-243 -8.5 -351 -25.5s-198.5 -45.667 -271.5 -86
s-130.833 -94 -173.5 -161s-68.667 -133.667 -78 -200s-3.83301 -129.333 16.5 -189s46.166 -86.167 77.499 -79.5s69.333 26.667 114 60z" />
    <glyph glyph-name="r" unicode="r" horiz-adv-x="960" 
d="M1020 351c-48.667 -72.667 -104.167 -135.163 -166.5 -187.496s-127.666 -93.5 -195.999 -123.5s-134.833 -45 -199.5 -45c-22 0 -55 2.5 -99 7.5s-84.167 29.167 -120.5 72.5s-47.5 90.833 -33.5 142.5s38.667 98.167 74 139.5s47.5 66.666 36.5 75.999
s-31.5 16.666 -61.5 21.999s-57.333 7.66602 -82 6.99902s-44.834 -11.167 -60.501 -31.5s-32.834 -47.5 -51.501 -81.5h-60c19.333 27.333 37.333 59 54 95s21.834 69.167 15.501 99.5s-16.5 54.5 -30.5 72.5s-17.167 37.333 -9.5 58s21.834 45 42.501 73s44 45.667 70 53
c26 -18.667 40.833 -49.5 44.5 -92.5s12 -77.5 25 -103.5s47.667 -47 104 -63s103.166 -32.833 140.499 -50.5s37.333 -50.834 0 -99.501s-56 -109.667 -56 -183s32.5 -113.833 97.5 -121.5s145.5 15.5 241.5 69.5s169.667 119 221 195h60z" />
    <glyph glyph-name="s" unicode="s" horiz-adv-x="648" 
d="M26 271c-10 -60 1.00098 -109.167 33.001 -147.5s68 -51 108 -38s73.667 47 101 102s20.666 161.833 -20.001 320.5l-100 -116c-36 -42.667 -76.667 -83 -122 -121zM-123.999 368c18.667 21.333 48.667 32.332 90 32.999s60.333 -18 57 -56
c44.667 35.333 86.667 75.666 126 120.999s68 91 86 137c-8.66699 24.667 -8.66699 52.834 0 84.501s27.167 57.5 55.5 77.5s52.833 30 73.5 30c22 0 43.333 -5.5 64 -16.5s32 -30.833 34 -59.5c-0.666992 -17.333 -11.5 -41.166 -32.5 -71.499s-26.5 -67.333 -16.5 -111
s17.667 -98.167 23 -163.5s-6 -126.833 -34 -184.5s-67.667 -103.334 -119 -137.001s-98 -51.834 -140 -54.501c-46.667 0 -91.5 12.5 -134.5 37.5s-80.5 59.833 -112.5 104.5s-48.333 89.334 -49 134.001c0 42.667 9.66699 74.334 29 95.001z" />
    <glyph glyph-name="t" unicode="t" horiz-adv-x="791" 
d="M233 752l57.9971 197.001l-168 -11l-11 56c56 16.667 125.333 31 208 43c73.333 173.333 130 296 170 368s92.333 114 157 126c24 -3.33301 34.667 -24 32 -62s-12.667 -80.5 -30 -127.5s-65.333 -142.833 -144 -287.5c260 20 555.833 37.333 887.5 52
s585.834 28 762.501 40s327.167 25.333 451.5 40s242.833 29.667 355.5 45l-4 -25c-178 -34.667 -352.167 -59.667 -522.5 -75s-313 -25.833 -428 -31.5l-445 -21c-181.667 -8.33301 -338.167 -18.833 -469.5 -31.5s-245.333 -25.667 -342 -39l-281 -40
c-38.667 -62.667 -80.334 -138.667 -125.001 -228s-81.667 -213.666 -111 -372.999s-29.333 -254 0 -284s77.833 -35.833 145.5 -17.5s139 54.5 214 108.5s140.833 113 197.5 177h60c-61.333 -86 -135.333 -159.5 -222 -220.5s-154 -100.333 -202 -118
s-101.333 -26.5 -160 -26.5c-51.333 0 -89.666 19 -114.999 57s-36.666 96.667 -33.999 176c3.33301 94 18 179.667 44 257l-102 -125h-60c23.333 24.667 51.333 59.167 84 103.5s62.334 93.166 89.001 146.499s46.667 103.666 60 150.999z" />
    <glyph glyph-name="u" unicode="u" horiz-adv-x="1272" 
d="M1332 351c-52.667 -93.333 -121.833 -168.835 -207.5 -226.502s-161.834 -94.334 -228.501 -110.001s-116.667 -23.5 -150 -23.5s-71.5 5.66699 -114.5 17s-83.5 51 -121.5 119c-53.333 -53.333 -103.833 -87.833 -151.5 -103.5s-92.167 -23 -133.5 -22
s-77.166 7.5 -107.499 19.5s-57.333 28.5 -81 49.5s-40.334 51 -50.001 90s-14.5 70.833 -14.5 95.5c0 18.667 3.33301 42.167 10 70.5s21.334 65.833 44.001 112.5s43 83.334 61 110.001s40.333 44.167 67 52.5s45.667 12.5 57 12.5c15.333 0 28.333 -6.16699 39 -18.5
s17.334 -32.5 20.001 -60.5s-12.666 -62 -45.999 -102s-57.666 -92.5 -72.999 -157.5s-13.166 -114 6.50098 -147s54.167 -48.833 103.5 -47.5s95.166 14 137.499 38s71.166 48 86.499 72c6 79.333 15.667 137 29 173s37.166 59.333 71.499 70
s68.166 13.334 101.499 8.00098s38.666 -28.666 15.999 -69.999s-36 -94.5 -40 -159.5s18.333 -105.167 67 -120.5s105.834 -15.333 171.501 0s133.667 47.333 204 96s125.833 103 166.5 163h60z" />
    <glyph glyph-name="v" unicode="v" horiz-adv-x="1032" 
d="M220 505c72.667 78 111.667 132.833 117 164.5s-4 36.5 -28 14.5s-53.667 -81.667 -89 -179zM1092 351c-40 -46.667 -99.501 -78.166 -178.501 -94.499s-164.833 2.5 -257.5 56.5c-32 -76.667 -65.667 -138.5 -101 -185.5s-79 -84.333 -131 -112
s-104.667 -41.5 -158 -41.5c-54.667 0 -96.667 21.333 -126 64s-47.166 90 -53.499 142s-2.5 112 11.5 180l-38 -11h-60c47.333 28 84.666 54.667 111.999 80c31.333 123.333 63.833 209.666 97.5 258.999s68.334 86.833 104.001 112.5s73.167 38.5 112.5 38.5
c36 -2.66699 56.167 -20.5 60.5 -53.5s-13 -77.333 -52 -133s-115.833 -132.834 -230.5 -231.501c-20 -84.667 -18.833 -156.167 3.5 -214.5s58.166 -96.166 107.499 -113.499s94 -10.5 134 20.5s70.833 74.167 92.5 129.5s19.834 91.5 -5.49902 108.5
s-43.666 37.5 -54.999 61.5s-16 51.833 -14 83.5s17.167 54 45.5 67s55.5 18 81.5 15s44.5 -21.333 55.5 -55s31.5 -74.5 61.5 -122.5s73.667 -78.667 131 -92s120.666 0.666992 189.999 42h60z" />
    <glyph glyph-name="w" unicode="w" horiz-adv-x="1323" 
d="M1383 351c-47.333 -35.333 -96.332 -62.0059 -146.999 -80.0059s-104.5 -24.167 -161.5 -18.5s-112.833 24.5 -167.5 56.5c-4 -76 -17.833 -136.833 -41.5 -182.5s-50.834 -78.167 -81.501 -97.5s-59.667 -29 -87 -29c-16 0 -39.833 2.33301 -71.5 7
s-60.167 25.334 -85.5 62.001s-38 85 -38 145c-80 -64 -143 -110 -189 -138s-85 -47.167 -117 -57.5s-64 -15.5 -96 -15.5c-11.333 0 -23 0.333008 -35 1c-41.333 0.666992 -71.166 17.334 -89.499 50.001s-27.5 61.334 -27.5 86.001c0 25.333 5.66699 59.833 17 103.5
s27.5 88.167 48.5 133.5s51 87 90 125s76.833 62.667 113.5 74c51.333 -15.333 71.666 -34.5 60.999 -57.5s-32.5 -54.5 -65.5 -94.5s-59.667 -88.667 -80 -146s-30.5 -105.666 -30.5 -144.999s18.333 -63.166 55 -71.499s88.834 11.167 156.501 58.5
s115.334 84 143.001 110s54.5 54 80.5 84c40 6.66699 78.333 5 115 -5v-130c10 -53.333 24.167 -84.166 42.5 -92.499s38.833 -7.5 61.5 2.5s41.167 31.333 55.5 64s23.333 67.167 27 103.5s1 67.5 -8 93.5s-22.667 49 -41 69s-19.166 38.333 -2.49902 55l55 44l31 -4
c17.333 -46 41.666 -89.5 72.999 -130.5s77.666 -67.833 138.999 -80.5s140.666 3.33301 237.999 48h60z" />
    <glyph glyph-name="x" unicode="x" horiz-adv-x="1382" 
d="M1442 351c-102 -133.333 -191.168 -218.832 -267.501 -256.499s-153.833 -58.334 -232.5 -62.001s-146 6 -202 29s-106.667 69.167 -152 138.5h-26c-42.667 -34.667 -76.667 -54.334 -102 -59.001s-44.333 -11 -57 -19s-12 -18.167 2 -30.5s29.5 -22.333 46.5 -30
s29.833 -24.167 38.5 -49.5l-34 -19l-116.5 42c-41 15.333 -75 38 -102 68s-54 51.333 -81 64s-39.833 31.5 -38.5 56.5s13.5 43.333 36.5 55s51.333 15.5 85 11.5s54.834 -19.333 63.501 -46s20.167 -45.5 34.5 -56.5s34.833 -15.667 61.5 -14s55 16.834 85 45.501
s49 62.834 57 102.501s4.66699 75.667 -10 108s-35.334 57.166 -62.001 74.499s-62.667 24.166 -108 20.499s-90.166 -18 -134.499 -43s-99.833 -69.167 -166.5 -132.5h-60c64 66.667 117.667 116.334 161 149.001s91 58.834 143 78.501s101.333 28.5 148 26.5
s78 -12.5 94 -31.5s30.5 -35.167 43.5 -48.5s34.167 -19.333 63.5 -18c90 93.333 180 140 270 140c85.333 0 145.833 -34.833 181.5 -104.5s45.334 -118.334 29.001 -146.001s-42.166 -37 -77.499 -28s-66.333 27.5 -93 55.5s-50.334 66.333 -71.001 115
c-27.333 10.667 -58.333 12.5 -93 5.5s-60.667 -27.333 -78 -61s-27.333 -76 -30 -127s10.666 -98.167 39.999 -141.5s71.833 -72.833 127.5 -88.5s108.667 -20.667 159 -15s105.333 24.167 165 55.5s126.167 93.333 199.5 186h60z" />
    <glyph glyph-name="y" unicode="y" horiz-adv-x="962" 
d="M414 -425c42.667 -167.333 107.831 -297.5 195.498 -390.5s174.834 -162 261.501 -207s181.167 -72.667 283.5 -83s172.333 -4 210 19s49.334 64.5 35.001 124.5s-61.333 128.167 -141 204.5s-200 145 -361 206s-322.167 103.167 -483.5 126.5zM59.9971 349h-59.9922
c29.333 28.667 50.166 53.667 62.499 75s21.833 51.5 28.5 90.5s15 70.167 25 93.5s30 34.333 60 33s56.167 -16.333 78.5 -45s29 -57.667 20 -87s-26 -56.333 -51 -81s-37 -60 -36 -106s17.167 -78.167 48.5 -96.5s72.666 -15.833 123.999 7.5
c46 21.333 96.667 72.666 152 153.999c50 79.333 92 181.333 126 306s53.333 223 58 295s26 108 64 108c52.667 0 84.667 -12.667 96 -38s11.833 -62 1.5 -110s-34.833 -120.667 -73.5 -218s-83.667 -192.666 -135 -285.999c-84 -164 -146.167 -319.667 -186.5 -467
s-56.833 -258.333 -49.5 -333c191.333 -28 359.666 -71.5 504.999 -130.5s255.833 -115.667 331.5 -170s133.167 -112.833 172.5 -175.5s59 -132 59 -208c-4 -38.667 -23.333 -72.5 -58 -101.5s-82.334 -43.5 -143.001 -43.5c-54 0 -117.333 5 -190 15
s-166.834 43.167 -282.501 99.5s-218.834 143.666 -309.501 261.999s-147.667 249.833 -171 394.5c-193.333 10.667 -369 5 -527 -17s-299 -61.5 -423 -118.5s-213.5 -113 -268.5 -168s-81 -105.5 -78 -151.5s18.833 -78.5 47.5 -97.5s68 -25.167 118 -18.5
s93.667 19.834 131 39.501s68 41.334 92 65.001s47.667 28.834 71 15.501c-64.667 -74 -119.834 -120.833 -165.501 -140.5s-90.167 -33.667 -133.5 -42s-90.333 -9.5 -141 -3.5s-88.167 24.333 -112.5 55s-36.5 64.334 -36.5 101.001c0 33.333 7.5 66.666 22.5 99.999
s56.667 79 125 137s166.166 115.167 293.499 171.5s273 95.666 437 117.999s345.667 29.166 545 20.499c-1.33301 64 5.5 135.667 20.5 215s41.833 185.666 80.5 318.999c-60.667 -47.333 -113 -73 -157 -77s-78.5 3.83301 -103.5 23.5s-44.833 49.334 -59.5 89.001
s-21 87.167 -19 142.5z" />
    <glyph glyph-name="z" unicode="z" horiz-adv-x="980" 
d="M610 38c-93.333 -62.667 -175.499 -127.498 -246.499 -194.498s-120.167 -139.5 -147.5 -217.5s-28.333 -148.333 -3 -211s63.166 -96.334 113.499 -101.001s108.666 8.5 174.999 39.5s122 82.667 167 155s62.833 157.166 53.5 254.499s-46.666 189 -111.999 275z
M1040 351.002c-50.667 -47.333 -99.167 -88.8311 -145.5 -124.498s-104.5 -76.5 -174.5 -122.5c88.667 -104 133.667 -216.833 135 -338.5s-26 -222.834 -82 -303.501s-123.667 -137.167 -203 -169.5s-153.333 -48.5 -222 -48.5c-79.333 0 -139.333 38.167 -180 114.5
s-49 157.5 -25 243.5s68 164.5 132 235.5s162.667 152.167 296 243.5c-32 46.667 -98 67.667 -198 63c-24 -0.666992 -52.5 -15.834 -85.5 -45.501s-75.833 -45.834 -128.5 -48.501s-79 10.833 -79 40.5s12.333 59.667 37 90s56.334 45 95.001 44s72.667 3 102 12
s58.5 29.167 87.5 60.5s46.333 74.833 52 130.5s-17 88 -68 97s-101.5 -2 -151.5 -33s-108 -78.5 -174 -142.5h-60c73.333 77.333 143.166 144.833 209.499 202.5s126.5 86.5 180.5 86.5c46 0 85 -6.33301 117 -19s56.833 -39.167 74.5 -79.5s17.334 -88.5 -0.999023 -144.5
s-73.5 -112 -165.5 -168c88.667 -0.666992 175.667 -30 261 -88c95.333 56.667 196.666 127.334 303.999 212.001h60z" />
    <glyph glyph-name="braceleft" unicode="{" horiz-adv-x="1021" 
d="M323 181c-78 89.333 -127 133 -147 131s-22 -18 -6 -48s67 -57.667 153 -83zM314 394c28 56 76 181.998 144 377.998l186 549.5c56 170.333 88 284.5 96 342.5s-1 92 -27 102s-61.333 -19 -106 -87s-84.5 -140.667 -119.5 -218s-64.833 -166.666 -89.5 -267.999l-76 -310
c-26 -105.333 -97.667 -257.666 -215 -456.999c98 24.667 167 14 207 -32zM1081 349.998c-60 -92.667 -137.166 -168.833 -231.499 -228.5s-189.166 -94.834 -284.499 -105.501s-170 -16 -224 -16c-67.333 0 -120.333 12 -159 36s-72.334 61.833 -101.001 113.5
s-42.167 98 -40.5 139s-11.833 61.833 -40.5 62.5c39.333 56.667 69.5 104 90.5 142s51.333 103.167 91 195.5s74 195.333 103 309s59 222 90 325s63.667 199.167 98 288.5s72.5 157 114.5 203s83 71 123 75s76 8 108 12c32 -16 50 -45 54 -87s-3 -104 -21 -186
s-60 -209.167 -126 -381.5l-220.5 -587c-81 -219 -108.667 -348.833 -83 -389.5s44.5 -78.334 56.5 -113.001s53.667 -49.167 125 -43.5s144.666 30.334 219.999 74.001s141.333 97.834 198 162.501h60z" />
    <glyph glyph-name="bar" unicode="|" horiz-adv-x="2662" 
d="M1679 1230c90.667 33.333 173.167 84.332 247.5 152.999s128.5 146.834 162.5 234.501s50 174.167 48 259.5s-14.833 142 -38.5 170s-59 13.167 -106 -44.5s-102.5 -163.5 -166.5 -317.5s-113 -305.667 -147 -455zM1264 296.999c75.333 258 145 513.333 209 766
c-114.667 -43.333 -248.334 -90.333 -401.001 -141c-40 -111.333 -98.667 -247 -176 -407c120.667 -92 243.334 -164.667 368.001 -218zM550 728.999c-148 -64.667 -255.5 -127.666 -322.5 -188.999s-113.167 -122 -138.5 -182s-26 -113 -2 -159s68.667 -76 134 -90
s128.333 -5.83301 189 24.5s121.667 72.166 183 125.499s121 132 179 236c-120.667 87.333 -194.667 165.333 -222 234zM810 574c67.333 112 113.333 214.667 138 308c-118.667 -40.667 -218.667 -81.667 -300 -123c46 -88 100 -149.667 162 -185zM612 849
c88 39.333 212.333 86.335 373 141.002c47.333 160.667 76.5 301.667 87.5 423s4.66699 200.166 -19 236.499s-51.5 54.5 -83.5 54.5s-72 -14.833 -120 -44.5s-97.5 -82.334 -148.5 -158.001s-89.5 -166.667 -115.5 -273s-17.333 -232.833 26 -379.5zM2722 351.002
c-99.333 -103.333 -177.329 -180.004 -233.996 -230.004s-108.167 -84 -154.5 -102s-86.5 -27 -120.5 -27c-47.333 0 -98.833 8.83301 -154.5 26.5s-110 71.667 -163 162s-88 146 -105 167s-43.333 35.833 -79 44.5s-75.167 0.333984 -118.5 -24.999
s-90.5 -64.666 -141.5 -117.999s-86.667 -98.833 -107 -136.5s-37 -65.667 -50 -84s-33.167 -27.5 -60.5 -27.5c-11.333 0 -24.5 3.66699 -39.5 11s-14 35.833 3 85.5l52.5 154.5c-130.667 40 -261.667 102 -393 186c-82 -125.333 -158 -216.166 -228 -272.499
s-136.833 -96.666 -200.5 -120.999s-117.167 -36.5 -160.5 -36.5c-32.667 0 -74.667 8.33301 -126 25s-90.5 47.667 -117.5 93s-40.5 92.666 -40.5 141.999c0 38.667 8.83301 80.334 26.5 125.001s60.667 103.834 129 177.501s193.833 151.834 376.5 234.501
c-52 165.333 -62.5 312.666 -31.5 441.999s79.167 236.166 144.5 320.499s135.166 147.333 209.499 189s139.166 55.5 194.499 41.5s96.666 -45.833 123.999 -95.5s33.333 -143.334 18 -281.001s-38.666 -269.167 -69.999 -394.5c126 32.667 259.667 76.667 401 132
c76 282 141.667 482 197 600s111 212.167 167 282.5s103.333 113 142 128s65.334 22.5 80 22.5c14.667 0 37.167 -11.833 67.5 -35.5s55.166 -75 74.5 -154c19.333 -79 22.333 -163.333 9 -253s-50.833 -181.167 -112.5 -274.5s-138.5 -169.333 -230.5 -228
s-178.667 -98.667 -260 -120c-81.333 -248 -168 -527.333 -260 -838c6 -8 23 2.33301 51 31s64.5 59.167 109.5 91.5s85.667 55 122 68s80.166 18.333 131.499 16s95.166 -19.666 131.499 -51.999s71.833 -86.5 106.5 -162.5s65.5 -127.667 92.5 -155
s66.667 -42.333 119 -45s110.333 21.333 174 72l244.5 198h60z" />
    <glyph glyph-name="braceright" unicode="}" horiz-adv-x="1192" 
d="M336 635c34 -28.667 59.333 -70.666 76 -125.999l114 339l-20 -6c-35.333 -46 -63 -79.833 -83 -101.5s-49 -56.834 -87 -105.501zM289 454.001c36.667 -41.333 60.999 -38.333 72.999 9c-25.333 59.333 -56.333 84.666 -93 75.999
c-11.333 -15.333 -4.66602 -43.666 20.001 -84.999zM1252 351.001c-56.667 -58 -133.5 -107.17 -230.5 -147.503s-197 -61.166 -300 -62.499s-193.833 12 -272.5 40c-15.333 -58 -26 -95.5 -32 -112.5s-13.167 -32 -21.5 -45s-22 -26.833 -41 -41.5s-46.833 -22 -83.5 -22
c-18.667 24 -19 63.833 -1 119.5s29.667 104.834 35 147.501c-114 58 -175.333 121 -184 189c-14 -20 -34.333 -41.667 -61 -65h-60c38.667 37.333 72.334 74.333 101.001 111c-9.33301 90 2.5 148 35.5 174s80.5 34 142.5 24l94.5 120l91.5 114.5
c42 53 79.667 107.167 113 162.5s60.333 112.333 81 171s41 126.5 61 203.5s34.833 144.5 44.5 202.5s20.667 100.5 33 127.5s35.5 53.167 69.5 78.5s71.667 46.333 113 63l28 -1c20 -66.667 19 -142 -3 -226s-72 -200.333 -150 -349s-143.667 -301.5 -197 -458.5
l-124 -361.5c-29.333 -84 -48 -157.333 -56 -220c56 -35.333 126 -56.666 210 -63.999s170.667 -0.5 260 20.5s170.666 56.833 243.999 107.5h60z" />
    <glyph glyph-name="asciitilde" unicode="~" horiz-adv-x="878" 
d="M302 646c35.333 24.667 55.668 46.833 61.001 66.5s2.66602 34.667 -8.00098 45s-27.667 10.5 -51 0.5s-33 -25.667 -29 -47s13 -43 27 -65zM111.002 177.999c2.66699 -18.667 22.667 -39.167 60 -61.5s75.833 -33.666 115.5 -33.999s66.5 3.5 80.5 11.5
c-40.667 4 -82.5 11.667 -125.5 23s-86.5 31.666 -130.5 60.999zM393.002 162.999c10 25.333 -0.333008 64.001 -31 116.001c-35.333 60.667 -85 132 -149 214l-159 -150c13.333 -38 46.5 -75.333 99.5 -112s132.833 -59.334 239.5 -68.001zM938.002 351
c-95.333 -99.333 -185.67 -166.832 -271.003 -202.499s-159.333 -54.834 -222 -57.501c-12 -32.667 -32.167 -58.5 -60.5 -77.5s-67.166 -28.5 -116.499 -28.5c-61.333 0 -118.666 11 -171.999 33s-99.333 61.667 -138 119s-63.334 124.333 -74.001 201
c2.66699 55.333 25.667 86.5 69 93.5s70.666 -5.16699 81.999 -36.5l148 145c-22 32.667 -34.667 65.167 -38 97.5s2.83398 63.833 18.501 94.5s37.167 56.334 64.5 77.001s55.333 31 84 31c36.667 0 63.667 -7.83301 81 -23.5s27.5 -33.667 30.5 -54s-0.333008 -45 -10 -74
s-37.167 -62.167 -82.5 -99.5c96.667 -151.333 147.334 -265 152.001 -341c0 -33.333 -4 -63.333 -12 -90c138.667 5.33301 274.334 69.666 407.001 192.999h60z" />
    <glyph glyph-name="nonbreakingspace" unicode="&#xa0;" horiz-adv-x="612" 
 />
    <glyph glyph-name="exclamdown" unicode="&#xa1;" horiz-adv-x="1130" 
d="M534 465c-117.333 -314.667 -185.833 -544.001 -205.5 -688.001s-27.667 -238.667 -24 -284s-13.333 -84 -51 -116s-71.167 -48.333 -100.5 -49c-25.333 0.666992 -44 34.667 -56 102c0 36 6.66699 93.333 20 172s46.833 188.834 100.5 330.501
s136.167 341.5 247.5 599.5zM702 979.999c60 -32.667 83.499 -62.501 70.499 -89.501s1.83301 -56.167 44.5 -87.5c-6 -52.667 -59.667 -80.667 -161 -84c-67.333 16 -103.666 52.333 -108.999 109c8 63.333 23 103.833 45 121.5s58.667 27.834 110 30.501z" />
    <glyph glyph-name="cent" unicode="&#xa2;" horiz-adv-x="1322" 
d="M812 701c0 -68.667 10.833 -124 32.5 -166s42.834 -66.5 63.501 -73.5s33.667 4.83301 39 35.5c6 54 -4.33301 98.5 -31 133.5s-61.334 58.5 -104.001 70.5zM1202 332c-32 -64.667 -79.8311 -122.002 -143.498 -172.002s-127 -89 -190 -117s-136.833 -48.667 -221.5 -62
c-17.333 -2 -33.666 -3.66699 -48.999 -5c-13.333 -35.333 -26.333 -76 -39 -122c-34.667 -126 -55.834 -194.5 -63.501 -205.5s-14.834 -16.5 -21.501 -16.5c-2.66699 30 -4 56.333 -4 79c7.33301 60.667 23.333 150 48 268c-50 4 -100.167 16.667 -150.5 38
s-90.666 56.666 -120.999 105.999s-45.5 109 -45.5 179c0 102.667 21.833 184.5 65.5 245.5s86.167 105 127.5 132s85 49.5 131 67.5c36.667 14 89.667 24 159 30c17.333 75.333 28.666 133.333 33.999 174s10.5 65.667 15.5 75s16.667 17 35 23s38.166 10 59.499 12
c12.667 -6.66699 23.667 -23 33 -49l-19.5 -84.5c-7.66699 -33 -12.667 -59.333 -15 -79s-4.83301 -45.5 -7.5 -77.5c51.333 -16.667 92.333 -40.667 123 -72s51.5 -66.666 62.5 -105.999s12.167 -80.166 3.5 -122.499s-23 -71 -43 -86s-45.333 -20.5 -76 -16.5
s-61.667 17.167 -93 39.5s-54.333 54.5 -69 96.5l-53 -212l-55 -214c60.667 0.666992 124.167 12.334 190.5 35.001s128 52.667 185 90s112.833 83 167.5 137zM674.002 732.998c-24.667 0 -52.001 -3.00098 -82.001 -9.00098c-42.667 -9.33301 -86.5 -28.833 -131.5 -58.5
s-80.167 -71 -105.5 -124s-34.666 -118.167 -27.999 -195.5s30.167 -137.666 70.5 -180.999s86.166 -69.333 137.499 -78l62 298c22.667 108.667 48.334 224.667 77.001 348z" />
    <glyph glyph-name="sterling" unicode="&#xa3;" horiz-adv-x="1724" 
d="M937 1479c-136.667 -116.667 -263.496 -219.172 -380.496 -307.505s-209.667 -148.333 -278 -180s-111.5 -34.834 -129.5 -9.50098c82.667 34.667 162.667 78.834 240 132.501s164.666 121.5 261.999 203.5s205.333 186 324 312c32 72.667 53.5 133.5 64.5 182.5
s29 105.833 54 170.5s52 118.167 81 160.501c29 42.333 56 67.5 81 75.5s44.167 12 57.5 12c18 0 36.333 -6.33301 55 -19s28.834 -37.834 30.501 -75.5c1.66699 -37.667 -4.16602 -81 -17.499 -130s-42 -106.833 -86 -173.5s-105.667 -137 -185 -211l-205 -569
c75.333 3.33301 152.666 -6 231.999 -28c-25.333 -41.333 -60.5 -65.166 -105.5 -71.499s-89.167 -11 -132.5 -14s-68.5 -14.833 -75.5 -35.5s-23.167 -57.667 -48.5 -111c79.333 -3.33301 137.833 -2.66602 175.5 2.00098s61 0.666992 70 -12s10.833 -24.5 5.5 -35.5
s-25.166 -19.667 -59.499 -26s-70.333 -11 -108 -14s-74.5 -4.5 -110.5 -4.5c-50.667 -106.667 -100.334 -231 -149.001 -373c61.333 52 119.5 72.167 174.5 60.5s107.333 -48.834 157 -111.501l151 -187.5c51 -62.333 107.167 -98.166 168.5 -107.499
s119 3.33398 173 38.001s87.167 71.667 99.5 111s12.333 78.666 0 117.999s-14.166 66.166 -5.49902 80.499s25.334 16.833 50.001 7.5c20 -8 30 -43.333 30 -106v-36c-4.66699 -85.333 -34.834 -152.5 -90.501 -201.5s-126.834 -78.167 -213.501 -87.5
c-100.667 3.33301 -178.834 22.333 -234.501 57s-108.334 76 -158.001 124s-88.334 96.833 -116.001 146.5s-52.667 75.667 -75 78s-52.333 -19.667 -90 -66s-73.667 -100.333 -108 -162s-65.5 -105.167 -93.5 -130.5s-51 -33.166 -69 -23.499s-27 22.334 -27 38.001
s23.333 64.167 70 145.5s126.334 274 239.001 578c-102 12.667 -158.333 29.334 -169 50.001s-10.667 42 0 64c61.333 -16 128 -22.333 200 -19c32 56.667 53.333 104 64 142c-201.333 -6.66699 -307.333 13.666 -318 60.999c57.333 3.33301 106.666 7.33301 147.999 12
s112.666 13.334 213.999 26.001c36 101.333 63 180.333 81 237s46.667 127.667 86 213z" />
    </font>
</defs>
</svg>
