<?xml version="1.0" encoding="utf-8"?>
<!-- Generator: Adobe Illustrator 16.0.0, SVG Export Plug-In . SVG Version: 6.00 Build 0)  -->
<!DOCTYPE svg PUBLIC "-//W3C//DTD SVG 1.1//EN" "http://www.w3.org/Graphics/SVG/1.1/DTD/svg11.dtd">
<svg version="1.1" id="Layer_1" xmlns="http://www.w3.org/2000/svg" xmlns:xlink="http://www.w3.org/1999/xlink" x="0px" y="0px"
	 width="236.872px" height="188.898px" viewBox="0 0 236.872 188.898" enable-background="new 0 0 236.872 188.898"
	 xml:space="preserve">
<g>
	<polygon fill="#FFFFFF" points="16.913,53.631 105.285,52.467 105.285,54.796 	"/>
	<polygon fill="#FFFFFF" points="223.408,53.631 135.035,54.796 135.035,52.467 	"/>
	<polygon fill="#FFFFFF" points="123.323,49.727 120.676,55.287 118.028,49.727 120.676,44.167 	"/>
	<path fill="#FFFFFF" d="M121.36,13.992c2.828-2.175,3.709-6.253,1.986-9.317c-0.6-1.065-1.392-1.995-2.147-2.95
		c-0.416-0.526-0.686-1.157-1.038-1.726c-0.356,0.569-0.623,1.199-1.042,1.726c-0.755,0.955-1.546,1.885-2.145,2.95
		c-1.724,3.063-0.845,7.142,1.986,9.317H121.36z"/>
	<path fill="#FFFFFF" d="M129.925,13.716c-0.268-0.61-0.853-0.797-1.477-0.814c-2.917-0.087-3.914,2.617-4.141,3.385
		c-3.438-2.103-6.38-1.261-8.324-0.089c-0.27-0.869-1.297-3.379-4.109-3.296c-0.624,0.018-1.211,0.205-1.479,0.814
		c-0.251,0.572-0.164,1.435,0.435,1.784c0.695,0.402,1.56-0.039,2.308,0.085c0.709,0.117,1.326,0.525,1.735,1.113l0.088,0.208
		c-0.938,0.734-1.462,1.401-1.462,1.401s6.129-0.201,6.129,15.126l0.533,0.558l0.532-0.558c0-15.327,6.131-15.126,6.131-15.126
		c-0.507-0.507-1.005-0.941-1.496-1.32l0.12-0.289c0.41-0.588,1.027-0.996,1.735-1.113c0.746-0.124,1.613,0.317,2.309-0.085
		C130.093,15.151,130.176,14.288,129.925,13.716"/>
	<path fill="#FFFFFF" d="M207.524,19.419c-0.586-0.734-1.386-1.33-2.292-1.58c-0.133-0.037-0.27-0.056-0.403-0.056
		c-0.443,0-0.851,0.209-1.028,0.67c-0.283,0.751,0.365,1.584,0.981,1.945c0.883,0.515,2.395,0.46,3.341,1.044
		c1.203,2.385,1.249,5.472-0.646,7.61c-2.279,2.573-6.435,3.206-9.544,2.562c-1.15-5.515-5.099-8.875-8.292-10.747
		c-5.096-2.983-11.791-4.173-17.508-3.301c0.449-0.33,0.849-0.714,1.167-1.184c0.976-1.439,0.808-3.194,0.808-4.849
		c0,0-2.71,0.605-2.818,4.639c0,0-0.047,0.849-0.587,1.66c-0.907,0.201-1.784,0.458-2.614,0.771
		c-4.746,1.794-8.73,4.505-12.183,8.282c-1.4,1.532-2.698,3.187-3.955,4.787c-1.554,1.977-3.16,4.023-4.958,5.834
		c-2.904,2.928-6.211,4.999-9.697,6.104c3.354-1.816,5.215-4.513,6.231-6.717c0.59-1.28,0.952-2.494,1.176-3.495
		c0.136,0.565,0.448,1.083,0.921,1.356c0.109,0.064,0.229,0.116,0.355,0.15c1.286,0.353,2.743-1.12,2.879-2.331
		c0.026-0.238-0.058-0.475-0.253-0.589c-0.047-0.026-0.101-0.046-0.161-0.058c-0.383-0.08-0.736,0.3-0.865,0.627
		c-0.165,0.43,0.026,0.958-0.198,1.362c-0.23,0.41-0.821,0.572-1.254,0.452c-0.719-0.199-1.059-1.199-0.915-1.975
		c0.167-0.883,0.715-1.602,1.296-2.363c0.337-0.44,0.685-0.895,0.951-1.385c0.537-0.996,1.028-2.431,0.31-3.618
		c-0.294-0.487-0.809-0.821-1.37-0.892c-0.541-0.068-1.058,0.109-1.454,0.499c-0.393,0.384-0.684,0.947-0.872,1.549
		c0.019-0.659,0.129-1.352,0.56-1.85c1.461-1.694,3.517,0.027,4.052,1.641c-0.244-0.734-0.046-1.549-0.422-2.311
		c-1.098-2.244-3.374-2.472-4.944-0.61c-0.356,0.422-0.581,0.911-0.666,1.424c-1.091-0.86-2.343-1.501-3.877-1.979
		c-0.821-0.255-1.639-0.578-2.066-1.207c-0.445-0.655-0.246-1.512,0.181-2.059c0.741-0.246,1.734-0.121,2.377-0.396
		c0.489-0.213,1.044-0.771,0.9-1.352c-0.055-0.222-0.185-0.381-0.353-0.479c-0.187-0.107-0.42-0.142-0.651-0.106
		c-0.912,0.138-1.954,0.894-2.61,1.791c-0.326,0.445-0.555,0.925-0.627,1.379c-0.082,0.529,0.021,1.088,0.323,1.533
		c0.244,0.36,0.573,0.631,0.948,0.85c0.431,0.249,0.922,0.426,1.413,0.577c1.617,0.504,2.906,1.191,4.015,2.141
		c0.023,0.28,0.086,0.561,0.193,0.835c-1.276-1.319-2.794-1.905-3.821-2.163c-0.848-0.317-1.768-0.576-2.692-0.713
		c-0.186-0.199-0.356-0.412-0.511-0.629c-0.351-0.494-0.681-1.055-0.763-1.666c-0.127-0.946,0.506-1.813,0.541-2.759
		c0.033-0.901-0.135-2.029-0.83-2.67c0,0-4.155,4.271,1.061,7.664c-0.704-0.068-1.406-0.061-2.078,0.055
		c-1.391,0.235-3.831,1.548-4.819-0.197c-0.255-0.45-0.396-1.09-0.405-1.604c0.002,0.177-0.117,0.41-0.137,0.595
		c-0.048,0.469,0.009,0.957,0.157,1.402c0.342,1.045,1.381,1.967,2.413,2.254c1.183,0.329,2.437,0.08,3.602-0.191
		c0.061-0.014,0.119-0.03,0.179-0.045c-1.246,1.44-1.869,3.108-1.715,5.046c0.144,1.825,0.798,3.535,2.467,4.501
		c0.365,0.21,0.759,0.365,1.178,0.448c0.899,0.177,2.168-0.372,2.986,0.102c0.069,0.04,0.132,0.084,0.193,0.138
		c0.337,0.298,0.614,0.684,0.832,1.075c0.242-0.906,0.351-1.881-0.073-2.748c-0.272-0.563-0.689-0.98-1.194-1.273
		c-0.33-0.191-0.703-0.329-1.099-0.416c-1.037-0.229-2.047-0.352-2.855-0.82c-0.549-0.319-1.006-0.796-1.314-1.573
		c-0.029-0.073-0.07-0.187-0.115-0.324c0.496,0.724,1.359,1.239,2.207,1.362c0.381,0.054,2.8-0.085,2.913,0.458
		c-0.225-1.086-1.062-1.838-2.067-2.216c-0.98-0.371-2.357,0.189-3.064-0.81c-0.08-0.112-0.139-0.246-0.188-0.385
		c0.398-1.287,1.312-2.27,1.978-2.843c0.278-0.074,0.557-0.142,0.837-0.196c0.214-0.042,1.88-0.406,2.614-0.398
		c1.461,0.431,3.646,1.54,4.749,4.406c0.107,0.277,0.203,0.571,0.284,0.871c0.099,0.359,0.179,0.739,0.242,1.13
		c-0.012,0.276-0.152,2.909-1.494,5.807c-1.815,3.921-4.883,6.505-9.115,7.697c-1.537,0.223-3.73,0.511-5.169-0.022
		c-7.12-2.644-5.811-8.422-5.755-8.653c1.176-4.174,4.571-3.667,4.713-3.643l0.074,0.006c2.003,0,3.632,1.629,3.632,3.631
		c0,0.911-0.171,2.131-0.979,2.785c-1.02,0.82-2.637,0.832-3.687,0.025c-0.548-0.423-0.906-1.05-0.959-1.677
		c-0.068-0.828,0.209-1.598,0.742-2.06c0.242-0.209,0.531-0.336,0.846-0.385c0.291-0.047,0.629-0.036,0.88,0.141
		c0.248,0.171,0.318,0.473,0.443,0.728c0.195,0.405,0.644,0.646,1.084,0.646c0.146,0,0.294-0.031,0.431-0.103
		c0.387-0.202,0.459-0.571,0.313-0.872c-0.559-1.134-2.317-1.613-3.473-1.347c-0.38,0.085-0.796,0.281-1.091,0.538
		c-0.741,0.643-1.129,1.684-1.037,2.786c0.07,0.88,0.542,1.715,1.293,2.292c1.374,1.058,3.42,1.042,4.76-0.036
		c1.076-0.869,1.303-2.361,1.303-3.46c0-2.468-2-4.479-4.464-4.498c-1.496-0.238-4.554,0.347-5.661,4.282
		c-0.019,0.07-0.412,1.726,0.168,3.754c0.536,1.87,2.032,4.414,6.122,5.934c0.299,0.111,0.618,0.19,0.95,0.247
		c0.475,0.171,1.004,0.323,1.597,0.42c1.677,0.27,3.792,0.297,6.121-0.194c2.329-0.466,4.861-1.441,7.383-2.902
		c1.263-0.726,2.523-1.574,3.764-2.532c1.242-0.954,2.472-2.016,3.657-3.181c2.372-2.302,4.718-4.857,7.408-7.171
		c0.481-0.417,0.979-0.816,1.484-1.207c0.882,0.098,1.81,0.295,2.247,0.4c1.399,0.33,2.764,1.032,4.229,0.618
		c0.398-0.114,1.148-0.875,1.42-0.898c-1.298,0.108-2.059-0.759-2.059-0.759c-1.539-0.648-3.004-0.706-4.235-0.523
		c0.409-0.274,0.824-0.543,1.248-0.798c0.386-0.24,0.79-0.441,1.184-0.665c0.187-0.089,0.417-0.213,0.61-0.294
		c0.199-0.089,0.397-0.179,0.609-0.258c0.834-0.33,1.708-0.567,2.602-0.721c1.784-0.312,3.652-0.268,5.441,0.136
		c0.896,0.199,1.768,0.501,2.604,0.88c0.83,0.387,1.621,0.862,2.342,1.424c0.712,0.568,1.382,1.213,1.921,1.934
		c0.539,0.721,0.974,1.531,1.31,2.379c0.338,0.851,0.576,1.744,0.75,2.643c0.157,0.893,0.219,1.815,0.2,2.723
		c-0.039,1.816-0.438,3.613-1.261,5.168c-0.632,1.198-1.517,2.23-2.56,3.054c-0.366-0.689-0.637-1.485-0.713-2.368
		c0.561-0.967,1.668-1.814,2.051-2.728c0.305-0.722,0.324-1.879-0.42-2.35c-0.596-0.378-1.26-0.117-1.66,0.405
		c-0.876,1.136-1.056,2.787-0.913,4.159c0.121,1.162,0.385,2.355,0.936,3.398c-0.085,0.057-0.17,0.115-0.256,0.169
		c-0.365,0.228-0.741,0.436-1.127,0.619c-0.188,0.096-0.399,0.184-0.575,0.263c-0.102,0.041-0.211,0.086-0.305,0.118
		c-0.095,0.031-0.184,0.066-0.282,0.095c-0.789,0.243-1.63,0.36-2.465,0.409c-0.833,0.048-1.682,0.044-2.492-0.024
		c-0.205-0.022-0.382-0.046-0.578-0.083c-0.195-0.037-0.389-0.075-0.578-0.128c-0.383-0.097-0.753-0.225-1.111-0.377
		c-0.717-0.303-1.384-0.697-1.96-1.18c-0.583-0.479-1.064-1.039-1.426-1.662c-0.34-0.599-0.537-1.292-0.58-1.972
		c-0.05-0.684,0.052-1.364,0.259-1.992c0.421-1.258,1.309-2.288,2.365-2.835c1.062-0.561,2.277-0.662,3.279-0.358
		c0.505,0.148,0.953,0.397,1.325,0.708c0.372,0.31,0.649,0.689,0.833,1.09c0.371,0.807,0.35,1.691,0.107,2.382
		c-0.242,0.698-0.7,1.205-1.175,1.465c-0.479,0.267-0.962,0.305-1.346,0.27c-0.23-0.021-0.463-0.052-0.687-0.117
		c-0.13-0.04-0.507-0.148-0.553-0.305c-0.172-0.578-0.316-1.22-0.458-1.719c-0.116-0.409-0.487-0.902-0.952-0.902
		c-0.023,0-0.05,0.001-0.074,0.003c-0.401,0.046-0.604,0.399-0.596,0.775c0.02,0.974,0.727,2.114,1.549,2.597
		c0.664,0.39,1.397,0.579,2.166,0.542c0.479-0.023,0.952-0.153,1.373-0.389c0.664-0.363,1.265-1.048,1.57-1.936
		c0.309-0.882,0.337-1.987-0.135-3.027c-0.237-0.518-0.598-1.003-1.063-1.392c-0.462-0.389-1.021-0.698-1.638-0.878
		c-1.231-0.373-2.668-0.237-3.93,0.416c-1.271,0.654-2.305,1.857-2.803,3.325c-0.5,1.457-0.465,3.206,0.377,4.705
		c0.413,0.717,0.971,1.37,1.624,1.908c0.647,0.546,1.388,0.99,2.185,1.33c0.398,0.171,0.811,0.316,1.237,0.424
		c0.211,0.06,0.427,0.104,0.644,0.147c0.216,0.041,0.457,0.073,0.671,0.098c0.869,0.078,1.734,0.083,2.626,0.038
		c0.887-0.052,1.791-0.169,2.688-0.44c0.113-0.034,0.23-0.076,0.345-0.114c0.114-0.041,0.21-0.082,0.314-0.122
		c0.23-0.1,0.428-0.183,0.639-0.288c0.417-0.197,0.825-0.417,1.223-0.665c0.086-0.054,0.172-0.115,0.258-0.17
		c0.448,0.597,1.021,1.175,1.621,1.6c1.746,1.232,4.107,1.91,6.342,1.91c0.934,0,1.845-0.117,2.682-0.365
		c2.521-0.743,4.976-2.866,6.563-5.678c1.703-3.017,2.323-7.152,1.706-11.358c0.756,0.145,1.504,0.212,2.232,0.212
		c3.312-0.001,6.239-1.369,7.794-3.124C210.809,26.604,209.93,22.113,207.524,19.419 M206.51,20.15
		c-0.531-0.106-1.033-0.209-1.352-0.394c-0.391-0.229-0.772-0.741-0.66-1.037c0.022-0.058,0.073-0.19,0.331-0.19
		c0.064,0,0.136,0.01,0.206,0.029c0.789,0.219,1.653,1.003,2.195,1.749C206.992,20.247,206.749,20.199,206.51,20.15 M147.836,33.375
		c0.009-0.266,0.02-0.517,0.085-0.686c0.081-0.207,0.298-0.434,0.45-0.403c0.021,0.004,0.035,0.01,0.049,0.018
		c0.064,0.038,0.082,0.142,0.072,0.229c-0.045,0.402-0.357,0.883-0.677,1.203C147.826,33.617,147.83,33.495,147.836,33.375
		 M139.243,17.451c0.112-0.017,0.22-0.002,0.291,0.038c0.05,0.029,0.076,0.068,0.092,0.13c0.057,0.227-0.272,0.574-0.583,0.708
		c-0.252,0.11-0.633,0.14-1.037,0.171c-0.182,0.015-0.365,0.03-0.548,0.052C137.928,18.045,138.639,17.542,139.243,17.451
		 M134.875,32.354c0.801,0.465,1.695,0.644,2.562,0.818c0.202,0.041,0.407,0.082,0.611,0.125c0.295,0.064,0.557,0.164,0.782,0.292
		c0.271,0.16,0.486,0.36,0.646,0.612c-0.594-0.131-1.2-0.061-1.717,0c-0.344,0.039-0.702,0.082-0.899,0.042
		c-0.289-0.058-0.569-0.166-0.84-0.321c-0.671-0.391-1.243-1.074-1.597-1.869C134.564,32.163,134.716,32.263,134.875,32.354
		 M144.418,28.151c-0.147-0.906,0.189-2.408,0.915-3.119c0.273-0.268,0.626-0.389,0.995-0.343c0.396,0.049,0.756,0.286,0.965,0.628
		c0.583,0.962,0.146,2.197-0.324,3.064c-0.245,0.453-0.566,0.871-0.903,1.313c-0.369,0.481-0.745,0.974-1.023,1.52
		c0.017-0.203,0.02-0.327,0.021-0.35l-0.003-0.049c-0.015-0.086-0.032-0.171-0.048-0.257h0.002c-0.03-0.457-0.173-0.91-0.313-1.348
		C144.592,28.867,144.479,28.511,144.418,28.151 M130.093,35.13c0.054,0.11,0.02,0.193-0.112,0.261
		c-0.063,0.034-0.137,0.05-0.218,0.05c-0.234,0-0.481-0.132-0.608-0.262c-0.132-0.14-0.23-0.395-0.336-0.666
		c-0.051-0.128-0.104-0.266-0.164-0.4C129.302,34.328,129.906,34.75,130.093,35.13 M168.642,42.127
		c-0.433-0.431-0.897-1.213-0.91-1.813c0-0.065,0.009-0.281,0.183-0.302c0.008,0,0.013,0,0.021,0c0.193,0,0.43,0.304,0.504,0.564
		c0.061,0.213,0.122,0.456,0.187,0.711c0.09,0.349,0.179,0.707,0.281,1.042C168.801,42.267,168.712,42.197,168.642,42.127
		 M168.395,19.416c6.1-2.308,14.654-1.401,20.805,2.201c2.958,1.731,6.591,4.797,7.79,9.752c-2.781-0.875-4.983-2.848-7.312-4.936
		c-1.96-1.758-3.986-3.578-6.392-4.667c-7.93-3.595-14.95-2.014-19.443-0.054c-0.352,0.152-0.688,0.31-1.019,0.469
		C164.556,21.085,166.406,20.167,168.395,19.416 M195.64,43.473c-1.479,2.62-3.744,4.592-6.056,5.275
		c-2.6,0.764-6.004,0.181-8.277-1.425c-0.46-0.324-0.957-0.802-1.396-1.401c1.179-0.907,2.2-2.067,2.913-3.419
		c0.915-1.711,1.349-3.662,1.399-5.605c0.024-0.976-0.037-1.951-0.204-2.928c-0.181-0.962-0.431-1.918-0.795-2.842
		c-0.363-0.922-0.835-1.814-1.439-2.626c-0.606-0.813-1.325-1.507-2.106-2.133c-0.786-0.617-1.645-1.137-2.545-1.558
		c-0.904-0.415-1.848-0.743-2.812-0.958c-1.929-0.44-3.933-0.494-5.86-0.164c-0.965,0.161-1.908,0.426-2.812,0.783
		c-0.226,0.086-0.452,0.187-0.677,0.291c-0.232,0.103-0.412,0.2-0.645,0.313c-0.413,0.234-0.837,0.448-1.236,0.699
		c-1.445,0.872-2.787,1.864-4.036,2.915c-0.081,0.051-0.126,0.082-0.126,0.082c0.021-0.014,0.05-0.025,0.073-0.037
		c-0.126,0.108-0.259,0.211-0.383,0.322c-2.751,2.379-5.099,4.951-7.441,7.235c-2.313,2.289-4.755,4.182-7.179,5.642
		c-1.212,0.729-2.423,1.341-3.609,1.838c-1.181,0.501-2.345,0.88-3.46,1.141c-1.479,0.358-2.864,0.487-4.107,0.485
		c0.493-0.058,0.964-0.125,1.396-0.189l0.061-0.008c4.818-0.702,9.43-3.152,13.331-7.081c1.831-1.849,3.453-3.915,5.022-5.911
		c1.245-1.584,2.531-3.223,3.906-4.731c0.143-0.137,3.036-2.96,7.649-4.973c4.334-1.889,11.099-3.414,18.738,0.05
		c2.284,1.034,4.261,2.808,6.173,4.522c2.342,2.104,4.763,4.274,7.812,5.179c0.094,0.027,0.185,0.051,0.276,0.075
		c0.015,0.086,0.031,0.17,0.043,0.259C197.831,36.577,197.235,40.645,195.64,43.473"/>
	<path fill="#FFFFFF" d="M32.195,29.629c1.554,1.755,4.48,3.123,7.794,3.125c0.728,0,1.477-0.07,2.231-0.212
		c-0.617,4.207,0.003,8.342,1.706,11.357c1.588,2.813,4.041,4.936,6.563,5.679c0.837,0.248,1.748,0.366,2.682,0.366
		c2.234,0,4.595-0.679,6.342-1.913c0.601-0.422,1.173-1.002,1.621-1.598c0.085,0.055,0.17,0.117,0.259,0.169
		c0.397,0.247,0.805,0.467,1.222,0.666c0.211,0.105,0.408,0.187,0.639,0.287c0.105,0.041,0.2,0.082,0.315,0.122
		c0.113,0.038,0.23,0.081,0.344,0.113c0.896,0.272,1.802,0.389,2.688,0.441c0.891,0.045,1.757,0.04,2.625-0.038
		c0.213-0.024,0.456-0.056,0.67-0.098c0.219-0.042,0.434-0.087,0.646-0.146c0.425-0.108,0.838-0.255,1.237-0.425
		c0.796-0.34,1.537-0.784,2.184-1.33c0.654-0.538,1.21-1.19,1.623-1.906c0.844-1.501,0.877-3.25,0.379-4.707
		c-0.498-1.469-1.534-2.671-2.803-3.325c-1.262-0.653-2.698-0.789-3.931-0.416c-0.615,0.181-1.176,0.49-1.638,0.878
		c-0.466,0.388-0.827,0.875-1.062,1.391c-0.474,1.04-0.444,2.147-0.136,3.028c0.304,0.889,0.906,1.574,1.57,1.937
		c0.418,0.236,0.892,0.365,1.373,0.389c0.769,0.037,1.501-0.153,2.165-0.542c0.822-0.482,1.53-1.623,1.549-2.597
		c0.008-0.376-0.195-0.729-0.595-0.774c-0.027-0.002-0.051-0.003-0.075-0.003c-0.465,0-0.835,0.492-0.953,0.9
		c-0.141,0.499-0.284,1.142-0.457,1.72c-0.046,0.157-0.423,0.265-0.553,0.303c-0.224,0.066-0.456,0.099-0.687,0.119
		c-0.384,0.034-0.867-0.004-1.346-0.271c-0.474-0.259-0.933-0.766-1.174-1.465c-0.243-0.69-0.264-1.575,0.104-2.382
		c0.187-0.402,0.463-0.781,0.833-1.09c0.375-0.311,0.821-0.56,1.325-0.709c1.005-0.303,2.221-0.201,3.282,0.36
		c1.058,0.547,1.944,1.578,2.364,2.835c0.207,0.627,0.308,1.308,0.259,1.992c-0.042,0.681-0.241,1.375-0.58,1.972
		c-0.361,0.623-0.843,1.185-1.426,1.66c-0.576,0.484-1.243,0.879-1.959,1.181c-0.358,0.153-0.731,0.281-1.112,0.377
		c-0.189,0.053-0.383,0.091-0.578,0.128c-0.196,0.037-0.372,0.06-0.578,0.083c-0.813,0.069-1.659,0.073-2.492,0.024
		c-0.835-0.049-1.676-0.166-2.466-0.409c-0.097-0.03-0.186-0.064-0.282-0.095c-0.094-0.032-0.201-0.078-0.304-0.118
		c-0.176-0.078-0.388-0.167-0.574-0.263c-0.387-0.183-0.763-0.392-1.128-0.619c-0.087-0.054-0.17-0.113-0.256-0.169
		c0.551-1.043,0.813-2.236,0.935-3.399c0.144-1.371-0.037-3.021-0.912-4.158c-0.401-0.521-1.063-0.782-1.659-0.405
		c-0.744,0.47-0.726,1.628-0.422,2.351c0.383,0.914,1.491,1.759,2.052,2.727c-0.076,0.882-0.348,1.678-0.715,2.367
		c-1.041-0.822-1.928-1.856-2.557-3.055c-0.824-1.555-1.223-3.351-1.263-5.167c-0.019-0.908,0.045-1.829,0.201-2.724
		c0.175-0.898,0.411-1.791,0.749-2.641c0.337-0.848,0.771-1.661,1.311-2.379c0.539-0.722,1.21-1.367,1.921-1.935
		c0.722-0.562,1.512-1.039,2.344-1.424c0.834-0.379,1.705-0.682,2.603-0.88c1.79-0.403,3.656-0.448,5.44-0.136
		c0.894,0.154,1.768,0.391,2.602,0.721c0.212,0.079,0.41,0.169,0.61,0.257c0.191,0.083,0.424,0.207,0.608,0.295
		c0.396,0.223,0.801,0.426,1.185,0.665c0.425,0.255,0.839,0.522,1.248,0.798c-1.23-0.183-2.695-0.125-4.235,0.523
		c0,0-0.759,0.867-2.061,0.759c0.274,0.023,1.023,0.784,1.422,0.898c1.467,0.414,2.83-0.288,4.229-0.618
		c0.437-0.104,1.365-0.301,2.247-0.401c0.505,0.391,1.004,0.792,1.484,1.207c2.688,2.314,5.035,4.87,7.407,7.172
		c1.185,1.165,2.416,2.226,3.657,3.182c1.241,0.957,2.502,1.806,3.765,2.531c2.521,1.461,5.053,2.435,7.383,2.902
		c2.329,0.491,4.443,0.463,6.12,0.194c0.595-0.098,1.124-0.249,1.598-0.42c0.332-0.057,0.652-0.137,0.951-0.249
		c4.089-1.52,5.586-4.063,6.122-5.931c0.579-2.03,0.184-3.686,0.166-3.755c-1.106-3.935-4.163-4.52-5.66-4.282
		c-2.465,0.02-4.462,2.03-4.462,4.499c0,1.1,0.225,2.592,1.302,3.46c1.339,1.078,3.385,1.094,4.758,0.036
		c0.752-0.576,1.223-1.412,1.295-2.292c0.091-1.103-0.298-2.144-1.038-2.786c-0.294-0.257-0.711-0.453-1.091-0.538
		c-1.156-0.265-2.913,0.211-3.472,1.347c-0.147,0.3-0.077,0.669,0.312,0.872c0.137,0.072,0.286,0.101,0.432,0.101
		c0.44,0,0.888-0.239,1.083-0.644c0.126-0.256,0.195-0.555,0.443-0.728c0.252-0.176,0.589-0.188,0.88-0.141
		c0.315,0.049,0.603,0.176,0.846,0.386c0.532,0.461,0.809,1.231,0.741,2.059c-0.053,0.627-0.409,1.253-0.958,1.676
		c-1.05,0.808-2.668,0.793-3.687-0.025c-0.81-0.654-0.979-1.875-0.979-2.785c0-2.002,1.628-3.631,3.632-3.631l0.072-0.006
		c0.143-0.023,3.538-0.533,4.713,3.643c0.056,0.23,1.366,6.009-5.752,8.653c-1.44,0.534-3.636,0.245-5.17,0.022
		c-4.233-1.191-7.301-3.774-9.117-7.696c-1.34-2.898-1.482-5.531-1.493-5.808c0.063-0.391,0.144-0.77,0.241-1.13
		c0.081-0.3,0.178-0.594,0.284-0.871c1.104-2.866,3.29-3.976,4.749-4.406c0.736-0.007,2.401,0.357,2.616,0.398
		c0.278,0.053,0.559,0.122,0.837,0.196c0.666,0.574,1.577,1.557,1.976,2.844c-0.048,0.14-0.108,0.271-0.187,0.383
		c-0.707,1-2.084,0.441-3.066,0.811c-1.004,0.377-1.841,1.129-2.065,2.217c0.112-0.544,2.532-0.405,2.913-0.459
		c0.848-0.124,1.712-0.637,2.208-1.361c-0.046,0.137-0.088,0.25-0.115,0.322c-0.31,0.778-0.766,1.256-1.315,1.574
		c-0.809,0.468-1.818,0.592-2.856,0.82c-0.396,0.088-0.766,0.224-1.099,0.416c-0.505,0.293-0.92,0.712-1.193,1.273
		c-0.424,0.867-0.315,1.843-0.072,2.748c0.216-0.391,0.494-0.778,0.831-1.075c0.062-0.054,0.124-0.099,0.191-0.138
		c0.819-0.474,2.09,0.076,2.988-0.102c0.417-0.083,0.813-0.238,1.178-0.448c1.668-0.967,2.323-2.677,2.468-4.502
		c0.152-1.937-0.469-3.605-1.716-5.045c0.061,0.015,0.117,0.031,0.179,0.045c1.166,0.272,2.419,0.521,3.601,0.191
		c1.035-0.288,2.071-1.208,2.415-2.254c0.146-0.446,0.204-0.932,0.156-1.403c-0.02-0.185-0.139-0.416-0.136-0.593
		c-0.01,0.512-0.151,1.153-0.406,1.603c-0.989,1.746-3.429,0.433-4.819,0.197c-0.672-0.115-1.374-0.123-2.078-0.055
		c5.214-3.393,1.062-7.662,1.062-7.662c-0.696,0.641-0.864,1.769-0.831,2.668c0.035,0.947,0.669,1.814,0.541,2.762
		c-0.082,0.61-0.411,1.17-0.763,1.666c-0.154,0.216-0.324,0.429-0.511,0.628c-0.926,0.137-1.844,0.395-2.692,0.712
		c-1.028,0.258-2.544,0.844-3.821,2.164c0.108-0.274,0.17-0.555,0.193-0.835c1.106-0.95,2.397-1.637,4.015-2.141
		c0.491-0.151,0.982-0.328,1.414-0.577c0.375-0.218,0.704-0.49,0.947-0.85c0.303-0.446,0.405-1.004,0.324-1.533
		c-0.073-0.455-0.302-0.934-0.628-1.379c-0.656-0.897-1.699-1.653-2.609-1.791c-0.232-0.035-0.466,0-0.654,0.106
		c-0.166,0.098-0.296,0.256-0.351,0.479c-0.146,0.581,0.411,1.139,0.9,1.352c0.644,0.277,1.636,0.152,2.377,0.396
		c0.427,0.546,0.624,1.403,0.181,2.059c-0.428,0.628-1.246,0.952-2.066,1.207c-1.533,0.477-2.785,1.119-3.875,1.979
		c-0.086-0.513-0.313-1.001-0.669-1.423c-1.57-1.861-3.846-1.635-4.943,0.61c-0.376,0.762-0.179,1.577-0.421,2.312
		c0.532-1.614,2.588-3.336,4.051-1.643c0.43,0.499,0.541,1.192,0.56,1.85c-0.188-0.6-0.479-1.164-0.872-1.549
		c-0.396-0.388-0.913-0.565-1.453-0.497c-0.563,0.071-1.077,0.405-1.371,0.892c-0.721,1.187-0.229,2.623,0.311,3.618
		c0.264,0.491,0.614,0.945,0.95,1.385c0.582,0.761,1.13,1.479,1.296,2.363c0.145,0.774-0.196,1.776-0.915,1.975
		c-0.433,0.118-1.022-0.042-1.252-0.452c-0.229-0.406-0.034-0.932-0.2-1.362c-0.129-0.327-0.482-0.707-0.867-0.627
		c-0.059,0.011-0.111,0.032-0.158,0.058c-0.197,0.114-0.28,0.352-0.253,0.589c0.137,1.212,1.593,2.684,2.878,2.33
		c0.127-0.033,0.246-0.085,0.354-0.149c0.474-0.273,0.786-0.791,0.923-1.356c0.223,1.001,0.584,2.215,1.174,3.495
		c1.018,2.204,2.878,4.902,6.231,6.716c-3.485-1.105-6.792-3.176-9.696-6.103c-1.797-1.813-3.404-3.859-4.958-5.836
		c-1.257-1.6-2.555-3.254-3.956-4.787c-3.451-3.777-7.435-6.488-12.182-8.282c-0.83-0.313-1.706-0.569-2.614-0.771
		c-0.54-0.813-0.589-1.66-0.589-1.66c-0.106-4.035-2.815-4.639-2.815-4.639c0,1.654-0.168,3.409,0.807,4.849
		c0.317,0.47,0.718,0.855,1.165,1.183c-5.716-0.87-12.41,0.318-17.506,3.302c-3.191,1.872-7.142,5.233-8.292,10.747
		c-3.108,0.645-7.264,0.011-9.545-2.562c-1.894-2.138-1.848-5.226-0.646-7.611c0.948-0.583,2.458-0.528,3.343-1.044
		c0.616-0.361,1.264-1.194,0.98-1.944c-0.178-0.461-0.585-0.67-1.027-0.67c-0.135,0-0.271,0.019-0.406,0.056
		c-0.904,0.25-1.704,0.845-2.29,1.58C30.391,22.113,29.513,26.603,32.195,29.629 M33.09,20.307c0.542-0.746,1.406-1.53,2.196-1.75
		c0.07-0.019,0.139-0.029,0.206-0.029c0.258,0,0.309,0.134,0.329,0.191c0.113,0.295-0.269,0.807-0.658,1.035
		c-0.319,0.186-0.821,0.288-1.352,0.395C33.572,20.199,33.329,20.247,33.09,20.307 M92.506,33.737
		c-0.322-0.32-0.635-0.801-0.679-1.202c-0.01-0.088,0.009-0.193,0.074-0.23c0.011-0.009,0.027-0.014,0.046-0.016
		c0.153-0.034,0.371,0.193,0.453,0.4c0.064,0.169,0.076,0.419,0.085,0.686C92.49,33.496,92.495,33.617,92.506,33.737 M102.862,18.55
		c-0.183-0.022-0.366-0.037-0.549-0.053c-0.402-0.031-0.786-0.06-1.036-0.17c-0.31-0.133-0.64-0.481-0.583-0.708
		c0.015-0.063,0.043-0.102,0.092-0.131c0.07-0.04,0.18-0.053,0.29-0.037C101.683,17.542,102.394,18.045,102.862,18.55
		 M105.896,32.055c-0.352,0.795-0.925,1.479-1.597,1.869c-0.27,0.156-0.55,0.264-0.839,0.32c-0.199,0.041-0.555-0.001-0.9-0.042
		c-0.515-0.061-1.121-0.131-1.717,0c0.161-0.251,0.375-0.452,0.646-0.611c0.224-0.129,0.488-0.229,0.782-0.293
		c0.204-0.044,0.409-0.085,0.612-0.126c0.865-0.173,1.759-0.353,2.561-0.816C105.604,32.264,105.756,32.163,105.896,32.055
		 M95.619,29.212c-0.14,0.438-0.283,0.891-0.313,1.348l0,0c-0.015,0.085-0.032,0.17-0.046,0.257l-0.003,0.048
		c0,0.023,0.005,0.147,0.021,0.351c-0.279-0.545-0.655-1.039-1.023-1.519c-0.337-0.443-0.658-0.862-0.902-1.313
		c-0.471-0.867-0.908-2.104-0.325-3.065c0.21-0.343,0.569-0.579,0.965-0.628c0.369-0.047,0.722,0.076,0.995,0.344
		c0.725,0.709,1.063,2.213,0.914,3.118C95.842,28.511,95.729,28.867,95.619,29.212 M111.666,34.112
		c-0.061,0.136-0.113,0.271-0.163,0.4c-0.106,0.271-0.205,0.526-0.337,0.665c-0.127,0.131-0.376,0.262-0.607,0.262
		c-0.082,0-0.156-0.017-0.221-0.049c-0.129-0.067-0.165-0.15-0.111-0.261C110.414,34.75,111.02,34.327,111.666,34.112 M71.413,42.33
		c0.103-0.336,0.191-0.693,0.281-1.042c0.063-0.255,0.127-0.498,0.187-0.711c0.073-0.261,0.311-0.564,0.504-0.564
		c0.008,0,0.015,0,0.021,0.001c0.174,0.02,0.184,0.236,0.182,0.302c-0.012,0.599-0.477,1.381-0.908,1.812
		C71.609,42.198,71.518,42.265,71.413,42.33 M77.496,22.18c-0.33-0.159-0.668-0.317-1.018-0.47
		c-4.493-1.959-11.514-3.54-19.444,0.054c-2.404,1.09-4.432,2.91-6.394,4.667c-2.326,2.089-4.529,4.063-7.31,4.938
		c1.2-4.958,4.833-8.021,7.791-9.753c6.149-3.603,14.704-4.508,20.804-2.2C73.915,20.168,75.764,21.085,77.496,22.18 M43.089,32.59
		c0.014-0.087,0.029-0.171,0.045-0.259c0.091-0.024,0.183-0.048,0.273-0.076c3.052-0.905,5.472-3.077,7.813-5.179
		c1.913-1.714,3.891-3.488,6.173-4.523c7.64-3.462,14.406-1.938,18.74-0.049c4.612,2.012,7.506,4.834,7.646,4.974
		c1.376,1.508,2.664,3.146,3.908,4.73c1.57,1.998,3.192,4.063,5.022,5.911c3.902,3.929,8.511,6.377,13.331,7.081l0.059,0.008
		c0.433,0.063,0.904,0.132,1.397,0.189c-1.245,0.002-2.628-0.128-4.108-0.484c-1.114-0.262-2.275-0.64-3.459-1.142
		c-1.188-0.498-2.398-1.11-3.609-1.838c-2.424-1.46-4.865-3.354-7.178-5.642c-2.343-2.284-4.691-4.857-7.441-7.235
		c-0.124-0.111-0.257-0.214-0.385-0.322c0.025,0.012,0.053,0.024,0.074,0.037c0,0-0.044-0.03-0.127-0.081
		c-1.248-1.052-2.59-2.044-4.035-2.916c-0.399-0.25-0.823-0.465-1.235-0.699c-0.233-0.115-0.412-0.212-0.645-0.313
		c-0.228-0.104-0.452-0.204-0.679-0.289c-0.902-0.358-1.847-0.623-2.81-0.783c-1.93-0.332-3.932-0.277-5.861,0.163
		c-0.965,0.216-1.907,0.544-2.811,0.958c-0.901,0.422-1.759,0.943-2.546,1.559c-0.781,0.625-1.5,1.321-2.106,2.132
		c-0.604,0.813-1.075,1.704-1.438,2.627c-0.367,0.923-0.616,1.88-0.797,2.841c-0.167,0.978-0.229,1.953-0.205,2.929
		c0.053,1.942,0.485,3.895,1.4,5.605c0.713,1.352,1.734,2.512,2.913,3.417c-0.439,0.602-0.937,1.079-1.397,1.401
		c-2.272,1.606-5.677,2.19-8.276,1.426c-2.312-0.683-4.575-2.654-6.056-5.275C43.085,40.645,42.488,36.577,43.089,32.59"/>
	<g>
		<path fill="#FFFFFF" d="M3.898,96.767c2.484,0,3.002-0.386,3.381-2.419l2.795-16.235c0.311-1.648,0.068-2.034-1.069-2.034H8.591
			c-2.208,0-4.83,2.49-5.692,5.47c-0.035,0.14-0.449,0.07-0.38-0.07c0.38-1.297,1.311-5.26,1.621-6.978
			c0.069-0.14,0.449-0.105,0.414,0.035c-0.104,0.701,0.828,0.736,1.346,0.736c1.69,0.07,4.14,0.105,6.313,0.105
			c2.76,0,4.52-0.105,6.072-0.105c1.276,0,1.967-0.14,2.277-0.876c0.068-0.14,0.414-0.105,0.379,0.07
			c-0.414,1.473-1.346,5.82-1.483,7.013c-0.034,0.175-0.448,0.14-0.414-0.035c0.518-2.91-1.035-5.365-3.484-5.365h-0.38
			c-1.241,0-1.414,0.456-1.69,2.104l-2.794,16.165c-0.38,2.034-0.035,2.419,2.553,2.419c0.104,0,0.104,0.421,0,0.421
			c-1.276,0-2.795-0.07-4.692-0.07c-1.725,0-3.381,0.07-4.657,0.07C3.795,97.188,3.795,96.767,3.898,96.767z"/>
		<path fill="#FFFFFF" d="M46.747,75.693c-1.828,0-2.173,0.456-2.553,2.419l-2.829,16.235c-0.345,2.034,0,2.419,1.726,2.419
			c0.138,0,0.138,0.421,0,0.421c-0.863,0-2.312-0.07-3.761-0.07c-1.483,0-2.829,0.07-3.898,0.07c-0.104,0-0.104-0.421,0-0.421
			c1.897,0,2.173-0.386,2.553-2.419l1.38-8.065h-9.005l-1.414,8.065c-0.38,2.034-0.069,2.419,1.69,2.419
			c0.138,0,0.138,0.421,0,0.421c-1.035,0-2.381-0.07-3.898-0.07c-1.414,0-2.76,0.07-3.761,0.07c-0.138,0-0.138-0.421,0-0.421
			c1.863,0,2.208-0.386,2.588-2.419l2.829-16.235c0.345-1.964,0.034-2.419-1.726-2.419c-0.104,0-0.104-0.421,0-0.421
			c1.035,0,2.312,0.105,3.761,0.105s2.863-0.105,3.898-0.105c0.104,0,0.104,0.421,0,0.421c-1.862,0-2.208,0.526-2.553,2.49
			l-1.242,7.118h9.005l1.242-7.118c0.311-1.964,0.068-2.49-1.656-2.49c-0.138,0-0.138-0.421,0-0.421c1,0,2.346,0.105,3.795,0.105
			c1.414,0,2.829-0.105,3.829-0.105C46.851,75.272,46.851,75.693,46.747,75.693z"/>
		<path fill="#FFFFFF" d="M67.377,75.588l-0.725,4.698c-0.034,0.175-0.414,0.07-0.414-0.035c-0.172-2.595-1.932-4.243-4.45-4.243
			h-0.621c-1.932,0-2.139,0.351-2.449,2.139l-1.242,7.153h3.898c2.07,0,3.174-0.736,3.588-2.665c0.035-0.21,0.449-0.175,0.414,0.035
			c-0.241,1.508-0.414,2.174-0.586,3.121c-0.207,1.192-0.311,2.244-0.553,3.612c-0.034,0.21-0.448,0.14-0.414-0.035
			c0.346-2.034-0.724-3.086-2.69-3.086h-3.83l-1.38,7.925c-0.311,1.858-0.034,2.244,1.656,2.244h0.897
			c2.69,0,5.45-1.894,7.142-4.839c0.068-0.14,0.448-0.035,0.379,0.07c-0.414,1.368-0.862,3.402-1.173,4.98
			c-0.069,0.385-0.173,0.525-0.552,0.525H49.955c-0.139,0-0.139-0.421,0-0.421c1.862,0,2.173-0.386,2.553-2.419l2.794-16.235
			c0.38-1.999,0.069-2.419-1.69-2.419c-0.104,0-0.104-0.421,0-0.421H67.17C67.377,75.272,67.412,75.377,67.377,75.588z"/>
	</g>
	
		<text transform="matrix(1 0 0 1.0163 71.0352 97.1875)" fill="#FFFFFF" font-family="'BodoniSvtyTwoITCTT-Book'" font-size="34.4995"> </text>
	<g>
		<path fill="#FFFFFF" d="M101.705,76.289c0.311,0.175,0.311,0.21,0.379,0.771l0.414,4.172c0,0.105-0.345,0.21-0.414,0.035
			c-1.034-3.857-3.346-5.856-7.106-5.856c-5.865,0-9.729,4.138-9.729,10.59c0,6.207,4.485,11.08,9.833,11.08
			c3.795,0,6.072-1.893,7.279-5.68c0.034-0.14,0.414-0.07,0.414,0.035l-0.345,3.857c-0.069,0.562-0.104,0.597-0.38,0.771
			c-2.415,1.192-4.313,1.578-6.969,1.578c-7.314,0-12.489-4.664-12.489-11.572c0-6.697,5.313-11.186,12.489-11.186
			C97.979,74.886,99.738,75.272,101.705,76.289z"/>
		<path fill="#FFFFFF" d="M114.4,94.207c0,1.929,0.414,2.244,2.76,2.244h3.761c2.69,0,4.209-1.858,4.691-4.628
			c0-0.141,0.38-0.105,0.38,0.035c-0.138,1.298-0.311,3.297-0.311,4.805c0,0.385-0.104,0.525-0.518,0.525h-15.939
			c-0.104,0-0.104-0.421,0-0.421c2.519,0,2.933-0.386,2.933-2.419V78.112c0-1.999-0.414-2.419-2.933-2.419
			c-0.104,0-0.104-0.421,0-0.421c1.104,0,2.519,0.105,4.037,0.105c1.587,0,3.001-0.105,4.071-0.105c0.138,0,0.138,0.421,0,0.421
			c-2.484,0-2.933,0.456-2.933,2.455V94.207z"/>
		<path fill="#FFFFFF" d="M153.971,97.188c-1.311,0-2.76-0.141-4.036-0.141c-1.449,0-2.346,0.141-3.622,0.141
			c-0.207,0-0.207-0.421,0-0.421c2.449,0,2.932-0.562,2.001-2.595l-3.071-6.627h-8.211l-2.173,5.189
			c-1.174,2.875-0.104,4.032,2.897,4.032c0.207,0,0.207,0.421,0,0.421c-1.38,0-2.312-0.141-4.071-0.141
			c-1.655,0-2.38,0.141-3.795,0.141c-0.207,0-0.207-0.421,0-0.421c1.863,0,2.795-0.876,4.244-4.348l7.279-17.462
			c0.069-0.14,0.414-0.14,0.448,0l8.143,17.427c1.587,3.507,2.483,4.383,3.967,4.383C154.144,96.767,154.144,97.188,153.971,97.188z
			 M144.932,86.843l-4.036-8.661l-3.588,8.661H144.932z"/>
		<path fill="#FFFFFF" d="M167.391,85.16c2.553,1.578,5.209,3.086,5.209,6.452c0,3.331-2.519,5.996-7.106,5.996
			c-1.656,0-3.277-0.351-4.864-1.228c-0.242-0.141-0.276-0.351-0.311-0.666l-0.449-4.769c-0.034-0.21,0.346-0.245,0.38-0.07
			c0.621,2.805,2.381,6.171,6.037,6.171c2.036,0,4.105-0.981,4.105-4.032c0-3.401-2.519-4.909-5.037-6.417
			c-2.414-1.508-4.864-2.98-4.864-6.242c0-3.682,3.243-5.47,6.417-5.47c1.276,0,2.691,0.281,4.037,0.842
			c0.379,0.14,0.518,0.351,0.518,0.596l0.241,4.032c0,0.175-0.345,0.21-0.38,0c-0.275-1.858-1.553-4.944-4.968-4.944
			c-2.726,0-3.829,1.929-3.829,3.962C162.526,82.285,164.941,83.688,167.391,85.16z"/>
		<path fill="#FFFFFF" d="M187.78,85.16c2.553,1.578,5.209,3.086,5.209,6.452c0,3.331-2.519,5.996-7.106,5.996
			c-1.656,0-3.277-0.351-4.864-1.228c-0.242-0.141-0.276-0.351-0.311-0.666l-0.449-4.769c-0.034-0.21,0.346-0.245,0.38-0.07
			c0.621,2.805,2.381,6.171,6.037,6.171c2.036,0,4.105-0.981,4.105-4.032c0-3.401-2.519-4.909-5.037-6.417
			c-2.414-1.508-4.864-2.98-4.864-6.242c0-3.682,3.243-5.47,6.417-5.47c1.276,0,2.691,0.281,4.037,0.842
			c0.379,0.14,0.518,0.351,0.518,0.596l0.241,4.032c0,0.175-0.345,0.21-0.38,0c-0.275-1.858-1.553-4.944-4.968-4.944
			c-2.726,0-3.829,1.929-3.829,3.962C182.916,82.285,185.331,83.688,187.78,85.16z"/>
		<path fill="#FFFFFF" d="M208.1,96.767c0.139,0,0.139,0.421,0,0.421c-1.104,0-2.449-0.07-4.105-0.07
			c-1.553,0-2.967,0.07-4.071,0.07c-0.138,0-0.138-0.421,0-0.421c2.519,0,2.968-0.386,2.968-2.419V78.112
			c0-1.999-0.449-2.419-2.968-2.419c-0.138,0-0.138-0.421,0-0.421c1.104,0,2.519,0.105,4.071,0.105c1.656,0,3.036-0.105,4.105-0.105
			c0.139,0,0.139,0.421,0,0.421c-2.483,0-2.933,0.491-2.933,2.49v16.165C205.167,96.381,205.581,96.767,208.1,96.767z"/>
		<path fill="#FFFFFF" d="M234.009,76.289c0.311,0.175,0.311,0.21,0.379,0.771l0.414,4.172c0,0.105-0.345,0.21-0.414,0.035
			c-1.034-3.857-3.346-5.856-7.106-5.856c-5.865,0-9.729,4.138-9.729,10.59c0,6.207,4.485,11.08,9.833,11.08
			c3.795,0,6.072-1.893,7.279-5.68c0.034-0.14,0.414-0.07,0.414,0.035l-0.345,3.857c-0.069,0.562-0.104,0.597-0.38,0.771
			c-2.415,1.192-4.313,1.578-6.969,1.578c-7.314,0-12.489-4.664-12.489-11.572c0-6.697,5.313-11.186,12.489-11.186
			C230.282,74.886,232.042,75.272,234.009,76.289z"/>
	</g>
	<g>
		<path fill="#FFFFFF" d="M20.804,112.753c0.311,0.175,0.311,0.21,0.379,0.771l0.414,4.173c0,0.105-0.345,0.21-0.414,0.035
			c-1.034-3.857-3.346-5.856-7.106-5.856c-5.865,0-9.729,4.138-9.729,10.59c0,6.206,4.485,11.081,9.833,11.081
			c3.795,0,6.072-1.895,7.279-5.682c0.034-0.14,0.414-0.07,0.414,0.035l-0.345,3.857c-0.069,0.561-0.104,0.596-0.38,0.771
			c-2.415,1.192-4.313,1.578-6.969,1.578c-7.314,0-12.489-4.664-12.489-11.572c0-6.697,5.313-11.186,12.489-11.186
			C17.077,111.35,18.837,111.736,20.804,112.753z"/>
		<path fill="#FFFFFF" d="M27.634,122.711c0-7.609,6.555-11.361,12.145-11.361c6.796,0,10.901,5.471,10.901,11.116
			c0,6.522-5.555,11.606-12.109,11.606C31.946,134.072,27.634,128.883,27.634,122.711z M48.058,123.447
			c0-6.592-3.795-11.291-9.729-11.291c-5.106,0-8.073,3.577-8.073,9.328c0,6.627,3.864,11.852,9.522,11.852
			C44.401,133.336,48.058,129.829,48.058,123.447z"/>
		<path fill="#FFFFFF" d="M61.029,130.671c0,1.929,0.414,2.244,2.76,2.244h3.761c2.69,0,4.209-1.858,4.691-4.628
			c0-0.141,0.38-0.105,0.38,0.034c-0.138,1.298-0.311,3.296-0.311,4.804c0,0.387-0.104,0.526-0.518,0.526H55.854
			c-0.104,0-0.104-0.421,0-0.421c2.519,0,2.933-0.386,2.933-2.42v-16.234c0-1.998-0.414-2.42-2.933-2.42c-0.104,0-0.104-0.42,0-0.42
			c1.104,0,2.519,0.105,4.037,0.105c1.587,0,3.001-0.105,4.071-0.105c0.138,0,0.138,0.42,0,0.42c-2.484,0-2.933,0.456-2.933,2.455
			V130.671z"/>
		<path fill="#FFFFFF" d="M81.694,130.671c0,1.929,0.414,2.244,2.76,2.244h3.761c2.69,0,4.209-1.858,4.691-4.628
			c0-0.141,0.38-0.105,0.38,0.034c-0.138,1.298-0.311,3.296-0.311,4.804c0,0.387-0.104,0.526-0.518,0.526H76.519
			c-0.103,0-0.103-0.421,0-0.421c2.519,0,2.933-0.386,2.933-2.42v-16.234c0-1.998-0.414-2.42-2.933-2.42c-0.103,0-0.103-0.42,0-0.42
			c1.104,0,2.519,0.105,4.037,0.105c1.587,0,3.001-0.105,4.071-0.105c0.138,0,0.138,0.42,0,0.42c-2.484,0-2.933,0.456-2.933,2.455
			V130.671z"/>
		<path fill="#FFFFFF" d="M112.778,128.497c-0.173,1.228-0.311,3.155-0.311,4.628c0,0.387-0.138,0.526-0.552,0.526H97.46
			c-0.104,0-0.104-0.421,0-0.421c2.519,0,2.967-0.386,2.967-2.42v-16.234c0-1.998-0.448-2.42-2.967-2.42c-0.104,0-0.104-0.42,0-0.42
			h13.869c0.241,0,0.311,0.105,0.311,0.315l0.069,4.313c0,0.141-0.346,0.176-0.38,0.035c-0.138-2.489-1.587-3.927-3.761-3.927
			h-2.104c-2.312,0-2.794,0.42-2.794,2.279v7.117h4.209c2.208,0,3.07-0.701,3.07-2.454c0-0.104,0.414-0.104,0.414,0
			c0,1.403-0.035,1.964-0.035,2.841c0,1.086,0.069,2.033,0.069,3.226c0,0.104-0.414,0.104-0.414,0c0-2.034-0.896-2.876-3.208-2.876
			h-4.105v8.065c0,1.858,0.448,2.244,2.69,2.244h2.761c2.207,0,3.76-1.718,4.243-4.488
			C112.398,128.287,112.778,128.356,112.778,128.497z"/>
		<path fill="#FFFFFF" d="M137.583,112.753c0.311,0.175,0.311,0.21,0.379,0.771l0.414,4.173c0,0.105-0.345,0.21-0.414,0.035
			c-1.034-3.857-3.346-5.856-7.106-5.856c-5.865,0-9.729,4.138-9.729,10.59c0,6.206,4.485,11.081,9.833,11.081
			c3.795,0,6.072-1.895,7.279-5.682c0.034-0.14,0.414-0.07,0.414,0.035l-0.345,3.857c-0.069,0.561-0.104,0.596-0.38,0.771
			c-2.415,1.192-4.313,1.578-6.969,1.578c-7.314,0-12.489-4.664-12.489-11.572c0-6.697,5.313-11.186,12.489-11.186
			C133.856,111.35,135.616,111.736,137.583,112.753z"/>
		<path fill="#FFFFFF" d="M144.413,117.311c0,0.105-0.38,0.105-0.38,0c0.139-1.191,0.483-4.803,0.483-6.346
			c0-0.211,0.38-0.246,0.38,0c0,0.701,1.207,0.771,1.862,0.771c1.967,0.07,4.348,0.105,6.935,0.105c3.243,0,4.865-0.105,6.659-0.105
			c1.552,0,2.38-0.141,2.622-0.877c0.034-0.176,0.379-0.176,0.379,0c-0.138,1.402-0.311,5.33-0.311,6.451
			c0,0.105-0.414,0.105-0.414,0c-0.138-3.646-1.345-4.943-4.416-4.943c-2.897,0-3.346,0.176-3.346,2.279v16.164
			c0,2.034,0.448,2.42,3.346,2.42c0.139,0,0.139,0.421,0,0.421c-1.207,0-2.726-0.07-4.52-0.07c-1.69,0-3.242,0.07-4.484,0.07
			c-0.104,0-0.104-0.421,0-0.421c2.863,0,3.381-0.386,3.381-2.42v-16.234c0-2.104-0.518-2.209-3.347-2.209
			C146.345,112.367,145.034,113.734,144.413,117.311z"/>
		<path fill="#FFFFFF" d="M176.669,133.23c0.138,0,0.138,0.421,0,0.421c-1.104,0-2.449-0.07-4.105-0.07
			c-1.553,0-2.967,0.07-4.071,0.07c-0.138,0-0.138-0.421,0-0.421c2.519,0,2.968-0.386,2.968-2.42v-16.234
			c0-1.998-0.449-2.42-2.968-2.42c-0.138,0-0.138-0.42,0-0.42c1.104,0,2.519,0.105,4.071,0.105c1.656,0,3.036-0.105,4.105-0.105
			c0.138,0,0.138,0.42,0,0.42c-2.483,0-2.933,0.491-2.933,2.49v16.164C173.736,132.845,174.15,133.23,176.669,133.23z"/>
		<path fill="#FFFFFF" d="M182.292,122.711c0-7.609,6.555-11.361,12.145-11.361c6.796,0,10.901,5.471,10.901,11.116
			c0,6.522-5.555,11.606-12.109,11.606C186.604,134.072,182.292,128.883,182.292,122.711z M202.716,123.447
			c0-6.592-3.795-11.291-9.729-11.291c-5.106,0-8.073,3.577-8.073,9.328c0,6.627,3.864,11.852,9.522,11.852
			C199.06,133.336,202.716,129.829,202.716,123.447z"/>
		<path fill="#FFFFFF" d="M233.593,112.156c-1.932,0-2.76,1.018-2.76,3.438v18.479c0,0.105-0.311,0.141-0.414,0.07l-15.87-19.531
			c-0.104-0.141-0.207-0.246-0.311-0.351v15.568c0,2.42,0.793,3.401,2.691,3.401c0.138,0,0.138,0.421,0,0.421
			c-0.897,0-1.863-0.07-3.036-0.07c-1.139,0-2.243,0.07-3.175,0.07c-0.104,0-0.104-0.421,0-0.421c2.001,0,2.726-0.981,2.726-3.401
			v-16.41c-1.034-0.981-1.897-1.263-2.726-1.263c-0.138,0-0.138-0.42,0-0.42c0.794,0,1.726,0.07,2.415,0.07
			c0.863,0,1.622-0.07,2.001-0.07c0.587,0,0.553,0.49,1.622,1.822l13.282,16.586v-14.551c0-2.42-0.725-3.438-2.622-3.438
			c-0.104,0-0.104-0.42,0-0.42c0.932,0,1.863,0.105,3.036,0.105c1.104,0,2.242-0.105,3.14-0.105
			C233.73,111.736,233.73,112.156,233.593,112.156z"/>
	</g>
	<polygon fill="#FFFFFF" points="48.846,153.955 109.886,152.89 109.886,155.02 	"/>
	<polygon fill="#FFFFFF" points="191.475,153.955 130.435,155.02 130.435,152.89 	"/>
	<path fill="#FFFFFF" d="M133.663,174.879c-0.681,0-1.487,0.175-2.367,0.702c0,0-1.378,0.582-3.015,0.582
		c-1.112,0-2.344-0.271-3.35-1.172c-0.263-0.905-0.633-1.774-1.069-2.599c-0.234-0.447-0.571-0.916-0.892-1.395
		c-0.889-2.34-2.811-3.998-2.811-3.998s-1.924,1.658-2.812,3.998c-0.32,0.479-0.654,0.947-0.892,1.395
		c-0.434,0.824-0.806,1.693-1.068,2.596c-1.004,0.906-2.238,1.175-3.348,1.175c-1.638,0-3.016-0.582-3.016-0.582
		c-0.879-0.527-1.687-0.702-2.368-0.702c-1.365,0-2.238,0.702-2.238,0.702c1.507,2.29,3.232,3.065,4.873,3.065
		c2.491-0.002,4.797-1.783,5.884-2.771c-0.117,0.584-0.188,1.182-0.189,1.788c-0.005,1.926,0.7,3.968-0.206,5.792
		c-0.673,1.362-1.993,1.954-3.38,1.954c-0.316,0-0.635-0.031-0.951-0.092c0.485,0.092,0.999,0.756,1.585,0.869
		c0.194,0.038,0.392,0.057,0.593,0.057c1.521,0,3.203-1.018,4.146-2.109c1.678-1.945,1.536-4.559,1.257-6.977
		c-0.011-0.098-0.022-0.197-0.035-0.295c0.663,1.127,1.457,1.98,1.874,2.391c-0.456,2.601-1.289,7.43-1.289,8.063
		c0,0.874,0.708,1.582,1.581,1.582s1.581-0.708,1.581-1.582c0-0.633-0.833-5.465-1.289-8.063c0.418-0.412,1.213-1.265,1.874-2.394
		c-0.012,0.1-0.022,0.199-0.033,0.299c-0.281,2.418-0.422,5.031,1.256,6.977c0.941,1.092,2.623,2.109,4.145,2.109
		c0.202,0,0.398-0.019,0.592-0.057c0.588-0.113,1.102-0.777,1.587-0.869c-0.315,0.061-0.636,0.092-0.952,0.092
		c-1.387,0-2.705-0.592-3.381-1.954c-0.905-1.824-0.201-3.866-0.205-5.792c0-0.606-0.072-1.203-0.189-1.788
		c1.089,0.987,3.395,2.771,5.883,2.771c1.644,0,3.366-0.775,4.875-3.065C135.902,175.581,135.028,174.879,133.663,174.879
		 M109.292,177.561L109.292,177.561c-1.185,0-2.232-0.507-3.177-1.545c0.166-0.031,0.348-0.053,0.542-0.053
		c0.594,0,1.204,0.186,1.813,0.549l0.063,0.036l0.067,0.03c0.054,0.021,1.124,0.469,2.538,0.621
		C110.548,177.421,109.925,177.561,109.292,177.561 M116.145,183.594c-0.276,0.322-0.642,0.646-1.052,0.93
		c0.163-0.215,0.308-0.449,0.433-0.699c0.734-1.484,0.564-3.066,0.413-4.463c-0.065-0.594-0.126-1.153-0.125-1.696
		c0.002-1.337,0.362-2.772,1.072-4.276c0.021,1.276,0.169,2.551,0.321,3.864C117.471,179.535,117.604,181.9,116.145,183.594
		 M120.16,177.575c-0.814-0.964-1.896-2.57-1.896-4.313c0-1.744,1.085-3.354,1.901-4.316c0.867,1.033,1.892,2.653,1.892,4.316
		C122.057,175.005,120.976,176.611,120.16,177.575 M125.228,184.523c-0.411-0.283-0.772-0.607-1.052-0.93
		c-1.459-1.693-1.326-4.059-1.061-6.352c0.151-1.309,0.299-2.58,0.319-3.854c0.709,1.504,1.068,2.939,1.072,4.276
		c0.001,0.543-0.058,1.103-0.123,1.696c-0.15,1.396-0.323,2.979,0.413,4.463C124.921,184.074,125.064,184.309,125.228,184.523
		 M131.027,177.561c-0.63,0-1.254-0.14-1.847-0.361c1.413-0.152,2.483-0.6,2.538-0.621l0.068-0.03l0.063-0.036
		c0.609-0.363,1.22-0.549,1.813-0.549c0.195,0,0.375,0.021,0.542,0.053C133.262,177.054,132.213,177.561,131.027,177.561"/>
	<path fill="#FFFFFF" d="M137.485,158.625c-1.397-0.764-2.903-1.301-4.469-1.561c-3.761-0.623-9.62,1.008-12.128,4.944V157.5
		c0.943-0.307,1.622-1.191,1.622-2.237c0-1.298-1.052-2.351-2.35-2.351c-1.3,0-2.352,1.053-2.352,2.352
		c0,1.045,0.681,1.93,1.623,2.236v4.509c-2.509-3.937-8.368-5.567-12.129-4.944c-1.564,0.26-3.069,0.797-4.469,1.561
		c-11.013,4.175-10.569,14.789-10.569,14.789c2.603,0.821,4.887-1.836,6.221-3.682c1.845-2.543,1.928-5.728,3.623-8.293
		c0.383-0.582,1.11-1.603,1.895-2.428c1.094-0.518,2.25-0.889,3.443-1.087c0.518-0.085,1.084-0.122,1.679-0.111
		c-1.587,0.993-5.297,4.038-3.416,10.015c-0.048-0.156,1.628-2.357,1.794-2.887c0.771-2.436,0.289-5.021,1.962-7.117
		c3.819,0.181,8.687,2.265,9.967,6.209v1.846c-2.25,0.479-3.017,2.434-3.758,4.336c-0.376,0.968-0.731,1.881-1.269,2.604
		c-0.652,0.878-1.593,1.404-2.578,1.445c-0.743,0.034-1.46-0.211-2.071-0.688c-0.151-0.297-0.269-0.608-0.288-0.939
		c-0.036-0.553,0.154-1.078,0.352-1.585c0.15-0.388,0.326-0.787,0.304-1.212c-0.028-0.572-0.403-1.063-1.006-1.113
		c-0.021-0.002-0.044-0.002-0.068-0.002c-0.623,0-1.182,0.713-1.26,1.637c-0.063,0.723,0.003,1.533,0.344,2.187
		c0.092,0.175,0.197,0.346,0.319,0.504c0.119,0.157,0.254,0.3,0.402,0.423c0.816,0.906,1.876,1.384,2.994,1.332
		c1.15-0.049,2.239-0.654,2.992-1.664c0.581-0.783,0.968-1.773,1.338-2.73c0.701-1.801,1.371-3.508,3.253-3.977v0.017h1.456v-0.017
		c1.883,0.469,2.554,2.176,3.252,3.977c0.373,0.957,0.758,1.947,1.338,2.73c0.753,1.01,1.843,1.615,2.993,1.664
		c1.12,0.052,2.178-0.426,2.993-1.332c0.149-0.123,0.284-0.266,0.402-0.423c0.123-0.158,0.229-0.329,0.319-0.504
		c0.339-0.653,0.406-1.464,0.346-2.187c-0.079-0.924-0.638-1.637-1.261-1.637c-0.024,0-0.047,0-0.069,0.002
		c-0.603,0.051-0.975,0.54-1.006,1.113c-0.021,0.425,0.154,0.824,0.305,1.212c0.196,0.507,0.387,1.032,0.353,1.585
		c-0.021,0.331-0.139,0.643-0.288,0.939c-0.613,0.477-1.328,0.722-2.071,0.688c-0.986-0.041-1.926-0.567-2.58-1.445
		c-0.537-0.723-0.893-1.636-1.27-2.604c-0.738-1.902-1.506-3.857-3.756-4.336v-1.846c1.28-3.944,6.146-6.028,9.966-6.209
		c1.673,2.097,1.19,4.682,1.962,7.117c0.167,0.529,1.844,2.73,1.795,2.887c1.881-5.977-1.829-9.021-3.416-10.015
		c0.595-0.011,1.161,0.026,1.678,0.111c1.193,0.198,2.35,0.569,3.445,1.087c0.782,0.825,1.51,1.846,1.895,2.428
		c1.693,2.565,1.777,5.75,3.621,8.293c1.334,1.846,3.619,4.503,6.223,3.682C148.057,173.414,148.499,162.8,137.485,158.625
		 M109.314,170.855c-0.228,0.586-0.429,1.164-0.388,1.814c0.002,0.041,0.006,0.082,0.012,0.122
		c-0.018-0.021-0.037-0.044-0.055-0.067c-0.099-0.132-0.189-0.273-0.268-0.426c-0.248-0.477-0.35-1.148-0.287-1.891
		c0.059-0.676,0.425-1.144,0.721-1.144c0.008,0,0.015,0.002,0.024,0.002c0.354,0.03,0.496,0.343,0.51,0.601
		c0.015,0.27-0.104,0.567-0.228,0.882L109.314,170.855z M130.736,169.867c0.014-0.258,0.156-0.57,0.511-0.601
		c0.009,0,0.017-0.002,0.024-0.002c0.294,0,0.662,0.468,0.721,1.144c0.063,0.742-0.039,1.414-0.286,1.891
		c-0.08,0.152-0.17,0.294-0.27,0.426c-0.018,0.023-0.035,0.046-0.054,0.067c0.006-0.04,0.01-0.081,0.012-0.122
		c0.04-0.65-0.16-1.229-0.387-1.814l-0.044-0.106C130.841,170.435,130.724,170.137,130.736,169.867"/>
</g>
</svg>
