<?xml version="1.0" encoding="utf-8"?>
<!-- Generator: Adobe Illustrator 21.0.0, SVG Export Plug-In . SVG Version: 6.00 Build 0)  -->
<svg version="1.1" id="Layer_1" xmlns="http://www.w3.org/2000/svg" xmlns:xlink="http://www.w3.org/1999/xlink" x="0px" y="0px"
	 viewBox="0 0 195.3 74.9" style="enable-background:new 0 0 195.3 74.9;" xml:space="preserve">
<style type="text/css">
	.st0{fill:#FFFFFF;}
</style>
<g>
	<g>
		<path class="st0" d="M81.4,2.6H81c0-1.2,0-2.1-0.1-2.5c0.6,0,1.4,0,2.6,0.1c1,0,1.6,0,1.9,0c0.3,0,1.2,0,2.4,0c0.9,0,1.6,0,2-0.1
			c-0.1,0.6-0.1,1.4-0.1,2.5h-0.5l-0.1-0.7c0-0.4-0.1-0.7-0.1-0.8c0-0.1,0-0.1-0.1-0.1c0,0-0.1,0-0.1-0.1c-0.1,0-0.3,0-0.8-0.1
			c-0.4,0-0.8,0-1,0h-0.9c-0.1,0.5-0.1,1.2-0.1,2v4.5c0,0.7,0,1.4,0,2c0,0.5,0.1,0.8,0.1,0.9c0.1,0.1,0.2,0.2,0.3,0.2
			c0.1,0,0.5,0.1,1.1,0.1v0.5c-0.9,0-1.6-0.1-2.1-0.1c-0.2,0-1,0-2.4,0.1v-0.5c0.6,0,1,0,1.1-0.1c0.1,0,0.2-0.1,0.3-0.2
			c0.1-0.1,0.1-0.4,0.1-0.7c0-0.1,0-0.8,0-2.2V2.8c0-0.2,0-0.5,0-0.7l0-1.3h-1.1c-0.7,0-1.2,0-1.6,0.1c-0.1,0-0.2,0-0.2,0.1
			c-0.1,0.1-0.1,0.4-0.2,0.8L81.4,2.6z"/>
		<path class="st0" d="M91.4,0.5V0l2.4,0l2.2,0v0.5c-0.6,0-1,0-1.1,0.1c-0.1,0-0.2,0.1-0.3,0.2c-0.1,0.1-0.1,0.4-0.1,0.7
			c0,0.1,0,0.8,0,2.2v1.1c1,0,2.2,0.1,3.7,0.1c1.1,0,2,0,2.7-0.1V3.7c0-0.7,0-1.4,0-2c0-0.5-0.1-0.8-0.1-0.9
			c-0.1-0.1-0.2-0.2-0.3-0.2c-0.1,0-0.5-0.1-1.1-0.1V0c1.1,0,1.9,0,2.3,0c0.2,0,0.9,0,2.2,0v0.5c-0.6,0-1,0-1.1,0.1
			c-0.1,0-0.2,0.1-0.3,0.2c-0.1,0.1-0.1,0.4-0.1,0.7c0,0.1,0,0.8,0,2.2v3.6c0,0.7,0,1.4,0,2c0,0.5,0,0.8,0.1,0.9
			c0.1,0.1,0.2,0.2,0.3,0.2c0.1,0,0.5,0.1,1.1,0.1v0.5c-1,0-1.8-0.1-2.4-0.1c-0.7,0-1.4,0-2.1,0.1v-0.5c0.6,0,1,0,1.1-0.1
			c0.1,0,0.2-0.1,0.3-0.2c0.1-0.1,0.1-0.4,0.1-0.7c0-0.1,0-0.8,0-2.2V5.5c-1.4,0-2.5,0-3.3,0c-0.8,0-1.8,0-3.1,0v1.8
			c0,0.7,0,1.4,0,2c0,0.5,0.1,0.8,0.1,0.9c0.1,0.1,0.2,0.2,0.3,0.2c0.1,0,0.5,0.1,1.1,0.1v0.5c-0.7,0-1.4-0.1-2.1-0.1
			c-0.8,0-1.6,0-2.4,0.1v-0.5c0.6,0,1,0,1.1-0.1c0.1,0,0.2-0.1,0.3-0.2c0.1-0.1,0.1-0.4,0.1-0.7c0-0.1,0-0.8,0-2.2V3.7
			c0-0.7,0-1.4,0-2c0-0.5-0.1-0.8-0.1-0.9c-0.1-0.1-0.2-0.2-0.3-0.2C92.3,0.5,92,0.5,91.4,0.5z"/>
		<path class="st0" d="M105.4,10.9v-0.5c0.5,0,0.9,0,1.1-0.1c0.1,0,0.1-0.1,0.2-0.1c0.1-0.1,0.1-0.4,0.1-0.8c0-0.7,0-1.3,0-1.8V3.7
			c0-0.7,0-1.4,0-2c0-0.5-0.1-0.8-0.1-0.9c-0.1-0.1-0.2-0.2-0.3-0.2c-0.1,0-0.5-0.1-1.1-0.1V0l2.2,0l2.3,0c1.1,0,1.9,0,2.4,0
			c0.5,0,1,0,1.4,0.1c-0.1,0.3-0.1,0.5-0.2,0.8c0,0-0.1,0.6-0.1,1.6h-0.5c0-0.5,0-1-0.1-1.4c-0.3-0.1-0.6-0.2-0.9-0.2
			c-0.6-0.1-1.1-0.1-1.7-0.1c-0.1,0-0.4,0-0.8,0c-0.4,0-0.7,0-0.9,0.1c0,0.6,0,1.1,0,1.6l0,2.6c0.6,0,1.2,0,1.7,0
			c0.6,0,1.1,0,1.6-0.1c0.2,0,0.3-0.1,0.3-0.1c0-0.1,0.1-0.3,0.1-0.6l0-0.5h0.5v0.1l0,1.6l0,1.8h-0.5l0-0.5c0-0.4,0-0.6-0.1-0.7
			c-0.1-0.1-0.2-0.2-0.3-0.2c-0.3-0.1-0.9-0.1-1.7-0.1c-0.3,0-0.8,0-1.5,0c0,0.5,0,1.3,0,2.3c0,0.9,0,1.7,0,2.2
			c0.7,0.1,1.6,0.1,2.5,0.1c0.7,0,1.1,0,1.4-0.1c0.3,0,0.5-0.1,0.8-0.2c0.1-0.2,0.1-0.4,0.2-0.6c0.1-0.5,0.2-0.8,0.2-1h0.5
			c-0.1,1-0.2,1.9-0.2,2.6c-0.4,0.1-1,0.1-1.6,0.1l-4.6-0.1C107.4,10.9,106.7,10.9,105.4,10.9z"/>
	</g>
	<g>
		<path class="st0" d="M25.9,21.4c0.4,0.3,0.7,0.5,1,0.5c0.7,0,1.1-1,1.3-3.1h1.2c-0.2,2.5-0.2,5.9-0.2,11.9H28
			c-0.7-4.4-1.1-5.8-2.6-7.6c-2.2-2.8-5.6-4-9.1-4C9.6,19,5.1,26,5.1,37.2c0,11.5,5,17.9,11.7,17.9c3.1,0,6.9-1.1,8.8-3.9
			c1.5-2,1.9-4,2.4-8.2h1.2c0,6.2,0.1,9.8,0.2,12.4h-1.2c-0.2-2.1-0.5-3-1.3-3c-0.3,0-0.6,0.2-1.1,0.4c-2.5,1.8-5.1,3.3-9.5,3.3
			C6.5,56,0,49.2,0,37.4c0-11.5,6.8-19.3,16.4-19.3C20.9,18.1,23.6,19.7,25.9,21.4z"/>
		<path class="st0" d="M69.3,52.7c-1.5,2.1-2.7,3.3-5.5,3.3c-2.6,0-4.6-1.2-5.5-5.6l-1.1-5.1c-1-4.4-1.7-7.3-5.8-7.3h-4.9v11.9
			c0,3.8,0.7,4.3,4.2,4.4v1c-1.6-0.1-4.2-0.2-6.5-0.2c-2.7,0-5.2,0.1-6.6,0.2v-1c3.5-0.2,4.2-0.7,4.2-4.4V24.3
			c0-3.8-0.7-4.3-4.2-4.4v-1c1.4,0.1,4,0.2,6.3,0.2c3.2,0,6.5-0.1,7.8-0.1c8.3,0,12.4,3.9,12.4,9c0,3.6-2.2,8.7-10,9.9l0.6,0.1
			c4.6,0.8,6.2,2.5,7.2,6.8l1.3,5.3c0.6,3,1.2,4.2,2.6,4.2c1.3,0,1.9-0.8,2.8-2L69.3,52.7z M46.4,24.3V37h3.5c7.3,0,8.9-3.8,8.9-8.6
			c0-5.4-2.3-8.6-8.6-8.6C47.1,19.8,46.4,20.7,46.4,24.3z"/>
		<path class="st0" d="M106.8,36.8c0,11.5-6.8,19.3-16.4,19.3C80.6,56,74,49.2,74,37.4c0-11.5,6.8-19.3,16.4-19.3
			C100.2,18.1,106.8,25,106.8,36.8z M79.2,37.2c0,11,5.1,18,11.4,18c6.7,0,11-7.5,11-18.2c0-11-5-18-11.4-18
			C83.5,19,79.2,26.5,79.2,37.2z"/>
		<path class="st0" d="M158.3,18.8v1c-1.4,0.3-3.1,1.3-4.1,4.5l-9.7,31.2H144c-0.2,0-0.3,0-0.4,0l-9-26.6l-8.2,26.6h-0.4
			c-0.2,0-0.3,0-0.4,0l-10.9-32.4c-0.9-2.7-2.5-3.2-3.5-3.3v-1c1.4,0.1,3.5,0.2,5.5,0.2c2.3,0,4.3-0.1,5.6-0.2v1
			c-1.8,0.1-2.5,0.6-2.5,1.8c0,0.6,0.2,1.5,0.6,2.5l7.6,23l6.2-20l-1.4-4.1c-0.9-2.7-2.1-3.2-3-3.3v-1c1.2,0.1,3.2,0.2,5,0.2
			c2.7,0,5.1-0.1,6.6-0.2v1c-2.3,0.1-3.5,0.3-3.5,1.8c0,0.6,0.2,1.4,0.5,2.5l7.4,22.9l6.4-19.9c0.6-1.7,0.8-3.1,0.8-4.2
			c0-2.3-1.4-3.1-4.4-3.2v-1c2,0.1,4.1,0.2,5.9,0.2C156.2,19,157.3,18.9,158.3,18.8z"/>
		<path class="st0" d="M195.3,19.8c-3.5,0.2-4.2,1.2-4.2,5v30.8h-1.2l-21.7-33.5v27.2c0,3.8,0.7,4.8,4.7,5v1
			c-1.2-0.1-3.5-0.2-5.3-0.2c-1.7,0-3.7,0.1-4.8,0.2v-1c3.5-0.2,4.2-1.2,4.2-5V24.3c0-3.8-0.7-4.3-4.2-4.4v-1c1.1,0.1,3,0.2,4.8,0.2
			c1.5,0,2.9-0.1,4-0.2l18.2,28V24.8c0-3.8-0.7-4.8-4.7-5v-1c1.2,0.1,3.5,0.2,5.3,0.2c1.7,0,3.7-0.1,4.8-0.2V19.8z"/>
	</g>
	<g>
		<path class="st0" d="M50.5,70.5c0-2.6,1.9-4.4,4.4-4.4c1.5,0,2.6,0.7,3.2,1.7l-0.9,0.5c-0.5-0.7-1.4-1.2-2.4-1.2
			c-1.9,0-3.3,1.4-3.3,3.5c0,2,1.4,3.5,3.3,3.5c1,0,1.9-0.5,2.4-1.2l0.9,0.5c-0.7,1-1.7,1.7-3.3,1.7C52.5,74.9,50.5,73.1,50.5,70.5z
			"/>
		<path class="st0" d="M61.4,70.5c0-2.5,1.7-4.4,4.2-4.4c2.5,0,4.3,1.9,4.3,4.4c0,2.5-1.7,4.4-4.3,4.4C63.1,74.9,61.4,73,61.4,70.5z
			 M68.7,70.5c0-2-1.2-3.5-3.2-3.5c-1.9,0-3.1,1.5-3.1,3.5c0,2,1.2,3.5,3.1,3.5C67.5,73.9,68.7,72.4,68.7,70.5z"/>
		<path class="st0" d="M73.5,74.7v-8.5h1.1v7.6h4v0.9H73.5z"/>
		<path class="st0" d="M82,74.7v-8.5h1.1v7.6h4v0.9H82z"/>
		<path class="st0" d="M90.7,74.7v-8.5h5.6v0.9h-4.5v2.8h4.4v0.9h-4.4v2.9h4.5v0.9H90.7z"/>
		<path class="st0" d="M99.8,70.5c0-2.6,1.9-4.4,4.4-4.4c1.5,0,2.6,0.7,3.2,1.7l-0.9,0.5c-0.5-0.7-1.4-1.2-2.4-1.2
			c-1.9,0-3.3,1.4-3.3,3.5c0,2,1.4,3.5,3.3,3.5c1,0,1.9-0.5,2.4-1.2l0.9,0.5c-0.7,1-1.7,1.7-3.3,1.7C101.7,74.9,99.8,73.1,99.8,70.5
			z"/>
		<path class="st0" d="M113.1,74.7v-7.6h-2.7v-0.9h6.5v0.9h-2.7v7.6H113.1z"/>
		<path class="st0" d="M120.5,74.7v-8.5h1.1v8.5H120.5z"/>
		<path class="st0" d="M125.4,70.5c0-2.5,1.7-4.4,4.2-4.4c2.5,0,4.3,1.9,4.3,4.4c0,2.5-1.7,4.4-4.3,4.4
			C127.1,74.9,125.4,73,125.4,70.5z M132.7,70.5c0-2-1.2-3.5-3.2-3.5c-1.9,0-3.1,1.5-3.1,3.5c0,2,1.2,3.5,3.1,3.5
			C131.5,73.9,132.7,72.4,132.7,70.5z"/>
		<path class="st0" d="M143.7,74.7l-5-6.8v6.8h-1.1v-8.5h1.1l4.9,6.7v-6.7h1.1v8.5H143.7z"/>
	</g>
</g>
</svg>
