<?xml version="1.0" encoding="utf-8"?>
<!-- Generator: Adobe Illustrator 16.0.0, SVG Export Plug-In . SVG Version: 6.00 Build 0)  -->
<!DOCTYPE svg PUBLIC "-//W3C//DTD SVG 1.1//EN" "http://www.w3.org/Graphics/SVG/1.1/DTD/svg11.dtd">
<svg version="1.1" id="Layer_1" xmlns="http://www.w3.org/2000/svg" xmlns:xlink="http://www.w3.org/1999/xlink" x="0px" y="0px"
	 width="214.083px" height="74.128px" viewBox="0 0 214.083 74.128" enable-background="new 0 0 214.083 74.128"
	 xml:space="preserve">
<g>
	<path fill="#FFFFFF" d="M8.208,48.466c-0.688,0.176-1.451,0.266-2.283,0.266c-1.859,0-3.303-0.566-4.33-1.7
		C0.531,45.917,0,44.375,0,42.41c0-2.18,0.638-4.357,1.913-6.535c0.638-1.098,1.377-2.134,2.218-3.108
		c0.842-0.974,1.811-1.895,2.909-2.763c2.144-1.717,4.551-3.081,7.226-4.091c2.691-1.009,5.401-1.514,8.13-1.514
		c3.522,0,5.958,1.125,7.304,3.373c1.027-0.902,2.232-1.717,3.613-2.443c1.361-0.692,2.426-1.036,3.187-1.036
		c1.117,0,1.674,0.469,1.674,1.408c0,1.009-0.761,2.196-2.283,3.56c-0.64,0.583-1.355,1.132-2.152,1.646
		c-0.797,0.55-1.877,1.16-3.241,1.833l-0.159,0.053c-0.301,1.842-1.001,3.746-2.099,5.711c-1.116,1.984-2.515,3.862-4.198,5.633
		c-1.645,1.752-3.425,3.197-5.338,4.33l-0.053,0.159c-0.655,1.487-1.505,3.134-2.551,4.941c-1.026,1.806-1.904,3.134-2.631,3.983
		c0.055-0.035,0.435-0.38,1.144-1.035c0.105-0.088,0.252-0.213,0.437-0.373c0.188-0.16,0.347-0.291,0.479-0.397
		c0.134-0.106,0.235-0.194,0.306-0.267l2.604-2.284l2.867-2.576l2.524-2.045c1.133-1.027,2.054-1.771,2.763-2.231
		c0.461-1.24,0.971-2.426,1.528-3.56c0.557-1.134,1.253-2.356,2.085-3.666c1.452-2.267,2.94-4.109,4.462-5.526
		c1.505-1.399,2.809-2.098,3.907-2.098c0.902,0,1.353,0.451,1.353,1.354c0,1.399-1.089,3.214-3.267,5.447
		c-1.806,1.84-4.508,4.196-8.102,7.064l-0.266,0.16c-0.036,0.088-0.072,0.168-0.105,0.238c-0.037,0.072-0.064,0.133-0.08,0.187
		c0,0.019-0.015,0.04-0.04,0.067c-0.027,0.026-0.049,0.058-0.067,0.094l-0.69,2.017c-0.902,2.197-1.832,4.269-2.789,6.218
		c-0.336,0.708-0.947,1.717-1.833,3.027c-0.23,0.247-0.397,0.47-0.504,0.665l-0.159,0.212c0.069-0.053,0.485-0.398,1.247-1.036
		c0.16-0.159,0.293-0.282,0.398-0.372c0.143-0.142,0.354-0.328,0.638-0.558c1.486-1.294,2.542-2.222,3.161-2.789
		c0.832-0.779,1.771-1.691,2.815-2.736c2.178-2.178,5.03-5.136,8.554-8.872c7.119-7.687,12.326-12.893,15.62-15.62
		c1.152-0.992,2.32-1.878,3.506-2.656c1.117-0.727,2.136-1.258,3.057-1.595c0.886-0.319,1.708-0.478,2.47-0.478
		c0.814,0,1.47,0.204,1.966,0.611c0.46,0.426,0.69,0.983,0.69,1.674c0,0.566-0.187,1.212-0.559,1.939l-0.529-0.266
		c0.282-0.549,0.424-1.089,0.424-1.62c0-1.169-0.707-1.754-2.124-1.754c-1.824,0-4.27,1.196-7.333,3.587
		c-0.727,0.567-1.539,1.248-2.444,2.045c-0.903,0.797-1.85,1.664-2.841,2.603c-0.993,0.939-2.219,2.156-3.68,3.653
		c-1.46,1.497-2.607,2.688-3.439,3.573l-4.464,4.728c-0.425,0.443-1.015,1.063-1.766,1.86c-0.755,0.797-1.617,1.709-2.592,2.737
		c-2.443,2.549-3.814,3.975-4.116,4.275c-0.55,0.549-1.347,1.311-2.391,2.284c-1.045,0.976-2.249,2.063-3.613,3.269
		c-0.07,0.052-0.213,0.186-0.425,0.397c-0.089,0.089-0.194,0.187-0.319,0.293c-0.123,0.106-0.292,0.239-0.504,0.398
		c-0.639,0.584-1.071,0.965-1.303,1.143l-1.248,1.036l-1.249,1.141l-0.265,0.16l-0.293-0.265c1.47-1.524,2.631-3.127,3.48-4.81
		c0.902-1.629,1.779-3.551,2.631-5.764c0.494-1.451,0.858-2.559,1.088-3.322l-0.451,0.4L24.04,49.05l-2.496,2.071
		c-0.654,0.532-1.602,1.347-2.842,2.445l-2.604,2.284c-1.506,1.345-2.472,2.231-2.896,2.656c-1.081,0.991-1.603,1.488-1.567,1.488
		l-0.823,0.93c-0.071,0.069-0.16,0.176-0.268,0.318l-0.371-0.398l0.267-0.267c1.363-1.505,2.532-3.054,3.507-4.647
		c0.973-1.612,1.868-3.489,2.682-5.633l0.16-0.425l0.187-0.45c-1.1,0.53-2.071,0.911-2.922,1.141
		c-0.763,0.23-1.656,0.346-2.684,0.346c-0.868,0-1.577-0.221-2.125-0.664C8.677,49.821,8.332,49.228,8.208,48.466 M8.104,47.908
		l0.053-0.053c0.089-1.151,0.61-2.364,1.567-3.639c0.955-1.258,2.337-2.552,4.145-3.879c1.805-1.328,3.762-2.471,5.87-3.427
		l0.106-0.107l0.052-0.159c0.25-0.744,0.373-1.417,0.373-2.019c0-0.407-0.071-0.823-0.212-1.248
		c-0.125-0.408-0.311-0.727-0.56-0.957c-0.248-0.248-0.557-0.434-0.929-0.558c-0.425-0.141-0.833-0.213-1.223-0.213
		c-1.559,0-3.116,0.488-4.676,1.462c-1.521,0.956-2.813,2.276-3.878,3.958l-0.478-0.212c1.025-1.683,2.382-3.073,4.064-4.171
		c1.683-1.063,3.337-1.594,4.967-1.594c1.116,0,1.976,0.319,2.576,0.956c0.604,0.621,0.904,1.497,0.904,2.631
		c0,0.673-0.089,1.275-0.266,1.805l0.158-0.053c0.655-0.318,1.506-0.681,2.551-1.088h0.105l0.107-0.213
		c1.629-2.656,3.515-4.959,5.658-6.907l0.105-0.053c-1.116-2.143-3.365-3.214-6.747-3.214c-1.628,0-3.33,0.249-5.1,0.744
		c-1.771,0.495-3.524,1.204-5.26,2.124c-1.789,0.957-3.409,2.064-4.861,3.321c-2.02,1.665-3.64,3.552-4.862,5.658
		c-1.222,2.09-1.832,4.012-1.832,5.765s0.469,3.125,1.409,4.116c0.938,0.992,2.248,1.488,3.931,1.488
		C6.614,48.173,7.341,48.084,8.104,47.908 M8.74,48.28c0.16,1.417,1.071,2.126,2.735,2.126c1.542,0,3.083-0.398,4.623-1.196
		l0.53-0.266c0.336-0.142,0.559-0.229,0.664-0.265l0.213-0.664l0.214-0.586c1.539-3.754,2.506-6.039,2.896-6.853
		c0.601-1.364,1.363-2.833,2.283-4.41l0.055-0.107l-0.161,0.107c-0.566,0.195-1.311,0.495-2.23,0.903l-0.213,0.133
		c-0.655,1.646-1.584,3.25-2.789,4.809c-1.223,1.541-2.576,2.842-4.063,3.905C12.061,46.978,10.476,47.767,8.74,48.28 M8.74,47.696
		c2.373-0.744,4.543-2.054,6.508-3.931c1.984-1.879,3.427-3.941,4.331-6.19l-0.106,0.053l-1.808,0.931
		c-1.31,0.672-2.475,1.385-3.493,2.138s-1.925,1.536-2.721,2.351C9.857,44.659,8.952,46.208,8.74,47.696 M29.699,33.112l-0.16,0.053
		c-0.583,0.265-1.053,0.497-1.408,0.691c-0.316,0.159-0.485,0.239-0.504,0.239l-2.125,0.877l-0.584,0.265
		c-0.105,0.036-0.189,0.066-0.253,0.093c-0.062,0.027-0.097,0.045-0.105,0.053c-0.01,0.01-0.021,0.013-0.04,0.013l-0.158,0.266
		l-1.036,2.232c-1.011,2.038-2.082,4.409-3.215,7.12l-0.479,1.274l-0.505,1.249c0.975-0.674,1.853-1.352,2.63-2.033
		c0.78-0.682,1.541-1.421,2.284-2.218c1.454-1.558,2.692-3.25,3.719-5.074C28.734,36.477,29.38,34.777,29.699,33.112 M29.487,28.703
		l-0.134,0.105l-0.425,0.453c-1.31,1.31-2.541,2.939-3.692,4.887c-0.106,0.213-0.196,0.355-0.267,0.425l0.372-0.107
		c1.472-0.602,2.888-1.239,4.251-1.912l0.213-0.107c0.069-0.637,0.105-1.088,0.105-1.354C29.911,30.189,29.771,29.393,29.487,28.703
		 M28.716,44.587c0.125-0.123,0.204-0.195,0.24-0.212c0.035-0.019,0.08-0.054,0.132-0.106l0.984-0.824l1.753-1.46
		c1.079-0.869,2.55-2.214,4.41-4.038c0.584-0.585,1.124-1.213,1.62-1.887c0.405-0.548,0.769-1.16,1.089-1.833
		c0.284-0.565,0.424-1.026,0.424-1.381c0-0.548-0.327-0.822-0.982-0.822c-0.742,0-1.664,0.459-2.764,1.38
		c-1.115,0.904-2.15,2.055-3.106,3.454c-0.69,1.026-1.354,2.195-1.992,3.506C29.92,41.533,29.318,42.941,28.716,44.587
		 M30.019,28.17l-0.107,0.107c0.355,0.902,0.533,1.877,0.533,2.921c0,0.337-0.02,0.664-0.055,0.983l0.187-0.107
		c2.108-1.044,3.807-2.159,5.101-3.346c1.312-1.204,1.967-2.214,1.967-3.028c0-0.602-0.399-0.904-1.196-0.904
		c-0.744,0-1.718,0.31-2.922,0.93C32.355,26.347,31.188,27.161,30.019,28.17"/>
	<path fill="#FFFFFF" d="M49.836,48.679l0.317,0.318l-0.212,0.318c-1.895,2.268-3.834,4.117-5.818,5.552
		c-1.981,1.417-3.585,2.126-4.807,2.126c-0.744,0-1.347-0.266-1.807-0.798c-0.461-0.513-0.691-1.203-0.691-2.071
		c0-2.621,1.94-5.508,5.818-8.66c1.133-0.939,2.294-1.728,3.479-2.364c1.204-0.638,2.152-0.957,2.843-0.957
		c0.797,0,1.195,0.312,1.195,0.93c0,0.567-0.451,1.267-1.354,2.101c-0.939,0.832-2.144,1.629-3.613,2.389
		c-1.594,0.814-3.17,1.436-4.729,1.861l-0.267,0.053c-1.665,2.213-2.497,3.939-2.497,5.18c0,1.169,0.559,1.753,1.673,1.753
		c0.729,0,1.693-0.336,2.898-1.01c1.132-0.638,2.407-1.575,3.824-2.815C47.453,51.378,48.701,50.078,49.836,48.679 M40.671,48.89
		c1.363-0.424,2.718-1.008,4.063-1.754c1.312-0.689,2.409-1.424,3.295-2.203c0.832-0.727,1.248-1.311,1.248-1.754
		c0-0.336-0.194-0.504-0.584-0.504c-0.32,0-0.761,0.142-1.329,0.425c-0.514,0.266-1.053,0.602-1.621,1.009
		c-1.045,0.762-2.01,1.568-2.895,2.418S41.236,48.166,40.671,48.89"/>
	<path fill="#FFFFFF" d="M57.272,36.857h-0.557c0.23-1.771,1.018-3.675,2.365-5.712c0.866-1.274,1.805-2.373,2.814-3.293
		c0.974-0.921,2.02-1.683,3.135-2.286c1.026-0.548,1.957-0.823,2.789-0.823c1.559,0,2.339,0.869,2.339,2.603
		c0,2.781-1.56,6.606-4.678,11.478c-0.813,1.293-1.704,2.594-2.669,3.904c-0.966,1.311-1.947,2.551-2.949,3.719
		c-1,1.168-2.009,2.285-3.026,3.348c-1.019,1.063-2.139,2.143-3.361,3.24c-2.886,2.604-4.94,3.904-6.163,3.904
		c-0.406,0-0.699-0.141-0.877-0.424c-0.213-0.266-0.318-0.628-0.318-1.09c0-0.938,0.47-2.188,1.407-3.744
		c0.903-1.471,2.081-2.904,3.533-4.305c1.472-1.398,3.021-2.604,4.65-3.611c1.628-1.011,2.824-1.516,3.586-1.516
		c0.76,0,1.141,0.363,1.141,1.09c0,0.283-0.035,0.559-0.104,0.823l0.16-0.293l1.406-1.779c5.081-6.818,7.623-11.715,7.623-14.69
		c0-1.381-0.584-2.072-1.753-2.072c-0.956,0-1.974,0.328-3.054,0.983c-1.08,0.656-2.152,1.567-3.214,2.736
		c-1.081,1.187-1.976,2.435-2.685,3.745C58.088,34.122,57.575,35.477,57.272,36.857 M46.78,55.638c0,0.514,0.214,0.77,0.638,0.77
		c0.514,0,1.373-0.432,2.578-1.301c1.256-0.92,2.594-2.09,4.011-3.506c1.734-1.683,3.151-3.295,4.25-4.836
		c1.044-1.504,1.567-2.611,1.567-3.32c0-0.426-0.178-0.637-0.531-0.637c-0.709,0-1.904,0.654-3.586,1.965
		c-1.665,1.295-3.339,2.86-5.021,4.703C48.082,52.308,46.78,54.363,46.78,55.638"/>
	<path fill="#FFFFFF" d="M68.589,36.857h-0.557c0.23-1.771,1.018-3.675,2.365-5.712c0.866-1.274,1.805-2.373,2.814-3.293
		c0.974-0.921,2.02-1.683,3.135-2.286c1.026-0.548,1.957-0.823,2.789-0.823c1.559,0,2.339,0.869,2.339,2.603
		c0,2.781-1.561,6.606-4.678,11.478c-0.813,1.293-1.704,2.594-2.669,3.904c-0.966,1.311-1.947,2.551-2.949,3.719
		c-1,1.168-2.009,2.285-3.026,3.348c-1.019,1.063-2.139,2.143-3.361,3.24c-2.886,2.604-4.94,3.904-6.163,3.904
		c-0.406,0-0.699-0.141-0.877-0.424c-0.213-0.266-0.318-0.628-0.318-1.09c0-0.938,0.469-2.188,1.407-3.744
		c0.903-1.471,2.081-2.904,3.533-4.305c1.472-1.398,3.021-2.604,4.65-3.611c1.628-1.011,2.824-1.516,3.586-1.516
		c0.76,0,1.141,0.363,1.141,1.09c0,0.283-0.035,0.559-0.104,0.823l0.158-0.293l1.408-1.779c5.081-6.818,7.623-11.715,7.623-14.69
		c0-1.381-0.584-2.072-1.753-2.072c-0.956,0-1.974,0.328-3.054,0.983c-1.081,0.656-2.153,1.567-3.214,2.736
		c-1.081,1.187-1.977,2.435-2.685,3.745C69.404,34.122,68.892,35.477,68.589,36.857 M58.097,55.638c0,0.514,0.213,0.77,0.638,0.77
		c0.514,0,1.372-0.432,2.577-1.301c1.257-0.92,2.594-2.09,4.012-3.506c1.734-1.683,3.151-3.295,4.25-4.836
		c1.044-1.504,1.567-2.611,1.567-3.32c0-0.426-0.178-0.637-0.531-0.637c-0.709,0-1.904,0.654-3.586,1.965
		c-1.665,1.295-3.339,2.86-5.022,4.703C59.398,52.308,58.097,54.363,58.097,55.638"/>
	<path fill="#FFFFFF" d="M78.206,48.731l0.345,0.267c-0.229,0.266-0.469,0.558-0.717,0.877c-0.319,0.408-0.753,0.912-1.302,1.514
		c-1.912,2.09-3.239,3.436-3.984,4.037c-1.044,0.939-1.93,1.408-2.657,1.408c-0.832,0-1.248-0.416-1.248-1.248
		c0-0.637,0.327-1.532,0.983-2.684c0.548-0.974,1.088-1.851,1.62-2.629c0.992-1.398,2.302-3.188,3.931-5.367
		c0.656-0.85,1.197-1.576,1.621-2.178l0.16-0.213l1.382-0.053l-0.241,0.266c-0.089,0.105-0.796,1.07-2.125,2.896
		c-0.529,0.707-0.849,1.133-0.957,1.274c-0.123,0.159-0.414,0.53-0.875,1.115c-3.259,4.269-4.887,6.827-4.887,7.678
		c0,0.39,0.211,0.584,0.636,0.584c0.904,0,2.32-1.009,4.251-3.028c0.531-0.531,1.549-1.656,3.056-3.373
		c0.282-0.319,0.433-0.487,0.45-0.506c0.036-0.035,0.125-0.141,0.266-0.318C78.056,48.91,78.153,48.802,78.206,48.731 M82.402,37.07
		c-0.018,0.372-0.178,0.716-0.478,1.036c-0.284,0.336-0.576,0.505-0.877,0.505c-0.371,0-0.557-0.169-0.557-0.505
		c0-0.39,0.158-0.752,0.478-1.089c0.301-0.355,0.602-0.532,0.903-0.532C82.225,36.485,82.402,36.68,82.402,37.07"/>
	<path fill="#FFFFFF" d="M95.287,48.679l0.396,0.318l-0.396,0.426c-2.231,2.674-4.118,4.64-5.658,5.896
		c-1.417,1.151-2.561,1.727-3.427,1.727c-0.976,0-1.463-0.504-1.463-1.515c0-0.991,0.852-2.426,2.552-4.304l3.932-4.25
		c1.38-1.487,2.072-2.594,2.072-3.32c0-0.23-0.088-0.406-0.267-0.531c-0.193-0.142-0.397-0.213-0.61-0.213
		c-0.956,0-2.585,1.027-4.889,3.082c-1.754,1.576-3.135,2.993-4.143,4.25c-1.241,1.541-2.242,2.852-3.002,3.932l-1.781,2.498
		l-0.026,0.025c-0.019,0.018-0.03,0.036-0.039,0.053c-0.01,0.019-0.022,0.035-0.04,0.054c-0.019,0.019-0.036,0.036-0.054,0.054
		c-0.017,0.018-0.045,0.044-0.08,0.079h-1.248l6.961-9.696c1.274-1.736,1.911-2.912,1.911-3.533c0-0.283-0.053-0.486-0.157-0.61
		c-0.125-0.124-0.303-0.187-0.533-0.187c-0.389,0-0.867,0.205-1.434,0.611c-0.585,0.443-1.399,1.213-2.443,2.311
		c-1.152,1.24-2.277,2.516-3.374,3.826l-0.159,0.159l-0.372-0.345l0.16-0.107c0.654-0.814,1.141-1.39,1.46-1.726
		c1.913-2.144,3.266-3.542,4.064-4.198c0.797-0.691,1.496-1.035,2.098-1.035c0.354,0,0.654,0.123,0.904,0.372
		c0.229,0.229,0.346,0.539,0.346,0.929c0,0.992-0.532,2.303-1.596,3.933c1.063-1.116,2.171-2.117,3.321-3.002
		c1.861-1.487,3.276-2.231,4.25-2.231c0.442,0,0.807,0.143,1.089,0.424c0.282,0.285,0.427,0.656,0.427,1.117
		c0,1.115-0.977,2.744-2.923,4.887l-3.532,3.853c-1.349,1.417-2.021,2.453-2.021,3.106c0,0.479,0.231,0.719,0.691,0.719
		c0.441,0,1.07-0.256,1.886-0.77c0.833-0.549,1.637-1.188,2.417-1.914c1.311-1.221,2.78-2.815,4.411-4.781L95.287,48.679z"/>
	<path fill="#FFFFFF" d="M95.897,60.208l-0.106,0.054c-0.955,1.789-2.027,3.532-3.214,5.232c-1.044,1.594-2.24,3.046-3.586,4.357
		c-1.328,1.31-2.657,2.354-3.985,3.134c-1.292,0.762-2.399,1.144-3.32,1.144c-0.514,0-0.911-0.144-1.194-0.426
		c-0.283-0.284-0.426-0.684-0.426-1.197c0-0.92,0.469-1.921,1.406-3.002c0.656-0.725,1.542-1.513,2.659-2.363
		c1.132-0.85,2.735-1.912,4.807-3.188l2.656-1.62c0.072-0.053,0.222-0.155,0.452-0.306c0.231-0.151,0.38-0.244,0.452-0.279
		c0.283-0.177,0.565-0.363,0.848-0.558c0.517-0.318,0.913-0.558,1.197-0.718l0.318-0.158c0.726-1.364,1.575-2.816,2.551-4.356
		c0.372-0.585,0.594-0.938,0.665-1.063c0.317-0.549,0.495-0.85,0.529-0.902c0.054-0.07,0.195-0.301,0.426-0.691
		c0.105-0.177,0.182-0.301,0.225-0.371c0.045-0.071,0.084-0.151,0.121-0.239l0.213-0.318l-0.266,0.265
		c-1.754,1.647-3.26,2.842-4.517,3.586c-0.779,0.515-1.398,0.771-1.859,0.771c-0.975,0-1.461-0.54-1.461-1.621
		c0-0.85,0.434-1.975,1.301-3.373c0.869-1.453,1.905-2.763,3.108-3.932c1.683-1.646,3.532-3.037,5.553-4.17
		c2.036-1.135,3.682-1.701,4.94-1.701c0.585,0,1.019,0.115,1.302,0.346c0.302,0.248,0.45,0.602,0.45,1.063
		c0,0.425-0.148,0.982-0.45,1.673c-0.318,0.674-0.734,1.294-1.248,1.858l-0.479-0.317c1.044-1.151,1.569-2.187,1.569-3.108
		c0-0.654-0.381-0.982-1.144-0.982c-1.293,0-2.94,0.682-4.94,2.045c-2.021,1.398-4.003,3.207-5.951,5.419
		c-0.956,1.151-1.717,2.215-2.284,3.188c-0.603,1.027-0.903,1.779-0.903,2.258c0,0.549,0.194,0.824,0.583,0.824
		c0.532,0,1.357-0.398,2.473-1.195c1.079-0.744,2.249-1.746,3.506-3.002l1.221-1.196c0.248-0.247,0.567-0.593,0.957-1.035
		c0.195-0.248,0.292-0.39,0.292-0.425l0.479-0.719c0.584-0.991,1.223-1.858,1.911-2.603c0.639-0.69,1.125-1.036,1.463-1.036
		c0.141,0,0.212,0.088,0.212,0.266c0,0.371-0.398,1.01-1.196,1.912c-1.222,1.383-2.161,2.375-2.816,2.977
		c-0.246,0.3-0.345,0.451-0.292,0.451l-0.849,1.408l-1.197,2.125l-1.141,1.886c-0.337,0.62-0.736,1.364-1.197,2.231l-0.451,0.771
		l-0.052,0.159l0.159-0.106c1.841-1.239,3.613-2.665,5.312-4.276c0.64-0.603,1.516-1.514,2.63-2.736
		c1.116-1.223,2.082-2.328,2.896-3.32l0.265-0.318l0.372,0.318l-0.265,0.318c-0.974,1.203-1.957,2.355-2.948,3.453
		c-0.904,1.01-1.859,1.992-2.871,2.949c-1.132,1.045-2.124,1.887-2.974,2.523C97.696,59.039,96.729,59.694,95.897,60.208
		 M93.985,61.668l0.267-0.372c-0.09,0.035-0.178,0.08-0.267,0.133c-0.091,0.054-0.222,0.123-0.397,0.213
		c-0.266,0.158-0.878,0.531-1.834,1.115l-2.657,1.646c-2.814,1.719-4.931,3.25-6.349,4.596c-1.435,1.364-2.152,2.516-2.152,3.453
		c0,0.762,0.365,1.143,1.09,1.143c0.921,0,1.976-0.408,3.16-1.222c1.153-0.762,2.417-1.903,3.799-3.427
		c1.276-1.417,2.587-3.135,3.933-5.153L93.985,61.668z"/>
	<path fill="#FFFFFF" d="M143.926,28.649l-0.104,0.053c1.414,1.204,2.125,2.762,2.125,4.675c0,1.771-0.559,3.551-1.675,5.339
		c-1.099,1.754-2.522,3.092-4.277,4.012l-0.211-0.425c1.043-0.532,1.99-1.292,2.841-2.284c0.85-0.974,1.523-2.055,2.02-3.242
		c0.494-1.15,0.744-2.284,0.744-3.4c0-0.938-0.186-1.789-0.558-2.551c-0.356-0.743-0.877-1.363-1.567-1.858l-0.161,0.106
		c-2.69,1.328-5.275,3.01-7.757,5.047c-1.292,1.045-2.491,2.129-3.597,3.254c-1.109,1.124-2.132,2.253-3.071,3.387
		c-1.911,2.373-3.382,4.738-4.407,7.093l-0.054,0.16c1.505,2.035,3.87,3.053,7.091,3.053c3.597,0,7.714-1.248,12.354-3.744
		c0.621-0.319,1.143-0.61,1.568-0.877l1.567-2.178c1.168-1.541,1.771-2.338,1.804-2.391c0.497-0.637,0.86-1.116,1.091-1.434
		c1.15-1.453,2.329-2.839,3.532-4.159c1.204-1.318,2.269-2.403,3.189-3.253c2.105-1.948,3.621-2.923,4.541-2.923
		c0.338,0,0.603,0.09,0.799,0.266c0.194,0.195,0.292,0.434,0.292,0.717c0,1.347-1.621,3.578-4.862,6.694
		c-1.542,1.488-3.112,2.874-4.715,4.156c-1.603,1.285-3.254,2.477-4.955,3.574c-1.31,1.93-2.479,3.506-3.504,4.729
		c-1.117,1.328-2.472,2.763-4.065,4.304c-2.036,1.983-4.039,3.479-6.005,4.489c-2.018,1.063-3.878,1.594-5.577,1.594
		c-1.896,0-3.355-0.646-4.384-1.939c-1.063-1.274-1.593-3.055-1.593-5.338c0-1.984,0.326-3.869,0.981-5.658
		c-0.763-1.295-1.144-2.834-1.144-4.623c0-2.551,0.826-5.049,2.473-7.492c0.796-1.169,1.742-2.261,2.843-3.279
		c1.097-1.019,2.293-1.9,3.585-2.644c2.621-1.506,5.297-2.258,8.023-2.258c1.681,0,3.036,0.31,4.063,0.929l0.105-0.052
		c1.736-0.832,3.524-1.559,5.367-2.179c1.699-0.567,3.426-1.009,5.179-1.328c1.595-0.283,3.233-0.424,4.916-0.424
		c1.752,0,3.25,0.239,4.489,0.716c1.222,0.496,2.16,1.222,2.816,2.179c0.637,0.956,0.955,2.098,0.955,3.426
		c0,1.772-0.603,3.577-1.806,5.42c-1.171,1.789-2.755,3.346-4.755,4.675c-2.002,1.328-4.004,2.134-6.004,2.417
		c1.099,0.249,1.976,0.797,2.63,1.647c0.671,0.886,1.01,1.913,1.01,3.081c0,1.363-0.398,2.808-1.194,4.33
		c-0.817,1.541-1.878,2.94-3.189,4.197c-1.294,1.275-2.719,2.293-4.277,3.055c-1.507,0.762-2.966,1.143-4.384,1.143
		c-0.901,0-1.637-0.265-2.203-0.797c-0.566-0.514-0.851-1.223-0.851-2.125c0-1.027,0.335-2.195,1.009-3.507
		c0.674-1.293,1.604-2.505,2.789-3.64c0.939-0.938,1.941-1.683,3.002-2.23c1.045-0.532,2.012-0.797,2.896-0.797
		c0.621,0,1.105,0.15,1.462,0.451c0.353,0.301,0.53,0.727,0.53,1.274c0,0.835-0.371,1.824-1.115,2.976
		c-0.762,1.17-1.64,2.135-2.63,2.896l-0.321-0.372c1.082-0.851,1.942-1.78,2.579-2.79c0.673-1.044,1.008-1.93,1.008-2.656
		c0-0.867-0.521-1.301-1.565-1.301c-0.851,0-1.746,0.247-2.683,0.743c-0.957,0.495-1.895,1.231-2.815,2.205
		c-2.394,2.392-3.587,4.622-3.587,6.694c0,1.629,0.831,2.443,2.495,2.443c1.152,0,2.437-0.408,3.854-1.222
		c1.451-0.851,2.763-1.913,3.931-3.188c1.204-1.256,2.188-2.717,2.949-4.383c0.779-1.699,1.168-3.195,1.168-4.49
		c0-1.078-0.38-1.922-1.142-2.522c-0.763-0.603-1.868-0.903-3.319-0.903c-0.143,0-0.266,0.018-0.373,0.053h-0.319l0.213-0.426
		c1.046-0.052,2.082-0.211,3.108-0.477c1.063-0.248,2-0.566,2.817-0.957c1.451-0.689,2.788-1.682,4.011-2.975
		c1.204-1.275,2.16-2.709,2.868-4.303c0.707-1.541,1.063-3.046,1.063-4.517c0-3.258-2.443-4.887-7.333-4.887
		c-2.054,0-4.34,0.31-6.853,0.93c-2.409,0.584-4.755,1.417-7.04,2.496L143.926,28.649z M123.631,47.031
		c0.886-2.283,2.24-4.559,4.065-6.826c1.822-2.249,4.002-4.365,6.533-6.349c0.977-0.761,1.847-1.404,2.616-1.926
		c0.772-0.522,1.702-1.098,2.789-1.727c1.091-0.628,2.026-1.128,2.803-1.5l0.187-0.106c-0.99-0.444-2.115-0.665-3.373-0.665
		c-1.983,0-3.977,0.425-5.979,1.275c-1.982,0.851-3.764,1.993-5.339,3.427c-1.611,1.505-2.868,3.144-3.77,4.914
		c-0.94,1.843-1.408,3.666-1.408,5.472C122.756,44.597,123.048,45.933,123.631,47.031 M123.95,48.572l-0.055,0.16
		c-0.619,1.699-0.929,3.33-0.929,4.888c0,2.001,0.487,3.577,1.461,4.728c0.992,1.17,2.302,1.754,3.933,1.754
		c1.506,0,3.091-0.398,4.755-1.195c1.63-0.762,3.179-1.852,4.646-3.268c0.994-0.92,1.923-1.939,2.789-3.055
		c0.107-0.143,0.269-0.35,0.479-0.625c0.213-0.273,0.642-0.832,1.289-1.673s1.341-1.74,2.084-2.696l0.056-0.107l-0.108,0.055
		c-1.806,0.974-3.425,1.744-4.859,2.311c-1.437,0.584-2.825,1.01-4.172,1.274c-1.311,0.284-2.646,0.426-4.013,0.426
		c-1.045,0-2.017-0.106-2.92-0.319c-0.904-0.177-1.718-0.494-2.444-0.955S124.551,49.246,123.95,48.572 M148.655,43.951
		l-0.213,0.318l0.213-0.16c4.587-3.312,8.188-6.508,10.811-9.589c1.346-1.576,2.02-2.7,2.02-3.374c0-0.354-0.177-0.53-0.532-0.53
		c-0.939,0-2.646,1.266-5.126,3.797c-1.187,1.241-2.338,2.604-3.453,4.092C151.295,39.904,150.054,41.718,148.655,43.951"/>
	<path fill="#FFFFFF" d="M175.483,48.679l0.372,0.318c-1.31,1.522-2.655,3.047-4.038,4.568c-1.169,1.223-2.07,2.064-2.709,2.523
		c-0.654,0.496-1.238,0.744-1.753,0.744c-0.354,0-0.655-0.123-0.903-0.371c-0.229-0.231-0.345-0.541-0.345-0.931
		c0-0.813,0.479-2.054,1.435-3.718l-0.347,0.291c-0.973,1.045-2.168,2.17-3.586,3.374c-1.362,1.045-2.398,1.567-3.107,1.567
		c-0.442,0-0.797-0.16-1.063-0.479c-0.265-0.3-0.397-0.699-0.397-1.195c0-0.885,0.328-1.922,0.982-3.107
		c0.637-1.169,1.54-2.365,2.709-3.586c1.488-1.577,3.241-3.047,5.26-4.41c1.947-1.346,3.339-2.02,4.171-2.02
		c0.762,0,1.143,0.398,1.143,1.195c0,0.125-0.053,0.364-0.16,0.717l1.196-1.646h1.354c-0.143,0.23-0.214,0.328-0.214,0.293
		l-0.822,1.063l-0.93,1.274l-0.665,0.851l-4.674,6.481c-1.081,1.47-1.622,2.506-1.622,3.108c0,0.496,0.213,0.744,0.639,0.744
		c0.53,0,1.318-0.47,2.363-1.408c1.541-1.435,3.329-3.392,5.368-5.871L175.483,48.679z M159.705,55.532
		c0,0.655,0.267,0.983,0.797,0.983c0.797,0,2.135-0.823,4.013-2.471c1.912-1.664,3.717-3.586,5.419-5.765
		c1.875-2.373,2.815-3.967,2.815-4.782c0-0.513-0.213-0.77-0.639-0.77c-0.637,0-1.69,0.566-3.16,1.7
		c-1.487,1.116-2.993,2.479-4.517,4.091c-1.364,1.417-2.47,2.763-3.321,4.038C160.245,53.884,159.775,54.876,159.705,55.532"/>
	<path fill="#FFFFFF" d="M192.54,48.679l0.396,0.318l-0.396,0.426c-2.232,2.674-4.118,4.64-5.658,5.896
		c-1.417,1.151-2.561,1.727-3.428,1.727c-0.975,0-1.462-0.504-1.462-1.515c0-0.991,0.852-2.426,2.552-4.304l3.932-4.25
		c1.38-1.487,2.071-2.594,2.071-3.32c0-0.23-0.089-0.406-0.267-0.531c-0.193-0.142-0.397-0.213-0.609-0.213
		c-0.957,0-2.586,1.027-4.89,3.082c-1.753,1.576-3.135,2.993-4.143,4.25c-1.241,1.541-2.241,2.852-3.002,3.932l-1.781,2.498
		l-0.024,0.025c-0.02,0.018-0.032,0.036-0.04,0.053c-0.01,0.019-0.022,0.035-0.04,0.054c-0.019,0.019-0.036,0.036-0.054,0.054
		s-0.046,0.044-0.081,0.079h-1.248l6.961-9.696c1.274-1.736,1.911-2.912,1.911-3.533c0-0.283-0.052-0.486-0.157-0.61
		c-0.125-0.124-0.303-0.187-0.532-0.187c-0.39,0-0.867,0.205-1.435,0.611c-0.585,0.443-1.398,1.213-2.443,2.311
		c-1.153,1.24-2.276,2.516-3.374,3.826l-0.158,0.159l-0.372-0.345l0.158-0.107c0.655-0.814,1.142-1.39,1.462-1.726
		c1.912-2.144,3.266-3.542,4.063-4.198c0.798-0.691,1.496-1.035,2.099-1.035c0.353,0,0.655,0.123,0.903,0.372
		c0.23,0.229,0.347,0.539,0.347,0.929c0,0.992-0.532,2.303-1.595,3.933c1.063-1.116,2.169-2.117,3.32-3.002
		c1.859-1.487,3.275-2.231,4.25-2.231c0.442,0,0.806,0.143,1.088,0.424c0.283,0.285,0.426,0.656,0.426,1.117
		c0,1.115-0.975,2.744-2.922,4.887l-3.533,3.853c-1.347,1.417-2.019,2.453-2.019,3.106c0,0.479,0.23,0.719,0.691,0.719
		c0.441,0,1.071-0.256,1.886-0.77c0.833-0.549,1.637-1.188,2.417-1.914c1.312-1.221,2.78-2.815,4.41-4.781L192.54,48.679z"/>
	<path fill="#FFFFFF" d="M200.056,36.857h-0.557c0.23-1.771,1.018-3.675,2.364-5.712c0.868-1.274,1.806-2.373,2.814-3.293
		c0.976-0.921,2.021-1.683,3.136-2.286c1.026-0.548,1.957-0.823,2.789-0.823c1.559,0,2.339,0.869,2.339,2.603
		c0,2.781-1.56,6.606-4.677,11.478c-0.813,1.293-1.705,2.594-2.669,3.904c-0.967,1.311-1.948,2.551-2.948,3.719
		c-1.002,1.168-2.011,2.285-3.029,3.348c-1.018,1.063-2.138,2.143-3.361,3.24c-2.885,2.604-4.939,3.904-6.162,3.904
		c-0.406,0-0.699-0.141-0.877-0.424c-0.213-0.266-0.317-0.628-0.317-1.09c0-0.938,0.47-2.188,1.406-3.744
		c0.903-1.471,2.081-2.904,3.533-4.305c1.47-1.398,3.021-2.604,4.65-3.611c1.629-1.011,2.824-1.516,3.586-1.516
		c0.76,0,1.142,0.363,1.142,1.09c0,0.283-0.036,0.559-0.105,0.823l0.158-0.293l1.407-1.779c5.084-6.818,7.624-11.715,7.624-14.69
		c0-1.381-0.584-2.072-1.752-2.072c-0.957,0-1.975,0.328-3.055,0.983c-1.08,0.656-2.152,1.567-3.214,2.736
		c-1.08,1.187-1.976,2.435-2.685,3.745C200.871,34.122,200.358,35.477,200.056,36.857 M189.563,55.638
		c0,0.514,0.214,0.77,0.639,0.77c0.513,0,1.372-0.432,2.577-1.301c1.257-0.92,2.594-2.09,4.011-3.506
		c1.735-1.683,3.151-3.295,4.25-4.836c1.044-1.504,1.567-2.611,1.567-3.32c0-0.426-0.179-0.637-0.531-0.637
		c-0.709,0-1.904,0.654-3.586,1.965c-1.665,1.295-3.339,2.86-5.021,4.703C190.866,52.308,189.563,54.363,189.563,55.638"/>
	<path fill="#FFFFFF" d="M205.211,47.136l4.808-5.869c0.62-1.258,1.345-2.436,2.178-3.534c0.78-1.009,1.337-1.514,1.674-1.514
		c0.143,0,0.213,0.089,0.213,0.266c0,0.265-0.398,0.947-1.195,2.045c-0.797,1.098-1.684,2.144-2.657,3.134v0.106
		c-0.017,0.019-0.026,0.037-0.026,0.054c0,0.019-0.01,0.036-0.025,0.054c-0.268,0.762-0.436,1.275-0.506,1.54
		c-0.053,0.229-0.106,0.655-0.158,1.276l-0.161,2.07c-0.176,2.639-1.098,4.959-2.762,6.961c-0.903,1.063-1.816,1.877-2.736,2.443
		c-0.957,0.585-1.878,0.877-2.762,0.877c-1.701,0-2.551-0.939-2.551-2.816c0-0.974,0.292-2,0.877-3.08
		c0.566-1.116,1.302-2.108,2.204-2.977c0.938-0.832,1.867-1.248,2.789-1.248C204.626,46.925,204.893,46.997,205.211,47.136
		 M205.29,47.801l-0.293,0.318c-0.034,0.071-0.062,0.116-0.079,0.134c-0.019,0.018-0.035,0.045-0.054,0.08
		c-0.035,0.07-0.062,0.115-0.08,0.132l-0.77,0.851l-0.744,0.877c-0.07,0.07-0.159,0.178-0.265,0.318l-0.4-0.318l0.267-0.319
		c0.337-0.372,0.575-0.646,0.718-0.823c0.124-0.16,0.248-0.301,0.373-0.425c0.424-0.46,0.733-0.824,0.93-1.089
		c-0.249-0.035-0.426-0.055-0.533-0.055c-1.008,0-2.063,0.631-3.16,1.888c-0.69,0.815-1.213,1.638-1.567,2.47
		c-0.372,0.868-0.559,1.682-0.559,2.444c0,1.487,0.62,2.231,1.86,2.231c0.815,0,1.717-0.31,2.709-0.93
		c0.92-0.585,1.701-1.363,2.337-2.338c0.603-0.832,1.118-1.975,1.541-3.428c0.301-1.274,0.549-2.363,0.745-3.266
		c0.194-1.082,0.521-2.275,0.983-3.587l-3.642,4.462c0.249,0.303,0.372,0.719,0.372,1.25c0,1.115-0.362,2.248-1.087,3.399
		c-0.709,1.169-1.631,2.098-2.763,2.789l-0.214-0.372c1.026-0.689,1.887-1.575,2.576-2.656c0.675-1.08,1.011-2.117,1.011-3.107
		C205.503,48.431,205.432,48.12,205.29,47.801"/>
	<path fill="#FFFFFF" d="M102.642,26.432l-0.074,0.058c0.987,0.383,1.992,0.392,3.015,0.029c0.632-0.226,1.146-0.506,1.539-0.838
		c0.368-0.312,0.769-0.8,1.203-1.467l0.264,0.161c-0.629,1.163-1.596,1.976-2.899,2.441c-1.154,0.412-2.271,0.373-3.351-0.116
		l-0.064,0.086c-1.305,1.275-2.735,2.191-4.296,2.746c-1.066,0.381-2.091,0.532-3.064,0.454c-0.999-0.081-1.855-0.373-2.567-0.875
		c-0.726-0.486-1.239-1.15-1.541-1.992c-0.204-0.576-0.274-1.18-0.213-1.809c0.047-0.614,0.231-1.19,0.55-1.731
		c0.308-0.513,0.711-0.919,1.214-1.215l0.113,0.232c-0.678,0.369-1.148,0.989-1.414,1.861c-0.264,0.873-0.245,1.733,0.06,2.585
		c0.198,0.557,0.514,1.042,0.949,1.45c0.43,0.402,0.955,0.71,1.575,0.926c0.604,0.199,1.27,0.288,1.995,0.263
		c0.699-0.015,1.415-0.153,2.154-0.416c1.531-0.546,2.932-1.424,4.206-2.634l0.075-0.059c-1.149-0.592-2.037-1.681-2.667-3.268
		l-0.526,0.187c-1.048,0.374-1.987,0.373-2.813-0.003c-0.836-0.374-1.434-1.061-1.79-2.063c-0.323-0.908-0.45-1.922-0.382-3.045
		c0.074-1.103,0.336-2.239,0.78-3.41c0.431-1.155,1.036-2.265,1.817-3.332c2.163-3.018,5.19-5.223,9.086-6.611
		c1.588-0.566,3.424-0.992,5.506-1.276l2.04-0.328l0.261-0.029c0.141-0.145,0.201-0.216,0.182-0.209l0.405-0.432
		c0.683-0.743,1.512-1.289,2.485-1.636c0.813-0.29,1.298-0.212,1.457,0.231c0.107,0.303-0.055,0.638-0.49,1.006
		c-0.441,0.371-1.094,0.71-1.954,1.016c-0.672,0.239-1.389,0.436-2.153,0.592c-0.381,0.487-0.73,1-1.05,1.541
		c-0.318,0.54-0.609,1.096-0.875,1.67c-0.284,0.635-0.581,1.371-0.89,2.21c-0.307,0.841-0.581,1.659-0.816,2.458l-0.89,2.842
		c-0.922,2.971-1.841,5.322-2.759,7.055C105.113,23.517,103.982,25.08,102.642,26.432 M99.67,23.16l0.026,0.071
		c0.242,0.681,0.606,1.318,1.095,1.911c0.469,0.568,0.966,0.976,1.493,1.226l0.054-0.069c1.17-1.173,2.188-2.681,3.056-4.525
		c0.399-0.877,0.702-1.581,0.907-2.112c0.188-0.492,0.525-1.488,1.015-2.983c0.592-1.926,1.099-3.464,1.519-4.615
		c0.402-1.113,0.814-2.139,1.236-3.079c0.655-1.384,1.206-2.443,1.647-3.176c0.196-0.347,0.348-0.597,0.45-0.752
		c0.075-0.122,0.153-0.246,0.236-0.371c0.084-0.125,0.167-0.251,0.25-0.376l0.155-0.234l-0.308,0.079
		c-0.151,0.023-0.356,0.058-0.616,0.109c-0.068,0.013-0.139,0.028-0.209,0.041c-0.068,0.015-0.148,0.03-0.238,0.046
		c-0.091,0.016-0.165,0.029-0.226,0.041l-1.983,0.307c-1.644,0.265-3.098,0.624-4.362,1.075c-3.422,1.221-6.157,3.249-8.201,6.088
		c-1.102,1.543-1.851,3.18-2.247,4.908c-0.389,1.716-0.348,3.236,0.123,4.559c0.223,0.624,0.545,1.11,0.968,1.46
		c0.44,0.366,0.938,0.583,1.494,0.65c0.562,0.077,1.172-0.002,1.834-0.238l0.496-0.177c-0.358-1.213-0.486-2.495-0.379-3.843
		c0.098-1.336,0.421-2.687,0.967-4.053c0.563-1.383,1.252-2.588,2.069-3.614c0.829-1.019,1.617-1.663,2.364-1.929
		c0.936-0.334,1.568-0.037,1.898,0.889c0.296,0.832,0.234,2.032-0.187,3.598c-0.413,1.533-1.113,3.125-2.103,4.776
		c-0.374,0.624-0.804,1.225-1.291,1.803c-0.489,0.569-0.979,1.059-1.473,1.469C100.648,22.572,100.138,22.919,99.67,23.16
		 M99.597,22.866c1.569-0.857,2.954-2.278,4.153-4.26c0.627-1.055,1.137-2.088,1.532-3.103c0.396-1.068,0.652-2.023,0.769-2.863
		c0.119-0.863,0.083-1.559-0.104-2.088c-0.125-0.35-0.315-0.585-0.572-0.707c-0.253-0.113-0.559-0.105-0.918,0.023
		c-0.709,0.253-1.464,0.885-2.265,1.894c-0.792,1.008-1.455,2.18-1.989,3.522c-0.529,1.297-0.84,2.606-0.934,3.927
		C99.166,20.538,99.276,21.756,99.597,22.866 M113.938,3.293c0.738-0.136,1.397-0.307,1.975-0.513
		c1.276-0.455,1.835-0.905,1.676-1.349c-0.084-0.237-0.396-0.257-0.934-0.066c-0.474,0.169-0.962,0.423-1.47,0.763
		C114.685,2.488,114.269,2.876,113.938,3.293"/>
	<path fill="#FFFFFF" d="M112.772,22.261l-0.666,0.237l3.037-9.951l0.449-1.472c0.278-0.982,0.578-1.92,0.898-2.812
		c0.287-0.837,0.66-1.84,1.118-3.005c1.247-3.225,2.222-4.962,2.921-5.211c0.18-0.064,0.34-0.062,0.482,0.004
		c0.14,0.067,0.24,0.181,0.297,0.342c0.141,0.396,0.014,1.087-0.381,2.07c-0.557,1.519-1.408,3.34-2.56,5.466
		c-0.507,0.936-0.894,1.613-1.161,2.027c-0.342,0.538-0.734,1.11-1.179,1.716l-0.147,0.212l-0.936,3.162l-0.184,0.513
		c0.34-0.718,0.736-1.413,1.189-2.086c0.612-0.943,1.15-1.497,1.612-1.662c0.521-0.185,0.874-0.018,1.06,0.501
		c0.135,0.379,0.148,0.821,0.041,1.328c-0.11,0.497-0.373,1.226-0.789,2.183c-0.204,0.5-0.391,0.943-0.556,1.333
		c-0.165,0.389-0.275,0.652-0.333,0.79c-0.378,0.944-0.595,1.528-0.654,1.751c-0.058,0.255-0.054,0.477,0.015,0.667
		c0.037,0.103,0.113,0.183,0.228,0.238c0.116,0.054,0.227,0.063,0.329,0.026c0.454-0.161,1.025-0.893,1.711-2.192
		c0.673-1.252,1.232-2.494,1.677-3.729l0.025-0.106l0.259,0.099l-0.025,0.106c-0.563,1.532-1.128,2.814-1.696,3.849
		c-0.739,1.307-1.358,2.049-1.858,2.228c-0.52,0.186-0.868,0.028-1.049-0.474c-0.131-0.368-0.141-0.801-0.03-1.298
		c0.12-0.556,0.391-1.295,0.807-2.222c0.492-1.07,0.907-2.07,1.247-3.001c0.263-0.723,0.341-1.24,0.229-1.553
		c-0.088-0.245-0.277-0.315-0.569-0.211c-0.455,0.162-1.088,0.926-1.9,2.291c-0.415,0.723-0.763,1.396-1.047,2.02
		c-0.284,0.622-0.542,1.295-0.775,2.018l-0.591,2.016c-0.108,0.294-0.207,0.601-0.294,0.921c-0.045,0.143-0.089,0.289-0.132,0.437
		C112.848,21.976,112.809,22.12,112.772,22.261 M116.169,11.031c0.276-0.387,0.746-1.15,1.403-2.292
		c0.506-0.882,0.922-1.643,1.248-2.281c0.232-0.456,0.545-1.1,0.941-1.934c0.233-0.509,0.498-1.13,0.79-1.864
		c0.428-1.1,0.585-1.811,0.47-2.133c-0.034-0.094-0.089-0.161-0.166-0.196c-0.077-0.037-0.164-0.038-0.257-0.005
		c-0.567,0.203-1.342,1.614-2.326,4.233c-0.396,1.037-0.857,2.378-1.378,4.024C116.512,9.753,116.271,10.569,116.169,11.031"/>
	<path fill="#FFFFFF" d="M125.933,12.599l0.23,0.109l-0.054,0.211c-0.58,1.571-1.262,2.928-2.049,4.071
		c-0.789,1.134-1.509,1.817-2.161,2.049c-0.396,0.142-0.769,0.114-1.116-0.082c-0.344-0.187-0.598-0.511-0.763-0.974
		c-0.499-1.4-0.013-3.309,1.457-5.729c0.427-0.717,0.896-1.359,1.408-1.925c0.521-0.569,0.966-0.919,1.336-1.051
		c0.425-0.151,0.696-0.062,0.814,0.269c0.106,0.303,0,0.762-0.323,1.378c-0.343,0.623-0.834,1.277-1.475,1.964
		c-0.694,0.738-1.42,1.368-2.17,1.892l-0.132,0.078c-0.467,1.499-0.583,2.579-0.346,3.241c0.222,0.624,0.631,0.83,1.226,0.618
		c0.388-0.139,0.839-0.502,1.354-1.091c0.482-0.556,0.984-1.299,1.506-2.231C125.175,14.494,125.594,13.561,125.933,12.599
		 M121.081,14.457c0.646-0.487,1.259-1.056,1.836-1.71c0.567-0.617,1.014-1.219,1.339-1.804c0.305-0.545,0.417-0.935,0.333-1.173
		c-0.065-0.178-0.2-0.232-0.408-0.158c-0.17,0.061-0.38,0.221-0.629,0.48c-0.223,0.24-0.448,0.522-0.672,0.847
		c-0.413,0.605-0.775,1.219-1.085,1.842C121.482,13.402,121.245,13.962,121.081,14.457"/>
</g>
</svg>
